<svg version="1.1" viewBox="0.0 0.0 600.0 371.0" fill="none" stroke="none" stroke-linecap="square" stroke-miterlimit="10" width="600" height="371" xmlns:xlink="http://www.w3.org/1999/xlink" xmlns="http://www.w3.org/2000/svg"><path fill="#ffffff" d="M0 0L600.0 0L600.0 371.0L0 371.0L0 0Z" fill-rule="nonzero"/><path stroke="#333333" stroke-width="1.0" stroke-linecap="butt" d="M45.5 300.5L581.5 300.5" fill-rule="nonzero"/><path stroke="#cccccc" stroke-width="1.0" stroke-linecap="butt" d="M45.5 217.5L581.5 217.5" fill-rule="nonzero"/><path stroke="#cccccc" stroke-width="1.0" stroke-linecap="butt" d="M45.5 134.5L581.5 134.5" fill-rule="nonzero"/><path stroke="#cccccc" stroke-width="1.0" stroke-linecap="butt" d="M45.5 51.5L581.5 51.5" fill-rule="nonzero"/><path stroke="#eeeeee" stroke-width="1.0" stroke-linecap="butt" d="M134.86667 284.45L134.86667 300.45" fill-rule="nonzero"/><path stroke="#eeeeee" stroke-width="1.0" stroke-linecap="butt" d="M134.86667 284.45L134.86667 300.45" fill-rule="nonzero"/><clipPath id="id_0"><path d="M45.55 51.916668L581.45 51.916668L581.45 300.45L45.55 300.45L45.55 51.916668Z" clip-rule="nonzero"/></clipPath><path stroke="#4285f4" stroke-width="2.0" stroke-linecap="butt" clip-path="url(#id_0)" d="M134.86667 300.45L313.5 144.70244L492.13333 78.42689" fill-rule="nonzero"/><path stroke="#ea4335" stroke-width="2.0" stroke-linecap="butt" clip-path="url(#id_0)" d="M134.86667 300.45L313.5 148.18192L492.13333 97.149734" fill-rule="nonzero"/><path stroke="#fbbc04" stroke-width="2.0" stroke-linecap="butt" clip-path="url(#id_0)" d="M134.86667 300.45L313.5 142.21712L492.13333 106.594" fill-rule="nonzero"/><path fill="#4285f4" clip-path="url(#id_0)" d="M134.86667 300.45C134.86667 300.45 134.86667 300.45 134.86667 300.45C134.86667 300.45 134.86667 300.45 134.86667 300.45C134.86667 300.45 134.86667 300.45 134.86667 300.45C134.86667 300.45 134.86667 300.45 134.86667 300.45Z" fill-rule="nonzero"/><path fill="#4285f4" clip-path="url(#id_0)" d="M313.5 144.70244C313.5 144.70244 313.5 144.70244 313.5 144.70244C313.5 144.70244 313.5 144.70244 313.5 144.70244C313.5 144.70244 313.5 144.70244 313.5 144.70244C313.5 144.70244 313.5 144.70244 313.5 144.70244Z" fill-rule="nonzero"/><path fill="#4285f4" clip-path="url(#id_0)" d="M492.13333 78.42689C492.13333 78.42689 492.13333 78.42689 492.13333 78.42689C492.13333 78.42689 492.13333 78.42689 492.13333 78.42689C492.13333 78.42689 492.13333 78.42689 492.13333 78.42689C492.13333 78.42689 492.13333 78.42689 492.13333 78.42689Z" fill-rule="nonzero"/><path fill="#ea4335" clip-path="url(#id_0)" d="M134.86667 300.45C134.86667 300.45 134.86667 300.45 134.86667 300.45C134.86667 300.45 134.86667 300.45 134.86667 300.45C134.86667 300.45 134.86667 300.45 134.86667 300.45C134.86667 300.45 134.86667 300.45 134.86667 300.45Z" fill-rule="nonzero"/><path fill="#ea4335" clip-path="url(#id_0)" d="M313.5 148.18192C313.5 148.18192 313.5 148.18192 313.5 148.18192C313.5 148.18192 313.5 148.18192 313.5 148.18192C313.5 148.18192 313.5 148.18192 313.5 148.18192C313.5 148.18192 313.5 148.18192 313.5 148.18192Z" fill-rule="nonzero"/><path fill="#ea4335" clip-path="url(#id_0)" d="M492.13333 97.149734C492.13333 97.149734 492.13333 97.149734 492.13333 97.149734C492.13333 97.149734 492.13333 97.149734 492.13333 97.149734C492.13333 97.149734 492.13333 97.149734 492.13333 97.149734C492.13333 97.149734 492.13333 97.149734 492.13333 97.149734Z" fill-rule="nonzero"/><path fill="#fbbc04" clip-path="url(#id_0)" d="M134.86667 300.45C134.86667 300.45 134.86667 300.45 134.86667 300.45C134.86667 300.45 134.86667 300.45 134.86667 300.45C134.86667 300.45 134.86667 300.45 134.86667 300.45C134.86667 300.45 134.86667 300.45 134.86667 300.45Z" fill-rule="nonzero"/><path fill="#fbbc04" clip-path="url(#id_0)" d="M313.5 142.21712C313.5 142.21712 313.5 142.21712 313.5 142.21712C313.5 142.21712 313.5 142.21712 313.5 142.21712C313.5 142.21712 313.5 142.21712 313.5 142.21712C313.5 142.21712 313.5 142.21712 313.5 142.21712Z" fill-rule="nonzero"/><path fill="#fbbc04" clip-path="url(#id_0)" d="M492.13333 106.594C492.13333 106.594 492.13333 106.594 492.13333 106.594C492.13333 106.594 492.13333 106.594 492.13333 106.594C492.13333 106.594 492.13333 106.594 492.13333 106.594C492.13333 106.594 492.13333 106.594 492.13333 106.594Z" fill-rule="nonzero"/><path stroke="#ffffff" stroke-width="3.0" stroke-linejoin="round" stroke-linecap="round" d="M312.62964 133.50032Q312.3015 133.90657 311.81714 134.15657Q311.3484 134.39095 310.7859 134.39095Q310.0515 134.39095 309.50464 134.03157Q308.95776 133.6722 308.6609 133.01595Q308.364 132.34407 308.364 131.5472Q308.364 130.70345 308.6765 130.01595Q309.00464 129.32845 309.5984 128.96907Q310.20776 128.59407 311.00464 128.59407Q312.27026 128.59407 312.989 129.5472Q313.7234 130.50032 313.7234 132.12532L313.7234 132.43782Q313.7234 134.93782 312.739 136.07845Q311.75464 137.21907 309.77026 137.25032L309.5515 137.25032L309.5515 136.34407L309.7859 136.34407Q311.12964 136.31282 311.8484 135.64095Q312.56714 134.96907 312.62964 133.50032ZM310.95776 133.50032Q311.50464 133.50032 311.95776 133.1722Q312.4265 132.82845 312.64526 132.34407L312.64526 131.90657Q312.64526 130.84407 312.1765 130.1722Q311.70776 129.50032 311.00464 129.50032Q310.2859 129.50032 309.8484 130.0472Q309.4265 130.59407 309.4265 131.50032Q309.4265 132.37532 309.83276 132.93782Q310.25464 133.50032 310.95776 133.50032ZM320.0515 134.39095L321.239 134.39095L321.239 135.26595L320.0515 135.26595L320.0515 137.25032L318.9734 137.25032L318.9734 135.26595L315.08276 135.26595L315.08276 134.62532L318.89526 128.71907L320.0515 128.71907L320.0515 134.39095ZM316.31714 134.39095L318.9734 134.39095L318.9734 130.20345L318.83276 130.43782L316.31714 134.39095Z" fill-rule="nonzero"/><path fill="#4285f4" d="M312.62964 133.50032Q312.3015 133.90657 311.81714 134.15657Q311.3484 134.39095 310.7859 134.39095Q310.0515 134.39095 309.50464 134.03157Q308.95776 133.6722 308.6609 133.01595Q308.364 132.34407 308.364 131.5472Q308.364 130.70345 308.6765 130.01595Q309.00464 129.32845 309.5984 128.96907Q310.20776 128.59407 311.00464 128.59407Q312.27026 128.59407 312.989 129.5472Q313.7234 130.50032 313.7234 132.12532L313.7234 132.43782Q313.7234 134.93782 312.739 136.07845Q311.75464 137.21907 309.77026 137.25032L309.5515 137.25032L309.5515 136.34407L309.7859 136.34407Q311.12964 136.31282 311.8484 135.64095Q312.56714 134.96907 312.62964 133.50032ZM310.95776 133.50032Q311.50464 133.50032 311.95776 133.1722Q312.4265 132.82845 312.64526 132.34407L312.64526 131.90657Q312.64526 130.84407 312.1765 130.1722Q311.70776 129.50032 311.00464 129.50032Q310.2859 129.50032 309.8484 130.0472Q309.4265 130.59407 309.4265 131.50032Q309.4265 132.37532 309.83276 132.93782Q310.25464 133.50032 310.95776 133.50032ZM320.0515 134.39095L321.239 134.39095L321.239 135.26595L320.0515 135.26595L320.0515 137.25032L318.9734 137.25032L318.9734 135.26595L315.08276 135.26595L315.08276 134.62532L318.89526 128.71907L320.0515 128.71907L320.0515 134.39095ZM316.31714 134.39095L318.9734 134.39095L318.9734 130.20345L318.83276 130.43782L316.31714 134.39095Z" fill-rule="nonzero"/><path stroke="#ffffff" stroke-width="3.0" stroke-linejoin="round" stroke-linecap="round" d="M487.30524 71.94737L486.2271 71.94737L486.2271 64.72862L484.0396 65.5255L484.0396 64.54112L487.149 63.369244L487.30524 63.369244L487.30524 71.94737ZM492.32086 67.1505L493.13336 67.1505Q493.9146 67.13487 494.3521 66.74425Q494.7896 66.35362 494.7896 65.68175Q494.7896 64.18175 493.2896 64.18175Q492.5865 64.18175 492.1646 64.588Q491.75836 64.99425 491.75836 65.6505L490.6646 65.6505Q490.6646 64.63487 491.399 63.962994Q492.149 63.29112 493.2896 63.29112Q494.49274 63.29112 495.18024 63.931744Q495.86774 64.57237 495.86774 65.713Q495.86774 66.2755 495.50836 66.79112Q495.149 67.30675 494.524 67.57237Q495.2271 67.79112 495.6021 68.30675Q495.99274 68.82237 495.99274 69.57237Q495.99274 70.713 495.24274 71.4005Q494.49274 72.07237 493.2896 72.07237Q492.1021 72.07237 491.3365 71.41612Q490.5865 70.75987 490.5865 69.69737L491.68024 69.69737Q491.68024 70.36925 492.11774 70.7755Q492.55524 71.18175 493.30524 71.18175Q494.0865 71.18175 494.49274 70.7755Q494.9146 70.35362 494.9146 69.588Q494.9146 68.85362 494.4615 68.463Q494.00836 68.05675 493.13336 68.04112L492.32086 68.04112L492.32086 67.1505ZM502.32086 69.088L503.50836 69.088L503.50836 69.963L502.32086 69.963L502.32086 71.94737L501.24274 71.94737L501.24274 69.963L497.3521 69.963L497.3521 69.32237L501.1646 63.41612L502.32086 63.41612L502.32086 69.088ZM498.5865 69.088L501.24274 69.088L501.24274 64.9005L501.1021 65.13487L498.5865 69.088Z" fill-rule="nonzero"/><path fill="#4285f4" d="M487.30524 71.94737L486.2271 71.94737L486.2271 64.72862L484.0396 65.5255L484.0396 64.54112L487.149 63.369247L487.30524 63.369247L487.30524 71.94737ZM492.32086 67.1505L493.13336 67.1505Q493.9146 67.13487 494.3521 66.74425Q494.7896 66.35362 494.7896 65.68175Q494.7896 64.18175 493.2896 64.18175Q492.5865 64.18175 492.1646 64.588Q491.75836 64.99425 491.75836 65.6505L490.6646 65.6505Q490.6646 64.63487 491.399 63.962997Q492.149 63.291122 493.2896 63.291122Q494.49274 63.291122 495.18024 63.931747Q495.86774 64.57237 495.86774 65.713Q495.86774 66.2755 495.50836 66.79112Q495.149 67.30675 494.524 67.57237Q495.2271 67.79112 495.6021 68.30675Q495.99274 68.82237 495.99274 69.57237Q495.99274 70.713 495.24274 71.4005Q494.49274 72.07237 493.2896 72.07237Q492.1021 72.07237 491.3365 71.41612Q490.5865 70.75987 490.5865 69.69737L491.68024 69.69737Q491.68024 70.36925 492.11774 70.7755Q492.55524 71.18175 493.30524 71.18175Q494.0865 71.18175 494.49274 70.7755Q494.9146 70.35362 494.9146 69.588Q494.9146 68.85362 494.4615 68.463Q494.00836 68.05675 493.13336 68.04112L492.32086 68.04112L492.32086 67.1505ZM502.32086 69.088L503.50836 69.088L503.50836 69.963L502.32086 69.963L502.32086 71.94737L501.24274 71.94737L501.24274 69.963L497.3521 69.963L497.3521 69.32237L501.1646 63.416122L502.32086 63.416122L502.32086 69.088ZM498.5865 69.088L501.24274 69.088L501.24274 64.9005L501.1021 65.13487L498.5865 69.088Z" fill-rule="nonzero"/><path stroke="#ffffff" stroke-width="3.0" stroke-linejoin="round" stroke-linecap="round" d="M137.42917 278.8094Q137.42917 280.71564 136.77292 281.65314Q136.1323 282.575 134.74167 282.575Q133.3823 282.575 132.72604 281.66876Q132.0698 280.7625 132.03854 278.95L132.03854 277.5125Q132.03854 275.6219 132.67917 274.71564Q133.33542 273.79376 134.72604 273.79376Q136.10104 273.79376 136.7573 274.6844Q137.41354 275.5594 137.42917 277.40314L137.42917 278.8094ZM136.33542 277.325Q136.33542 275.95 135.9448 275.325Q135.5698 274.6844 134.72604 274.6844Q133.89792 274.6844 133.5073 275.325Q133.1323 275.95 133.1323 277.2469L133.1323 278.98126Q133.1323 280.35626 133.52292 281.02814Q133.92917 281.6844 134.74167 281.6844Q135.53854 281.6844 135.92917 281.0594Q136.3198 280.4344 136.33542 279.10626L136.33542 277.325Z" fill-rule="nonzero"/><path fill="#ea4335" d="M137.42917 278.8094Q137.42917 280.71564 136.77292 281.65314Q136.1323 282.575 134.74167 282.575Q133.3823 282.575 132.72604 281.66876Q132.0698 280.7625 132.03854 278.95L132.03854 277.5125Q132.03854 275.6219 132.67917 274.71564Q133.33542 273.79376 134.72604 273.79376Q136.10104 273.79376 136.7573 274.6844Q137.41354 275.5594 137.42917 277.40314L137.42917 278.8094ZM136.33542 277.325Q136.33542 275.95 135.9448 275.325Q135.5698 274.6844 134.72604 274.6844Q133.89792 274.6844 133.5073 275.325Q133.1323 275.95 133.1323 277.2469L133.1323 278.98126Q133.1323 280.35626 133.52292 281.02814Q133.92917 281.6844 134.74167 281.6844Q135.53854 281.6844 135.92917 281.0594Q136.3198 280.4344 136.33542 279.10626L136.33542 277.325Z" fill-rule="nonzero"/><path stroke="#ffffff" stroke-width="3.0" stroke-linejoin="round" stroke-linecap="round" d="M312.67953 170.43744Q312.3514 170.84369 311.86703 171.09369Q311.3983 171.32806 310.8358 171.32806Q310.1014 171.32806 309.55453 170.96869Q309.00766 170.60931 308.7108 169.95306Q308.4139 169.28119 308.4139 168.48431Q308.4139 167.64056 308.7264 166.95306Q309.05453 166.26556 309.6483 165.90619Q310.25766 165.53119 311.05453 165.53119Q312.32016 165.53119 313.0389 166.48431Q313.7733 167.43744 313.7733 169.06244L313.7733 169.37494Q313.7733 171.87494 312.7889 173.01556Q311.80453 174.15619 309.82016 174.18744L309.6014 174.18744L309.6014 173.28119L309.8358 173.28119Q311.17953 173.24994 311.8983 172.57806Q312.61703 171.90619 312.67953 170.43744ZM311.00766 170.43744Q311.55453 170.43744 312.00766 170.10931Q312.4764 169.76556 312.69516 169.28119L312.69516 168.84369Q312.69516 167.78119 312.2264 167.10931Q311.75766 166.43744 311.05453 166.43744Q310.3358 166.43744 309.8983 166.98431Q309.4764 167.53119 309.4764 168.43744Q309.4764 169.31244 309.88266 169.87494Q310.30453 170.43744 311.00766 170.43744ZM319.0858 174.18744L318.00766 174.18744L318.00766 166.96869L315.82016 167.76556L315.82016 166.78119L318.92953 165.60931L319.0858 165.60931L319.0858 174.18744ZM322.6639 173.62494Q322.6639 173.34369 322.82016 173.15619Q322.99203 172.96869 323.32016 172.96869Q323.6639 172.96869 323.8358 173.15619Q324.00766 173.34369 324.00766 173.62494Q324.00766 173.89056 323.8358 174.07806Q323.6639 174.24994 323.32016 174.24994Q322.99203 174.24994 322.82016 174.07806Q322.6639 173.89056 322.6639 173.62494ZM329.67953 170.43744Q329.3514 170.84369 328.86703 171.09369Q328.3983 171.32806 327.8358 171.32806Q327.1014 171.32806 326.55453 170.96869Q326.00766 170.60931 325.7108 169.95306Q325.4139 169.28119 325.4139 168.48431Q325.4139 167.64056 325.7264 166.95306Q326.05453 166.26556 326.6483 165.90619Q327.25766 165.53119 328.05453 165.53119Q329.32016 165.53119 330.0389 166.48431Q330.7733 167.43744 330.7733 169.06244L330.7733 169.37494Q330.7733 171.87494 329.7889 173.01556Q328.80453 174.15619 326.82016 174.18744L326.6014 174.18744L326.6014 173.28119L326.8358 173.28119Q328.17953 173.24994 328.8983 172.57806Q329.61703 171.90619 329.67953 170.43744ZM328.00766 170.43744Q328.55453 170.43744 329.00766 170.10931Q329.4764 169.76556 329.69516 169.28119L329.69516 168.84369Q329.69516 167.78119 329.2264 167.10931Q328.75766 166.43744 328.05453 166.43744Q327.3358 166.43744 326.8983 166.98431Q326.4764 167.53119 326.4764 168.43744Q326.4764 169.31244 326.88266 169.87494Q327.30453 170.43744 328.00766 170.43744Z" fill-rule="nonzero"/><path fill="#ea4335" d="M312.67953 170.43744Q312.3514 170.84369 311.86703 171.09369Q311.3983 171.32806 310.8358 171.32806Q310.1014 171.32806 309.55453 170.96869Q309.00766 170.60931 308.7108 169.95306Q308.4139 169.28119 308.4139 168.48431Q308.4139 167.64056 308.7264 166.95306Q309.05453 166.26556 309.6483 165.90619Q310.25766 165.53119 311.05453 165.53119Q312.32016 165.53119 313.0389 166.48431Q313.7733 167.43744 313.7733 169.06244L313.7733 169.37494Q313.7733 171.87494 312.7889 173.01556Q311.80453 174.15619 309.82016 174.18744L309.6014 174.18744L309.6014 173.28119L309.8358 173.28119Q311.17953 173.24994 311.8983 172.57806Q312.61703 171.90619 312.67953 170.43744ZM311.00766 170.43744Q311.55453 170.43744 312.00766 170.10931Q312.4764 169.76556 312.69516 169.28119L312.69516 168.84369Q312.69516 167.78119 312.2264 167.10931Q311.75766 166.43744 311.05453 166.43744Q310.3358 166.43744 309.8983 166.98431Q309.4764 167.53119 309.4764 168.43744Q309.4764 169.31244 309.88266 169.87494Q310.30453 170.43744 311.00766 170.43744ZM319.0858 174.18744L318.00766 174.18744L318.00766 166.96869L315.82016 167.76556L315.82016 166.78119L318.92953 165.60931L319.0858 165.60931L319.0858 174.18744ZM322.6639 173.62494Q322.6639 173.34369 322.82016 173.15619Q322.99203 172.96869 323.32016 172.96869Q323.6639 172.96869 323.8358 173.15619Q324.00766 173.34369 324.00766 173.62494Q324.00766 173.89056 323.8358 174.07806Q323.6639 174.24994 323.32016 174.24994Q322.99203 174.24994 322.82016 174.07806Q322.6639 173.89056 322.6639 173.62494ZM329.67953 170.43744Q329.3514 170.84369 328.86703 171.09369Q328.3983 171.32806 327.8358 171.32806Q327.1014 171.32806 326.55453 170.96869Q326.00766 170.60931 325.7108 169.95306Q325.4139 169.28119 325.4139 168.48431Q325.4139 167.64056 325.7264 166.95306Q326.05453 166.26556 326.6483 165.90619Q327.25766 165.53119 328.05453 165.53119Q329.32016 165.53119 330.0389 166.48431Q330.7733 167.43744 330.7733 169.06244L330.7733 169.37494Q330.7733 171.87494 329.7889 173.01556Q328.80453 174.15619 326.82016 174.18744L326.6014 174.18744L326.6014 173.28119L326.8358 173.28119Q328.17953 173.24994 328.8983 172.57806Q329.61703 171.90619 329.67953 170.43744ZM328.00766 170.43744Q328.55453 170.43744 329.00766 170.10931Q329.4764 169.76556 329.69516 169.28119L329.69516 168.84369Q329.69516 167.78119 329.2264 167.10931Q328.75766 166.43744 328.05453 166.43744Q327.3358 166.43744 326.8983 166.98431Q326.4764 167.53119 326.4764 168.43744Q326.4764 169.31244 326.88266 169.87494Q327.30453 170.43744 328.00766 170.43744Z" fill-rule="nonzero"/><path stroke="#ffffff" stroke-width="3.0" stroke-linejoin="round" stroke-linecap="round" d="M487.35516 97.8675L486.27704 97.8675L486.27704 90.64875L484.08954 91.445625L484.08954 90.46125L487.1989 89.289375L487.35516 89.289375L487.35516 97.8675ZM496.3864 97.8675L490.79266 97.8675L490.79266 97.08625L493.7458 93.805Q494.40204 93.055 494.65204 92.601875Q494.90204 92.133125 494.90204 91.633125Q494.90204 90.96125 494.4958 90.539375Q494.10516 90.101875 493.41766 90.101875Q492.6208 90.101875 492.16766 90.570625Q491.71454 91.02375 491.71454 91.851875L490.6364 91.851875Q490.6364 90.664375 491.3864 89.945625Q492.15204 89.21125 493.41766 89.21125Q494.6208 89.21125 495.3083 89.83625Q495.9958 90.46125 495.9958 91.508125Q495.9958 92.758125 494.3864 94.508125L492.10516 96.976875L496.3864 96.976875L496.3864 97.8675ZM503.3864 97.8675L497.79266 97.8675L497.79266 97.08625L500.7458 93.805Q501.40204 93.055 501.65204 92.601875Q501.90204 92.133125 501.90204 91.633125Q501.90204 90.96125 501.4958 90.539375Q501.10516 90.101875 500.41766 90.101875Q499.6208 90.101875 499.16766 90.570625Q498.71454 91.02375 498.71454 91.851875L497.6364 91.851875Q497.6364 90.664375 498.3864 89.945625Q499.15204 89.21125 500.41766 89.21125Q501.6208 89.21125 502.3083 89.83625Q502.9958 90.46125 502.9958 91.508125Q502.9958 92.758125 501.3864 94.508125L499.10516 96.976875L503.3864 96.976875L503.3864 97.8675ZM504.9333 97.305Q504.9333 97.02375 505.08954 96.83625Q505.2614 96.64875 505.58954 96.64875Q505.9333 96.64875 506.10516 96.83625Q506.27704 97.02375 506.27704 97.305Q506.27704 97.570625 506.10516 97.758125Q505.9333 97.93 505.58954 97.93Q505.2614 97.93 505.08954 97.758125Q504.9333 97.570625 504.9333 97.305ZM513.3083 89.945625L509.77704 97.8675L508.6364 97.8675L512.15204 90.226875L507.54266 90.226875L507.54266 89.33625L513.3083 89.33625L513.3083 89.945625Z" fill-rule="nonzero"/><path fill="#ea4335" d="M487.35516 97.8675L486.27704 97.8675L486.27704 90.64875L484.08954 91.445625L484.08954 90.46125L487.1989 89.289375L487.35516 89.289375L487.35516 97.8675ZM496.3864 97.8675L490.79266 97.8675L490.79266 97.08625L493.7458 93.805Q494.40204 93.055 494.65204 92.601875Q494.90204 92.133125 494.90204 91.633125Q494.90204 90.96125 494.4958 90.539375Q494.10516 90.101875 493.41766 90.101875Q492.6208 90.101875 492.16766 90.570625Q491.71454 91.02375 491.71454 91.851875L490.6364 91.851875Q490.6364 90.664375 491.3864 89.945625Q492.15204 89.21125 493.41766 89.21125Q494.6208 89.21125 495.3083 89.83625Q495.9958 90.46125 495.9958 91.508125Q495.9958 92.758125 494.3864 94.508125L492.10516 96.976875L496.3864 96.976875L496.3864 97.8675ZM503.3864 97.8675L497.79266 97.8675L497.79266 97.08625L500.7458 93.805Q501.40204 93.055 501.65204 92.601875Q501.90204 92.133125 501.90204 91.633125Q501.90204 90.96125 501.4958 90.539375Q501.10516 90.101875 500.41766 90.101875Q499.6208 90.101875 499.16766 90.570625Q498.71454 91.02375 498.71454 91.851875L497.6364 91.851875Q497.6364 90.664375 498.3864 89.945625Q499.15204 89.21125 500.41766 89.21125Q501.6208 89.21125 502.3083 89.83625Q502.9958 90.46125 502.9958 91.508125Q502.9958 92.758125 501.3864 94.508125L499.10516 96.976875L503.3864 96.976875L503.3864 97.8675ZM504.9333 97.305Q504.9333 97.02375 505.08954 96.83625Q505.2614 96.64875 505.58954 96.64875Q505.9333 96.64875 506.10516 96.83625Q506.27704 97.02375 506.27704 97.305Q506.27704 97.570625 506.10516 97.758125Q505.9333 97.93 505.58954 97.93Q505.2614 97.93 505.08954 97.758125Q504.9333 97.570625 504.9333 97.305ZM513.3083 89.945625L509.77704 97.8675L508.6364 97.8675L512.15204 90.226875L507.54266 90.226875L507.54266 89.33625L513.3083 89.33625L513.3083 89.945625Z" fill-rule="nonzero"/><path stroke="#ffffff" stroke-width="3.0" stroke-linejoin="round" stroke-linecap="round" d="M137.42917 278.8094Q137.42917 280.71564 136.77292 281.65314Q136.1323 282.575 134.74167 282.575Q133.3823 282.575 132.72604 281.66876Q132.0698 280.7625 132.03854 278.95L132.03854 277.5125Q132.03854 275.6219 132.67917 274.71564Q133.33542 273.79376 134.72604 273.79376Q136.10104 273.79376 136.7573 274.6844Q137.41354 275.5594 137.42917 277.40314L137.42917 278.8094ZM136.33542 277.325Q136.33542 275.95 135.9448 275.325Q135.5698 274.6844 134.72604 274.6844Q133.89792 274.6844 133.5073 275.325Q133.1323 275.95 133.1323 277.2469L133.1323 278.98126Q133.1323 280.35626 133.52292 281.02814Q133.92917 281.6844 134.74167 281.6844Q135.53854 281.6844 135.92917 281.0594Q136.3198 280.4344 136.33542 279.10626L136.33542 277.325Z" fill-rule="nonzero"/><path fill="#fbbc04" d="M137.42917 278.8094Q137.42917 280.71564 136.77292 281.65314Q136.1323 282.575 134.74167 282.575Q133.3823 282.575 132.72604 281.66876Q132.0698 280.7625 132.03854 278.95L132.03854 277.5125Q132.03854 275.6219 132.67917 274.71564Q133.33542 273.79376 134.72604 273.79376Q136.10104 273.79376 136.7573 274.6844Q137.41354 275.5594 137.42917 277.40314L137.42917 278.8094ZM136.33542 277.325Q136.33542 275.95 135.9448 275.325Q135.5698 274.6844 134.72604 274.6844Q133.89792 274.6844 133.5073 275.325Q133.1323 275.95 133.1323 277.2469L133.1323 278.98126Q133.1323 280.35626 133.52292 281.02814Q133.92917 281.6844 134.74167 281.6844Q135.53854 281.6844 135.92917 281.0594Q136.3198 280.4344 136.33542 279.10626L136.33542 277.325Z" fill-rule="nonzero"/><path stroke="#ffffff" stroke-width="3.0" stroke-linejoin="round" stroke-linecap="round" d="M307.68848 111.951904Q307.36035 112.358154 306.87598 112.608154Q306.40723 112.84253 305.84473 112.84253Q305.11035 112.84253 304.56348 112.483154Q304.0166 112.12378 303.71973 111.46753Q303.42285 110.795654 303.42285 109.99878Q303.42285 109.15503 303.73535 108.46753Q304.06348 107.78003 304.65723 107.420654Q305.2666 107.045654 306.06348 107.045654Q307.3291 107.045654 308.04785 107.99878Q308.78223 108.951904 308.78223 110.576904L308.78223 110.889404Q308.78223 113.389404 307.79785 114.53003Q306.81348 115.670654 304.8291 115.701904L304.61035 115.701904L304.61035 114.795654L304.84473 114.795654Q306.18848 114.764404 306.90723 114.09253Q307.62598 113.420654 307.68848 111.951904ZM306.0166 111.951904Q306.56348 111.951904 307.0166 111.62378Q307.48535 111.28003 307.7041 110.795654L307.7041 110.358154Q307.7041 109.295654 307.23535 108.62378Q306.7666 107.951904 306.06348 107.951904Q305.34473 107.951904 304.90723 108.49878Q304.48535 109.045654 304.48535 109.951904Q304.48535 110.826904 304.8916 111.389404Q305.31348 111.951904 306.0166 111.951904ZM311.03223 111.420654L311.46973 107.170654L315.84473 107.170654L315.84473 108.170654L312.3916 108.170654L312.12598 110.49878Q312.7666 110.12378 313.56348 110.12378Q314.71973 110.12378 315.40723 110.90503Q316.09473 111.670654 316.09473 112.983154Q316.09473 114.295654 315.37598 115.06128Q314.67285 115.826904 313.3916 115.826904Q312.2666 115.826904 311.54785 115.201904Q310.8291 114.56128 310.73535 113.451904L311.75098 113.451904Q311.86035 114.18628 312.28223 114.56128Q312.7041 114.93628 313.3916 114.93628Q314.1416 114.93628 314.5791 114.420654Q315.0166 113.90503 315.0166 112.99878Q315.0166 112.139404 314.54785 111.62378Q314.0791 111.108154 313.29785 111.108154Q312.59473 111.108154 312.18848 111.40503L311.90723 111.639404L311.03223 111.420654ZM317.67285 115.139404Q317.67285 114.858154 317.8291 114.670654Q318.00098 114.483154 318.3291 114.483154Q318.67285 114.483154 318.84473 114.670654Q319.0166 114.858154 319.0166 115.139404Q319.0166 115.40503 318.84473 115.59253Q318.67285 115.764404 318.3291 115.764404Q318.00098 115.764404 317.8291 115.59253Q317.67285 115.40503 317.67285 115.139404ZM321.03223 111.420654L321.46973 107.170654L325.84473 107.170654L325.84473 108.170654L322.3916 108.170654L322.12598 110.49878Q322.7666 110.12378 323.56348 110.12378Q324.71973 110.12378 325.40723 110.90503Q326.09473 111.670654 326.09473 112.983154Q326.09473 114.295654 325.37598 115.06128Q324.67285 115.826904 323.3916 115.826904Q322.2666 115.826904 321.54785 115.201904Q320.8291 114.56128 320.73535 113.451904L321.75098 113.451904Q321.86035 114.18628 322.28223 114.56128Q322.7041 114.93628 323.3916 114.93628Q324.1416 114.93628 324.5791 114.420654Q325.0166 113.90503 325.0166 112.99878Q325.0166 112.139404 324.54785 111.62378Q324.0791 111.108154 323.29785 111.108154Q322.59473 111.108154 322.18848 111.40503L321.90723 111.639404L321.03223 111.420654Z" fill-rule="nonzero"/><path fill="#fbbc04" d="M307.68848 111.951904Q307.36035 112.358154 306.87598 112.608154Q306.40723 112.84253 305.84473 112.84253Q305.11035 112.84253 304.56348 112.483154Q304.0166 112.12378 303.71973 111.46753Q303.42285 110.795654 303.42285 109.99878Q303.42285 109.15503 303.73535 108.46753Q304.06348 107.78003 304.65723 107.420654Q305.2666 107.045654 306.06348 107.045654Q307.3291 107.045654 308.04785 107.99878Q308.78223 108.951904 308.78223 110.576904L308.78223 110.889404Q308.78223 113.389404 307.79785 114.53003Q306.81348 115.670654 304.8291 115.701904L304.61035 115.701904L304.61035 114.795654L304.84473 114.795654Q306.18848 114.764404 306.90723 114.09253Q307.62598 113.420654 307.68848 111.951904ZM306.0166 111.951904Q306.56348 111.951904 307.0166 111.62378Q307.48535 111.28003 307.7041 110.795654L307.7041 110.358154Q307.7041 109.295654 307.23535 108.62378Q306.7666 107.951904 306.06348 107.951904Q305.34473 107.951904 304.90723 108.49878Q304.48535 109.045654 304.48535 109.951904Q304.48535 110.826904 304.8916 111.389404Q305.31348 111.951904 306.0166 111.951904ZM311.03223 111.420654L311.46973 107.170654L315.84473 107.170654L315.84473 108.170654L312.3916 108.170654L312.12598 110.49878Q312.7666 110.12378 313.56348 110.12378Q314.71973 110.12378 315.40723 110.90503Q316.09473 111.670654 316.09473 112.983154Q316.09473 114.295654 315.37598 115.06128Q314.67285 115.826904 313.3916 115.826904Q312.2666 115.826904 311.54785 115.201904Q310.8291 114.56128 310.73535 113.451904L311.75098 113.451904Q311.86035 114.18628 312.28223 114.56128Q312.7041 114.93628 313.3916 114.93628Q314.1416 114.93628 314.5791 114.420654Q315.0166 113.90503 315.0166 112.99878Q315.0166 112.139404 314.54785 111.62378Q314.0791 111.108154 313.29785 111.108154Q312.59473 111.108154 312.18848 111.40503L311.90723 111.639404L311.03223 111.420654ZM317.67285 115.139404Q317.67285 114.858154 317.8291 114.670654Q318.00098 114.483154 318.3291 114.483154Q318.67285 114.483154 318.84473 114.670654Q319.0166 114.858154 319.0166 115.139404Q319.0166 115.40503 318.84473 115.59253Q318.67285 115.764404 318.3291 115.764404Q318.00098 115.764404 317.8291 115.59253Q317.67285 115.40503 317.67285 115.139404ZM321.03223 111.420654L321.46973 107.170654L325.84473 107.170654L325.84473 108.170654L322.3916 108.170654L322.12598 110.49878Q322.7666 110.12378 323.56348 110.12378Q324.71973 110.12378 325.40723 110.90503Q326.09473 111.670654 326.09473 112.983154Q326.09473 114.295654 325.37598 115.06128Q324.67285 115.826904 323.3916 115.826904Q322.2666 115.826904 321.54785 115.201904Q320.8291 114.56128 320.73535 113.451904L321.75098 113.451904Q321.86035 114.18628 322.28223 114.56128Q322.7041 114.93628 323.3916 114.93628Q324.1416 114.93628 324.5791 114.420654Q325.0166 113.90503 325.0166 112.99878Q325.0166 112.139404 324.54785 111.62378Q324.0791 111.108154 323.29785 111.108154Q322.59473 111.108154 322.18848 111.40503L321.90723 111.639404L321.03223 111.420654Z" fill-rule="nonzero"/><path stroke="#ffffff" stroke-width="3.0" stroke-linejoin="round" stroke-linecap="round" d="M491.2981 124.81868L490.21997 124.81868L490.21997 117.59993L488.03247 118.396805L488.03247 117.41243L491.14185 116.240555L491.2981 116.240555L491.2981 124.81868ZM498.2981 124.81868L497.21997 124.81868L497.21997 117.59993L495.03247 118.396805L495.03247 117.41243L498.14185 116.240555L498.2981 116.240555L498.2981 124.81868ZM507.25122 116.896805L503.71997 124.81868L502.57935 124.81868L506.09497 117.178055L501.4856 117.178055L501.4856 116.28743L507.25122 116.28743L507.25122 116.896805Z" fill-rule="nonzero"/><path fill="#fbbc04" d="M491.2981 124.81868L490.21997 124.81868L490.21997 117.59993L488.03247 118.396805L488.03247 117.41243L491.14185 116.240555L491.2981 116.240555L491.2981 124.81868ZM498.2981 124.81868L497.21997 124.81868L497.21997 117.59993L495.03247 118.396805L495.03247 117.41243L498.14185 116.240555L498.2981 116.240555L498.2981 124.81868ZM507.25122 116.896805L503.71997 124.81868L502.57935 124.81868L506.09497 117.178055L501.4856 117.178055L501.4856 116.28743L507.25122 116.28743L507.25122 116.896805Z" fill-rule="nonzero"/><path fill="#000000" d="M263.92188 349.45L263.92188 340.85626L267.17188 340.85626Q268.01562 340.85626 268.46875 340.9344Q269.10938 341.04376 269.53125 341.34064Q269.96875 341.6375 270.21875 342.16876Q270.48438 342.7 270.48438 343.34064Q270.48438 344.4344 269.78125 345.2Q269.09375 345.95 267.26562 345.95L265.0625 345.95L265.0625 349.45L263.92188 349.45ZM265.0625 344.95L267.28125 344.95Q268.39062 344.95 268.84375 344.54376Q269.3125 344.1219 269.3125 343.3719Q269.3125 342.84064 269.03125 342.46564Q268.76562 342.075 268.32812 341.95Q268.03125 341.8719 267.26562 341.8719L265.0625 341.8719L265.0625 344.95ZM275.875 349.45L275.875 348.52814Q275.14062 349.59064 273.89062 349.59064Q273.34375 349.59064 272.85938 349.3875Q272.39062 349.16876 272.15625 348.85626Q271.92188 348.52814 271.82812 348.0594Q271.76562 347.7625 271.76562 347.075L271.76562 343.23126L272.82812 343.23126L272.82812 346.6844Q272.82812 347.4969 272.89062 347.79376Q272.98438 348.2 273.29688 348.45Q273.625 348.6844 274.10938 348.6844Q274.57812 348.6844 274.98438 348.45Q275.40625 348.2 275.57812 347.77814Q275.76562 347.35626 275.76562 346.5594L275.76562 343.23126L276.8125 343.23126L276.8125 349.45L275.875 349.45ZM278.79688 349.45L278.79688 343.23126L279.73438 343.23126L279.73438 344.10626Q280.42188 343.09064 281.71875 343.09064Q282.28125 343.09064 282.75 343.29376Q283.23438 343.4969 283.46875 343.825Q283.70312 344.15314 283.79688 344.59064Q283.84375 344.8875 283.84375 345.6219L283.84375 349.45L282.79688 349.45L282.79688 345.66876Q282.79688 345.0125 282.67188 344.7Q282.54688 344.3875 282.23438 344.2Q281.92188 343.9969 281.5 343.9969Q280.82812 343.9969 280.32812 344.4344Q279.84375 344.85626 279.84375 346.04376L279.84375 349.45L278.79688 349.45ZM288.09375 348.5125L288.25 349.4344Q287.79688 349.52814 287.45312 349.52814Q286.875 349.52814 286.5625 349.35626Q286.25 349.16876 286.10938 348.8719Q285.98438 348.575 285.98438 347.6219L285.98438 344.04376L285.21875 344.04376L285.21875 343.23126L285.98438 343.23126L285.98438 341.6844L287.03125 341.0594L287.03125 343.23126L288.09375 343.23126L288.09375 344.04376L287.03125 344.04376L287.03125 347.6844Q287.03125 348.1375 287.07812 348.2625Q287.14062 348.3875 287.26562 348.46564Q287.39062 348.54376 287.625 348.54376Q287.8125 348.54376 288.09375 348.5125ZM288.40625 346.34064Q288.40625 344.60626 289.35938 343.77814Q290.15625 343.09064 291.3125 343.09064Q292.59375 343.09064 293.40625 343.9344Q294.23438 344.7625 294.23438 346.2469Q294.23438 347.45 293.875 348.1375Q293.51562 348.825 292.8125 349.21564Q292.125 349.59064 291.3125 349.59064Q290.01562 349.59064 289.20312 348.7625Q288.40625 347.91876 288.40625 346.34064ZM289.48438 346.34064Q289.48438 347.52814 290.0 348.1219Q290.53125 348.71564 291.3125 348.71564Q292.10938 348.71564 292.625 348.1219Q293.14062 347.52814 293.14062 346.3094Q293.14062 345.15314 292.60938 344.5594Q292.09375 343.96564 291.3125 343.96564Q290.53125 343.96564 290.0 344.5594Q289.48438 345.1375 289.48438 346.34064ZM302.82812 349.45L302.82812 348.66876Q302.23438 349.59064 301.09375 349.59064Q300.34375 349.59064 299.71875 349.1844Q299.09375 348.7625 298.75 348.02814Q298.40625 347.29376 298.40625 346.34064Q298.40625 345.41876 298.71875 344.65314Q299.03125 343.8875 299.65625 343.4969Q300.28125 343.09064 301.04688 343.09064Q301.60938 343.09064 302.04688 343.325Q302.48438 343.5594 302.76562 343.9344L302.76562 340.85626L303.8125 340.85626L303.8125 349.45L302.82812 349.45ZM299.5 346.34064Q299.5 347.54376 300.0 348.1375Q300.5 348.71564 301.1875 348.71564Q301.875 348.71564 302.35938 348.15314Q302.84375 347.59064 302.84375 346.4344Q302.84375 345.15314 302.34375 344.5594Q301.85938 343.96564 301.14062 343.96564Q300.4375 343.96564 299.96875 344.54376Q299.5 345.10626 299.5 346.34064ZM310.04688 347.45L311.14062 347.575Q310.89062 348.52814 310.1875 349.0594Q309.48438 349.59064 308.40625 349.59064Q307.04688 349.59064 306.23438 348.7469Q305.4375 347.90314 305.4375 346.3875Q305.4375 344.825 306.25 343.96564Q307.0625 343.09064 308.34375 343.09064Q309.59375 343.09064 310.375 343.9344Q311.17188 344.77814 311.17188 346.325Q311.17188 346.41876 311.17188 346.60626L306.53125 346.60626Q306.59375 347.6375 307.10938 348.1844Q307.625 348.71564 308.40625 348.71564Q308.98438 348.71564 309.39062 348.41876Q309.8125 348.10626 310.04688 347.45ZM306.59375 345.7469L310.0625 345.7469Q310.0 344.95 309.67188 344.5594Q309.15625 343.95 308.35938 343.95Q307.625 343.95 307.125 344.4344Q306.64062 344.91876 306.59375 345.7469ZM312.76562 349.45L312.76562 340.85626L313.82812 340.85626L313.82812 349.45L312.76562 349.45ZM318.79688 351.84064L318.79688 343.23126L319.75 343.23126L319.75 344.02814Q320.09375 343.5594 320.51562 343.325Q320.95312 343.09064 321.5625 343.09064Q322.35938 343.09064 322.96875 343.4969Q323.57812 343.90314 323.875 344.65314Q324.1875 345.40314 324.1875 346.29376Q324.1875 347.2469 323.84375 348.0125Q323.51562 348.77814 322.85938 349.1844Q322.20312 349.59064 321.48438 349.59064Q320.95312 349.59064 320.53125 349.3719Q320.10938 349.1375 319.84375 348.8094L319.84375 351.84064L318.79688 351.84064ZM319.75 346.3719Q319.75 347.575 320.23438 348.15314Q320.71875 348.71564 321.40625 348.71564Q322.10938 348.71564 322.60938 348.1219Q323.10938 347.52814 323.10938 346.27814Q323.10938 345.09064 322.625 344.5125Q322.14062 343.91876 321.45312 343.91876Q320.78125 343.91876 320.26562 344.54376Q319.75 345.16876 319.75 346.3719ZM325.78125 349.45L325.78125 343.23126L326.73438 343.23126L326.73438 344.16876Q327.09375 343.5125 327.39062 343.3094Q327.70312 343.09064 328.07812 343.09064Q328.60938 343.09064 329.15625 343.41876L328.79688 344.40314Q328.40625 344.16876 328.03125 344.16876Q327.67188 344.16876 327.39062 344.3875Q327.125 344.59064 327.01562 344.96564Q326.82812 345.52814 326.82812 346.1844L326.82812 349.45L325.78125 349.45ZM329.40625 346.34064Q329.40625 344.60626 330.35938 343.77814Q331.15625 343.09064 332.3125 343.09064Q333.59375 343.09064 334.40625 343.9344Q335.23438 344.7625 335.23438 346.2469Q335.23438 347.45 334.875 348.1375Q334.51562 348.825 333.8125 349.21564Q333.125 349.59064 332.3125 349.59064Q331.01562 349.59064 330.20312 348.7625Q329.40625 347.91876 329.40625 346.34064ZM330.48438 346.34064Q330.48438 347.52814 331.0 348.1219Q331.53125 348.71564 332.3125 348.71564Q333.10938 348.71564 333.625 348.1219Q334.14062 347.52814 334.14062 346.3094Q334.14062 345.15314 333.60938 344.5594Q333.09375 343.96564 332.3125 343.96564Q331.53125 343.96564 331.0 344.5594Q330.48438 345.1375 330.48438 346.34064ZM336.75 351.84064L336.625 350.85626Q336.96875 350.95 337.23438 350.95Q337.57812 350.95 337.78125 350.825Q338.0 350.71564 338.14062 350.5125Q338.23438 350.34064 338.46875 349.71564Q338.48438 349.6375 338.5625 349.46564L336.1875 343.23126L337.32812 343.23126L338.625 346.825Q338.875 347.5125 339.07812 348.27814Q339.26562 347.54376 339.51562 346.85626L340.84375 343.23126L341.89062 343.23126L339.53125 349.5594Q339.14062 350.575 338.9375 350.96564Q338.65625 351.4969 338.28125 351.73126Q337.92188 351.98126 337.42188 351.98126Q337.125 351.98126 336.75 351.84064ZM346.04688 347.45L347.14062 347.575Q346.89062 348.52814 346.1875 349.0594Q345.48438 349.59064 344.40625 349.59064Q343.04688 349.59064 342.23438 348.7469Q341.4375 347.90314 341.4375 346.3875Q341.4375 344.825 342.25 343.96564Q343.0625 343.09064 344.34375 343.09064Q345.59375 343.09064 346.375 343.9344Q347.17188 344.77814 347.17188 346.325Q347.17188 346.41876 347.17188 346.60626L342.53125 346.60626Q342.59375 347.6375 343.10938 348.1844Q343.625 348.71564 344.40625 348.71564Q344.98438 348.71564 345.39062 348.41876Q345.8125 348.10626 346.04688 347.45ZM342.59375 345.7469L346.0625 345.7469Q346.0 344.95 345.67188 344.5594Q345.15625 343.95 344.35938 343.95Q343.625 343.95 343.125 344.4344Q342.64062 344.91876 342.59375 345.7469ZM352.85938 347.16876L353.89062 347.3094Q353.71875 348.3719 353.01562 348.98126Q352.3125 349.59064 351.29688 349.59064Q350.01562 349.59064 349.23438 348.7625Q348.46875 347.91876 348.46875 346.35626Q348.46875 345.35626 348.79688 344.60626Q349.14062 343.84064 349.8125 343.46564Q350.5 343.09064 351.3125 343.09064Q352.3125 343.09064 352.95312 343.60626Q353.60938 344.10626 353.79688 345.0594L352.76562 345.21564Q352.625 344.59064 352.25 344.27814Q351.875 343.95 351.34375 343.95Q350.54688 343.95 350.04688 344.52814Q349.54688 345.09064 349.54688 346.325Q349.54688 347.59064 350.03125 348.15314Q350.51562 348.71564 351.28125 348.71564Q351.90625 348.71564 352.3125 348.34064Q352.73438 347.96564 352.85938 347.16876ZM357.09375 348.5125L357.25 349.4344Q356.79688 349.52814 356.45312 349.52814Q355.875 349.52814 355.5625 349.35626Q355.25 349.16876 355.10938 348.8719Q354.98438 348.575 354.98438 347.6219L354.98438 344.04376L354.21875 344.04376L354.21875 343.23126L354.98438 343.23126L354.98438 341.6844L356.03125 341.0594L356.03125 343.23126L357.09375 343.23126L357.09375 344.04376L356.03125 344.04376L356.03125 347.6844Q356.03125 348.1375 356.07812 348.2625Q356.14062 348.3875 356.26562 348.46564Q356.39062 348.54376 356.625 348.54376Q356.8125 348.54376 357.09375 348.5125ZM357.40625 346.34064Q357.40625 344.60626 358.35938 343.77814Q359.15625 343.09064 360.3125 343.09064Q361.59375 343.09064 362.40625 343.9344Q363.23438 344.7625 363.23438 346.2469Q363.23438 347.45 362.875 348.1375Q362.51562 348.825 361.8125 349.21564Q361.125 349.59064 360.3125 349.59064Q359.01562 349.59064 358.20312 348.7625Q357.40625 347.91876 357.40625 346.34064ZM358.48438 346.34064Q358.48438 347.52814 359.0 348.1219Q359.53125 348.71564 360.3125 348.71564Q361.10938 348.71564 361.625 348.1219Q362.14062 347.52814 362.14062 346.3094Q362.14062 345.15314 361.60938 344.5594Q361.09375 343.96564 360.3125 343.96564Q359.53125 343.96564 359.0 344.5594Q358.48438 345.1375 358.48438 346.34064Z" fill-rule="nonzero"/><path fill="#000000" d="M33.05 300.21564Q33.05 298.6844 33.3625 297.7625Q33.675 296.825 34.284374 296.325Q34.909374 295.825 35.846874 295.825Q36.534374 295.825 37.05 296.10626Q37.58125 296.3875 37.925 296.91876Q38.26875 297.4344 38.45625 298.1844Q38.64375 298.9344 38.64375 300.21564Q38.64375 301.73126 38.33125 302.65314Q38.034374 303.575 37.409374 304.09064Q36.8 304.59064 35.846874 304.59064Q34.6125 304.59064 33.89375 303.7Q33.05 302.6375 33.05 300.21564ZM34.128124 300.21564Q34.128124 302.325 34.628124 303.02814Q35.128124 303.73126 35.846874 303.73126Q36.58125 303.73126 37.065624 303.02814Q37.565624 302.325 37.565624 300.21564Q37.565624 298.09064 37.065624 297.40314Q36.58125 296.7 35.83125 296.7Q35.1125 296.7 34.675 297.3094Q34.128124 298.09064 34.128124 300.21564Z" fill-rule="nonzero"/><path fill="#000000" d="M26.05 219.35556L27.159374 219.26181Q27.284374 220.07431 27.721874 220.48056Q28.175 220.88681 28.815624 220.88681Q29.565624 220.88681 30.096874 220.30869Q30.628124 219.73056 30.628124 218.79306Q30.628124 217.88681 30.1125 217.37119Q29.6125 216.83994 28.784374 216.83994Q28.284374 216.83994 27.8625 217.07431Q27.45625 217.30869 27.221874 217.66806L26.2375 217.54306L27.065624 213.13681L31.346874 213.13681L31.346874 214.13681L27.909374 214.13681L27.45625 216.44931Q28.221874 215.90244 29.065624 215.90244Q30.190624 215.90244 30.95625 216.68369Q31.7375 217.46494 31.7375 218.69931Q31.7375 219.85556 31.065624 220.71494Q30.2375 221.74619 28.815624 221.74619Q27.64375 221.74619 26.89375 221.08994Q26.159374 220.43369 26.05 219.35556ZM33.05 217.37119Q33.05 215.83994 33.3625 214.91806Q33.675 213.98056 34.284374 213.48056Q34.909374 212.98056 35.846874 212.98056Q36.534374 212.98056 37.05 213.26181Q37.58125 213.54306 37.925 214.07431Q38.26875 214.58994 38.45625 215.33994Q38.64375 216.08994 38.64375 217.37119Q38.64375 218.88681 38.33125 219.80869Q38.034374 220.73056 37.409374 221.24619Q36.8 221.74619 35.846874 221.74619Q34.6125 221.74619 33.89375 220.85556Q33.05 219.79306 33.05 217.37119ZM34.128124 217.37119Q34.128124 219.48056 34.628124 220.18369Q35.128124 220.88681 35.846874 220.88681Q36.58125 220.88681 37.065624 220.18369Q37.565624 219.48056 37.565624 217.37119Q37.565624 215.24619 37.065624 214.55869Q36.58125 213.85556 35.83125 213.85556Q35.1125 213.85556 34.675 214.46494Q34.128124 215.24619 34.128124 217.37119Z" fill-rule="nonzero"/><path fill="#000000" d="M23.01875 138.76111L21.971874 138.76111L21.971874 132.04236Q21.58125 132.40173 20.95625 132.77673Q20.346874 133.13611 19.8625 133.30798L19.8625 132.29236Q20.7375 131.87048 21.39375 131.29236Q22.065624 130.69861 22.346874 130.13611L23.01875 130.13611L23.01875 138.76111ZM26.05 134.52673Q26.05 132.99548 26.3625 132.07361Q26.675 131.13611 27.284374 130.63611Q27.909374 130.13611 28.846874 130.13611Q29.534374 130.13611 30.05 130.41736Q30.58125 130.69861 30.925 131.22986Q31.26875 131.74548 31.45625 132.49548Q31.64375 133.24548 31.64375 134.52673Q31.64375 136.04236 31.33125 136.96423Q31.034374 137.88611 30.409374 138.40173Q29.8 138.90173 28.846874 138.90173Q27.6125 138.90173 26.89375 138.01111Q26.05 136.94861 26.05 134.52673ZM27.128124 134.52673Q27.128124 136.63611 27.628124 137.33923Q28.128124 138.04236 28.846874 138.04236Q29.58125 138.04236 30.065624 137.33923Q30.565624 136.63611 30.565624 134.52673Q30.565624 132.40173 30.065624 131.71423Q29.58125 131.01111 28.83125 131.01111Q28.1125 131.01111 27.675 131.62048Q27.128124 132.40173 27.128124 134.52673ZM33.05 134.52673Q33.05 132.99548 33.3625 132.07361Q33.675 131.13611 34.284374 130.63611Q34.909374 130.13611 35.846874 130.13611Q36.534374 130.13611 37.05 130.41736Q37.58125 130.69861 37.925 131.22986Q38.26875 131.74548 38.45625 132.49548Q38.64375 133.24548 38.64375 134.52673Q38.64375 136.04236 38.33125 136.96423Q38.034374 137.88611 37.409374 138.40173Q36.8 138.90173 35.846874 138.90173Q34.6125 138.90173 33.89375 138.01111Q33.05 136.94861 33.05 134.52673ZM34.128124 134.52673Q34.128124 136.63611 34.628124 137.33923Q35.128124 138.04236 35.846874 138.04236Q36.58125 138.04236 37.065624 137.33923Q37.565624 136.63611 37.565624 134.52673Q37.565624 132.40173 37.065624 131.71423Q36.58125 131.01111 35.83125 131.01111Q35.1125 131.01111 34.675 131.62048Q34.128124 132.40173 34.128124 134.52673Z" fill-rule="nonzero"/><path fill="#000000" d="M23.01875 55.916668L21.971874 55.916668L21.971874 49.197918Q21.58125 49.557293 20.95625 49.932293Q20.346874 50.291668 19.8625 50.463543L19.8625 49.447918Q20.7375 49.026043 21.39375 48.447918Q22.065624 47.854168 22.346874 47.291668L23.01875 47.291668L23.01875 55.916668ZM26.05 53.666668L27.159374 53.572918Q27.284374 54.385418 27.721874 54.791668Q28.175 55.197918 28.815624 55.197918Q29.565624 55.197918 30.096874 54.619793Q30.628124 54.041668 30.628124 53.104168Q30.628124 52.197918 30.1125 51.682293Q29.6125 51.151043 28.784374 51.151043Q28.284374 51.151043 27.8625 51.385418Q27.45625 51.619793 27.221874 51.979168L26.2375 51.854168L27.065624 47.447918L31.346874 47.447918L31.346874 48.447918L27.909374 48.447918L27.45625 50.760418Q28.221874 50.213543 29.065624 50.213543Q30.190624 50.213543 30.95625 50.994793Q31.7375 51.776043 31.7375 53.010418Q31.7375 54.166668 31.065624 55.026043Q30.2375 56.057293 28.815624 56.057293Q27.64375 56.057293 26.89375 55.401043Q26.159374 54.744793 26.05 53.666668ZM33.05 51.682293Q33.05 50.151043 33.3625 49.229168Q33.675 48.291668 34.284374 47.791668Q34.909374 47.291668 35.846874 47.291668Q36.534374 47.291668 37.05 47.572918Q37.58125 47.854168 37.925 48.385418Q38.26875 48.901043 38.45625 49.651043Q38.64375 50.401043 38.64375 51.682293Q38.64375 53.197918 38.33125 54.119793Q38.034374 55.041668 37.409374 55.557293Q36.8 56.057293 35.846874 56.057293Q34.6125 56.057293 33.89375 55.166668Q33.05 54.104168 33.05 51.682293ZM34.128124 51.682293Q34.128124 53.791668 34.628124 54.494793Q35.128124 55.197918 35.846874 55.197918Q36.58125 55.197918 37.065624 54.494793Q37.565624 53.791668 37.565624 51.682293Q37.565624 49.557293 37.065624 48.869793Q36.58125 48.166668 35.83125 48.166668Q35.1125 48.166668 34.675 48.776043Q34.128124 49.557293 34.128124 51.682293Z" fill-rule="nonzero"/><path fill="#000000" d="M121.49167 317.45L121.49167 308.85626L122.61667 308.85626L122.61667 317.45L121.49167 317.45ZM124.16354 317.45L124.16354 311.23126L125.10104 311.23126L125.10104 312.10626Q125.78854 311.09064 127.08542 311.09064Q127.64792 311.09064 128.11667 311.29376Q128.60104 311.4969 128.83542 311.825Q129.0698 312.15314 129.16354 312.59064Q129.21042 312.8875 129.21042 313.6219L129.21042 317.45L128.16354 317.45L128.16354 313.66876Q128.16354 313.0125 128.03854 312.7Q127.91354 312.3875 127.60104 312.2Q127.28854 311.9969 126.86667 311.9969Q126.19479 311.9969 125.69479 312.4344Q125.21042 312.85626 125.21042 314.04376L125.21042 317.45L124.16354 317.45ZM131.16354 310.075L131.16354 308.85626L132.22604 308.85626L132.22604 310.075L131.16354 310.075ZM131.16354 317.45L131.16354 311.23126L132.22604 311.23126L132.22604 317.45L131.16354 317.45ZM138.22604 315.16876L139.2573 315.3094Q139.08542 316.3719 138.3823 316.98126Q137.67917 317.59064 136.66354 317.59064Q135.3823 317.59064 134.60104 316.7625Q133.83542 315.91876 133.83542 314.35626Q133.83542 313.35626 134.16354 312.60626Q134.5073 311.84064 135.17917 311.46564Q135.86667 311.09064 136.67917 311.09064Q137.67917 311.09064 138.3198 311.60626Q138.97604 312.10626 139.16354 313.0594L138.1323 313.21564Q137.99167 312.59064 137.61667 312.27814Q137.24167 311.95 136.71042 311.95Q135.91354 311.95 135.41354 312.52814Q134.91354 313.09064 134.91354 314.325Q134.91354 315.59064 135.39792 316.15314Q135.8823 316.71564 136.64792 316.71564Q137.27292 316.71564 137.67917 316.34064Q138.10104 315.96564 138.22604 315.16876ZM140.16354 310.075L140.16354 308.85626L141.22604 308.85626L141.22604 310.075L140.16354 310.075ZM140.16354 317.45L140.16354 311.23126L141.22604 311.23126L141.22604 317.45L140.16354 317.45ZM142.77292 314.34064Q142.77292 312.60626 143.72604 311.77814Q144.52292 311.09064 145.67917 311.09064Q146.96042 311.09064 147.77292 311.9344Q148.60104 312.7625 148.60104 314.2469Q148.60104 315.45 148.24167 316.1375Q147.8823 316.825 147.17917 317.21564Q146.49167 317.59064 145.67917 317.59064Q144.3823 317.59064 143.5698 316.7625Q142.77292 315.91876 142.77292 314.34064ZM143.85104 314.34064Q143.85104 315.52814 144.36667 316.1219Q144.89792 316.71564 145.67917 316.71564Q146.47604 316.71564 146.99167 316.1219Q147.5073 315.52814 147.5073 314.3094Q147.5073 313.15314 146.97604 312.5594Q146.46042 311.96564 145.67917 311.96564Q144.89792 311.96564 144.36667 312.5594Q143.85104 313.1375 143.85104 314.34064Z" fill-rule="nonzero"/><path fill="#000000" d="M288.625 317.45L288.625 308.85626L289.75 308.85626L289.75 317.45L288.625 317.45ZM291.29688 317.45L291.29688 311.23126L292.23438 311.23126L292.23438 312.10626Q292.92188 311.09064 294.21875 311.09064Q294.78125 311.09064 295.25 311.29376Q295.73438 311.4969 295.96875 311.825Q296.20312 312.15314 296.29688 312.59064Q296.34375 312.8875 296.34375 313.6219L296.34375 317.45L295.29688 317.45L295.29688 313.66876Q295.29688 313.0125 295.17188 312.7Q295.04688 312.3875 294.73438 312.2Q294.42188 311.9969 294.0 311.9969Q293.32812 311.9969 292.82812 312.4344Q292.34375 312.85626 292.34375 314.04376L292.34375 317.45L291.29688 317.45ZM298.54688 317.45L298.54688 312.04376L297.60938 312.04376L297.60938 311.23126L298.54688 311.23126L298.54688 310.5594Q298.54688 309.9344 298.65625 309.6375Q298.8125 309.21564 299.1875 308.96564Q299.57812 308.71564 300.26562 308.71564Q300.71875 308.71564 301.25 308.825L301.09375 309.73126Q300.76562 309.6844 300.46875 309.6844Q299.98438 309.6844 299.78125 309.8875Q299.59375 310.09064 299.59375 310.65314L299.59375 311.23126L300.8125 311.23126L300.8125 312.04376L299.59375 312.04376L299.59375 317.45L298.54688 317.45ZM300.90625 314.34064Q300.90625 312.60626 301.85938 311.77814Q302.65625 311.09064 303.8125 311.09064Q305.09375 311.09064 305.90625 311.9344Q306.73438 312.7625 306.73438 314.2469Q306.73438 315.45 306.375 316.1375Q306.01562 316.825 305.3125 317.21564Q304.625 317.59064 303.8125 317.59064Q302.51562 317.59064 301.70312 316.7625Q300.90625 315.91876 300.90625 314.34064ZM301.98438 314.34064Q301.98438 315.52814 302.5 316.1219Q303.03125 316.71564 303.8125 316.71564Q304.60938 316.71564 305.125 316.1219Q305.64062 315.52814 305.64062 314.3094Q305.64062 313.15314 305.10938 312.5594Q304.59375 311.96564 303.8125 311.96564Q303.03125 311.96564 302.5 312.5594Q301.98438 313.1375 301.98438 314.34064ZM308.28125 317.45L308.28125 311.23126L309.23438 311.23126L309.23438 312.16876Q309.59375 311.5125 309.89062 311.3094Q310.20312 311.09064 310.57812 311.09064Q311.10938 311.09064 311.65625 311.41876L311.29688 312.40314Q310.90625 312.16876 310.53125 312.16876Q310.17188 312.16876 309.89062 312.3875Q309.625 312.59064 309.51562 312.96564Q309.32812 313.52814 309.32812 314.1844L309.32812 317.45L308.28125 317.45ZM312.29688 317.45L312.29688 311.23126L313.23438 311.23126L313.23438 312.10626Q313.53125 311.6375 314.01562 311.3719Q314.5 311.09064 315.125 311.09064Q315.8125 311.09064 316.25 311.3719Q316.70312 311.65314 316.875 312.16876Q317.625 311.09064 318.79688 311.09064Q319.73438 311.09064 320.21875 311.60626Q320.71875 312.10626 320.71875 313.1844L320.71875 317.45L319.67188 317.45L319.67188 313.52814Q319.67188 312.90314 319.5625 312.6219Q319.46875 312.34064 319.20312 312.16876Q318.9375 311.9969 318.5625 311.9969Q317.90625 311.9969 317.46875 312.4344Q317.04688 312.8719 317.04688 313.84064L317.04688 317.45L315.98438 317.45L315.98438 313.40314Q315.98438 312.7 315.71875 312.35626Q315.46875 311.9969 314.89062 311.9969Q314.4375 311.9969 314.0625 312.23126Q313.6875 312.46564 313.51562 312.91876Q313.34375 313.3719 313.34375 314.21564L313.34375 317.45L312.29688 317.45ZM327.54688 315.45L328.64062 315.575Q328.39062 316.52814 327.6875 317.0594Q326.98438 317.59064 325.90625 317.59064Q324.54688 317.59064 323.73438 316.7469Q322.9375 315.90314 322.9375 314.3875Q322.9375 312.825 323.75 311.96564Q324.5625 311.09064 325.84375 311.09064Q327.09375 311.09064 327.875 311.9344Q328.67188 312.77814 328.67188 314.325Q328.67188 314.41876 328.67188 314.60626L324.03125 314.60626Q324.09375 315.6375 324.60938 316.1844Q325.125 316.71564 325.90625 316.71564Q326.48438 316.71564 326.89062 316.41876Q327.3125 316.10626 327.54688 315.45ZM324.09375 313.7469L327.5625 313.7469Q327.5 312.95 327.17188 312.5594Q326.65625 311.95 325.85938 311.95Q325.125 311.95 324.625 312.4344Q324.14062 312.91876 324.09375 313.7469ZM336.96875 317.45L335.92188 317.45L335.92188 310.73126Q335.53125 311.09064 334.90625 311.46564Q334.29688 311.825 333.8125 311.9969L333.8125 310.98126Q334.6875 310.5594 335.34375 309.98126Q336.01562 309.3875 336.29688 308.825L336.96875 308.825L336.96875 317.45Z" fill-rule="nonzero"/><path fill="#000000" d="M467.25833 317.45L467.25833 308.85626L468.38333 308.85626L468.38333 317.45L467.25833 317.45ZM469.9302 317.45L469.9302 311.23126L470.8677 311.23126L470.8677 312.10626Q471.5552 311.09064 472.85208 311.09064Q473.41458 311.09064 473.88333 311.29376Q474.3677 311.4969 474.60208 311.825Q474.83646 312.15314 474.9302 312.59064Q474.97708 312.8875 474.97708 313.6219L474.97708 317.45L473.9302 317.45L473.9302 313.66876Q473.9302 313.0125 473.8052 312.7Q473.6802 312.3875 473.3677 312.2Q473.0552 311.9969 472.63333 311.9969Q471.96146 311.9969 471.46146 312.4344Q470.97708 312.85626 470.97708 314.04376L470.97708 317.45L469.9302 317.45ZM477.1802 317.45L477.1802 312.04376L476.2427 312.04376L476.2427 311.23126L477.1802 311.23126L477.1802 310.5594Q477.1802 309.9344 477.28958 309.6375Q477.44583 309.21564 477.82083 308.96564Q478.21146 308.71564 478.89896 308.71564Q479.35208 308.71564 479.88333 308.825L479.72708 309.73126Q479.39896 309.6844 479.10208 309.6844Q478.6177 309.6844 478.41458 309.8875Q478.22708 310.09064 478.22708 310.65314L478.22708 311.23126L479.44583 311.23126L479.44583 312.04376L478.22708 312.04376L478.22708 317.45L477.1802 317.45ZM479.53958 314.34064Q479.53958 312.60626 480.4927 311.77814Q481.28958 311.09064 482.44583 311.09064Q483.72708 311.09064 484.53958 311.9344Q485.3677 312.7625 485.3677 314.2469Q485.3677 315.45 485.00833 316.1375Q484.64896 316.825 483.94583 317.21564Q483.25833 317.59064 482.44583 317.59064Q481.14896 317.59064 480.33646 316.7625Q479.53958 315.91876 479.53958 314.34064ZM480.6177 314.34064Q480.6177 315.52814 481.13333 316.1219Q481.66458 316.71564 482.44583 316.71564Q483.2427 316.71564 483.75833 316.1219Q484.27396 315.52814 484.27396 314.3094Q484.27396 313.15314 483.7427 312.5594Q483.22708 311.96564 482.44583 311.96564Q481.66458 311.96564 481.13333 312.5594Q480.6177 313.1375 480.6177 314.34064ZM486.91458 317.45L486.91458 311.23126L487.8677 311.23126L487.8677 312.16876Q488.22708 311.5125 488.52396 311.3094Q488.83646 311.09064 489.21146 311.09064Q489.7427 311.09064 490.28958 311.41876L489.9302 312.40314Q489.53958 312.16876 489.16458 312.16876Q488.8052 312.16876 488.52396 312.3875Q488.25833 312.59064 488.14896 312.96564Q487.96146 313.52814 487.96146 314.1844L487.96146 317.45L486.91458 317.45ZM490.9302 317.45L490.9302 311.23126L491.8677 311.23126L491.8677 312.10626Q492.16458 311.6375 492.64896 311.3719Q493.13333 311.09064 493.75833 311.09064Q494.44583 311.09064 494.88333 311.3719Q495.33646 311.65314 495.50833 312.16876Q496.25833 311.09064 497.4302 311.09064Q498.3677 311.09064 498.85208 311.60626Q499.35208 312.10626 499.35208 313.1844L499.35208 317.45L498.3052 317.45L498.3052 313.52814Q498.3052 312.90314 498.19583 312.6219Q498.10208 312.34064 497.83646 312.16876Q497.57083 311.9969 497.19583 311.9969Q496.53958 311.9969 496.10208 312.4344Q495.6802 312.8719 495.6802 313.84064L495.6802 317.45L494.6177 317.45L494.6177 313.40314Q494.6177 312.7 494.35208 312.35626Q494.10208 311.9969 493.52396 311.9969Q493.07083 311.9969 492.69583 312.23126Q492.32083 312.46564 492.14896 312.91876Q491.97708 313.3719 491.97708 314.21564L491.97708 317.45L490.9302 317.45ZM506.1802 315.45L507.27396 315.575Q507.02396 316.52814 506.32083 317.0594Q505.6177 317.59064 504.53958 317.59064Q503.1802 317.59064 502.3677 316.7469Q501.57083 315.90314 501.57083 314.3875Q501.57083 312.825 502.38333 311.96564Q503.19583 311.09064 504.47708 311.09064Q505.72708 311.09064 506.50833 311.9344Q507.3052 312.77814 507.3052 314.325Q507.3052 314.41876 507.3052 314.60626L502.66458 314.60626Q502.72708 315.6375 503.2427 316.1844Q503.75833 316.71564 504.53958 316.71564Q505.1177 316.71564 505.52396 316.41876Q505.94583 316.10626 506.1802 315.45ZM502.72708 313.7469L506.19583 313.7469Q506.13333 312.95 505.8052 312.5594Q505.28958 311.95 504.4927 311.95Q503.75833 311.95 503.25833 312.4344Q502.77396 312.91876 502.72708 313.7469ZM517.1802 316.4344L517.1802 317.45L511.4927 317.45Q511.4927 317.075 511.6177 316.71564Q511.83646 316.1375 512.3052 315.575Q512.78955 315.0125 513.6958 314.27814Q515.10205 313.1219 515.5864 312.45Q516.0864 311.77814 516.0864 311.1844Q516.0864 310.5594 515.6333 310.1375Q515.1802 309.7 514.4614 309.7Q513.6958 309.7 513.2427 310.15314Q512.78955 310.60626 512.7739 311.41876L511.69583 311.3094Q511.8052 310.09064 512.5239 309.46564Q513.2583 308.825 514.4927 308.825Q515.72705 308.825 516.4458 309.5125Q517.16455 310.2 517.16455 311.21564Q517.16455 311.73126 516.9458 312.23126Q516.7427 312.71564 516.2427 313.27814Q515.7583 313.825 514.6333 314.77814Q513.6802 315.575 513.3989 315.8719Q513.1333 316.15314 512.9614 316.4344L517.1802 316.4344Z" fill-rule="nonzero"/><path stroke="#4285f4" stroke-width="4.0" stroke-linecap="butt" d="M228.0 25.55L240.0 25.55" fill-rule="nonzero"/><path fill="#1a1a1a" d="M248.92188 29.55L248.92188 20.95625L252.17188 20.95625Q253.01562 20.95625 253.46875 21.034374Q254.10938 21.14375 254.53125 21.440624Q254.96875 21.7375 255.21875 22.26875Q255.48438 22.8 255.48438 23.440624Q255.48438 24.534374 254.78125 25.3Q254.09375 26.05 252.26562 26.05L250.0625 26.05L250.0625 29.55L248.92188 29.55ZM250.0625 25.05L252.28125 25.05Q253.39062 25.05 253.84375 24.64375Q254.3125 24.221874 254.3125 23.471874Q254.3125 22.940624 254.03125 22.565624Q253.76562 22.175 253.32812 22.05Q253.03125 21.971874 252.26562 21.971874L250.0625 21.971874L250.0625 25.05ZM259.375 29.55L256.04688 20.95625L257.28125 20.95625L259.51562 27.20625Q259.78125 27.95625 259.96875 28.6125Q260.17188 27.909374 260.4375 27.20625L262.75 20.95625L263.90625 20.95625L260.54688 29.55L259.375 29.55Z" fill-rule="nonzero"/><path stroke="#ea4335" stroke-width="4.0" stroke-linecap="butt" d="M282.0 25.55L294.0 25.55" fill-rule="nonzero"/><path fill="#1a1a1a" d="M302.95312 29.55L302.95312 20.95625L309.15625 20.95625L309.15625 21.971874L304.09375 21.971874L304.09375 24.596874L308.84375 24.596874L308.84375 25.6125L304.09375 25.6125L304.09375 28.534374L309.35938 28.534374L309.35938 29.55L302.95312 29.55ZM313.375 29.55L310.04688 20.95625L311.28125 20.95625L313.51562 27.20625Q313.78125 27.95625 313.96875 28.6125Q314.17188 27.909374 314.4375 27.20625L316.75 20.95625L317.90625 20.95625L314.54688 29.55L313.375 29.55Z" fill-rule="nonzero"/><path stroke="#fbbc04" stroke-width="4.0" stroke-linecap="butt" d="M333.0 25.55L345.0 25.55" fill-rule="nonzero"/><path fill="#1a1a1a" d="M352.98438 29.55L356.28125 20.95625L357.5 20.95625L361.01562 29.55L359.73438 29.55L358.71875 26.940624L355.14062 26.940624L354.1875 29.55L352.98438 29.55ZM355.46875 26.01875L358.375 26.01875L357.48438 23.64375Q357.0625 22.565624 356.875 21.8625Q356.70312 22.690624 356.40625 23.503124L355.46875 26.01875ZM367.0625 26.534374L368.1875 26.83125Q367.82812 28.221874 366.90625 28.95625Q365.98438 29.690624 364.64062 29.690624Q363.25 29.690624 362.375 29.128124Q361.5 28.565624 361.04688 27.503124Q360.59375 26.425 360.59375 25.190624Q360.59375 23.846874 361.10938 22.846874Q361.625 21.846874 362.5625 21.33125Q363.51562 20.815624 364.65625 20.815624Q365.9375 20.815624 366.8125 21.471874Q367.70312 22.128124 368.04688 23.315624L366.92188 23.58125Q366.625 22.64375 366.04688 22.221874Q365.48438 21.784374 364.625 21.784374Q363.64062 21.784374 362.96875 22.26875Q362.3125 22.7375 362.03125 23.534374Q361.76562 24.33125 361.76562 25.190624Q361.76562 26.284374 362.07812 27.096874Q362.40625 27.909374 363.07812 28.315624Q363.75 28.721874 364.54688 28.721874Q365.5 28.721874 366.15625 28.175Q366.82812 27.628124 367.0625 26.534374Z" fill-rule="nonzero"/></svg>