<svg version="1.1" viewBox="0.0 0.0 600.0 371.0" fill="none" stroke="none" stroke-linecap="square" stroke-miterlimit="10" width="600" height="371" xmlns:xlink="http://www.w3.org/1999/xlink" xmlns="http://www.w3.org/2000/svg"><path fill="#ffffff" d="M0 0L600.0 0L600.0 371.0L0 371.0L0 0Z" fill-rule="nonzero"/><path stroke="#333333" stroke-width="1.0" stroke-linecap="butt" d="M48.5 326.5L581.5 326.5" fill-rule="nonzero"/><path stroke="#cccccc" stroke-width="1.0" stroke-linecap="butt" d="M48.5 257.5L581.5 257.5" fill-rule="nonzero"/><path stroke="#cccccc" stroke-width="1.0" stroke-linecap="butt" d="M48.5 189.5L581.5 189.5" fill-rule="nonzero"/><path stroke="#cccccc" stroke-width="1.0" stroke-linecap="butt" d="M48.5 120.5L581.5 120.5" fill-rule="nonzero"/><path stroke="#cccccc" stroke-width="1.0" stroke-linecap="butt" d="M48.5 51.5L581.5 51.5" fill-rule="nonzero"/><path stroke="#000000" stroke-width="1.0" stroke-linecap="butt" stroke-opacity="0.0" d="M48.5 303.5L581.5 303.5" fill-rule="nonzero"/><path stroke="#000000" stroke-width="1.0" stroke-linecap="butt" stroke-opacity="0.0" d="M48.5 280.5L581.5 280.5" fill-rule="nonzero"/><path stroke="#000000" stroke-width="1.0" stroke-linecap="butt" stroke-opacity="0.0" d="M48.5 234.5L581.5 234.5" fill-rule="nonzero"/><path stroke="#000000" stroke-width="1.0" stroke-linecap="butt" stroke-opacity="0.0" d="M48.5 212.5L581.5 212.5" fill-rule="nonzero"/><path stroke="#000000" stroke-width="1.0" stroke-linecap="butt" stroke-opacity="0.0" d="M48.5 166.5L581.5 166.5" fill-rule="nonzero"/><path stroke="#000000" stroke-width="1.0" stroke-linecap="butt" stroke-opacity="0.0" d="M48.5 143.5L581.5 143.5" fill-rule="nonzero"/><path stroke="#000000" stroke-width="1.0" stroke-linecap="butt" stroke-opacity="0.0" d="M48.5 97.5L581.5 97.5" fill-rule="nonzero"/><path stroke="#000000" stroke-width="1.0" stroke-linecap="butt" stroke-opacity="0.0" d="M48.5 74.5L581.5 74.5" fill-rule="nonzero"/><path stroke="#000000" stroke-width="1.0" stroke-linecap="butt" d="M581.5 326.5L48.5 326.5" fill-rule="nonzero"/><path stroke="#000000" stroke-width="1.0" stroke-linecap="butt" d="M48.5 326.5L48.5 51.5" fill-rule="nonzero"/><clipPath id="id_0"><path d="M48.55 51.916668L581.45 51.916668L581.45 326.45L48.55 326.45L48.55 51.916668Z" clip-rule="nonzero"/></clipPath><path fill="#4285f4" clip-path="url(#id_0)" d="M317.0 62.265568C317.0 63.370136 316.10458 64.265564 315.0 64.265564C313.89542 64.265564 313.0 63.370136 313.0 62.265568C313.0 61.161 313.89542 60.265568 315.0 60.265568C316.10458 60.265568 317.0 61.161 317.0 62.265568Z" fill-rule="nonzero"/><path fill="#ea4335" clip-path="url(#id_0)" d="M317.0 58.04986C317.0 59.154427 316.10458 60.04986 315.0 60.04986C313.89542 60.04986 313.0 59.154427 313.0 58.04986C313.0 56.94529 313.89542 56.04986 315.0 56.04986C316.10458 56.04986 317.0 56.94529 317.0 58.04986Z" fill-rule="nonzero"/><path fill="#000000" fill-opacity="0.0" clip-path="url(#id_0)" d="M318.0 62.265568C318.0 63.92242 316.65686 65.265564 315.0 65.265564C313.34314 65.265564 312.0 63.92242 312.0 62.265568C312.0 60.60871 313.34314 59.265568 315.0 59.265568C316.65686 59.265568 318.0 60.60871 318.0 62.265568Z" fill-rule="nonzero"/><path fill="#000000" fill-opacity="0.0" clip-path="url(#id_0)" d="M318.0 58.04986C318.0 59.70671 316.65686 61.04986 315.0 61.04986C313.34314 61.04986 312.0 59.70671 312.0 58.04986C312.0 56.393005 313.34314 55.04986 315.0 55.04986C316.65686 55.04986 318.0 56.393005 318.0 58.04986Z" fill-rule="nonzero"/><path stroke="#000000" stroke-width="1.0" stroke-linecap="butt" d="M315.5 332.5L315.5 320.5" fill-rule="nonzero"/><path fill="#000000" d="M36.05 326.21564Q36.05 324.6844 36.3625 323.7625Q36.675 322.825 37.284374 322.325Q37.909374 321.825 38.846874 321.825Q39.534374 321.825 40.05 322.10626Q40.58125 322.3875 40.925 322.91876Q41.26875 323.4344 41.45625 324.1844Q41.64375 324.9344 41.64375 326.21564Q41.64375 327.73126 41.33125 328.65314Q41.034374 329.575 40.409374 330.09064Q39.8 330.59064 38.846874 330.59064Q37.6125 330.59064 36.89375 329.7Q36.05 328.6375 36.05 326.21564ZM37.128124 326.21564Q37.128124 328.325 37.628124 329.02814Q38.128124 329.73126 38.846874 329.73126Q39.58125 329.73126 40.065624 329.02814Q40.565624 328.325 40.565624 326.21564Q40.565624 324.09064 40.065624 323.40314Q39.58125 322.7 38.83125 322.7Q38.1125 322.7 37.675 323.3094Q37.128124 324.09064 37.128124 326.21564Z" fill-rule="nonzero"/><path fill="#000000" d="M19.05 257.5823Q19.05 256.05106 19.3625 255.12918Q19.675 254.19168 20.284374 253.69168Q20.909374 253.19168 21.846874 253.19168Q22.534374 253.19168 23.05 253.47293Q23.58125 253.75418 23.925 254.28543Q24.26875 254.80106 24.45625 255.55106Q24.64375 256.30106 24.64375 257.5823Q24.64375 259.09793 24.33125 260.0198Q24.034374 260.94168 23.409374 261.4573Q22.8 261.9573 21.846874 261.9573Q20.6125 261.9573 19.89375 261.06668Q19.05 260.00418 19.05 257.5823ZM20.128124 257.5823Q20.128124 259.69168 20.628124 260.3948Q21.128124 261.09793 21.846874 261.09793Q22.58125 261.09793 23.065624 260.3948Q23.565624 259.69168 23.565624 257.5823Q23.565624 255.4573 23.065624 254.7698Q22.58125 254.06668 21.83125 254.06668Q21.1125 254.06668 20.675 254.67606Q20.128124 255.4573 20.128124 257.5823ZM26.64375 261.81668L26.64375 260.61356L27.846874 260.61356L27.846874 261.81668L26.64375 261.81668ZM34.596874 260.80106L34.596874 261.81668L28.909374 261.81668Q28.909374 261.44168 29.034374 261.0823Q29.253124 260.50418 29.721874 259.94168Q30.20625 259.37918 31.1125 258.6448Q32.51875 257.48856 33.003124 256.81668Q33.503124 256.1448 33.503124 255.55106Q33.503124 254.92606 33.05 254.50418Q32.596874 254.06668 31.878124 254.06668Q31.1125 254.06668 30.659374 254.5198Q30.20625 254.97293 30.190624 255.78543L29.1125 255.67606Q29.221874 254.4573 29.940624 253.8323Q30.675 253.19168 31.909374 253.19168Q33.14375 253.19168 33.8625 253.87918Q34.58125 254.56668 34.58125 255.5823Q34.58125 256.09793 34.3625 256.59793Q34.159374 257.0823 33.659374 257.6448Q33.175 258.19168 32.05 259.1448Q31.096874 259.94168 30.815624 260.23856Q30.55 260.5198 30.378124 260.80106L34.596874 260.80106ZM36.05 259.56668L37.159374 259.47293Q37.284374 260.28543 37.721874 260.69168Q38.175 261.09793 38.815624 261.09793Q39.565624 261.09793 40.096874 260.5198Q40.628124 259.94168 40.628124 259.00418Q40.628124 258.09793 40.1125 257.5823Q39.6125 257.05106 38.784374 257.05106Q38.284374 257.05106 37.8625 257.28543Q37.45625 257.5198 37.221874 257.87918L36.2375 257.75418L37.065624 253.34793L41.346874 253.34793L41.346874 254.34793L37.909374 254.34793L37.45625 256.66043Q38.221874 256.11356 39.065624 256.11356Q40.190624 256.11356 40.95625 256.8948Q41.7375 257.67606 41.7375 258.91043Q41.7375 260.06668 41.065624 260.92606Q40.2375 261.9573 38.815624 261.9573Q37.64375 261.9573 36.89375 261.30106Q36.159374 260.6448 36.05 259.56668Z" fill-rule="nonzero"/><path fill="#000000" d="M26.05 188.94896Q26.05 187.41771 26.3625 186.49583Q26.675 185.55833 27.284374 185.05833Q27.909374 184.55833 28.846874 184.55833Q29.534374 184.55833 30.05 184.83958Q30.58125 185.12083 30.925 185.65208Q31.26875 186.16771 31.45625 186.91771Q31.64375 187.66771 31.64375 188.94896Q31.64375 190.46458 31.33125 191.38646Q31.034374 192.30833 30.409374 192.82396Q29.8 193.32396 28.846874 193.32396Q27.6125 193.32396 26.89375 192.43333Q26.05 191.37083 26.05 188.94896ZM27.128124 188.94896Q27.128124 191.05833 27.628124 191.76146Q28.128124 192.46458 28.846874 192.46458Q29.58125 192.46458 30.065624 191.76146Q30.565624 191.05833 30.565624 188.94896Q30.565624 186.82396 30.065624 186.13646Q29.58125 185.43333 28.83125 185.43333Q28.1125 185.43333 27.675 186.04271Q27.128124 186.82396 27.128124 188.94896ZM33.64375 193.18333L33.64375 191.98021L34.846874 191.98021L34.846874 193.18333L33.64375 193.18333ZM36.05 190.93333L37.159374 190.83958Q37.284374 191.65208 37.721874 192.05833Q38.175 192.46458 38.815624 192.46458Q39.565624 192.46458 40.096874 191.88646Q40.628124 191.30833 40.628124 190.37083Q40.628124 189.46458 40.1125 188.94896Q39.6125 188.41771 38.784374 188.41771Q38.284374 188.41771 37.8625 188.65208Q37.45625 188.88646 37.221874 189.24583L36.2375 189.12083L37.065624 184.71458L41.346874 184.71458L41.346874 185.71458L37.909374 185.71458L37.45625 188.02708Q38.221874 187.48021 39.065624 187.48021Q40.190624 187.48021 40.95625 188.26146Q41.7375 189.04271 41.7375 190.27708Q41.7375 191.43333 41.065624 192.29271Q40.2375 193.32396 38.815624 193.32396Q37.64375 193.32396 36.89375 192.66771Q36.159374 192.01146 36.05 190.93333Z" fill-rule="nonzero"/><path fill="#000000" d="M19.05 120.31563Q19.05 118.78438 19.3625 117.8625Q19.675 116.925 20.284374 116.425Q20.909374 115.925 21.846874 115.925Q22.534374 115.925 23.05 116.20625Q23.58125 116.4875 23.925 117.01875Q24.26875 117.53438 24.45625 118.28438Q24.64375 119.03438 24.64375 120.31563Q24.64375 121.83125 24.33125 122.75313Q24.034374 123.675 23.409374 124.19063Q22.8 124.69063 21.846874 124.69063Q20.6125 124.69063 19.89375 123.8Q19.05 122.7375 19.05 120.31563ZM20.128124 120.31563Q20.128124 122.425 20.628124 123.12813Q21.128124 123.83125 21.846874 123.83125Q22.58125 123.83125 23.065624 123.12813Q23.565624 122.425 23.565624 120.31563Q23.565624 118.19063 23.065624 117.50313Q22.58125 116.8 21.83125 116.8Q21.1125 116.8 20.675 117.40938Q20.128124 118.19063 20.128124 120.31563ZM26.64375 124.55L26.64375 123.34688L27.846874 123.34688L27.846874 124.55L26.64375 124.55ZM29.1125 117.08125L29.1125 116.06563L34.675 116.06563L34.675 116.89375Q33.8625 117.76875 33.05 119.22188Q32.253124 120.65938 31.815624 122.19063Q31.4875 123.26875 31.409374 124.55L30.315624 124.55Q30.33125 123.53438 30.70625 122.09688Q31.096874 120.65938 31.8 119.33125Q32.51875 118.00313 33.33125 117.08125L29.1125 117.08125ZM36.05 122.3L37.159374 122.20625Q37.284374 123.01875 37.721874 123.425Q38.175 123.83125 38.815624 123.83125Q39.565624 123.83125 40.096874 123.25313Q40.628124 122.675 40.628124 121.7375Q40.628124 120.83125 40.1125 120.31563Q39.6125 119.78438 38.784374 119.78438Q38.284374 119.78438 37.8625 120.01875Q37.45625 120.25313 37.221874 120.6125L36.2375 120.4875L37.065624 116.08125L41.346874 116.08125L41.346874 117.08125L37.909374 117.08125L37.45625 119.39375Q38.221874 118.84688 39.065624 118.84688Q40.190624 118.84688 40.95625 119.62813Q41.7375 120.40938 41.7375 121.64375Q41.7375 122.8 41.065624 123.65938Q40.2375 124.69063 38.815624 124.69063Q37.64375 124.69063 36.89375 124.03438Q36.159374 123.37813 36.05 122.3Z" fill-rule="nonzero"/><path fill="#000000" d="M40.01875 55.916668L38.971874 55.916668L38.971874 49.197918Q38.58125 49.557293 37.95625 49.932293Q37.346874 50.291668 36.8625 50.463543L36.8625 49.447918Q37.7375 49.026043 38.39375 48.447918Q39.065624 47.854168 39.346874 47.291668L40.01875 47.291668L40.01875 55.916668Z" fill-rule="nonzero"/><path fill="#000000" d="M290.125 349.45L290.125 340.85626L291.25 340.85626L291.25 349.45L290.125 349.45ZM292.79688 349.45L292.79688 343.23126L293.73438 343.23126L293.73438 344.10626Q294.42188 343.09064 295.71875 343.09064Q296.28125 343.09064 296.75 343.29376Q297.23438 343.4969 297.46875 343.825Q297.70312 344.15314 297.79688 344.59064Q297.84375 344.8875 297.84375 345.6219L297.84375 349.45L296.79688 349.45L296.79688 345.66876Q296.79688 345.0125 296.67188 344.7Q296.54688 344.3875 296.23438 344.2Q295.92188 343.9969 295.5 343.9969Q294.82812 343.9969 294.32812 344.4344Q293.84375 344.85626 293.84375 346.04376L293.84375 349.45L292.79688 349.45ZM300.04688 349.45L300.04688 344.04376L299.10938 344.04376L299.10938 343.23126L300.04688 343.23126L300.04688 342.5594Q300.04688 341.9344 300.15625 341.6375Q300.3125 341.21564 300.6875 340.96564Q301.07812 340.71564 301.76562 340.71564Q302.21875 340.71564 302.75 340.825L302.59375 341.73126Q302.26562 341.6844 301.96875 341.6844Q301.48438 341.6844 301.28125 341.8875Q301.09375 342.09064 301.09375 342.65314L301.09375 343.23126L302.3125 343.23126L302.3125 344.04376L301.09375 344.04376L301.09375 349.45L300.04688 349.45ZM302.40625 346.34064Q302.40625 344.60626 303.35938 343.77814Q304.15625 343.09064 305.3125 343.09064Q306.59375 343.09064 307.40625 343.9344Q308.23438 344.7625 308.23438 346.2469Q308.23438 347.45 307.875 348.1375Q307.51562 348.825 306.8125 349.21564Q306.125 349.59064 305.3125 349.59064Q304.01562 349.59064 303.20312 348.7625Q302.40625 347.91876 302.40625 346.34064ZM303.48438 346.34064Q303.48438 347.52814 304.0 348.1219Q304.53125 348.71564 305.3125 348.71564Q306.10938 348.71564 306.625 348.1219Q307.14062 347.52814 307.14062 346.3094Q307.14062 345.15314 306.60938 344.5594Q306.09375 343.96564 305.3125 343.96564Q304.53125 343.96564 304.0 344.5594Q303.48438 345.1375 303.48438 346.34064ZM309.78125 349.45L309.78125 343.23126L310.73438 343.23126L310.73438 344.16876Q311.09375 343.5125 311.39062 343.3094Q311.70312 343.09064 312.07812 343.09064Q312.60938 343.09064 313.15625 343.41876L312.79688 344.40314Q312.40625 344.16876 312.03125 344.16876Q311.67188 344.16876 311.39062 344.3875Q311.125 344.59064 311.01562 344.96564Q310.82812 345.52814 310.82812 346.1844L310.82812 349.45L309.78125 349.45ZM313.79688 349.45L313.79688 343.23126L314.73438 343.23126L314.73438 344.10626Q315.03125 343.6375 315.51562 343.3719Q316.0 343.09064 316.625 343.09064Q317.3125 343.09064 317.75 343.3719Q318.20312 343.65314 318.375 344.16876Q319.125 343.09064 320.29688 343.09064Q321.23438 343.09064 321.71875 343.60626Q322.21875 344.10626 322.21875 345.1844L322.21875 349.45L321.17188 349.45L321.17188 345.52814Q321.17188 344.90314 321.0625 344.6219Q320.96875 344.34064 320.70312 344.16876Q320.4375 343.9969 320.0625 343.9969Q319.40625 343.9969 318.96875 344.4344Q318.54688 344.8719 318.54688 345.84064L318.54688 349.45L317.48438 349.45L317.48438 345.40314Q317.48438 344.7 317.21875 344.35626Q316.96875 343.9969 316.39062 343.9969Q315.9375 343.9969 315.5625 344.23126Q315.1875 344.46564 315.01562 344.91876Q314.84375 345.3719 314.84375 346.21564L314.84375 349.45L313.79688 349.45ZM329.04688 347.45L330.14062 347.575Q329.89062 348.52814 329.1875 349.0594Q328.48438 349.59064 327.40625 349.59064Q326.04688 349.59064 325.23438 348.7469Q324.4375 347.90314 324.4375 346.3875Q324.4375 344.825 325.25 343.96564Q326.0625 343.09064 327.34375 343.09064Q328.59375 343.09064 329.375 343.9344Q330.17188 344.77814 330.17188 346.325Q330.17188 346.41876 330.17188 346.60626L325.53125 346.60626Q325.59375 347.6375 326.10938 348.1844Q326.625 348.71564 327.40625 348.71564Q327.98438 348.71564 328.39062 348.41876Q328.8125 348.10626 329.04688 347.45ZM325.59375 345.7469L329.0625 345.7469Q329.0 344.95 328.67188 344.5594Q328.15625 343.95 327.35938 343.95Q326.625 343.95 326.125 344.4344Q325.64062 344.91876 325.59375 345.7469ZM338.46875 349.45L337.42188 349.45L337.42188 342.73126Q337.03125 343.09064 336.40625 343.46564Q335.79688 343.825 335.3125 343.9969L335.3125 342.98126Q336.1875 342.5594 336.84375 341.98126Q337.51562 341.3875 337.79688 340.825L338.46875 340.825L338.46875 349.45Z" fill-rule="nonzero"/><path stroke="#4285f4" stroke-width="4.0" stroke-linecap="butt" d="M187.0 25.55L199.0 25.55" fill-rule="nonzero"/><path fill="#1a1a1a" d="M214.0625 26.534374L215.1875 26.83125Q214.82812 28.221874 213.90625 28.95625Q212.98438 29.690624 211.64062 29.690624Q210.25 29.690624 209.375 29.128124Q208.5 28.565624 208.04688 27.503124Q207.59375 26.425 207.59375 25.190624Q207.59375 23.846874 208.10938 22.846874Q208.625 21.846874 209.5625 21.33125Q210.51562 20.815624 211.65625 20.815624Q212.9375 20.815624 213.8125 21.471874Q214.70312 22.128124 215.04688 23.315624L213.92188 23.58125Q213.625 22.64375 213.04688 22.221874Q212.48438 21.784374 211.625 21.784374Q210.64062 21.784374 209.96875 22.26875Q209.3125 22.7375 209.03125 23.534374Q208.76562 24.33125 208.76562 25.190624Q208.76562 26.284374 209.07812 27.096874Q209.40625 27.909374 210.07812 28.315624Q210.75 28.721874 211.54688 28.721874Q212.5 28.721874 213.15625 28.175Q213.82812 27.628124 214.0625 26.534374ZM216.92188 29.55L216.92188 20.95625L220.17188 20.95625Q221.01562 20.95625 221.46875 21.034374Q222.10938 21.14375 222.53125 21.440624Q222.96875 21.7375 223.21875 22.26875Q223.48438 22.8 223.48438 23.440624Q223.48438 24.534374 222.78125 25.3Q222.09375 26.05 220.26562 26.05L218.0625 26.05L218.0625 29.55L216.92188 29.55ZM218.0625 25.05L220.28125 25.05Q221.39062 25.05 221.84375 24.64375Q222.3125 24.221874 222.3125 23.471874Q222.3125 22.940624 222.03125 22.565624Q221.76562 22.175 221.32812 22.05Q221.03125 21.971874 220.26562 21.971874L218.0625 21.971874L218.0625 25.05ZM225.125 29.55L225.125 20.95625L226.25 20.95625L226.25 29.55L225.125 29.55ZM229.98438 29.55L233.28125 20.95625L234.5 20.95625L238.01562 29.55L236.73438 29.55L235.71875 26.940624L232.14062 26.940624L231.1875 29.55L229.98438 29.55ZM232.46875 26.01875L235.375 26.01875L234.48438 23.64375Q234.0625 22.565624 233.875 21.8625Q233.70312 22.690624 233.40625 23.503124L232.46875 26.01875ZM241.85938 27.26875L242.89062 27.409374Q242.71875 28.471874 242.01562 29.08125Q241.3125 29.690624 240.29688 29.690624Q239.01562 29.690624 238.23438 28.8625Q237.46875 28.01875 237.46875 26.45625Q237.46875 25.45625 237.79688 24.70625Q238.14062 23.940624 238.8125 23.565624Q239.5 23.190624 240.3125 23.190624Q241.3125 23.190624 241.95312 23.70625Q242.60938 24.20625 242.79688 25.159374L241.76562 25.315624Q241.625 24.690624 241.25 24.378124Q240.875 24.05 240.34375 24.05Q239.54688 24.05 239.04688 24.628124Q238.54688 25.190624 238.54688 26.425Q238.54688 27.690624 239.03125 28.253124Q239.51562 28.815624 240.28125 28.815624Q240.90625 28.815624 241.3125 28.440624Q241.73438 28.065624 241.85938 27.26875ZM247.875 29.55L247.875 28.628124Q247.14062 29.690624 245.89062 29.690624Q245.34375 29.690624 244.85938 29.4875Q244.39062 29.26875 244.15625 28.95625Q243.92188 28.628124 243.82812 28.159374Q243.76562 27.8625 243.76562 27.175L243.76562 23.33125L244.82812 23.33125L244.82812 26.784374Q244.82812 27.596874 244.89062 27.89375Q244.98438 28.3 245.29688 28.55Q245.625 28.784374 246.10938 28.784374Q246.57812 28.784374 246.98438 28.55Q247.40625 28.3 247.57812 27.878124Q247.76562 27.45625 247.76562 26.659374L247.76562 23.33125L248.8125 23.33125L248.8125 29.55L247.875 29.55ZM250.79688 29.55L250.79688 23.33125L251.73438 23.33125L251.73438 24.20625Q252.03125 23.7375 252.51562 23.471874Q253.0 23.190624 253.625 23.190624Q254.3125 23.190624 254.75 23.471874Q255.20312 23.753124 255.375 24.26875Q256.125 23.190624 257.29688 23.190624Q258.23438 23.190624 258.71875 23.70625Q259.21875 24.20625 259.21875 25.284374L259.21875 29.55L258.17188 29.55L258.17188 25.628124Q258.17188 25.003124 258.0625 24.721874Q257.96875 24.440624 257.70312 24.26875Q257.4375 24.096874 257.0625 24.096874Q256.40625 24.096874 255.96875 24.534374Q255.54688 24.971874 255.54688 25.940624L255.54688 29.55L254.48438 29.55L254.48438 25.503124Q254.48438 24.8 254.21875 24.45625Q253.96875 24.096874 253.39062 24.096874Q252.9375 24.096874 252.5625 24.33125Q252.1875 24.565624 252.01562 25.01875Q251.84375 25.471874 251.84375 26.315624L251.84375 29.55L250.79688 29.55ZM265.875 29.55L265.875 28.628124Q265.14062 29.690624 263.89062 29.690624Q263.34375 29.690624 262.85938 29.4875Q262.39062 29.26875 262.15625 28.95625Q261.92188 28.628124 261.82812 28.159374Q261.76562 27.8625 261.76562 27.175L261.76562 23.33125L262.82812 23.33125L262.82812 26.784374Q262.82812 27.596874 262.89062 27.89375Q262.98438 28.3 263.29688 28.55Q263.625 28.784374 264.10938 28.784374Q264.57812 28.784374 264.98438 28.55Q265.40625 28.3 265.57812 27.878124Q265.76562 27.45625 265.76562 26.659374L265.76562 23.33125L266.8125 23.33125L266.8125 29.55L265.875 29.55ZM268.76562 29.55L268.76562 20.95625L269.82812 20.95625L269.82812 29.55L268.76562 29.55ZM275.85938 28.784374Q275.26562 29.284374 274.71875 29.4875Q274.1875 29.690624 273.5625 29.690624Q272.53125 29.690624 271.98438 29.190624Q271.4375 28.690624 271.4375 27.909374Q271.4375 27.45625 271.64062 27.08125Q271.84375 26.690624 272.1875 26.471874Q272.53125 26.2375 272.95312 26.128124Q273.25 26.034374 273.89062 25.95625Q275.15625 25.815624 275.76562 25.596874Q275.76562 25.378124 275.76562 25.33125Q275.76562 24.675 275.46875 24.409374Q275.0625 24.065624 274.26562 24.065624Q273.53125 24.065624 273.17188 24.33125Q272.8125 24.58125 272.64062 25.2375L271.60938 25.096874Q271.75 24.440624 272.07812 24.034374Q272.40625 23.628124 273.01562 23.409374Q273.625 23.190624 274.42188 23.190624Q275.21875 23.190624 275.71875 23.378124Q276.21875 23.565624 276.45312 23.846874Q276.6875 24.128124 276.78125 24.565624Q276.82812 24.83125 276.82812 25.534374L276.82812 26.940624Q276.82812 28.409374 276.89062 28.8Q276.96875 29.190624 277.17188 29.55L276.0625 29.55Q275.90625 29.221874 275.85938 28.784374ZM275.76562 26.425Q275.1875 26.659374 274.04688 26.83125Q273.39062 26.925 273.125 27.05Q272.85938 27.159374 272.70312 27.378124Q272.5625 27.596874 272.5625 27.878124Q272.5625 28.3 272.875 28.58125Q273.20312 28.8625 273.8125 28.8625Q274.42188 28.8625 274.89062 28.596874Q275.375 28.33125 275.59375 27.8625Q275.76562 27.503124 275.76562 26.815624L275.76562 26.425ZM282.82812 29.55L282.82812 28.76875Q282.23438 29.690624 281.09375 29.690624Q280.34375 29.690624 279.71875 29.284374Q279.09375 28.8625 278.75 28.128124Q278.40625 27.39375 278.40625 26.440624Q278.40625 25.51875 278.71875 24.753124Q279.03125 23.9875 279.65625 23.596874Q280.28125 23.190624 281.04688 23.190624Q281.60938 23.190624 282.04688 23.425Q282.48438 23.659374 282.76562 24.034374L282.76562 20.95625L283.8125 20.95625L283.8125 29.55L282.82812 29.55ZM279.5 26.440624Q279.5 27.64375 280.0 28.2375Q280.5 28.815624 281.1875 28.815624Q281.875 28.815624 282.35938 28.253124Q282.84375 27.690624 282.84375 26.534374Q282.84375 25.253124 282.34375 24.659374Q281.85938 24.065624 281.14062 24.065624Q280.4375 24.065624 279.96875 24.64375Q279.5 25.20625 279.5 26.440624ZM285.40625 26.440624Q285.40625 24.70625 286.35938 23.878124Q287.15625 23.190624 288.3125 23.190624Q289.59375 23.190624 290.40625 24.034374Q291.23438 24.8625 291.23438 26.346874Q291.23438 27.55 290.875 28.2375Q290.51562 28.925 289.8125 29.315624Q289.125 29.690624 288.3125 29.690624Q287.01562 29.690624 286.20312 28.8625Q285.40625 28.01875 285.40625 26.440624ZM286.48438 26.440624Q286.48438 27.628124 287.0 28.221874Q287.53125 28.815624 288.3125 28.815624Q289.10938 28.815624 289.625 28.221874Q290.14062 27.628124 290.14062 26.409374Q290.14062 25.253124 289.60938 24.659374Q289.09375 24.065624 288.3125 24.065624Q287.53125 24.065624 287.0 24.659374Q286.48438 25.2375 286.48438 26.440624Z" fill-rule="nonzero"/><path stroke="#ea4335" stroke-width="4.0" stroke-linecap="butt" d="M308.0 25.55L320.0 25.55" fill-rule="nonzero"/><path fill="#1a1a1a" d="M335.0625 26.534374L336.1875 26.83125Q335.82812 28.221874 334.90625 28.95625Q333.98438 29.690624 332.64062 29.690624Q331.25 29.690624 330.375 29.128124Q329.5 28.565624 329.04688 27.503124Q328.59375 26.425 328.59375 25.190624Q328.59375 23.846874 329.10938 22.846874Q329.625 21.846874 330.5625 21.33125Q331.51562 20.815624 332.65625 20.815624Q333.9375 20.815624 334.8125 21.471874Q335.70312 22.128124 336.04688 23.315624L334.92188 23.58125Q334.625 22.64375 334.04688 22.221874Q333.48438 21.784374 332.625 21.784374Q331.64062 21.784374 330.96875 22.26875Q330.3125 22.7375 330.03125 23.534374Q329.76562 24.33125 329.76562 25.190624Q329.76562 26.284374 330.07812 27.096874Q330.40625 27.909374 331.07812 28.315624Q331.75 28.721874 332.54688 28.721874Q333.5 28.721874 334.15625 28.175Q334.82812 27.628124 335.0625 26.534374ZM337.92188 29.55L337.92188 20.95625L341.17188 20.95625Q342.01562 20.95625 342.46875 21.034374Q343.10938 21.14375 343.53125 21.440624Q343.96875 21.7375 344.21875 22.26875Q344.48438 22.8 344.48438 23.440624Q344.48438 24.534374 343.78125 25.3Q343.09375 26.05 341.26562 26.05L339.0625 26.05L339.0625 29.55L337.92188 29.55ZM339.0625 25.05L341.28125 25.05Q342.39062 25.05 342.84375 24.64375Q343.3125 24.221874 343.3125 23.471874Q343.3125 22.940624 343.03125 22.565624Q342.76562 22.175 342.32812 22.05Q342.03125 21.971874 341.26562 21.971874L339.0625 21.971874L339.0625 25.05ZM346.125 29.55L346.125 20.95625L347.25 20.95625L347.25 29.55L346.125 29.55ZM350.98438 29.55L354.28125 20.95625L355.5 20.95625L359.01562 29.55L357.73438 29.55L356.71875 26.940624L353.14062 26.940624L352.1875 29.55L350.98438 29.55ZM353.46875 26.01875L356.375 26.01875L355.48438 23.64375Q355.0625 22.565624 354.875 21.8625Q354.70312 22.690624 354.40625 23.503124L353.46875 26.01875ZM362.85938 27.26875L363.89062 27.409374Q363.71875 28.471874 363.01562 29.08125Q362.3125 29.690624 361.29688 29.690624Q360.01562 29.690624 359.23438 28.8625Q358.46875 28.01875 358.46875 26.45625Q358.46875 25.45625 358.79688 24.70625Q359.14062 23.940624 359.8125 23.565624Q360.5 23.190624 361.3125 23.190624Q362.3125 23.190624 362.95312 23.70625Q363.60938 24.20625 363.79688 25.159374L362.76562 25.315624Q362.625 24.690624 362.25 24.378124Q361.875 24.05 361.34375 24.05Q360.54688 24.05 360.04688 24.628124Q359.54688 25.190624 359.54688 26.425Q359.54688 27.690624 360.03125 28.253124Q360.51562 28.815624 361.28125 28.815624Q361.90625 28.815624 362.3125 28.440624Q362.73438 28.065624 362.85938 27.26875ZM368.875 29.55L368.875 28.628124Q368.14062 29.690624 366.89062 29.690624Q366.34375 29.690624 365.85938 29.4875Q365.39062 29.26875 365.15625 28.95625Q364.92188 28.628124 364.82812 28.159374Q364.76562 27.8625 364.76562 27.175L364.76562 23.33125L365.82812 23.33125L365.82812 26.784374Q365.82812 27.596874 365.89062 27.89375Q365.98438 28.3 366.29688 28.55Q366.625 28.784374 367.10938 28.784374Q367.57812 28.784374 367.98438 28.55Q368.40625 28.3 368.57812 27.878124Q368.76562 27.45625 368.76562 26.659374L368.76562 23.33125L369.8125 23.33125L369.8125 29.55L368.875 29.55ZM371.79688 29.55L371.79688 23.33125L372.73438 23.33125L372.73438 24.20625Q373.03125 23.7375 373.51562 23.471874Q374.0 23.190624 374.625 23.190624Q375.3125 23.190624 375.75 23.471874Q376.20312 23.753124 376.375 24.26875Q377.125 23.190624 378.29688 23.190624Q379.23438 23.190624 379.71875 23.70625Q380.21875 24.20625 380.21875 25.284374L380.21875 29.55L379.17188 29.55L379.17188 25.628124Q379.17188 25.003124 379.0625 24.721874Q378.96875 24.440624 378.70312 24.26875Q378.4375 24.096874 378.0625 24.096874Q377.40625 24.096874 376.96875 24.534374Q376.54688 24.971874 376.54688 25.940624L376.54688 29.55L375.48438 29.55L375.48438 25.503124Q375.48438 24.8 375.21875 24.45625Q374.96875 24.096874 374.39062 24.096874Q373.9375 24.096874 373.5625 24.33125Q373.1875 24.565624 373.01562 25.01875Q372.84375 25.471874 372.84375 26.315624L372.84375 29.55L371.79688 29.55ZM386.875 29.55L386.875 28.628124Q386.14062 29.690624 384.89062 29.690624Q384.34375 29.690624 383.85938 29.4875Q383.39062 29.26875 383.15625 28.95625Q382.92188 28.628124 382.82812 28.159374Q382.76562 27.8625 382.76562 27.175L382.76562 23.33125L383.82812 23.33125L383.82812 26.784374Q383.82812 27.596874 383.89062 27.89375Q383.98438 28.3 384.29688 28.55Q384.625 28.784374 385.10938 28.784374Q385.57812 28.784374 385.98438 28.55Q386.40625 28.3 386.57812 27.878124Q386.76562 27.45625 386.76562 26.659374L386.76562 23.33125L387.8125 23.33125L387.8125 29.55L386.875 29.55ZM389.76562 29.55L389.76562 20.95625L390.82812 20.95625L390.82812 29.55L389.76562 29.55ZM396.85938 28.784374Q396.26562 29.284374 395.71875 29.4875Q395.1875 29.690624 394.5625 29.690624Q393.53125 29.690624 392.98438 29.190624Q392.4375 28.690624 392.4375 27.909374Q392.4375 27.45625 392.64062 27.08125Q392.84375 26.690624 393.1875 26.471874Q393.53125 26.2375 393.95312 26.128124Q394.25 26.034374 394.89062 25.95625Q396.15625 25.815624 396.76562 25.596874Q396.76562 25.378124 396.76562 25.33125Q396.76562 24.675 396.46875 24.409374Q396.0625 24.065624 395.26562 24.065624Q394.53125 24.065624 394.17188 24.33125Q393.8125 24.58125 393.64062 25.2375L392.60938 25.096874Q392.75 24.440624 393.07812 24.034374Q393.40625 23.628124 394.01562 23.409374Q394.625 23.190624 395.42188 23.190624Q396.21875 23.190624 396.71875 23.378124Q397.21875 23.565624 397.45312 23.846874Q397.6875 24.128124 397.78125 24.565624Q397.82812 24.83125 397.82812 25.534374L397.82812 26.940624Q397.82812 28.409374 397.89062 28.8Q397.96875 29.190624 398.17188 29.55L397.0625 29.55Q396.90625 29.221874 396.85938 28.784374ZM396.76562 26.425Q396.1875 26.659374 395.04688 26.83125Q394.39062 26.925 394.125 27.05Q393.85938 27.159374 393.70312 27.378124Q393.5625 27.596874 393.5625 27.878124Q393.5625 28.3 393.875 28.58125Q394.20312 28.8625 394.8125 28.8625Q395.42188 28.8625 395.89062 28.596874Q396.375 28.33125 396.59375 27.8625Q396.76562 27.503124 396.76562 26.815624L396.76562 26.425ZM403.82812 29.55L403.82812 28.76875Q403.23438 29.690624 402.09375 29.690624Q401.34375 29.690624 400.71875 29.284374Q400.09375 28.8625 399.75 28.128124Q399.40625 27.39375 399.40625 26.440624Q399.40625 25.51875 399.71875 24.753124Q400.03125 23.9875 400.65625 23.596874Q401.28125 23.190624 402.04688 23.190624Q402.60938 23.190624 403.04688 23.425Q403.48438 23.659374 403.76562 24.034374L403.76562 20.95625L404.8125 20.95625L404.8125 29.55L403.82812 29.55ZM400.5 26.440624Q400.5 27.64375 401.0 28.2375Q401.5 28.815624 402.1875 28.815624Q402.875 28.815624 403.35938 28.253124Q403.84375 27.690624 403.84375 26.534374Q403.84375 25.253124 403.34375 24.659374Q402.85938 24.065624 402.14062 24.065624Q401.4375 24.065624 400.96875 24.64375Q400.5 25.20625 400.5 26.440624ZM406.40625 26.440624Q406.40625 24.70625 407.35938 23.878124Q408.15625 23.190624 409.3125 23.190624Q410.59375 23.190624 411.40625 24.034374Q412.23438 24.8625 412.23438 26.346874Q412.23438 27.55 411.875 28.2375Q411.51562 28.925 410.8125 29.315624Q410.125 29.690624 409.3125 29.690624Q408.01562 29.690624 407.20312 28.8625Q406.40625 28.01875 406.40625 26.440624ZM407.48438 26.440624Q407.48438 27.628124 408.0 28.221874Q408.53125 28.815624 409.3125 28.815624Q410.10938 28.815624 410.625 28.221874Q411.14062 27.628124 411.14062 26.409374Q411.14062 25.253124 410.60938 24.659374Q410.09375 24.065624 409.3125 24.065624Q408.53125 24.065624 408.0 24.659374Q407.48438 25.2375 407.48438 26.440624Z" fill-rule="nonzero"/></svg>