<svg version="1.1" viewBox="0.0 0.0 600.0 371.0" fill="none" stroke="none" stroke-linecap="square" stroke-miterlimit="10" width="600" height="371" xmlns:xlink="http://www.w3.org/1999/xlink" xmlns="http://www.w3.org/2000/svg"><path fill="#ffffff" d="M0 0L600.0 0L600.0 371.0L0 371.0L0 0Z" fill-rule="nonzero"/><path stroke="#333333" stroke-width="1.0" stroke-linecap="butt" d="M45.5 326.5L581.5 326.5" fill-rule="nonzero"/><path stroke="#cccccc" stroke-width="1.0" stroke-linecap="butt" d="M45.5 257.5L581.5 257.5" fill-rule="nonzero"/><path stroke="#cccccc" stroke-width="1.0" stroke-linecap="butt" d="M45.5 189.5L581.5 189.5" fill-rule="nonzero"/><path stroke="#cccccc" stroke-width="1.0" stroke-linecap="butt" d="M45.5 120.5L581.5 120.5" fill-rule="nonzero"/><path stroke="#cccccc" stroke-width="1.0" stroke-linecap="butt" d="M45.5 51.5L581.5 51.5" fill-rule="nonzero"/><path stroke="#000000" stroke-width="1.0" stroke-linecap="butt" stroke-opacity="0.0" d="M45.5 303.5L581.5 303.5" fill-rule="nonzero"/><path stroke="#000000" stroke-width="1.0" stroke-linecap="butt" stroke-opacity="0.0" d="M45.5 280.5L581.5 280.5" fill-rule="nonzero"/><path stroke="#000000" stroke-width="1.0" stroke-linecap="butt" stroke-opacity="0.0" d="M45.5 234.5L581.5 234.5" fill-rule="nonzero"/><path stroke="#000000" stroke-width="1.0" stroke-linecap="butt" stroke-opacity="0.0" d="M45.5 212.5L581.5 212.5" fill-rule="nonzero"/><path stroke="#000000" stroke-width="1.0" stroke-linecap="butt" stroke-opacity="0.0" d="M45.5 166.5L581.5 166.5" fill-rule="nonzero"/><path stroke="#000000" stroke-width="1.0" stroke-linecap="butt" stroke-opacity="0.0" d="M45.5 143.5L581.5 143.5" fill-rule="nonzero"/><path stroke="#000000" stroke-width="1.0" stroke-linecap="butt" stroke-opacity="0.0" d="M45.5 97.5L581.5 97.5" fill-rule="nonzero"/><path stroke="#000000" stroke-width="1.0" stroke-linecap="butt" stroke-opacity="0.0" d="M45.5 74.5L581.5 74.5" fill-rule="nonzero"/><path stroke="#000000" stroke-width="1.0" stroke-linecap="butt" d="M581.5 326.5L45.5 326.5" fill-rule="nonzero"/><path stroke="#000000" stroke-width="1.0" stroke-linecap="butt" d="M45.5 326.5L45.5 51.5" fill-rule="nonzero"/><clipPath id="id_0"><path d="M45.55 51.916668L581.45 51.916668L581.45 326.45L45.55 326.45L45.55 51.916668Z" clip-rule="nonzero"/></clipPath><path stroke="#4285f4" stroke-width="2.0" stroke-linecap="butt" clip-path="url(#id_0)" d="M179.525 326.45L447.475 68.388664" fill-rule="nonzero"/><path stroke="#ea4335" stroke-width="2.0" stroke-linecap="butt" clip-path="url(#id_0)" d="M179.525 326.45L447.475 64.27067" fill-rule="nonzero"/><path stroke="#fbbc04" stroke-width="2.0" stroke-linecap="butt" clip-path="url(#id_0)" d="M179.525 326.45L447.475 74.15387" fill-rule="nonzero"/><path fill="#000000" fill-opacity="0.0" clip-path="url(#id_0)" d="M182.525 326.45C182.525 328.10684 181.18185 329.45 179.525 329.45C177.86815 329.45 176.525 328.10684 176.525 326.45C176.525 324.79315 177.86815 323.45 179.525 323.45C181.18185 323.45 182.525 324.79315 182.525 326.45Z" fill-rule="nonzero"/><path fill="#000000" fill-opacity="0.0" clip-path="url(#id_0)" d="M450.475 68.388664C450.475 70.045525 449.13187 71.388664 447.475 71.388664C445.81815 71.388664 444.475 70.045525 444.475 68.388664C444.475 66.73181 445.81815 65.388664 447.475 65.388664C449.13187 65.388664 450.475 66.73181 450.475 68.388664Z" fill-rule="nonzero"/><path fill="#000000" fill-opacity="0.0" clip-path="url(#id_0)" d="M182.525 326.45C182.525 328.10684 181.18185 329.45 179.525 329.45C177.86815 329.45 176.525 328.10684 176.525 326.45C176.525 324.79315 177.86815 323.45 179.525 323.45C181.18185 323.45 182.525 324.79315 182.525 326.45Z" fill-rule="nonzero"/><path fill="#000000" fill-opacity="0.0" clip-path="url(#id_0)" d="M450.475 64.27067C450.475 65.92752 449.13187 67.27067 447.475 67.27067C445.81815 67.27067 444.475 65.92752 444.475 64.27067C444.475 62.61381 445.81815 61.270668 447.475 61.270668C449.13187 61.270668 450.475 62.61381 450.475 64.27067Z" fill-rule="nonzero"/><path fill="#000000" fill-opacity="0.0" clip-path="url(#id_0)" d="M182.525 326.45C182.525 328.10684 181.18185 329.45 179.525 329.45C177.86815 329.45 176.525 328.10684 176.525 326.45C176.525 324.79315 177.86815 323.45 179.525 323.45C181.18185 323.45 182.525 324.79315 182.525 326.45Z" fill-rule="nonzero"/><path fill="#000000" fill-opacity="0.0" clip-path="url(#id_0)" d="M450.475 74.15387C450.475 75.81072 449.13187 77.15387 447.475 77.15387C445.81815 77.15387 444.475 75.81072 444.475 74.15387C444.475 72.49701 445.81815 71.15387 447.475 71.15387C449.13187 71.15387 450.475 72.49701 450.475 74.15387Z" fill-rule="nonzero"/><path stroke="#000000" stroke-width="1.0" stroke-linecap="butt" d="M179.5 332.5L179.5 320.5" fill-rule="nonzero"/><path stroke="#000000" stroke-width="1.0" stroke-linecap="butt" d="M447.5 332.5L447.5 320.5" fill-rule="nonzero"/><path fill="#000000" d="M33.05 326.21564Q33.05 324.6844 33.3625 323.7625Q33.675 322.825 34.284374 322.325Q34.909374 321.825 35.846874 321.825Q36.534374 321.825 37.05 322.10626Q37.58125 322.3875 37.925 322.91876Q38.26875 323.4344 38.45625 324.1844Q38.64375 324.9344 38.64375 326.21564Q38.64375 327.73126 38.33125 328.65314Q38.034374 329.575 37.409374 330.09064Q36.8 330.59064 35.846874 330.59064Q34.6125 330.59064 33.89375 329.7Q33.05 328.6375 33.05 326.21564ZM34.128124 326.21564Q34.128124 328.325 34.628124 329.02814Q35.128124 329.73126 35.846874 329.73126Q36.58125 329.73126 37.065624 329.02814Q37.565624 328.325 37.565624 326.21564Q37.565624 324.09064 37.065624 323.40314Q36.58125 322.7 35.83125 322.7Q35.1125 322.7 34.675 323.3094Q34.128124 324.09064 34.128124 326.21564Z" fill-rule="nonzero"/><path fill="#000000" d="M31.596874 260.80106L31.596874 261.81668L25.909374 261.81668Q25.909374 261.44168 26.034374 261.0823Q26.253124 260.50418 26.721874 259.94168Q27.20625 259.37918 28.1125 258.6448Q29.51875 257.48856 30.003124 256.81668Q30.503124 256.1448 30.503124 255.55106Q30.503124 254.92606 30.05 254.50418Q29.596874 254.06668 28.878124 254.06668Q28.1125 254.06668 27.659374 254.5198Q27.20625 254.97293 27.190624 255.78543L26.1125 255.67606Q26.221874 254.4573 26.940624 253.8323Q27.675 253.19168 28.909374 253.19168Q30.14375 253.19168 30.8625 253.87918Q31.58125 254.56668 31.58125 255.5823Q31.58125 256.09793 31.3625 256.59793Q31.159374 257.0823 30.659374 257.6448Q30.175 258.19168 29.05 259.1448Q28.096874 259.94168 27.815624 260.23856Q27.55 260.5198 27.378124 260.80106L31.596874 260.80106ZM33.05 259.56668L34.159374 259.47293Q34.284374 260.28543 34.721874 260.69168Q35.175 261.09793 35.815624 261.09793Q36.565624 261.09793 37.096874 260.5198Q37.628124 259.94168 37.628124 259.00418Q37.628124 258.09793 37.1125 257.5823Q36.6125 257.05106 35.784374 257.05106Q35.284374 257.05106 34.8625 257.28543Q34.45625 257.5198 34.221874 257.87918L33.2375 257.75418L34.065624 253.34793L38.346874 253.34793L38.346874 254.34793L34.909374 254.34793L34.45625 256.66043Q35.221874 256.11356 36.065624 256.11356Q37.190624 256.11356 37.95625 256.8948Q38.7375 257.67606 38.7375 258.91043Q38.7375 260.06668 38.065624 260.92606Q37.2375 261.9573 35.815624 261.9573Q34.64375 261.9573 33.89375 261.30106Q33.159374 260.6448 33.05 259.56668Z" fill-rule="nonzero"/><path fill="#000000" d="M26.05 190.93333L27.159374 190.83958Q27.284374 191.65208 27.721874 192.05833Q28.175 192.46458 28.815624 192.46458Q29.565624 192.46458 30.096874 191.88646Q30.628124 191.30833 30.628124 190.37083Q30.628124 189.46458 30.1125 188.94896Q29.6125 188.41771 28.784374 188.41771Q28.284374 188.41771 27.8625 188.65208Q27.45625 188.88646 27.221874 189.24583L26.2375 189.12083L27.065624 184.71458L31.346874 184.71458L31.346874 185.71458L27.909374 185.71458L27.45625 188.02708Q28.221874 187.48021 29.065624 187.48021Q30.190624 187.48021 30.95625 188.26146Q31.7375 189.04271 31.7375 190.27708Q31.7375 191.43333 31.065624 192.29271Q30.2375 193.32396 28.815624 193.32396Q27.64375 193.32396 26.89375 192.66771Q26.159374 192.01146 26.05 190.93333ZM33.05 188.94896Q33.05 187.41771 33.3625 186.49583Q33.675 185.55833 34.284374 185.05833Q34.909374 184.55833 35.846874 184.55833Q36.534374 184.55833 37.05 184.83958Q37.58125 185.12083 37.925 185.65208Q38.26875 186.16771 38.45625 186.91771Q38.64375 187.66771 38.64375 188.94896Q38.64375 190.46458 38.33125 191.38646Q38.034374 192.30833 37.409374 192.82396Q36.8 193.32396 35.846874 193.32396Q34.6125 193.32396 33.89375 192.43333Q33.05 191.37083 33.05 188.94896ZM34.128124 188.94896Q34.128124 191.05833 34.628124 191.76146Q35.128124 192.46458 35.846874 192.46458Q36.58125 192.46458 37.065624 191.76146Q37.565624 191.05833 37.565624 188.94896Q37.565624 186.82396 37.065624 186.13646Q36.58125 185.43333 35.83125 185.43333Q35.1125 185.43333 34.675 186.04271Q34.128124 186.82396 34.128124 188.94896Z" fill-rule="nonzero"/><path fill="#000000" d="M26.1125 117.08125L26.1125 116.06563L31.675 116.06563L31.675 116.89375Q30.8625 117.76875 30.05 119.22188Q29.253124 120.65938 28.815624 122.19063Q28.4875 123.26875 28.409374 124.55L27.315624 124.55Q27.33125 123.53438 27.70625 122.09688Q28.096874 120.65938 28.8 119.33125Q29.51875 118.00313 30.33125 117.08125L26.1125 117.08125ZM33.05 122.3L34.159374 122.20625Q34.284374 123.01875 34.721874 123.425Q35.175 123.83125 35.815624 123.83125Q36.565624 123.83125 37.096874 123.25313Q37.628124 122.675 37.628124 121.7375Q37.628124 120.83125 37.1125 120.31563Q36.6125 119.78438 35.784374 119.78438Q35.284374 119.78438 34.8625 120.01875Q34.45625 120.25313 34.221874 120.6125L33.2375 120.4875L34.065624 116.08125L38.346874 116.08125L38.346874 117.08125L34.909374 117.08125L34.45625 119.39375Q35.221874 118.84688 36.065624 118.84688Q37.190624 118.84688 37.95625 119.62813Q38.7375 120.40938 38.7375 121.64375Q38.7375 122.8 38.065624 123.65938Q37.2375 124.69063 35.815624 124.69063Q34.64375 124.69063 33.89375 124.03438Q33.159374 123.37813 33.05 122.3Z" fill-rule="nonzero"/><path fill="#000000" d="M23.01875 55.916668L21.971874 55.916668L21.971874 49.197918Q21.58125 49.557293 20.95625 49.932293Q20.346874 50.291668 19.8625 50.463543L19.8625 49.447918Q20.7375 49.026043 21.39375 48.447918Q22.065624 47.854168 22.346874 47.291668L23.01875 47.291668L23.01875 55.916668ZM26.05 51.682293Q26.05 50.151043 26.3625 49.229168Q26.675 48.291668 27.284374 47.791668Q27.909374 47.291668 28.846874 47.291668Q29.534374 47.291668 30.05 47.572918Q30.58125 47.854168 30.925 48.385418Q31.26875 48.901043 31.45625 49.651043Q31.64375 50.401043 31.64375 51.682293Q31.64375 53.197918 31.33125 54.119793Q31.034374 55.041668 30.409374 55.557293Q29.8 56.057293 28.846874 56.057293Q27.6125 56.057293 26.89375 55.166668Q26.05 54.104168 26.05 51.682293ZM27.128124 51.682293Q27.128124 53.791668 27.628124 54.494793Q28.128124 55.197918 28.846874 55.197918Q29.58125 55.197918 30.065624 54.494793Q30.565624 53.791668 30.565624 51.682293Q30.565624 49.557293 30.065624 48.869793Q29.58125 48.166668 28.83125 48.166668Q28.1125 48.166668 27.675 48.776043Q27.128124 49.557293 27.128124 51.682293ZM33.05 51.682293Q33.05 50.151043 33.3625 49.229168Q33.675 48.291668 34.284374 47.791668Q34.909374 47.291668 35.846874 47.291668Q36.534374 47.291668 37.05 47.572918Q37.58125 47.854168 37.925 48.385418Q38.26875 48.901043 38.45625 49.651043Q38.64375 50.401043 38.64375 51.682293Q38.64375 53.197918 38.33125 54.119793Q38.034374 55.041668 37.409374 55.557293Q36.8 56.057293 35.846874 56.057293Q34.6125 56.057293 33.89375 55.166668Q33.05 54.104168 33.05 51.682293ZM34.128124 51.682293Q34.128124 53.791668 34.628124 54.494793Q35.128124 55.197918 35.846874 55.197918Q36.58125 55.197918 37.065624 54.494793Q37.565624 53.791668 37.565624 51.682293Q37.565624 49.557293 37.065624 48.869793Q36.58125 48.166668 35.83125 48.166668Q35.1125 48.166668 34.675 48.776043Q34.128124 49.557293 34.128124 51.682293Z" fill-rule="nonzero"/><path fill="#000000" d="M166.15 349.45L166.15 340.85626L167.275 340.85626L167.275 349.45L166.15 349.45ZM168.82187 349.45L168.82187 343.23126L169.75937 343.23126L169.75937 344.10626Q170.44687 343.09064 171.74374 343.09064Q172.30624 343.09064 172.775 343.29376Q173.25937 343.4969 173.49374 343.825Q173.72812 344.15314 173.82187 344.59064Q173.86874 344.8875 173.86874 345.6219L173.86874 349.45L172.82187 349.45L172.82187 345.66876Q172.82187 345.0125 172.69687 344.7Q172.57187 344.3875 172.25937 344.2Q171.94687 343.9969 171.525 343.9969Q170.85312 343.9969 170.35312 344.4344Q169.86874 344.85626 169.86874 346.04376L169.86874 349.45L168.82187 349.45ZM175.82187 342.075L175.82187 340.85626L176.88437 340.85626L176.88437 342.075L175.82187 342.075ZM175.82187 349.45L175.82187 343.23126L176.88437 343.23126L176.88437 349.45L175.82187 349.45ZM182.88437 347.16876L183.91562 347.3094Q183.74374 348.3719 183.04062 348.98126Q182.3375 349.59064 181.32187 349.59064Q180.04062 349.59064 179.25937 348.7625Q178.49374 347.91876 178.49374 346.35626Q178.49374 345.35626 178.82187 344.60626Q179.16562 343.84064 179.8375 343.46564Q180.525 343.09064 181.3375 343.09064Q182.3375 343.09064 182.97812 343.60626Q183.63437 344.10626 183.82187 345.0594L182.79062 345.21564Q182.65 344.59064 182.275 344.27814Q181.9 343.95 181.36874 343.95Q180.57187 343.95 180.07187 344.52814Q179.57187 345.09064 179.57187 346.325Q179.57187 347.59064 180.05624 348.15314Q180.54062 348.71564 181.30624 348.71564Q181.93124 348.71564 182.3375 348.34064Q182.75937 347.96564 182.88437 347.16876ZM184.82187 342.075L184.82187 340.85626L185.88437 340.85626L185.88437 342.075L184.82187 342.075ZM184.82187 349.45L184.82187 343.23126L185.88437 343.23126L185.88437 349.45L184.82187 349.45ZM187.43124 346.34064Q187.43124 344.60626 188.38437 343.77814Q189.18124 343.09064 190.3375 343.09064Q191.61874 343.09064 192.43124 343.9344Q193.25937 344.7625 193.25937 346.2469Q193.25937 347.45 192.9 348.1375Q192.54062 348.825 191.8375 349.21564Q191.15 349.59064 190.3375 349.59064Q189.04062 349.59064 188.22812 348.7625Q187.43124 347.91876 187.43124 346.34064ZM188.50937 346.34064Q188.50937 347.52814 189.025 348.1219Q189.55624 348.71564 190.3375 348.71564Q191.13437 348.71564 191.65 348.1219Q192.16562 347.52814 192.16562 346.3094Q192.16562 345.15314 191.63437 344.5594Q191.11874 343.96564 190.3375 343.96564Q189.55624 343.96564 189.025 344.5594Q188.50937 345.1375 188.50937 346.34064Z" fill-rule="nonzero"/><path fill="#000000" d="M422.6 349.45L422.6 340.85626L423.725 340.85626L423.725 349.45L422.6 349.45ZM425.27188 349.45L425.27188 343.23126L426.20938 343.23126L426.20938 344.10626Q426.89688 343.09064 428.19376 343.09064Q428.75626 343.09064 429.225 343.29376Q429.70938 343.4969 429.94376 343.825Q430.17813 344.15314 430.27188 344.59064Q430.31876 344.8875 430.31876 345.6219L430.31876 349.45L429.27188 349.45L429.27188 345.66876Q429.27188 345.0125 429.14688 344.7Q429.02188 344.3875 428.70938 344.2Q428.39688 343.9969 427.975 343.9969Q427.30313 343.9969 426.80313 344.4344Q426.31876 344.85626 426.31876 346.04376L426.31876 349.45L425.27188 349.45ZM432.52188 349.45L432.52188 344.04376L431.58438 344.04376L431.58438 343.23126L432.52188 343.23126L432.52188 342.5594Q432.52188 341.9344 432.63126 341.6375Q432.7875 341.21564 433.1625 340.96564Q433.55313 340.71564 434.24063 340.71564Q434.69376 340.71564 435.225 340.825L435.06876 341.73126Q434.74063 341.6844 434.44376 341.6844Q433.95938 341.6844 433.75626 341.8875Q433.56876 342.09064 433.56876 342.65314L433.56876 343.23126L434.7875 343.23126L434.7875 344.04376L433.56876 344.04376L433.56876 349.45L432.52188 349.45ZM434.88126 346.34064Q434.88126 344.60626 435.83438 343.77814Q436.63126 343.09064 437.7875 343.09064Q439.06876 343.09064 439.88126 343.9344Q440.70938 344.7625 440.70938 346.2469Q440.70938 347.45 440.35 348.1375Q439.99063 348.825 439.2875 349.21564Q438.6 349.59064 437.7875 349.59064Q436.49063 349.59064 435.67813 348.7625Q434.88126 347.91876 434.88126 346.34064ZM435.95938 346.34064Q435.95938 347.52814 436.475 348.1219Q437.00626 348.71564 437.7875 348.71564Q438.58438 348.71564 439.1 348.1219Q439.61563 347.52814 439.61563 346.3094Q439.61563 345.15314 439.08438 344.5594Q438.56876 343.96564 437.7875 343.96564Q437.00626 343.96564 436.475 344.5594Q435.95938 345.1375 435.95938 346.34064ZM442.25626 349.45L442.25626 343.23126L443.20938 343.23126L443.20938 344.16876Q443.56876 343.5125 443.86563 343.3094Q444.17813 343.09064 444.55313 343.09064Q445.08438 343.09064 445.63126 343.41876L445.27188 344.40314Q444.88126 344.16876 444.50626 344.16876Q444.14688 344.16876 443.86563 344.3875Q443.6 344.59064 443.49063 344.96564Q443.30313 345.52814 443.30313 346.1844L443.30313 349.45L442.25626 349.45ZM446.27188 349.45L446.27188 343.23126L447.20938 343.23126L447.20938 344.10626Q447.50626 343.6375 447.99063 343.3719Q448.475 343.09064 449.1 343.09064Q449.7875 343.09064 450.225 343.3719Q450.67813 343.65314 450.85 344.16876Q451.6 343.09064 452.77188 343.09064Q453.70938 343.09064 454.19376 343.60626Q454.69376 344.10626 454.69376 345.1844L454.69376 349.45L453.64688 349.45L453.64688 345.52814Q453.64688 344.90314 453.5375 344.6219Q453.44376 344.34064 453.17813 344.16876Q452.9125 343.9969 452.5375 343.9969Q451.88126 343.9969 451.44376 344.4344Q451.02188 344.8719 451.02188 345.84064L451.02188 349.45L449.95938 349.45L449.95938 345.40314Q449.95938 344.7 449.69376 344.35626Q449.44376 343.9969 448.86563 343.9969Q448.4125 343.9969 448.0375 344.23126Q447.6625 344.46564 447.49063 344.91876Q447.31876 345.3719 447.31876 346.21564L447.31876 349.45L446.27188 349.45ZM461.52188 347.45L462.61563 347.575Q462.36563 348.52814 461.6625 349.0594Q460.95938 349.59064 459.88126 349.59064Q458.52188 349.59064 457.70938 348.7469Q456.9125 347.90314 456.9125 346.3875Q456.9125 344.825 457.725 343.96564Q458.5375 343.09064 459.81876 343.09064Q461.06876 343.09064 461.85 343.9344Q462.64688 344.77814 462.64688 346.325Q462.64688 346.41876 462.64688 346.60626L458.00626 346.60626Q458.06876 347.6375 458.58438 348.1844Q459.1 348.71564 459.88126 348.71564Q460.45938 348.71564 460.86563 348.41876Q461.2875 348.10626 461.52188 347.45ZM458.06876 345.7469L461.5375 345.7469Q461.475 344.95 461.14688 344.5594Q460.63126 343.95 459.83438 343.95Q459.1 343.95 458.6 344.4344Q458.11563 344.91876 458.06876 345.7469ZM470.94376 349.45L469.89688 349.45L469.89688 342.73126Q469.50626 343.09064 468.88126 343.46564Q468.27188 343.825 467.7875 343.9969L467.7875 342.98126Q468.6625 342.5594 469.31876 341.98126Q469.99063 341.3875 470.27188 340.825L470.94376 340.825L470.94376 349.45Z" fill-rule="nonzero"/><path stroke="#4285f4" stroke-width="4.0" stroke-linecap="butt" d="M133.5 25.55L145.5 25.55" fill-rule="nonzero"/><path fill="#1a1a1a" d="M154.42188 29.55L154.42188 20.95625L157.67188 20.95625Q158.51562 20.95625 158.96875 21.034374Q159.60938 21.14375 160.03125 21.440624Q160.46875 21.7375 160.71875 22.26875Q160.98438 22.8 160.98438 23.440624Q160.98438 24.534374 160.28125 25.3Q159.59375 26.05 157.76562 26.05L155.5625 26.05L155.5625 29.55L154.42188 29.55ZM155.5625 25.05L157.78125 25.05Q158.89062 25.05 159.34375 24.64375Q159.8125 24.221874 159.8125 23.471874Q159.8125 22.940624 159.53125 22.565624Q159.26562 22.175 158.82812 22.05Q158.53125 21.971874 157.76562 21.971874L155.5625 21.971874L155.5625 25.05ZM164.875 29.55L161.54688 20.95625L162.78125 20.95625L165.01562 27.20625Q165.28125 27.95625 165.46875 28.6125Q165.67188 27.909374 165.9375 27.20625L168.25 20.95625L169.40625 20.95625L166.04688 29.55L164.875 29.55ZM171.48438 29.55L174.78125 20.95625L176.0 20.95625L179.51562 29.55L178.23438 29.55L177.21875 26.940624L173.64062 26.940624L172.6875 29.55L171.48438 29.55ZM173.96875 26.01875L176.875 26.01875L175.98438 23.64375Q175.5625 22.565624 175.375 21.8625Q175.20312 22.690624 174.90625 23.503124L173.96875 26.01875ZM183.35938 27.26875L184.39062 27.409374Q184.21875 28.471874 183.51562 29.08125Q182.8125 29.690624 181.79688 29.690624Q180.51562 29.690624 179.73438 28.8625Q178.96875 28.01875 178.96875 26.45625Q178.96875 25.45625 179.29688 24.70625Q179.64062 23.940624 180.3125 23.565624Q181.0 23.190624 181.8125 23.190624Q182.8125 23.190624 183.45312 23.70625Q184.10938 24.20625 184.29688 25.159374L183.26562 25.315624Q183.125 24.690624 182.75 24.378124Q182.375 24.05 181.84375 24.05Q181.04688 24.05 180.54688 24.628124Q180.04688 25.190624 180.04688 26.425Q180.04688 27.690624 180.53125 28.253124Q181.01562 28.815624 181.78125 28.815624Q182.40625 28.815624 182.8125 28.440624Q183.23438 28.065624 183.35938 27.26875ZM189.375 29.55L189.375 28.628124Q188.64062 29.690624 187.39062 29.690624Q186.84375 29.690624 186.35938 29.4875Q185.89062 29.26875 185.65625 28.95625Q185.42188 28.628124 185.32812 28.159374Q185.26562 27.8625 185.26562 27.175L185.26562 23.33125L186.32812 23.33125L186.32812 26.784374Q186.32812 27.596874 186.39062 27.89375Q186.48438 28.3 186.79688 28.55Q187.125 28.784374 187.60938 28.784374Q188.07812 28.784374 188.48438 28.55Q188.90625 28.3 189.07812 27.878124Q189.26562 27.45625 189.26562 26.659374L189.26562 23.33125L190.3125 23.33125L190.3125 29.55L189.375 29.55ZM192.29688 29.55L192.29688 23.33125L193.23438 23.33125L193.23438 24.20625Q193.53125 23.7375 194.01562 23.471874Q194.5 23.190624 195.125 23.190624Q195.8125 23.190624 196.25 23.471874Q196.70312 23.753124 196.875 24.26875Q197.625 23.190624 198.79688 23.190624Q199.73438 23.190624 200.21875 23.70625Q200.71875 24.20625 200.71875 25.284374L200.71875 29.55L199.67188 29.55L199.67188 25.628124Q199.67188 25.003124 199.5625 24.721874Q199.46875 24.440624 199.20312 24.26875Q198.9375 24.096874 198.5625 24.096874Q197.90625 24.096874 197.46875 24.534374Q197.04688 24.971874 197.04688 25.940624L197.04688 29.55L195.98438 29.55L195.98438 25.503124Q195.98438 24.8 195.71875 24.45625Q195.46875 24.096874 194.89062 24.096874Q194.4375 24.096874 194.0625 24.33125Q193.6875 24.565624 193.51562 25.01875Q193.34375 25.471874 193.34375 26.315624L193.34375 29.55L192.29688 29.55ZM207.375 29.55L207.375 28.628124Q206.64062 29.690624 205.39062 29.690624Q204.84375 29.690624 204.35938 29.4875Q203.89062 29.26875 203.65625 28.95625Q203.42188 28.628124 203.32812 28.159374Q203.26562 27.8625 203.26562 27.175L203.26562 23.33125L204.32812 23.33125L204.32812 26.784374Q204.32812 27.596874 204.39062 27.89375Q204.48438 28.3 204.79688 28.55Q205.125 28.784374 205.60938 28.784374Q206.07812 28.784374 206.48438 28.55Q206.90625 28.3 207.07812 27.878124Q207.26562 27.45625 207.26562 26.659374L207.26562 23.33125L208.3125 23.33125L208.3125 29.55L207.375 29.55ZM210.26562 29.55L210.26562 20.95625L211.32812 20.95625L211.32812 29.55L210.26562 29.55ZM217.35938 28.784374Q216.76562 29.284374 216.21875 29.4875Q215.6875 29.690624 215.0625 29.690624Q214.03125 29.690624 213.48438 29.190624Q212.9375 28.690624 212.9375 27.909374Q212.9375 27.45625 213.14062 27.08125Q213.34375 26.690624 213.6875 26.471874Q214.03125 26.2375 214.45312 26.128124Q214.75 26.034374 215.39062 25.95625Q216.65625 25.815624 217.26562 25.596874Q217.26562 25.378124 217.26562 25.33125Q217.26562 24.675 216.96875 24.409374Q216.5625 24.065624 215.76562 24.065624Q215.03125 24.065624 214.67188 24.33125Q214.3125 24.58125 214.14062 25.2375L213.10938 25.096874Q213.25 24.440624 213.57812 24.034374Q213.90625 23.628124 214.51562 23.409374Q215.125 23.190624 215.92188 23.190624Q216.71875 23.190624 217.21875 23.378124Q217.71875 23.565624 217.95312 23.846874Q218.1875 24.128124 218.28125 24.565624Q218.32812 24.83125 218.32812 25.534374L218.32812 26.940624Q218.32812 28.409374 218.39062 28.8Q218.46875 29.190624 218.67188 29.55L217.5625 29.55Q217.40625 29.221874 217.35938 28.784374ZM217.26562 26.425Q216.6875 26.659374 215.54688 26.83125Q214.89062 26.925 214.625 27.05Q214.35938 27.159374 214.20312 27.378124Q214.0625 27.596874 214.0625 27.878124Q214.0625 28.3 214.375 28.58125Q214.70312 28.8625 215.3125 28.8625Q215.92188 28.8625 216.39062 28.596874Q216.875 28.33125 217.09375 27.8625Q217.26562 27.503124 217.26562 26.815624L217.26562 26.425ZM224.32812 29.55L224.32812 28.76875Q223.73438 29.690624 222.59375 29.690624Q221.84375 29.690624 221.21875 29.284374Q220.59375 28.8625 220.25 28.128124Q219.90625 27.39375 219.90625 26.440624Q219.90625 25.51875 220.21875 24.753124Q220.53125 23.9875 221.15625 23.596874Q221.78125 23.190624 222.54688 23.190624Q223.10938 23.190624 223.54688 23.425Q223.98438 23.659374 224.26562 24.034374L224.26562 20.95625L225.3125 20.95625L225.3125 29.55L224.32812 29.55ZM221.0 26.440624Q221.0 27.64375 221.5 28.2375Q222.0 28.815624 222.6875 28.815624Q223.375 28.815624 223.85938 28.253124Q224.34375 27.690624 224.34375 26.534374Q224.34375 25.253124 223.84375 24.659374Q223.35938 24.065624 222.64062 24.065624Q221.9375 24.065624 221.46875 24.64375Q221.0 25.20625 221.0 26.440624ZM226.90625 26.440624Q226.90625 24.70625 227.85938 23.878124Q228.65625 23.190624 229.8125 23.190624Q231.09375 23.190624 231.90625 24.034374Q232.73438 24.8625 232.73438 26.346874Q232.73438 27.55 232.375 28.2375Q232.01562 28.925 231.3125 29.315624Q230.625 29.690624 229.8125 29.690624Q228.51562 29.690624 227.70312 28.8625Q226.90625 28.01875 226.90625 26.440624ZM227.98438 26.440624Q227.98438 27.628124 228.5 28.221874Q229.03125 28.815624 229.8125 28.815624Q230.60938 28.815624 231.125 28.221874Q231.64062 27.628124 231.64062 26.409374Q231.64062 25.253124 231.10938 24.659374Q230.59375 24.065624 229.8125 24.065624Q229.03125 24.065624 228.5 24.659374Q227.98438 25.2375 227.98438 26.440624Z" fill-rule="nonzero"/><path stroke="#ea4335" stroke-width="4.0" stroke-linecap="butt" d="M249.5 25.55L261.5 25.55" fill-rule="nonzero"/><path fill="#1a1a1a" d="M269.48438 29.55L272.78125 20.95625L274.0 20.95625L277.51562 29.55L276.23438 29.55L275.21875 26.940624L271.64062 26.940624L270.6875 29.55L269.48438 29.55ZM271.96875 26.01875L274.875 26.01875L273.98438 23.64375Q273.5625 22.565624 273.375 21.8625Q273.20312 22.690624 272.90625 23.503124L271.96875 26.01875ZM283.5625 26.534374L284.6875 26.83125Q284.32812 28.221874 283.40625 28.95625Q282.48438 29.690624 281.14062 29.690624Q279.75 29.690624 278.875 29.128124Q278.0 28.565624 277.54688 27.503124Q277.09375 26.425 277.09375 25.190624Q277.09375 23.846874 277.60938 22.846874Q278.125 21.846874 279.0625 21.33125Q280.01562 20.815624 281.15625 20.815624Q282.4375 20.815624 283.3125 21.471874Q284.20312 22.128124 284.54688 23.315624L283.42188 23.58125Q283.125 22.64375 282.54688 22.221874Q281.98438 21.784374 281.125 21.784374Q280.14062 21.784374 279.46875 22.26875Q278.8125 22.7375 278.53125 23.534374Q278.26562 24.33125 278.26562 25.190624Q278.26562 26.284374 278.57812 27.096874Q278.90625 27.909374 279.57812 28.315624Q280.25 28.721874 281.04688 28.721874Q282.0 28.721874 282.65625 28.175Q283.32812 27.628124 283.5625 26.534374ZM288.48438 29.55L291.78125 20.95625L293.0 20.95625L296.51562 29.55L295.23438 29.55L294.21875 26.940624L290.64062 26.940624L289.6875 29.55L288.48438 29.55ZM290.96875 26.01875L293.875 26.01875L292.98438 23.64375Q292.5625 22.565624 292.375 21.8625Q292.20312 22.690624 291.90625 23.503124L290.96875 26.01875ZM300.35938 27.26875L301.39062 27.409374Q301.21875 28.471874 300.51562 29.08125Q299.8125 29.690624 298.79688 29.690624Q297.51562 29.690624 296.73438 28.8625Q295.96875 28.01875 295.96875 26.45625Q295.96875 25.45625 296.29688 24.70625Q296.64062 23.940624 297.3125 23.565624Q298.0 23.190624 298.8125 23.190624Q299.8125 23.190624 300.45312 23.70625Q301.10938 24.20625 301.29688 25.159374L300.26562 25.315624Q300.125 24.690624 299.75 24.378124Q299.375 24.05 298.84375 24.05Q298.04688 24.05 297.54688 24.628124Q297.04688 25.190624 297.04688 26.425Q297.04688 27.690624 297.53125 28.253124Q298.01562 28.815624 298.78125 28.815624Q299.40625 28.815624 299.8125 28.440624Q300.23438 28.065624 300.35938 27.26875ZM306.375 29.55L306.375 28.628124Q305.64062 29.690624 304.39062 29.690624Q303.84375 29.690624 303.35938 29.4875Q302.89062 29.26875 302.65625 28.95625Q302.42188 28.628124 302.32812 28.159374Q302.26562 27.8625 302.26562 27.175L302.26562 23.33125L303.32812 23.33125L303.32812 26.784374Q303.32812 27.596874 303.39062 27.89375Q303.48438 28.3 303.79688 28.55Q304.125 28.784374 304.60938 28.784374Q305.07812 28.784374 305.48438 28.55Q305.90625 28.3 306.07812 27.878124Q306.26562 27.45625 306.26562 26.659374L306.26562 23.33125L307.3125 23.33125L307.3125 29.55L306.375 29.55ZM309.29688 29.55L309.29688 23.33125L310.23438 23.33125L310.23438 24.20625Q310.53125 23.7375 311.01562 23.471874Q311.5 23.190624 312.125 23.190624Q312.8125 23.190624 313.25 23.471874Q313.70312 23.753124 313.875 24.26875Q314.625 23.190624 315.79688 23.190624Q316.73438 23.190624 317.21875 23.70625Q317.71875 24.20625 317.71875 25.284374L317.71875 29.55L316.67188 29.55L316.67188 25.628124Q316.67188 25.003124 316.5625 24.721874Q316.46875 24.440624 316.20312 24.26875Q315.9375 24.096874 315.5625 24.096874Q314.90625 24.096874 314.46875 24.534374Q314.04688 24.971874 314.04688 25.940624L314.04688 29.55L312.98438 29.55L312.98438 25.503124Q312.98438 24.8 312.71875 24.45625Q312.46875 24.096874 311.89062 24.096874Q311.4375 24.096874 311.0625 24.33125Q310.6875 24.565624 310.51562 25.01875Q310.34375 25.471874 310.34375 26.315624L310.34375 29.55L309.29688 29.55ZM324.375 29.55L324.375 28.628124Q323.64062 29.690624 322.39062 29.690624Q321.84375 29.690624 321.35938 29.4875Q320.89062 29.26875 320.65625 28.95625Q320.42188 28.628124 320.32812 28.159374Q320.26562 27.8625 320.26562 27.175L320.26562 23.33125L321.32812 23.33125L321.32812 26.784374Q321.32812 27.596874 321.39062 27.89375Q321.48438 28.3 321.79688 28.55Q322.125 28.784374 322.60938 28.784374Q323.07812 28.784374 323.48438 28.55Q323.90625 28.3 324.07812 27.878124Q324.26562 27.45625 324.26562 26.659374L324.26562 23.33125L325.3125 23.33125L325.3125 29.55L324.375 29.55ZM327.26562 29.55L327.26562 20.95625L328.32812 20.95625L328.32812 29.55L327.26562 29.55ZM334.35938 28.784374Q333.76562 29.284374 333.21875 29.4875Q332.6875 29.690624 332.0625 29.690624Q331.03125 29.690624 330.48438 29.190624Q329.9375 28.690624 329.9375 27.909374Q329.9375 27.45625 330.14062 27.08125Q330.34375 26.690624 330.6875 26.471874Q331.03125 26.2375 331.45312 26.128124Q331.75 26.034374 332.39062 25.95625Q333.65625 25.815624 334.26562 25.596874Q334.26562 25.378124 334.26562 25.33125Q334.26562 24.675 333.96875 24.409374Q333.5625 24.065624 332.76562 24.065624Q332.03125 24.065624 331.67188 24.33125Q331.3125 24.58125 331.14062 25.2375L330.10938 25.096874Q330.25 24.440624 330.57812 24.034374Q330.90625 23.628124 331.51562 23.409374Q332.125 23.190624 332.92188 23.190624Q333.71875 23.190624 334.21875 23.378124Q334.71875 23.565624 334.95312 23.846874Q335.1875 24.128124 335.28125 24.565624Q335.32812 24.83125 335.32812 25.534374L335.32812 26.940624Q335.32812 28.409374 335.39062 28.8Q335.46875 29.190624 335.67188 29.55L334.5625 29.55Q334.40625 29.221874 334.35938 28.784374ZM334.26562 26.425Q333.6875 26.659374 332.54688 26.83125Q331.89062 26.925 331.625 27.05Q331.35938 27.159374 331.20312 27.378124Q331.0625 27.596874 331.0625 27.878124Q331.0625 28.3 331.375 28.58125Q331.70312 28.8625 332.3125 28.8625Q332.92188 28.8625 333.39062 28.596874Q333.875 28.33125 334.09375 27.8625Q334.26562 27.503124 334.26562 26.815624L334.26562 26.425ZM341.32812 29.55L341.32812 28.76875Q340.73438 29.690624 339.59375 29.690624Q338.84375 29.690624 338.21875 29.284374Q337.59375 28.8625 337.25 28.128124Q336.90625 27.39375 336.90625 26.440624Q336.90625 25.51875 337.21875 24.753124Q337.53125 23.9875 338.15625 23.596874Q338.78125 23.190624 339.54688 23.190624Q340.10938 23.190624 340.54688 23.425Q340.98438 23.659374 341.26562 24.034374L341.26562 20.95625L342.3125 20.95625L342.3125 29.55L341.32812 29.55ZM338.0 26.440624Q338.0 27.64375 338.5 28.2375Q339.0 28.815624 339.6875 28.815624Q340.375 28.815624 340.85938 28.253124Q341.34375 27.690624 341.34375 26.534374Q341.34375 25.253124 340.84375 24.659374Q340.35938 24.065624 339.64062 24.065624Q338.9375 24.065624 338.46875 24.64375Q338.0 25.20625 338.0 26.440624ZM343.90625 26.440624Q343.90625 24.70625 344.85938 23.878124Q345.65625 23.190624 346.8125 23.190624Q348.09375 23.190624 348.90625 24.034374Q349.73438 24.8625 349.73438 26.346874Q349.73438 27.55 349.375 28.2375Q349.01562 28.925 348.3125 29.315624Q347.625 29.690624 346.8125 29.690624Q345.51562 29.690624 344.70312 28.8625Q343.90625 28.01875 343.90625 26.440624ZM344.98438 26.440624Q344.98438 27.628124 345.5 28.221874Q346.03125 28.815624 346.8125 28.815624Q347.60938 28.815624 348.125 28.221874Q348.64062 27.628124 348.64062 26.409374Q348.64062 25.253124 348.10938 24.659374Q347.59375 24.065624 346.8125 24.065624Q346.03125 24.065624 345.5 24.659374Q344.98438 25.2375 344.98438 26.440624Z" fill-rule="nonzero"/><path stroke="#fbbc04" stroke-width="4.0" stroke-linecap="butt" d="M366.5 25.55L378.5 25.55" fill-rule="nonzero"/><path fill="#1a1a1a" d="M387.45312 29.55L387.45312 20.95625L393.65625 20.95625L393.65625 21.971874L388.59375 21.971874L388.59375 24.596874L393.34375 24.596874L393.34375 25.6125L388.59375 25.6125L388.59375 28.534374L393.85938 28.534374L393.85938 29.55L387.45312 29.55ZM397.875 29.55L394.54688 20.95625L395.78125 20.95625L398.01562 27.20625Q398.28125 27.95625 398.46875 28.6125Q398.67188 27.909374 398.9375 27.20625L401.25 20.95625L402.40625 20.95625L399.04688 29.55L397.875 29.55ZM404.48438 29.55L407.78125 20.95625L409.0 20.95625L412.51562 29.55L411.23438 29.55L410.21875 26.940624L406.64062 26.940624L405.6875 29.55L404.48438 29.55ZM406.96875 26.01875L409.875 26.01875L408.98438 23.64375Q408.5625 22.565624 408.375 21.8625Q408.20312 22.690624 407.90625 23.503124L406.96875 26.01875ZM416.35938 27.26875L417.39062 27.409374Q417.21875 28.471874 416.51562 29.08125Q415.8125 29.690624 414.79688 29.690624Q413.51562 29.690624 412.73438 28.8625Q411.96875 28.01875 411.96875 26.45625Q411.96875 25.45625 412.29688 24.70625Q412.64062 23.940624 413.3125 23.565624Q414.0 23.190624 414.8125 23.190624Q415.8125 23.190624 416.45312 23.70625Q417.10938 24.20625 417.29688 25.159374L416.26562 25.315624Q416.125 24.690624 415.75 24.378124Q415.375 24.05 414.84375 24.05Q414.04688 24.05 413.54688 24.628124Q413.04688 25.190624 413.04688 26.425Q413.04688 27.690624 413.53125 28.253124Q414.01562 28.815624 414.78125 28.815624Q415.40625 28.815624 415.8125 28.440624Q416.23438 28.065624 416.35938 27.26875ZM422.375 29.55L422.375 28.628124Q421.64062 29.690624 420.39062 29.690624Q419.84375 29.690624 419.35938 29.4875Q418.89062 29.26875 418.65625 28.95625Q418.42188 28.628124 418.32812 28.159374Q418.26562 27.8625 418.26562 27.175L418.26562 23.33125L419.32812 23.33125L419.32812 26.784374Q419.32812 27.596874 419.39062 27.89375Q419.48438 28.3 419.79688 28.55Q420.125 28.784374 420.60938 28.784374Q421.07812 28.784374 421.48438 28.55Q421.90625 28.3 422.07812 27.878124Q422.26562 27.45625 422.26562 26.659374L422.26562 23.33125L423.3125 23.33125L423.3125 29.55L422.375 29.55ZM425.29688 29.55L425.29688 23.33125L426.23438 23.33125L426.23438 24.20625Q426.53125 23.7375 427.01562 23.471874Q427.5 23.190624 428.125 23.190624Q428.8125 23.190624 429.25 23.471874Q429.70312 23.753124 429.875 24.26875Q430.625 23.190624 431.79688 23.190624Q432.73438 23.190624 433.21875 23.70625Q433.71875 24.20625 433.71875 25.284374L433.71875 29.55L432.67188 29.55L432.67188 25.628124Q432.67188 25.003124 432.5625 24.721874Q432.46875 24.440624 432.20312 24.26875Q431.9375 24.096874 431.5625 24.096874Q430.90625 24.096874 430.46875 24.534374Q430.04688 24.971874 430.04688 25.940624L430.04688 29.55L428.98438 29.55L428.98438 25.503124Q428.98438 24.8 428.71875 24.45625Q428.46875 24.096874 427.89062 24.096874Q427.4375 24.096874 427.0625 24.33125Q426.6875 24.565624 426.51562 25.01875Q426.34375 25.471874 426.34375 26.315624L426.34375 29.55L425.29688 29.55ZM440.375 29.55L440.375 28.628124Q439.64062 29.690624 438.39062 29.690624Q437.84375 29.690624 437.35938 29.4875Q436.89062 29.26875 436.65625 28.95625Q436.42188 28.628124 436.32812 28.159374Q436.26562 27.8625 436.26562 27.175L436.26562 23.33125L437.32812 23.33125L437.32812 26.784374Q437.32812 27.596874 437.39062 27.89375Q437.48438 28.3 437.79688 28.55Q438.125 28.784374 438.60938 28.784374Q439.07812 28.784374 439.48438 28.55Q439.90625 28.3 440.07812 27.878124Q440.26562 27.45625 440.26562 26.659374L440.26562 23.33125L441.3125 23.33125L441.3125 29.55L440.375 29.55ZM443.26562 29.55L443.26562 20.95625L444.32812 20.95625L444.32812 29.55L443.26562 29.55ZM450.35938 28.784374Q449.76562 29.284374 449.21875 29.4875Q448.6875 29.690624 448.0625 29.690624Q447.03125 29.690624 446.48438 29.190624Q445.9375 28.690624 445.9375 27.909374Q445.9375 27.45625 446.14062 27.08125Q446.34375 26.690624 446.6875 26.471874Q447.03125 26.2375 447.45312 26.128124Q447.75 26.034374 448.39062 25.95625Q449.65625 25.815624 450.26562 25.596874Q450.26562 25.378124 450.26562 25.33125Q450.26562 24.675 449.96875 24.409374Q449.5625 24.065624 448.76562 24.065624Q448.03125 24.065624 447.67188 24.33125Q447.3125 24.58125 447.14062 25.2375L446.10938 25.096874Q446.25 24.440624 446.57812 24.034374Q446.90625 23.628124 447.51562 23.409374Q448.125 23.190624 448.92188 23.190624Q449.71875 23.190624 450.21875 23.378124Q450.71875 23.565624 450.95312 23.846874Q451.1875 24.128124 451.28125 24.565624Q451.32812 24.83125 451.32812 25.534374L451.32812 26.940624Q451.32812 28.409374 451.39062 28.8Q451.46875 29.190624 451.67188 29.55L450.5625 29.55Q450.40625 29.221874 450.35938 28.784374ZM450.26562 26.425Q449.6875 26.659374 448.54688 26.83125Q447.89062 26.925 447.625 27.05Q447.35938 27.159374 447.20312 27.378124Q447.0625 27.596874 447.0625 27.878124Q447.0625 28.3 447.375 28.58125Q447.70312 28.8625 448.3125 28.8625Q448.92188 28.8625 449.39062 28.596874Q449.875 28.33125 450.09375 27.8625Q450.26562 27.503124 450.26562 26.815624L450.26562 26.425ZM457.32812 29.55L457.32812 28.76875Q456.73438 29.690624 455.59375 29.690624Q454.84375 29.690624 454.21875 29.284374Q453.59375 28.8625 453.25 28.128124Q452.90625 27.39375 452.90625 26.440624Q452.90625 25.51875 453.21875 24.753124Q453.53125 23.9875 454.15625 23.596874Q454.78125 23.190624 455.54688 23.190624Q456.10938 23.190624 456.54688 23.425Q456.98438 23.659374 457.26562 24.034374L457.26562 20.95625L458.3125 20.95625L458.3125 29.55L457.32812 29.55ZM454.0 26.440624Q454.0 27.64375 454.5 28.2375Q455.0 28.815624 455.6875 28.815624Q456.375 28.815624 456.85938 28.253124Q457.34375 27.690624 457.34375 26.534374Q457.34375 25.253124 456.84375 24.659374Q456.35938 24.065624 455.64062 24.065624Q454.9375 24.065624 454.46875 24.64375Q454.0 25.20625 454.0 26.440624ZM459.90625 26.440624Q459.90625 24.70625 460.85938 23.878124Q461.65625 23.190624 462.8125 23.190624Q464.09375 23.190624 464.90625 24.034374Q465.73438 24.8625 465.73438 26.346874Q465.73438 27.55 465.375 28.2375Q465.01562 28.925 464.3125 29.315624Q463.625 29.690624 462.8125 29.690624Q461.51562 29.690624 460.70312 28.8625Q459.90625 28.01875 459.90625 26.440624ZM460.98438 26.440624Q460.98438 27.628124 461.5 28.221874Q462.03125 28.815624 462.8125 28.815624Q463.60938 28.815624 464.125 28.221874Q464.64062 27.628124 464.64062 26.409374Q464.64062 25.253124 464.10938 24.659374Q463.59375 24.065624 462.8125 24.065624Q462.03125 24.065624 461.5 24.659374Q460.98438 25.2375 460.98438 26.440624Z" fill-rule="nonzero"/></svg>