<svg version="1.1" viewBox="0.0 0.0 600.0 371.0" fill="none" stroke="none" stroke-linecap="square" stroke-miterlimit="10" width="600" height="371" xmlns:xlink="http://www.w3.org/1999/xlink" xmlns="http://www.w3.org/2000/svg"><path fill="#ffffff" d="M0 0L600.0 0L600.0 371.0L0 371.0L0 0Z" fill-rule="nonzero"/><path stroke="#333333" stroke-width="1.0" stroke-linecap="butt" d="M45.5 300.5L581.5 300.5" fill-rule="nonzero"/><path stroke="#cccccc" stroke-width="1.0" stroke-linecap="butt" d="M45.5 238.5L581.5 238.5" fill-rule="nonzero"/><path stroke="#cccccc" stroke-width="1.0" stroke-linecap="butt" d="M45.5 176.5L581.5 176.5" fill-rule="nonzero"/><path stroke="#cccccc" stroke-width="1.0" stroke-linecap="butt" d="M45.5 114.5L581.5 114.5" fill-rule="nonzero"/><path stroke="#cccccc" stroke-width="1.0" stroke-linecap="butt" d="M45.5 51.5L581.5 51.5" fill-rule="nonzero"/><path stroke="#eeeeee" stroke-width="1.0" stroke-linecap="butt" d="M112.5375 284.45L112.5375 300.45" fill-rule="nonzero"/><path stroke="#eeeeee" stroke-width="1.0" stroke-linecap="butt" d="M112.5375 284.45L112.5375 300.45" fill-rule="nonzero"/><clipPath id="id_0"><path d="M45.55 51.916668L581.45 51.916668L581.45 300.45L45.55 300.45L45.55 51.916668Z" clip-rule="nonzero"/></clipPath><path stroke="#4285f4" stroke-width="2.0" stroke-linecap="butt" clip-path="url(#id_0)" d="M112.5375 300.45L246.5125 183.63933L380.4875 133.93266L514.4625 101.62334" fill-rule="nonzero"/><path stroke="#ea4335" stroke-width="2.0" stroke-linecap="butt" clip-path="url(#id_0)" d="M112.5375 300.45L246.5125 186.24893L380.4875 147.9748L514.4625 135.42387" fill-rule="nonzero"/><path stroke="#fbbc04" stroke-width="2.0" stroke-linecap="butt" clip-path="url(#id_0)" d="M112.5375 300.45L246.5125 181.77533L380.4875 155.058L514.4625 127.71933" fill-rule="nonzero"/><path fill="#4285f4" clip-path="url(#id_0)" d="M112.5375 300.45C112.5375 300.45 112.5375 300.45 112.5375 300.45C112.5375 300.45 112.5375 300.45 112.5375 300.45C112.5375 300.45 112.5375 300.45 112.5375 300.45C112.5375 300.45 112.5375 300.45 112.5375 300.45Z" fill-rule="nonzero"/><path fill="#4285f4" clip-path="url(#id_0)" d="M246.5125 183.63933C246.5125 183.63933 246.5125 183.63933 246.5125 183.63933C246.5125 183.63933 246.5125 183.63933 246.5125 183.63933C246.5125 183.63933 246.5125 183.63933 246.5125 183.63933C246.5125 183.63933 246.5125 183.63933 246.5125 183.63933Z" fill-rule="nonzero"/><path fill="#4285f4" clip-path="url(#id_0)" d="M380.4875 133.93266C380.4875 133.93266 380.4875 133.93266 380.4875 133.93266C380.4875 133.93266 380.4875 133.93266 380.4875 133.93266C380.4875 133.93266 380.4875 133.93266 380.4875 133.93266C380.4875 133.93266 380.4875 133.93266 380.4875 133.93266Z" fill-rule="nonzero"/><path fill="#4285f4" clip-path="url(#id_0)" d="M514.4625 101.62334C514.4625 101.62334 514.4625 101.62334 514.4625 101.62334C514.4625 101.62334 514.4625 101.62334 514.4625 101.62334C514.4625 101.62334 514.4625 101.62334 514.4625 101.62334C514.4625 101.62334 514.4625 101.62334 514.4625 101.62334Z" fill-rule="nonzero"/><path fill="#ea4335" clip-path="url(#id_0)" d="M112.5375 300.45C112.5375 300.45 112.5375 300.45 112.5375 300.45C112.5375 300.45 112.5375 300.45 112.5375 300.45C112.5375 300.45 112.5375 300.45 112.5375 300.45C112.5375 300.45 112.5375 300.45 112.5375 300.45Z" fill-rule="nonzero"/><path fill="#ea4335" clip-path="url(#id_0)" d="M246.5125 186.24893C246.5125 186.24893 246.5125 186.24893 246.5125 186.24893C246.5125 186.24893 246.5125 186.24893 246.5125 186.24893C246.5125 186.24893 246.5125 186.24893 246.5125 186.24893C246.5125 186.24893 246.5125 186.24893 246.5125 186.24893Z" fill-rule="nonzero"/><path fill="#ea4335" clip-path="url(#id_0)" d="M380.4875 147.9748C380.4875 147.9748 380.4875 147.9748 380.4875 147.9748C380.4875 147.9748 380.4875 147.9748 380.4875 147.9748C380.4875 147.9748 380.4875 147.9748 380.4875 147.9748C380.4875 147.9748 380.4875 147.9748 380.4875 147.9748Z" fill-rule="nonzero"/><path fill="#ea4335" clip-path="url(#id_0)" d="M514.4625 135.42387C514.4625 135.42387 514.4625 135.42387 514.4625 135.42387C514.4625 135.42387 514.4625 135.42387 514.4625 135.42387C514.4625 135.42387 514.4625 135.42387 514.4625 135.42387C514.4625 135.42387 514.4625 135.42387 514.4625 135.42387Z" fill-rule="nonzero"/><path fill="#fbbc04" clip-path="url(#id_0)" d="M112.5375 300.45C112.5375 300.45 112.5375 300.45 112.5375 300.45C112.5375 300.45 112.5375 300.45 112.5375 300.45C112.5375 300.45 112.5375 300.45 112.5375 300.45C112.5375 300.45 112.5375 300.45 112.5375 300.45Z" fill-rule="nonzero"/><path fill="#fbbc04" clip-path="url(#id_0)" d="M246.5125 181.77533C246.5125 181.77533 246.5125 181.77533 246.5125 181.77533C246.5125 181.77533 246.5125 181.77533 246.5125 181.77533C246.5125 181.77533 246.5125 181.77533 246.5125 181.77533C246.5125 181.77533 246.5125 181.77533 246.5125 181.77533Z" fill-rule="nonzero"/><path fill="#fbbc04" clip-path="url(#id_0)" d="M380.4875 155.058C380.4875 155.058 380.4875 155.058 380.4875 155.058C380.4875 155.058 380.4875 155.058 380.4875 155.058C380.4875 155.058 380.4875 155.058 380.4875 155.058C380.4875 155.058 380.4875 155.058 380.4875 155.058Z" fill-rule="nonzero"/><path fill="#fbbc04" clip-path="url(#id_0)" d="M514.4625 127.71933C514.4625 127.71933 514.4625 127.71933 514.4625 127.71933C514.4625 127.71933 514.4625 127.71933 514.4625 127.71933C514.4625 127.71933 514.4625 127.71933 514.4625 127.71933C514.4625 127.71933 514.4625 127.71933 514.4625 127.71933Z" fill-rule="nonzero"/><path stroke="#ffffff" stroke-width="3.0" stroke-linejoin="round" stroke-linecap="round" d="M252.73692 196.71973Q252.4088 197.12598 251.92442 197.37598Q251.45567 197.61035 250.89317 197.61035Q250.1588 197.61035 249.61192 197.25098Q249.06505 196.8916 248.76817 196.23535Q248.4713 195.56348 248.4713 194.7666Q248.4713 193.92285 248.7838 193.23535Q249.11192 192.54785 249.70567 192.18848Q250.31505 191.81348 251.11192 191.81348Q252.37755 191.81348 253.0963 192.7666Q253.83067 193.71973 253.83067 195.34473L253.83067 195.65723Q253.83067 198.15723 252.8463 199.29785Q251.86192 200.43848 249.87755 200.46973L249.6588 200.46973L249.6588 199.56348L249.89317 199.56348Q251.23692 199.53223 251.95567 198.86035Q252.67442 198.18848 252.73692 196.71973ZM251.06505 196.71973Q251.61192 196.71973 252.06505 196.3916Q252.5338 196.04785 252.75255 195.56348L252.75255 195.12598Q252.75255 194.06348 252.2838 193.3916Q251.81505 192.71973 251.11192 192.71973Q250.39317 192.71973 249.95567 193.2666Q249.5338 193.81348 249.5338 194.71973Q249.5338 195.59473 249.94005 196.15723Q250.36192 196.71973 251.06505 196.71973ZM260.1588 197.61035L261.3463 197.61035L261.3463 198.48535L260.1588 198.48535L260.1588 200.46973L259.0807 200.46973L259.0807 198.48535L255.19005 198.48535L255.19005 197.84473L259.00256 191.93848L260.1588 191.93848L260.1588 197.61035ZM256.42444 197.61035L259.0807 197.61035L259.0807 193.42285L258.94006 193.65723L256.42444 197.61035Z" fill-rule="nonzero"/><path fill="#4285f4" d="M252.73692 196.71973Q252.4088 197.12598 251.92442 197.37598Q251.45567 197.61035 250.89317 197.61035Q250.1588 197.61035 249.61192 197.25098Q249.06505 196.8916 248.76817 196.23535Q248.4713 195.56348 248.4713 194.7666Q248.4713 193.92285 248.7838 193.23535Q249.11192 192.54785 249.70567 192.18848Q250.31505 191.81348 251.11192 191.81348Q252.37755 191.81348 253.0963 192.7666Q253.83067 193.71973 253.83067 195.34473L253.83067 195.65723Q253.83067 198.15723 252.8463 199.29785Q251.86192 200.43848 249.87755 200.46973L249.6588 200.46973L249.6588 199.56348L249.89317 199.56348Q251.23692 199.53223 251.95567 198.86035Q252.67442 198.18848 252.73692 196.71973ZM251.06505 196.71973Q251.61192 196.71973 252.06505 196.3916Q252.5338 196.04785 252.75255 195.56348L252.75255 195.12598Q252.75255 194.06348 252.2838 193.3916Q251.81505 192.71973 251.11192 192.71973Q250.39317 192.71973 249.95567 193.2666Q249.5338 193.81348 249.5338 194.71973Q249.5338 195.59473 249.94005 196.15723Q250.36192 196.71973 251.06505 196.71973ZM260.1588 197.61035L261.3463 197.61035L261.3463 198.48535L260.1588 198.48535L260.1588 200.46973L259.0807 200.46973L259.0807 198.48535L255.19005 198.48535L255.19005 197.84473L259.00256 191.93848L260.1588 191.93848L260.1588 197.61035ZM256.42444 197.61035L259.0807 197.61035L259.0807 193.42285L258.94006 193.65723L256.42444 197.61035Z" fill-rule="nonzero"/><path stroke="#ffffff" stroke-width="3.0" stroke-linejoin="round" stroke-linecap="round" d="M369.51627 122.522896L368.43814 122.522896L368.43814 115.304146L366.25064 116.10102L366.25064 115.116646L369.36002 113.94477L369.51627 113.94477L369.51627 122.522896ZM374.5319 117.72602L375.3444 117.72602Q376.12564 117.710396 376.56314 117.31977Q377.00064 116.929146 377.00064 116.25727Q377.00064 114.75727 375.50064 114.75727Q374.79752 114.75727 374.37564 115.16352Q373.9694 115.56977 373.9694 116.22602L372.87564 116.22602Q372.87564 115.210396 373.61002 114.53852Q374.36002 113.866646 375.50064 113.866646Q376.70377 113.866646 377.39127 114.50727Q378.07877 115.147896 378.07877 116.28852Q378.07877 116.85102 377.7194 117.366646Q377.36002 117.88227 376.73502 118.147896Q377.43814 118.366646 377.81314 118.88227Q378.20377 119.397896 378.20377 120.147896Q378.20377 121.28852 377.45377 121.97602Q376.70377 122.647896 375.50064 122.647896Q374.31314 122.647896 373.54752 121.991646Q372.79752 121.335396 372.79752 120.272896L373.89127 120.272896Q373.89127 120.94477 374.32877 121.35102Q374.76627 121.75727 375.51627 121.75727Q376.29752 121.75727 376.70377 121.35102Q377.12564 120.929146 377.12564 120.16352Q377.12564 119.429146 376.67252 119.03852Q376.2194 118.63227 375.3444 118.616646L374.5319 118.616646L374.5319 117.72602ZM384.5319 119.66352L385.7194 119.66352L385.7194 120.53852L384.5319 120.53852L384.5319 122.522896L383.45377 122.522896L383.45377 120.53852L379.56314 120.53852L379.56314 119.897896L383.37564 113.991646L384.5319 113.991646L384.5319 119.66352ZM380.79752 119.66352L383.45377 119.66352L383.45377 115.47602L383.31314 115.710396L380.79752 119.66352Z" fill-rule="nonzero"/><path fill="#4285f4" d="M369.51627 122.522896L368.43814 122.522896L368.43814 115.304146L366.25064 116.10102L366.25064 115.116646L369.36002 113.94477L369.51627 113.94477L369.51627 122.522896ZM374.5319 117.72602L375.3444 117.72602Q376.12564 117.710396 376.56314 117.31977Q377.00064 116.929146 377.00064 116.25727Q377.00064 114.75727 375.50064 114.75727Q374.79752 114.75727 374.37564 115.16352Q373.9694 115.56977 373.9694 116.22602L372.87564 116.22602Q372.87564 115.210396 373.61002 114.53852Q374.36002 113.866646 375.50064 113.866646Q376.70377 113.866646 377.39127 114.50727Q378.07877 115.147896 378.07877 116.28852Q378.07877 116.85102 377.7194 117.366646Q377.36002 117.88227 376.73502 118.147896Q377.43814 118.366646 377.81314 118.88227Q378.20377 119.397896 378.20377 120.147896Q378.20377 121.28852 377.45377 121.97602Q376.70377 122.647896 375.50064 122.647896Q374.31314 122.647896 373.54752 121.991646Q372.79752 121.335396 372.79752 120.272896L373.89127 120.272896Q373.89127 120.94477 374.32877 121.35102Q374.76627 121.75727 375.51627 121.75727Q376.29752 121.75727 376.70377 121.35102Q377.12564 120.929146 377.12564 120.16352Q377.12564 119.429146 376.67252 119.03852Q376.2194 118.63227 375.3444 118.616646L374.5319 118.616646L374.5319 117.72602ZM384.5319 119.66352L385.7194 119.66352L385.7194 120.53852L384.5319 120.53852L384.5319 122.522896L383.45377 122.522896L383.45377 120.53852L379.56314 120.53852L379.56314 119.897896L383.37564 113.991646L384.5319 113.991646L384.5319 119.66352ZM380.79752 119.66352L383.45377 119.66352L383.45377 115.47602L383.31314 115.710396L380.79752 119.66352Z" fill-rule="nonzero"/><path stroke="#ffffff" stroke-width="3.0" stroke-linejoin="round" stroke-linecap="round" d="M508.6362 99.03424L507.55807 99.03424L507.55807 91.81549L505.37057 92.612366L505.37057 91.62799L508.47995 90.456116L508.6362 90.456116L508.6362 99.03424ZM516.33936 90.50299L516.33936 91.40924L516.1362 91.40924Q514.8706 91.44049 514.1206 92.174866Q513.3706 92.893616 513.2456 94.206116Q513.9331 93.44049 515.08936 93.44049Q516.1987 93.44049 516.8706 94.22174Q517.5425 95.00299 517.5425 96.25299Q517.5425 97.56549 516.8237 98.362366Q516.105 99.15924 514.8862 99.15924Q513.6675 99.15924 512.90186 98.22174Q512.15186 97.268616 512.15186 95.78424L512.15186 95.37799Q512.15186 93.018616 513.15186 91.768616Q514.15186 90.518616 516.1362 90.50299L516.33936 90.50299ZM514.9175 94.34674Q514.355 94.34674 513.8862 94.674866Q513.4175 95.00299 513.23 95.518616L513.23 95.90924Q513.23 96.97174 513.6987 97.612366Q514.1831 98.25299 514.8862 98.25299Q515.6206 98.25299 516.0425 97.72174Q516.46436 97.174866 516.46436 96.299866Q516.46436 95.424866 516.0425 94.893616Q515.6206 94.34674 514.9175 94.34674ZM524.4331 95.393616Q524.4331 97.299866 523.77686 98.237366Q523.1362 99.15924 521.7456 99.15924Q520.3862 99.15924 519.73 98.25299Q519.0737 97.34674 519.0425 95.53424L519.0425 94.09674Q519.0425 92.206116 519.6831 91.299866Q520.33936 90.37799 521.73 90.37799Q523.105 90.37799 523.7612 91.268616Q524.4175 92.143616 524.4331 93.987366L524.4331 95.393616ZM523.33936 93.90924Q523.33936 92.53424 522.9487 91.90924Q522.5737 91.268616 521.73 91.268616Q520.90186 91.268616 520.5112 91.90924Q520.1362 92.53424 520.1362 93.831116L520.1362 95.56549Q520.1362 96.94049 520.52686 97.612366Q520.9331 98.268616 521.7456 98.268616Q522.5425 98.268616 522.9331 97.643616Q523.3237 97.018616 523.33936 95.69049L523.33936 93.90924Z" fill-rule="nonzero"/><path fill="#4285f4" d="M508.6362 99.03424L507.55807 99.03424L507.55807 91.81549L505.37057 92.612366L505.37057 91.62799L508.47995 90.456116L508.6362 90.456116L508.6362 99.03424ZM516.33936 90.50299L516.33936 91.40924L516.1362 91.40924Q514.8706 91.44049 514.1206 92.174866Q513.3706 92.893616 513.2456 94.206116Q513.9331 93.44049 515.08936 93.44049Q516.1987 93.44049 516.8706 94.22174Q517.5425 95.00299 517.5425 96.25299Q517.5425 97.56549 516.8237 98.362366Q516.105 99.15924 514.8862 99.15924Q513.6675 99.15924 512.90186 98.22174Q512.15186 97.268616 512.15186 95.78424L512.15186 95.37799Q512.15186 93.018616 513.15186 91.768616Q514.15186 90.518616 516.1362 90.50299L516.33936 90.50299ZM514.9175 94.34674Q514.355 94.34674 513.8862 94.674866Q513.4175 95.00299 513.23 95.518616L513.23 95.90924Q513.23 96.97174 513.6987 97.612366Q514.1831 98.25299 514.8862 98.25299Q515.6206 98.25299 516.0425 97.72174Q516.46436 97.174866 516.46436 96.299866Q516.46436 95.424866 516.0425 94.893616Q515.6206 94.34674 514.9175 94.34674ZM524.4331 95.393616Q524.4331 97.299866 523.77686 98.237366Q523.1362 99.15924 521.7456 99.15924Q520.3862 99.15924 519.73 98.25299Q519.0737 97.34674 519.0425 95.53424L519.0425 94.09674Q519.0425 92.206116 519.6831 91.299866Q520.33936 90.37799 521.73 90.37799Q523.105 90.37799 523.7612 91.268616Q524.4175 92.143616 524.4331 93.987366L524.4331 95.393616ZM523.33936 93.90924Q523.33936 92.53424 522.9487 91.90924Q522.5737 91.268616 521.73 91.268616Q520.90186 91.268616 520.5112 91.90924Q520.1362 92.53424 520.1362 93.831116L520.1362 95.56549Q520.1362 96.94049 520.52686 97.612366Q520.9331 98.268616 521.7456 98.268616Q522.5425 98.268616 522.9331 97.643616Q523.3237 97.018616 523.33936 95.69049L523.33936 93.90924Z" fill-rule="nonzero"/><path stroke="#ffffff" stroke-width="3.0" stroke-linejoin="round" stroke-linecap="round" d="M115.1 278.8094Q115.1 280.71564 114.44375 281.65314Q113.80312 282.575 112.4125 282.575Q111.05312 282.575 110.39687 281.66876Q109.74062 280.7625 109.70937 278.95L109.70937 277.5125Q109.70937 275.6219 110.35 274.71564Q111.00625 273.79376 112.39687 273.79376Q113.77187 273.79376 114.42812 274.6844Q115.08437 275.5594 115.1 277.40314L115.1 278.8094ZM114.00625 277.325Q114.00625 275.95 113.61562 275.325Q113.24062 274.6844 112.39687 274.6844Q111.56875 274.6844 111.17812 275.325Q110.80312 275.95 110.80312 277.2469L110.80312 278.98126Q110.80312 280.35626 111.19375 281.02814Q111.6 281.6844 112.4125 281.6844Q113.20937 281.6844 113.6 281.0594Q113.99062 280.4344 114.00625 279.10626L114.00625 277.325Z" fill-rule="nonzero"/><path fill="#ea4335" d="M115.1 278.8094Q115.1 280.71564 114.44375 281.65314Q113.80312 282.575 112.4125 282.575Q111.05312 282.575 110.39687 281.66876Q109.74062 280.7625 109.70937 278.95L109.70937 277.5125Q109.70937 275.6219 110.35 274.71564Q111.00625 273.79376 112.39687 273.79376Q113.77187 273.79376 114.42812 274.6844Q115.08437 275.5594 115.1 277.40314L115.1 278.8094ZM114.00625 277.325Q114.00625 275.95 113.61562 275.325Q113.24062 274.6844 112.39687 274.6844Q111.56875 274.6844 111.17812 275.325Q110.80312 275.95 110.80312 277.2469L110.80312 278.98126Q110.80312 280.35626 111.19375 281.02814Q111.6 281.6844 112.4125 281.6844Q113.20937 281.6844 113.6 281.0594Q113.99062 280.4344 114.00625 279.10626L114.00625 277.325Z" fill-rule="nonzero"/><path stroke="#ffffff" stroke-width="3.0" stroke-linejoin="round" stroke-linecap="round" d="M255.78148 210.3143Q255.45335 210.72055 254.96898 210.97055Q254.50023 211.20493 253.93773 211.20493Q253.20335 211.20493 252.65648 210.84555Q252.1096 210.48618 251.81273 209.82993Q251.51585 209.15805 251.51585 208.36118Q251.51585 207.51743 251.82835 206.82993Q252.15648 206.14243 252.75023 205.78305Q253.3596 205.40805 254.15648 205.40805Q255.4221 205.40805 256.14084 206.36118Q256.8752 207.3143 256.8752 208.9393L256.8752 209.2518Q256.8752 211.7518 255.89085 212.89243Q254.90648 214.03305 252.9221 214.0643L252.70335 214.0643L252.70335 213.15805L252.93773 213.15805Q254.28148 213.1268 255.00023 212.45493Q255.71898 211.78305 255.78148 210.3143ZM254.1096 210.3143Q254.65648 210.3143 255.1096 209.98618Q255.57835 209.64243 255.7971 209.15805L255.7971 208.72055Q255.7971 207.65805 255.32835 206.98618Q254.8596 206.3143 254.15648 206.3143Q253.43773 206.3143 253.00023 206.86118Q252.57835 207.40805 252.57835 208.3143Q252.57835 209.1893 252.9846 209.7518Q253.40648 210.3143 254.1096 210.3143ZM262.1877 214.0643L261.1096 214.0643L261.1096 206.84555L258.9221 207.64243L258.9221 206.65805L262.03146 205.48618L262.1877 205.48618L262.1877 214.0643ZM265.76584 213.5018Q265.76584 213.22055 265.9221 213.03305Q266.09396 212.84555 266.4221 212.84555Q266.76584 212.84555 266.9377 213.03305Q267.1096 213.22055 267.1096 213.5018Q267.1096 213.76743 266.9377 213.95493Q266.76584 214.1268 266.4221 214.1268Q266.09396 214.1268 265.9221 213.95493Q265.76584 213.76743 265.76584 213.5018ZM272.78146 210.3143Q272.45334 210.72055 271.96896 210.97055Q271.5002 211.20493 270.9377 211.20493Q270.20334 211.20493 269.65646 210.84555Q269.1096 210.48618 268.8127 209.82993Q268.51584 209.15805 268.51584 208.36118Q268.51584 207.51743 268.82834 206.82993Q269.15646 206.14243 269.7502 205.78305Q270.3596 205.40805 271.15646 205.40805Q272.4221 205.40805 273.14084 206.36118Q273.8752 207.3143 273.8752 208.9393L273.8752 209.2518Q273.8752 211.7518 272.89084 212.89243Q271.90646 214.03305 269.9221 214.0643L269.70334 214.0643L269.70334 213.15805L269.9377 213.15805Q271.28146 213.1268 272.0002 212.45493Q272.71896 211.78305 272.78146 210.3143ZM271.1096 210.3143Q271.65646 210.3143 272.1096 209.98618Q272.57834 209.64243 272.7971 209.15805L272.7971 208.72055Q272.7971 207.65805 272.32834 206.98618Q271.8596 206.3143 271.15646 206.3143Q270.4377 206.3143 270.0002 206.86118Q269.57834 207.40805 269.57834 208.3143Q269.57834 209.1893 269.9846 209.7518Q270.40646 210.3143 271.1096 210.3143Z" fill-rule="nonzero"/><path fill="#ea4335" d="M255.78148 210.3143Q255.45335 210.72055 254.96898 210.97055Q254.50023 211.20493 253.93773 211.20493Q253.20335 211.20493 252.65648 210.84555Q252.1096 210.48618 251.81273 209.82993Q251.51585 209.15805 251.51585 208.36118Q251.51585 207.51743 251.82835 206.82993Q252.15648 206.14243 252.75023 205.78305Q253.3596 205.40805 254.15648 205.40805Q255.4221 205.40805 256.14087 206.36118Q256.87524 207.3143 256.87524 208.9393L256.87524 209.2518Q256.87524 211.7518 255.89085 212.89243Q254.90648 214.03305 252.9221 214.0643L252.70335 214.0643L252.70335 213.15805L252.93773 213.15805Q254.28148 213.1268 255.00023 212.45493Q255.71898 211.78305 255.78148 210.3143ZM254.1096 210.3143Q254.65648 210.3143 255.1096 209.98618Q255.57835 209.64243 255.7971 209.15805L255.7971 208.72055Q255.7971 207.65805 255.32835 206.98618Q254.8596 206.3143 254.15648 206.3143Q253.43773 206.3143 253.00023 206.86118Q252.57835 207.40805 252.57835 208.3143Q252.57835 209.1893 252.9846 209.7518Q253.40648 210.3143 254.1096 210.3143ZM262.18774 214.0643L261.10962 214.0643L261.10962 206.84555L258.92212 207.64243L258.92212 206.65805L262.0315 205.48618L262.18774 205.48618L262.18774 214.0643ZM265.76587 213.5018Q265.76587 213.22055 265.92212 213.03305Q266.094 212.84555 266.42212 212.84555Q266.76587 212.84555 266.93774 213.03305Q267.10962 213.22055 267.10962 213.5018Q267.10962 213.76743 266.93774 213.95493Q266.76587 214.1268 266.42212 214.1268Q266.094 214.1268 265.92212 213.95493Q265.76587 213.76743 265.76587 213.5018ZM272.7815 210.3143Q272.45337 210.72055 271.969 210.97055Q271.50024 211.20493 270.93774 211.20493Q270.20337 211.20493 269.6565 210.84555Q269.10962 210.48618 268.81274 209.82993Q268.51587 209.15805 268.51587 208.36118Q268.51587 207.51743 268.82837 206.82993Q269.1565 206.14243 269.75024 205.78305Q270.35962 205.40805 271.1565 205.40805Q272.42212 205.40805 273.14087 206.36118Q273.87524 207.3143 273.87524 208.9393L273.87524 209.2518Q273.87524 211.7518 272.89087 212.89243Q271.9065 214.03305 269.92212 214.0643L269.70337 214.0643L269.70337 213.15805L269.93774 213.15805Q271.2815 213.1268 272.00024 212.45493Q272.719 211.78305 272.7815 210.3143ZM271.10962 210.3143Q271.6565 210.3143 272.10962 209.98618Q272.57837 209.64243 272.79712 209.15805L272.79712 208.72055Q272.79712 207.65805 272.32837 206.98618Q271.85962 206.3143 271.1565 206.3143Q270.43774 206.3143 270.00024 206.86118Q269.57837 207.40805 269.57837 208.3143Q269.57837 209.1893 269.98462 209.7518Q270.4065 210.3143 271.10962 210.3143Z" fill-rule="nonzero"/><path stroke="#ffffff" stroke-width="3.0" stroke-linejoin="round" stroke-linecap="round" d="M374.55722 143.58L373.4791 143.58L373.4791 136.36125L371.2916 137.15813L371.2916 136.17375L374.40097 135.00188L374.55722 135.00188L374.55722 143.58ZM383.58847 143.58L377.99472 143.58L377.99472 142.79875L380.94785 139.5175Q381.6041 138.7675 381.8541 138.31438Q382.1041 137.84563 382.1041 137.34563Q382.1041 136.67375 381.69785 136.25188Q381.30722 135.81438 380.61972 135.81438Q379.82285 135.81438 379.36972 136.28313Q378.9166 136.73625 378.9166 137.56438L377.83847 137.56438Q377.83847 136.37688 378.58847 135.65813Q379.3541 134.92375 380.61972 134.92375Q381.82285 134.92375 382.51035 135.54875Q383.19785 136.17375 383.19785 137.22063Q383.19785 138.47063 381.58847 140.22063L379.30722 142.68938L383.58847 142.68938L383.58847 143.58ZM390.58847 143.58L384.99472 143.58L384.99472 142.79875L387.94785 139.5175Q388.6041 138.7675 388.8541 138.31438Q389.1041 137.84563 389.1041 137.34563Q389.1041 136.67375 388.69785 136.25188Q388.30722 135.81438 387.61972 135.81438Q386.82285 135.81438 386.36972 136.28313Q385.9166 136.73625 385.9166 137.56438L384.83847 137.56438Q384.83847 136.37688 385.58847 135.65813Q386.3541 134.92375 387.61972 134.92375Q388.82285 134.92375 389.51035 135.54875Q390.19785 136.17375 390.19785 137.22063Q390.19785 138.47063 388.58847 140.22063L386.30722 142.68938L390.58847 142.68938L390.58847 143.58ZM392.13535 143.0175Q392.13535 142.73625 392.2916 142.54875Q392.46347 142.36125 392.7916 142.36125Q393.13535 142.36125 393.30722 142.54875Q393.4791 142.73625 393.4791 143.0175Q393.4791 143.28313 393.30722 143.47063Q393.13535 143.6425 392.7916 143.6425Q392.46347 143.6425 392.2916 143.47063Q392.13535 143.28313 392.13535 143.0175ZM400.51035 135.65813L396.9791 143.58L395.83847 143.58L399.3541 135.93938L394.74472 135.93938L394.74472 135.04875L400.51035 135.04875L400.51035 135.65813Z" fill-rule="nonzero"/><path fill="#ea4335" d="M374.55722 143.58L373.4791 143.58L373.4791 136.36125L371.2916 137.15813L371.2916 136.17375L374.40097 135.00188L374.55722 135.00188L374.55722 143.58ZM383.58847 143.58L377.99472 143.58L377.99472 142.79875L380.94785 139.5175Q381.6041 138.7675 381.8541 138.31438Q382.1041 137.84563 382.1041 137.34563Q382.1041 136.67375 381.69785 136.25188Q381.30722 135.81438 380.61972 135.81438Q379.82285 135.81438 379.36972 136.28313Q378.9166 136.73625 378.9166 137.56438L377.83847 137.56438Q377.83847 136.37688 378.58847 135.65813Q379.3541 134.92375 380.61972 134.92375Q381.82285 134.92375 382.51035 135.54875Q383.19785 136.17375 383.19785 137.22063Q383.19785 138.47063 381.58847 140.22063L379.30722 142.68938L383.58847 142.68938L383.58847 143.58ZM390.58847 143.58L384.99472 143.58L384.99472 142.79875L387.94785 139.5175Q388.6041 138.7675 388.8541 138.31438Q389.1041 137.84563 389.1041 137.34563Q389.1041 136.67375 388.69785 136.25188Q388.30722 135.81438 387.61972 135.81438Q386.82285 135.81438 386.36972 136.28313Q385.9166 136.73625 385.9166 137.56438L384.83847 137.56438Q384.83847 136.37688 385.58847 135.65813Q386.3541 134.92375 387.61972 134.92375Q388.82285 134.92375 389.51035 135.54875Q390.19785 136.17375 390.19785 137.22063Q390.19785 138.47063 388.58847 140.22063L386.30722 142.68938L390.58847 142.68938L390.58847 143.58ZM392.13535 143.0175Q392.13535 142.73625 392.2916 142.54875Q392.46347 142.36125 392.7916 142.36125Q393.13535 142.36125 393.30722 142.54875Q393.4791 142.73625 393.4791 143.0175Q393.4791 143.28313 393.30722 143.47063Q393.13535 143.6425 392.7916 143.6425Q392.46347 143.6425 392.2916 143.47063Q392.13535 143.28313 392.13535 143.0175ZM400.51035 135.65813L396.9791 143.58L395.83847 143.58L399.3541 135.93938L394.74472 135.93938L394.74472 135.04875L400.51035 135.04875L400.51035 135.65813Z" fill-rule="nonzero"/><path stroke="#ffffff" stroke-width="3.0" stroke-linejoin="round" stroke-linecap="round" d="M503.69507 154.62115L502.61694 154.62115L502.61694 147.4024L500.42944 148.19928L500.42944 147.2149L503.53882 146.04303L503.69507 146.04303L503.69507 154.62115ZM508.7107 149.82428L509.5232 149.82428Q510.30444 149.80865 510.74194 149.41803Q511.17944 149.0274 511.17944 148.35553Q511.17944 146.85553 509.67944 146.85553Q508.97632 146.85553 508.55444 147.26178Q508.1482 147.66803 508.1482 148.32428L507.05444 148.32428Q507.05444 147.30865 507.78882 146.63678Q508.53882 145.9649 509.67944 145.9649Q510.88257 145.9649 511.57007 146.60553Q512.25757 147.24615 512.25757 148.38678Q512.25757 148.94928 511.8982 149.4649Q511.53882 149.98053 510.91382 150.24615Q511.61694 150.4649 511.99194 150.98053Q512.38257 151.49615 512.38257 152.24615Q512.38257 153.38678 511.63257 154.07428Q510.88257 154.74615 509.67944 154.74615Q508.49194 154.74615 507.72632 154.0899Q506.97632 153.43365 506.97632 152.37115L508.07007 152.37115Q508.07007 153.04303 508.50757 153.44928Q508.94507 153.85553 509.69507 153.85553Q510.47632 153.85553 510.88257 153.44928Q511.30444 153.0274 511.30444 152.26178Q511.30444 151.5274 510.85132 151.13678Q510.3982 150.73053 509.5232 150.7149L508.7107 150.7149L508.7107 149.82428ZM519.7263 154.62115L514.13257 154.62115L514.13257 153.8399L517.0857 150.55865Q517.74194 149.80865 517.99194 149.35553Q518.24194 148.88678 518.24194 148.38678Q518.24194 147.7149 517.8357 147.29303Q517.44507 146.85553 516.75757 146.85553Q515.9607 146.85553 515.50757 147.32428Q515.05444 147.7774 515.05444 148.60553L513.9763 148.60553Q513.9763 147.41803 514.7263 146.69928Q515.49194 145.9649 516.75757 145.9649Q517.9607 145.9649 518.6482 146.5899Q519.3357 147.2149 519.3357 148.26178Q519.3357 149.51178 517.7263 151.26178L515.44507 153.73053L519.7263 153.73053L519.7263 154.62115ZM521.2732 154.05865Q521.2732 153.7774 521.42944 153.5899Q521.6013 153.4024 521.92944 153.4024Q522.2732 153.4024 522.44507 153.5899Q522.61694 153.7774 522.61694 154.05865Q522.61694 154.32428 522.44507 154.51178Q522.2732 154.68365 521.92944 154.68365Q521.6013 154.68365 521.42944 154.51178Q521.2732 154.32428 521.2732 154.05865ZM529.32007 148.30865Q529.32007 148.94928 528.9763 149.44928Q528.63257 149.94928 528.07007 150.23053Q528.7263 150.51178 529.11694 151.07428Q529.50757 151.62115 529.50757 152.32428Q529.50757 153.41803 528.75757 154.0899Q528.0232 154.74615 526.80444 154.74615Q525.57007 154.74615 524.82007 154.0899Q524.0857 153.41803 524.0857 152.32428Q524.0857 151.62115 524.4607 151.07428Q524.8357 150.51178 525.50757 150.23053Q524.94507 149.94928 524.61694 149.44928Q524.2888 148.94928 524.2888 148.30865Q524.2888 147.23053 524.9763 146.60553Q525.6638 145.9649 526.80444 145.9649Q527.92944 145.9649 528.61694 146.60553Q529.32007 147.23053 529.32007 148.30865ZM528.42944 152.29303Q528.42944 151.57428 527.9763 151.13678Q527.5232 150.68365 526.7888 150.68365Q526.05444 150.68365 525.6013 151.13678Q525.1638 151.57428 525.1638 152.30865Q525.1638 153.0274 525.6013 153.44928Q526.0388 153.85553 526.80444 153.85553Q527.55444 153.85553 527.99194 153.43365Q528.42944 153.01178 528.42944 152.29303ZM526.80444 146.85553Q526.1638 146.85553 525.75757 147.26178Q525.36694 147.6524 525.36694 148.3399Q525.36694 148.98053 525.75757 149.38678Q526.1482 149.79303 526.7888 149.79303Q527.44507 149.79303 527.8357 149.38678Q528.2263 148.98053 528.2263 148.3399Q528.2263 147.68365 527.82007 147.2774Q527.4138 146.85553 526.80444 146.85553Z" fill-rule="nonzero"/><path fill="#ea4335" d="M503.69507 154.62115L502.61694 154.62115L502.61694 147.4024L500.42944 148.19928L500.42944 147.2149L503.53882 146.04303L503.69507 146.04303L503.69507 154.62115ZM508.7107 149.82428L509.5232 149.82428Q510.30444 149.80865 510.74194 149.41803Q511.17944 149.0274 511.17944 148.35553Q511.17944 146.85553 509.67944 146.85553Q508.97632 146.85553 508.55444 147.26178Q508.1482 147.66803 508.1482 148.32428L507.05444 148.32428Q507.05444 147.30865 507.78882 146.63678Q508.53882 145.9649 509.67944 145.9649Q510.88257 145.9649 511.57007 146.60553Q512.25757 147.24615 512.25757 148.38678Q512.25757 148.94928 511.8982 149.4649Q511.53882 149.98053 510.91382 150.24615Q511.61694 150.4649 511.99194 150.98053Q512.38257 151.49615 512.38257 152.24615Q512.38257 153.38678 511.63257 154.07428Q510.88257 154.74615 509.67944 154.74615Q508.49194 154.74615 507.72632 154.0899Q506.97632 153.43365 506.97632 152.37115L508.07007 152.37115Q508.07007 153.04303 508.50757 153.44928Q508.94507 153.85553 509.69507 153.85553Q510.47632 153.85553 510.88257 153.44928Q511.30444 153.0274 511.30444 152.26178Q511.30444 151.5274 510.85132 151.13678Q510.3982 150.73053 509.5232 150.7149L508.7107 150.7149L508.7107 149.82428ZM519.7263 154.62115L514.13257 154.62115L514.13257 153.8399L517.0857 150.55865Q517.74194 149.80865 517.99194 149.35553Q518.24194 148.88678 518.24194 148.38678Q518.24194 147.7149 517.8357 147.29303Q517.44507 146.85553 516.75757 146.85553Q515.9607 146.85553 515.50757 147.32428Q515.05444 147.7774 515.05444 148.60553L513.9763 148.60553Q513.9763 147.41803 514.7263 146.69928Q515.49194 145.9649 516.75757 145.9649Q517.9607 145.9649 518.6482 146.5899Q519.3357 147.2149 519.3357 148.26178Q519.3357 149.51178 517.7263 151.26178L515.44507 153.73053L519.7263 153.73053L519.7263 154.62115ZM521.2732 154.05865Q521.2732 153.7774 521.42944 153.5899Q521.6013 153.4024 521.92944 153.4024Q522.2732 153.4024 522.44507 153.5899Q522.61694 153.7774 522.61694 154.05865Q522.61694 154.32428 522.44507 154.51178Q522.2732 154.68365 521.92944 154.68365Q521.6013 154.68365 521.42944 154.51178Q521.2732 154.32428 521.2732 154.05865ZM529.32007 148.30865Q529.32007 148.94928 528.9763 149.44928Q528.63257 149.94928 528.07007 150.23053Q528.7263 150.51178 529.11694 151.07428Q529.50757 151.62115 529.50757 152.32428Q529.50757 153.41803 528.75757 154.0899Q528.0232 154.74615 526.80444 154.74615Q525.57007 154.74615 524.82007 154.0899Q524.0857 153.41803 524.0857 152.32428Q524.0857 151.62115 524.4607 151.07428Q524.8357 150.51178 525.50757 150.23053Q524.94507 149.94928 524.61694 149.44928Q524.2888 148.94928 524.2888 148.30865Q524.2888 147.23053 524.9763 146.60553Q525.6638 145.9649 526.80444 145.9649Q527.92944 145.9649 528.61694 146.60553Q529.32007 147.23053 529.32007 148.30865ZM528.42944 152.29303Q528.42944 151.57428 527.9763 151.13678Q527.5232 150.68365 526.7888 150.68365Q526.05444 150.68365 525.6013 151.13678Q525.1638 151.57428 525.1638 152.30865Q525.1638 153.0274 525.6013 153.44928Q526.0388 153.85553 526.80444 153.85553Q527.55444 153.85553 527.99194 153.43365Q528.42944 153.01178 528.42944 152.29303ZM526.80444 146.85553Q526.1638 146.85553 525.75757 147.26178Q525.36694 147.6524 525.36694 148.3399Q525.36694 148.98053 525.75757 149.38678Q526.1482 149.79303 526.7888 149.79303Q527.44507 149.79303 527.8357 149.38678Q528.2263 148.98053 528.2263 148.3399Q528.2263 147.68365 527.82007 147.2774Q527.4138 146.85553 526.80444 146.85553Z" fill-rule="nonzero"/><path stroke="#ffffff" stroke-width="3.0" stroke-linejoin="round" stroke-linecap="round" d="M115.1 278.8094Q115.1 280.71564 114.44375 281.65314Q113.80312 282.575 112.4125 282.575Q111.05312 282.575 110.39687 281.66876Q109.74062 280.7625 109.70937 278.95L109.70937 277.5125Q109.70937 275.6219 110.35 274.71564Q111.00625 273.79376 112.39687 273.79376Q113.77187 273.79376 114.42812 274.6844Q115.08437 275.5594 115.1 277.40314L115.1 278.8094ZM114.00625 277.325Q114.00625 275.95 113.61562 275.325Q113.24062 274.6844 112.39687 274.6844Q111.56875 274.6844 111.17812 275.325Q110.80312 275.95 110.80312 277.2469L110.80312 278.98126Q110.80312 280.35626 111.19375 281.02814Q111.6 281.6844 112.4125 281.6844Q113.20937 281.6844 113.6 281.0594Q113.99062 280.4344 114.00625 279.10626L114.00625 277.325Z" fill-rule="nonzero"/><path fill="#fbbc04" d="M115.1 278.8094Q115.1 280.71564 114.44375 281.65314Q113.80312 282.575 112.4125 282.575Q111.05312 282.575 110.39687 281.66876Q109.74062 280.7625 109.70937 278.95L109.70937 277.5125Q109.70937 275.6219 110.35 274.71564Q111.00625 273.79376 112.39687 273.79376Q113.77187 273.79376 114.42812 274.6844Q115.08437 275.5594 115.1 277.40314L115.1 278.8094ZM114.00625 277.325Q114.00625 275.95 113.61562 275.325Q113.24062 274.6844 112.39687 274.6844Q111.56875 274.6844 111.17812 275.325Q110.80312 275.95 110.80312 277.2469L110.80312 278.98126Q110.80312 280.35626 111.19375 281.02814Q111.6 281.6844 112.4125 281.6844Q113.20937 281.6844 113.6 281.0594Q113.99062 280.4344 114.00625 279.10626L114.00625 277.325Z" fill-rule="nonzero"/><path stroke="#ffffff" stroke-width="3.0" stroke-linejoin="round" stroke-linecap="round" d="M241.8065 173.2261Q241.47838 173.63235 240.994 173.88235Q240.52525 174.11673 239.96275 174.11673Q239.22838 174.11673 238.6815 173.75735Q238.13463 173.39798 237.83775 172.74173Q237.54088 172.06985 237.54088 171.27298Q237.54088 170.42923 237.85338 169.74173Q238.1815 169.05423 238.77525 168.69485Q239.38463 168.31985 240.1815 168.31985Q241.44713 168.31985 242.16588 169.27298Q242.90025 170.2261 242.90025 171.8511L242.90025 172.1636Q242.90025 174.6636 241.91588 175.80423Q240.9315 176.94485 238.94713 176.9761L238.72838 176.9761L238.72838 176.06985L238.96275 176.06985Q240.3065 176.0386 241.02525 175.36673Q241.744 174.69485 241.8065 173.2261ZM240.13463 173.2261Q240.6815 173.2261 241.13463 172.89798Q241.60338 172.55423 241.82213 172.06985L241.82213 171.63235Q241.82213 170.56985 241.35338 169.89798Q240.88463 169.2261 240.1815 169.2261Q239.46275 169.2261 239.02525 169.77298Q238.60338 170.31985 238.60338 171.2261Q238.60338 172.1011 239.00963 172.6636Q239.4315 173.2261 240.13463 173.2261ZM245.15025 172.69485L245.58775 168.44485L249.96275 168.44485L249.96275 169.44485L246.50963 169.44485L246.244 171.77298Q246.88463 171.39798 247.6815 171.39798Q248.83775 171.39798 249.52525 172.17923Q250.21275 172.94485 250.21275 174.25735Q250.21275 175.56985 249.494 176.33548Q248.79088 177.1011 247.50963 177.1011Q246.38463 177.1011 245.66588 176.4761Q244.94713 175.83548 244.85338 174.7261L245.869 174.7261Q245.97838 175.46048 246.40025 175.83548Q246.82213 176.21048 247.50963 176.21048Q248.25963 176.21048 248.69713 175.69485Q249.13463 175.17923 249.13463 174.27298Q249.13463 173.4136 248.66588 172.89798Q248.19713 172.38235 247.41588 172.38235Q246.71275 172.38235 246.3065 172.67923L246.02525 172.9136L245.15025 172.69485ZM251.79088 176.4136Q251.79088 176.13235 251.94713 175.94485Q252.119 175.75735 252.44713 175.75735Q252.79088 175.75735 252.96275 175.94485Q253.13463 176.13235 253.13463 176.4136Q253.13463 176.67923 252.96275 176.86673Q252.79088 177.0386 252.44713 177.0386Q252.119 177.0386 251.94713 176.86673Q251.79088 176.67923 251.79088 176.4136ZM255.15025 172.69485L255.58775 168.44485L259.96277 168.44485L259.96277 169.44485L256.50964 169.44485L256.24402 171.77298Q256.88464 171.39798 257.68152 171.39798Q258.83777 171.39798 259.52527 172.17923Q260.21277 172.94485 260.21277 174.25735Q260.21277 175.56985 259.49402 176.33548Q258.7909 177.1011 257.50964 177.1011Q256.38464 177.1011 255.66588 176.4761Q254.94713 175.83548 254.85338 174.7261L255.869 174.7261Q255.97838 175.46048 256.40027 175.83548Q256.82214 176.21048 257.50964 176.21048Q258.25964 176.21048 258.69714 175.69485Q259.13464 175.17923 259.13464 174.27298Q259.13464 173.4136 258.6659 172.89798Q258.19714 172.38235 257.4159 172.38235Q256.71277 172.38235 256.30652 172.67923L256.02527 172.9136L255.15025 172.69485Z" fill-rule="nonzero"/><path fill="#fbbc04" d="M241.8065 173.2261Q241.47838 173.63235 240.994 173.88235Q240.52525 174.11673 239.96275 174.11673Q239.22838 174.11673 238.6815 173.75735Q238.13463 173.39798 237.83775 172.74173Q237.54088 172.06985 237.54088 171.27298Q237.54088 170.42923 237.85338 169.74173Q238.1815 169.05423 238.77525 168.69485Q239.38463 168.31985 240.1815 168.31985Q241.44713 168.31985 242.16588 169.27298Q242.90025 170.2261 242.90025 171.8511L242.90025 172.1636Q242.90025 174.6636 241.91588 175.80423Q240.9315 176.94485 238.94713 176.9761L238.72838 176.9761L238.72838 176.06985L238.96275 176.06985Q240.3065 176.0386 241.02525 175.36673Q241.744 174.69485 241.8065 173.2261ZM240.13463 173.2261Q240.6815 173.2261 241.13463 172.89798Q241.60338 172.55423 241.82213 172.06985L241.82213 171.63235Q241.82213 170.56985 241.35338 169.89798Q240.88463 169.2261 240.1815 169.2261Q239.46275 169.2261 239.02525 169.77298Q238.60338 170.31985 238.60338 171.2261Q238.60338 172.1011 239.00963 172.6636Q239.4315 173.2261 240.13463 173.2261ZM245.15025 172.69485L245.58775 168.44485L249.96275 168.44485L249.96275 169.44485L246.50963 169.44485L246.244 171.77298Q246.88463 171.39798 247.6815 171.39798Q248.83775 171.39798 249.52525 172.17923Q250.21275 172.94485 250.21275 174.25735Q250.21275 175.56985 249.494 176.33548Q248.79088 177.1011 247.50963 177.1011Q246.38463 177.1011 245.66588 176.4761Q244.94713 175.83548 244.85338 174.7261L245.869 174.7261Q245.97838 175.46048 246.40025 175.83548Q246.82213 176.21048 247.50963 176.21048Q248.25963 176.21048 248.69713 175.69485Q249.13463 175.17923 249.13463 174.27298Q249.13463 173.4136 248.66588 172.89798Q248.19713 172.38235 247.41588 172.38235Q246.71275 172.38235 246.3065 172.67923L246.02525 172.9136L245.15025 172.69485ZM251.79088 176.4136Q251.79088 176.13235 251.94713 175.94485Q252.119 175.75735 252.44713 175.75735Q252.79088 175.75735 252.96275 175.94485Q253.13463 176.13235 253.13463 176.4136Q253.13463 176.67923 252.96275 176.86673Q252.79088 177.0386 252.44713 177.0386Q252.119 177.0386 251.94713 176.86673Q251.79088 176.67923 251.79088 176.4136ZM255.15025 172.69485L255.58775 168.44485L259.96277 168.44485L259.96277 169.44485L256.50964 169.44485L256.24402 171.77298Q256.88464 171.39798 257.68152 171.39798Q258.83777 171.39798 259.52527 172.17923Q260.21277 172.94485 260.21277 174.25735Q260.21277 175.56985 259.49402 176.33548Q258.7909 177.1011 257.50964 177.1011Q256.38464 177.1011 255.66588 176.4761Q254.94713 175.83548 254.85338 174.7261L255.869 174.7261Q255.97838 175.46048 256.40027 175.83548Q256.82214 176.21048 257.50964 176.21048Q258.25964 176.21048 258.69714 175.69485Q259.13464 175.17923 259.13464 174.27298Q259.13464 173.4136 258.6659 172.89798Q258.19714 172.38235 257.4159 172.38235Q256.71277 172.38235 256.30652 172.67923L256.02527 172.9136L255.15025 172.69485Z" fill-rule="nonzero"/><path stroke="#ffffff" stroke-width="3.0" stroke-linejoin="round" stroke-linecap="round" d="M375.50552 174.4216L374.4274 174.4216L374.4274 167.20285L372.2399 167.99973L372.2399 167.01535L375.34927 165.84348L375.50552 165.84348L375.50552 174.4216ZM382.50552 174.4216L381.4274 174.4216L381.4274 167.20285L379.2399 167.99973L379.2399 167.01535L382.34927 165.84348L382.50552 165.84348L382.50552 174.4216ZM391.45865 166.49973L387.9274 174.4216L386.78677 174.4216L390.3024 166.78098L385.69302 166.78098L385.69302 165.89035L391.45865 165.89035L391.45865 166.49973Z" fill-rule="nonzero"/><path fill="#fbbc04" d="M375.50552 174.4216L374.4274 174.4216L374.4274 167.20285L372.2399 167.99973L372.2399 167.01535L375.34927 165.84348L375.50552 165.84348L375.50552 174.4216ZM382.50552 174.4216L381.4274 174.4216L381.4274 167.20285L379.2399 167.99973L379.2399 167.01535L382.34927 165.84348L382.50552 165.84348L382.50552 174.4216ZM391.45865 166.49973L387.9274 174.4216L386.78677 174.4216L390.3024 166.78098L385.69302 166.78098L385.69302 165.89035L391.45865 165.89035L391.45865 166.49973Z" fill-rule="nonzero"/><path stroke="#ffffff" stroke-width="3.0" stroke-linejoin="round" stroke-linecap="round" d="M514.6255 132.32753L513.54736 132.32753L513.54736 125.10877L511.35986 125.90565L511.35986 124.92127L514.46924 123.7494L514.6255 123.7494L514.6255 132.32753ZM519.6411 127.53065L520.4536 127.53065Q521.23486 127.51502 521.67236 127.1244Q522.10986 126.73377 522.10986 126.0619Q522.10986 124.5619 520.60986 124.5619Q519.90674 124.5619 519.48486 124.96815Q519.0786 125.3744 519.0786 126.03065L517.98486 126.03065Q517.98486 125.01502 518.71924 124.34315Q519.46924 123.67127 520.60986 123.67127Q521.813 123.67127 522.5005 124.3119Q523.188 124.95252 523.188 126.09315Q523.188 126.65565 522.8286 127.17127Q522.46924 127.6869 521.84424 127.95252Q522.54736 128.17128 522.92236 128.6869Q523.313 129.20253 523.313 129.95253Q523.313 131.09315 522.563 131.78065Q521.813 132.45253 520.60986 132.45253Q519.42236 132.45253 518.65674 131.79628Q517.90674 131.14003 517.90674 130.07753L519.0005 130.07753Q519.0005 130.7494 519.438 131.15565Q519.8755 131.5619 520.6255 131.5619Q521.40674 131.5619 521.813 131.15565Q522.23486 130.73378 522.23486 129.96815Q522.23486 129.23378 521.78174 128.84315Q521.3286 128.4369 520.4536 128.42128L519.6411 128.42128L519.6411 127.53065ZM529.21924 128.57753Q528.8911 128.98378 528.40674 129.23378Q527.938 129.46815 527.3755 129.46815Q526.6411 129.46815 526.09424 129.10878Q525.54736 128.7494 525.2505 128.09315Q524.9536 127.42127 524.9536 126.6244Q524.9536 125.78065 525.2661 125.09315Q525.59424 124.40565 526.188 124.04627Q526.79736 123.67127 527.59424 123.67127Q528.85986 123.67127 529.5786 124.6244Q530.313 125.57752 530.313 127.20252L530.313 127.51502Q530.313 130.01503 529.3286 131.15565Q528.34424 132.29628 526.35986 132.32753L526.1411 132.32753L526.1411 131.42128L526.3755 131.42128Q527.71924 131.39003 528.438 130.71815Q529.15674 130.04628 529.21924 128.57753ZM527.54736 128.57753Q528.09424 128.57753 528.54736 128.2494Q529.0161 127.90565 529.23486 127.42127L529.23486 126.98377Q529.23486 125.92127 528.7661 125.2494Q528.29736 124.57752 527.59424 124.57752Q526.8755 124.57752 526.438 125.1244Q526.0161 125.67127 526.0161 126.57752Q526.0161 127.45252 526.42236 128.01503Q526.84424 128.57753 527.54736 128.57753Z" fill-rule="nonzero"/><path fill="#fbbc04" d="M514.6255 132.32753L513.54736 132.32753L513.54736 125.10878L511.35986 125.905655L511.35986 124.92128L514.46924 123.749405L514.6255 123.749405L514.6255 132.32753ZM519.6411 127.530655L520.4536 127.530655Q521.23486 127.51503 521.67236 127.124405Q522.10986 126.73378 522.10986 126.061905Q522.10986 124.561905 520.60986 124.561905Q519.90674 124.561905 519.48486 124.968155Q519.0786 125.374405 519.0786 126.030655L517.98486 126.030655Q517.98486 125.01503 518.71924 124.343155Q519.46924 123.67128 520.60986 123.67128Q521.813 123.67128 522.5005 124.311905Q523.188 124.95253 523.188 126.093155Q523.188 126.655655 522.8286 127.17128Q522.46924 127.686905 521.84424 127.95253Q522.54736 128.17128 522.92236 128.6869Q523.313 129.20253 523.313 129.95253Q523.313 131.09315 522.563 131.78065Q521.813 132.45253 520.60986 132.45253Q519.42236 132.45253 518.65674 131.79628Q517.90674 131.14003 517.90674 130.07753L519.0005 130.07753Q519.0005 130.7494 519.438 131.15565Q519.8755 131.5619 520.6255 131.5619Q521.40674 131.5619 521.813 131.15565Q522.23486 130.73378 522.23486 129.96815Q522.23486 129.23378 521.78174 128.84315Q521.3286 128.4369 520.4536 128.42128L519.6411 128.42128L519.6411 127.530655ZM529.21924 128.57753Q528.8911 128.98378 528.40674 129.23378Q527.938 129.46815 527.3755 129.46815Q526.6411 129.46815 526.09424 129.10878Q525.54736 128.7494 525.2505 128.09315Q524.9536 127.42128 524.9536 126.624405Q524.9536 125.780655 525.2661 125.093155Q525.59424 124.405655 526.188 124.04628Q526.79736 123.67128 527.59424 123.67128Q528.85986 123.67128 529.5786 124.624405Q530.313 125.57753 530.313 127.20253L530.313 127.51503Q530.313 130.01503 529.3286 131.15565Q528.34424 132.29628 526.35986 132.32753L526.1411 132.32753L526.1411 131.42128L526.3755 131.42128Q527.71924 131.39003 528.438 130.71815Q529.15674 130.04628 529.21924 128.57753ZM527.54736 128.57753Q528.09424 128.57753 528.54736 128.2494Q529.0161 127.905655 529.23486 127.42128L529.23486 126.98378Q529.23486 125.92128 528.7661 125.249405Q528.29736 124.57753 527.59424 124.57753Q526.8755 124.57753 526.438 125.124405Q526.0161 125.67128 526.0161 126.57753Q526.0161 127.45253 526.42236 128.01503Q526.84424 128.57753 527.54736 128.57753Z" fill-rule="nonzero"/><path fill="#000000" d="M263.92188 349.45L263.92188 340.85626L267.17188 340.85626Q268.01562 340.85626 268.46875 340.9344Q269.10938 341.04376 269.53125 341.34064Q269.96875 341.6375 270.21875 342.16876Q270.48438 342.7 270.48438 343.34064Q270.48438 344.4344 269.78125 345.2Q269.09375 345.95 267.26562 345.95L265.0625 345.95L265.0625 349.45L263.92188 349.45ZM265.0625 344.95L267.28125 344.95Q268.39062 344.95 268.84375 344.54376Q269.3125 344.1219 269.3125 343.3719Q269.3125 342.84064 269.03125 342.46564Q268.76562 342.075 268.32812 341.95Q268.03125 341.8719 267.26562 341.8719L265.0625 341.8719L265.0625 344.95ZM275.875 349.45L275.875 348.52814Q275.14062 349.59064 273.89062 349.59064Q273.34375 349.59064 272.85938 349.3875Q272.39062 349.16876 272.15625 348.85626Q271.92188 348.52814 271.82812 348.0594Q271.76562 347.7625 271.76562 347.075L271.76562 343.23126L272.82812 343.23126L272.82812 346.6844Q272.82812 347.4969 272.89062 347.79376Q272.98438 348.2 273.29688 348.45Q273.625 348.6844 274.10938 348.6844Q274.57812 348.6844 274.98438 348.45Q275.40625 348.2 275.57812 347.77814Q275.76562 347.35626 275.76562 346.5594L275.76562 343.23126L276.8125 343.23126L276.8125 349.45L275.875 349.45ZM278.79688 349.45L278.79688 343.23126L279.73438 343.23126L279.73438 344.10626Q280.42188 343.09064 281.71875 343.09064Q282.28125 343.09064 282.75 343.29376Q283.23438 343.4969 283.46875 343.825Q283.70312 344.15314 283.79688 344.59064Q283.84375 344.8875 283.84375 345.6219L283.84375 349.45L282.79688 349.45L282.79688 345.66876Q282.79688 345.0125 282.67188 344.7Q282.54688 344.3875 282.23438 344.2Q281.92188 343.9969 281.5 343.9969Q280.82812 343.9969 280.32812 344.4344Q279.84375 344.85626 279.84375 346.04376L279.84375 349.45L278.79688 349.45ZM288.09375 348.5125L288.25 349.4344Q287.79688 349.52814 287.45312 349.52814Q286.875 349.52814 286.5625 349.35626Q286.25 349.16876 286.10938 348.8719Q285.98438 348.575 285.98438 347.6219L285.98438 344.04376L285.21875 344.04376L285.21875 343.23126L285.98438 343.23126L285.98438 341.6844L287.03125 341.0594L287.03125 343.23126L288.09375 343.23126L288.09375 344.04376L287.03125 344.04376L287.03125 347.6844Q287.03125 348.1375 287.07812 348.2625Q287.14062 348.3875 287.26562 348.46564Q287.39062 348.54376 287.625 348.54376Q287.8125 348.54376 288.09375 348.5125ZM288.40625 346.34064Q288.40625 344.60626 289.35938 343.77814Q290.15625 343.09064 291.3125 343.09064Q292.59375 343.09064 293.40625 343.9344Q294.23438 344.7625 294.23438 346.2469Q294.23438 347.45 293.875 348.1375Q293.51562 348.825 292.8125 349.21564Q292.125 349.59064 291.3125 349.59064Q290.01562 349.59064 289.20312 348.7625Q288.40625 347.91876 288.40625 346.34064ZM289.48438 346.34064Q289.48438 347.52814 290.0 348.1219Q290.53125 348.71564 291.3125 348.71564Q292.10938 348.71564 292.625 348.1219Q293.14062 347.52814 293.14062 346.3094Q293.14062 345.15314 292.60938 344.5594Q292.09375 343.96564 291.3125 343.96564Q290.53125 343.96564 290.0 344.5594Q289.48438 345.1375 289.48438 346.34064ZM302.82812 349.45L302.82812 348.66876Q302.23438 349.59064 301.09375 349.59064Q300.34375 349.59064 299.71875 349.1844Q299.09375 348.7625 298.75 348.02814Q298.40625 347.29376 298.40625 346.34064Q298.40625 345.41876 298.71875 344.65314Q299.03125 343.8875 299.65625 343.4969Q300.28125 343.09064 301.04688 343.09064Q301.60938 343.09064 302.04688 343.325Q302.48438 343.5594 302.76562 343.9344L302.76562 340.85626L303.8125 340.85626L303.8125 349.45L302.82812 349.45ZM299.5 346.34064Q299.5 347.54376 300.0 348.1375Q300.5 348.71564 301.1875 348.71564Q301.875 348.71564 302.35938 348.15314Q302.84375 347.59064 302.84375 346.4344Q302.84375 345.15314 302.34375 344.5594Q301.85938 343.96564 301.14062 343.96564Q300.4375 343.96564 299.96875 344.54376Q299.5 345.10626 299.5 346.34064ZM310.04688 347.45L311.14062 347.575Q310.89062 348.52814 310.1875 349.0594Q309.48438 349.59064 308.40625 349.59064Q307.04688 349.59064 306.23438 348.7469Q305.4375 347.90314 305.4375 346.3875Q305.4375 344.825 306.25 343.96564Q307.0625 343.09064 308.34375 343.09064Q309.59375 343.09064 310.375 343.9344Q311.17188 344.77814 311.17188 346.325Q311.17188 346.41876 311.17188 346.60626L306.53125 346.60626Q306.59375 347.6375 307.10938 348.1844Q307.625 348.71564 308.40625 348.71564Q308.98438 348.71564 309.39062 348.41876Q309.8125 348.10626 310.04688 347.45ZM306.59375 345.7469L310.0625 345.7469Q310.0 344.95 309.67188 344.5594Q309.15625 343.95 308.35938 343.95Q307.625 343.95 307.125 344.4344Q306.64062 344.91876 306.59375 345.7469ZM312.76562 349.45L312.76562 340.85626L313.82812 340.85626L313.82812 349.45L312.76562 349.45ZM318.79688 351.84064L318.79688 343.23126L319.75 343.23126L319.75 344.02814Q320.09375 343.5594 320.51562 343.325Q320.95312 343.09064 321.5625 343.09064Q322.35938 343.09064 322.96875 343.4969Q323.57812 343.90314 323.875 344.65314Q324.1875 345.40314 324.1875 346.29376Q324.1875 347.2469 323.84375 348.0125Q323.51562 348.77814 322.85938 349.1844Q322.20312 349.59064 321.48438 349.59064Q320.95312 349.59064 320.53125 349.3719Q320.10938 349.1375 319.84375 348.8094L319.84375 351.84064L318.79688 351.84064ZM319.75 346.3719Q319.75 347.575 320.23438 348.15314Q320.71875 348.71564 321.40625 348.71564Q322.10938 348.71564 322.60938 348.1219Q323.10938 347.52814 323.10938 346.27814Q323.10938 345.09064 322.625 344.5125Q322.14062 343.91876 321.45312 343.91876Q320.78125 343.91876 320.26562 344.54376Q319.75 345.16876 319.75 346.3719ZM325.78125 349.45L325.78125 343.23126L326.73438 343.23126L326.73438 344.16876Q327.09375 343.5125 327.39062 343.3094Q327.70312 343.09064 328.07812 343.09064Q328.60938 343.09064 329.15625 343.41876L328.79688 344.40314Q328.40625 344.16876 328.03125 344.16876Q327.67188 344.16876 327.39062 344.3875Q327.125 344.59064 327.01562 344.96564Q326.82812 345.52814 326.82812 346.1844L326.82812 349.45L325.78125 349.45ZM329.40625 346.34064Q329.40625 344.60626 330.35938 343.77814Q331.15625 343.09064 332.3125 343.09064Q333.59375 343.09064 334.40625 343.9344Q335.23438 344.7625 335.23438 346.2469Q335.23438 347.45 334.875 348.1375Q334.51562 348.825 333.8125 349.21564Q333.125 349.59064 332.3125 349.59064Q331.01562 349.59064 330.20312 348.7625Q329.40625 347.91876 329.40625 346.34064ZM330.48438 346.34064Q330.48438 347.52814 331.0 348.1219Q331.53125 348.71564 332.3125 348.71564Q333.10938 348.71564 333.625 348.1219Q334.14062 347.52814 334.14062 346.3094Q334.14062 345.15314 333.60938 344.5594Q333.09375 343.96564 332.3125 343.96564Q331.53125 343.96564 331.0 344.5594Q330.48438 345.1375 330.48438 346.34064ZM336.75 351.84064L336.625 350.85626Q336.96875 350.95 337.23438 350.95Q337.57812 350.95 337.78125 350.825Q338.0 350.71564 338.14062 350.5125Q338.23438 350.34064 338.46875 349.71564Q338.48438 349.6375 338.5625 349.46564L336.1875 343.23126L337.32812 343.23126L338.625 346.825Q338.875 347.5125 339.07812 348.27814Q339.26562 347.54376 339.51562 346.85626L340.84375 343.23126L341.89062 343.23126L339.53125 349.5594Q339.14062 350.575 338.9375 350.96564Q338.65625 351.4969 338.28125 351.73126Q337.92188 351.98126 337.42188 351.98126Q337.125 351.98126 336.75 351.84064ZM346.04688 347.45L347.14062 347.575Q346.89062 348.52814 346.1875 349.0594Q345.48438 349.59064 344.40625 349.59064Q343.04688 349.59064 342.23438 348.7469Q341.4375 347.90314 341.4375 346.3875Q341.4375 344.825 342.25 343.96564Q343.0625 343.09064 344.34375 343.09064Q345.59375 343.09064 346.375 343.9344Q347.17188 344.77814 347.17188 346.325Q347.17188 346.41876 347.17188 346.60626L342.53125 346.60626Q342.59375 347.6375 343.10938 348.1844Q343.625 348.71564 344.40625 348.71564Q344.98438 348.71564 345.39062 348.41876Q345.8125 348.10626 346.04688 347.45ZM342.59375 345.7469L346.0625 345.7469Q346.0 344.95 345.67188 344.5594Q345.15625 343.95 344.35938 343.95Q343.625 343.95 343.125 344.4344Q342.64062 344.91876 342.59375 345.7469ZM352.85938 347.16876L353.89062 347.3094Q353.71875 348.3719 353.01562 348.98126Q352.3125 349.59064 351.29688 349.59064Q350.01562 349.59064 349.23438 348.7625Q348.46875 347.91876 348.46875 346.35626Q348.46875 345.35626 348.79688 344.60626Q349.14062 343.84064 349.8125 343.46564Q350.5 343.09064 351.3125 343.09064Q352.3125 343.09064 352.95312 343.60626Q353.60938 344.10626 353.79688 345.0594L352.76562 345.21564Q352.625 344.59064 352.25 344.27814Q351.875 343.95 351.34375 343.95Q350.54688 343.95 350.04688 344.52814Q349.54688 345.09064 349.54688 346.325Q349.54688 347.59064 350.03125 348.15314Q350.51562 348.71564 351.28125 348.71564Q351.90625 348.71564 352.3125 348.34064Q352.73438 347.96564 352.85938 347.16876ZM357.09375 348.5125L357.25 349.4344Q356.79688 349.52814 356.45312 349.52814Q355.875 349.52814 355.5625 349.35626Q355.25 349.16876 355.10938 348.8719Q354.98438 348.575 354.98438 347.6219L354.98438 344.04376L354.21875 344.04376L354.21875 343.23126L354.98438 343.23126L354.98438 341.6844L356.03125 341.0594L356.03125 343.23126L357.09375 343.23126L357.09375 344.04376L356.03125 344.04376L356.03125 347.6844Q356.03125 348.1375 356.07812 348.2625Q356.14062 348.3875 356.26562 348.46564Q356.39062 348.54376 356.625 348.54376Q356.8125 348.54376 357.09375 348.5125ZM357.40625 346.34064Q357.40625 344.60626 358.35938 343.77814Q359.15625 343.09064 360.3125 343.09064Q361.59375 343.09064 362.40625 343.9344Q363.23438 344.7625 363.23438 346.2469Q363.23438 347.45 362.875 348.1375Q362.51562 348.825 361.8125 349.21564Q361.125 349.59064 360.3125 349.59064Q359.01562 349.59064 358.20312 348.7625Q357.40625 347.91876 357.40625 346.34064ZM358.48438 346.34064Q358.48438 347.52814 359.0 348.1219Q359.53125 348.71564 360.3125 348.71564Q361.10938 348.71564 361.625 348.1219Q362.14062 347.52814 362.14062 346.3094Q362.14062 345.15314 361.60938 344.5594Q361.09375 343.96564 360.3125 343.96564Q359.53125 343.96564 359.0 344.5594Q358.48438 345.1375 358.48438 346.34064Z" fill-rule="nonzero"/><path fill="#000000" d="M33.05 300.21564Q33.05 298.6844 33.3625 297.7625Q33.675 296.825 34.284374 296.325Q34.909374 295.825 35.846874 295.825Q36.534374 295.825 37.05 296.10626Q37.58125 296.3875 37.925 296.91876Q38.26875 297.4344 38.45625 298.1844Q38.64375 298.9344 38.64375 300.21564Q38.64375 301.73126 38.33125 302.65314Q38.034374 303.575 37.409374 304.09064Q36.8 304.59064 35.846874 304.59064Q34.6125 304.59064 33.89375 303.7Q33.05 302.6375 33.05 300.21564ZM34.128124 300.21564Q34.128124 302.325 34.628124 303.02814Q35.128124 303.73126 35.846874 303.73126Q36.58125 303.73126 37.065624 303.02814Q37.565624 302.325 37.565624 300.21564Q37.565624 298.09064 37.065624 297.40314Q36.58125 296.7 35.83125 296.7Q35.1125 296.7 34.675 297.3094Q34.128124 298.09064 34.128124 300.21564Z" fill-rule="nonzero"/><path fill="#000000" d="M26.05 240.06667L27.159374 239.97292Q27.284374 240.78542 27.721874 241.19167Q28.175 241.59792 28.815624 241.59792Q29.565624 241.59792 30.096874 241.01979Q30.628124 240.44167 30.628124 239.50417Q30.628124 238.59792 30.1125 238.08229Q29.6125 237.55104 28.784374 237.55104Q28.284374 237.55104 27.8625 237.78542Q27.45625 238.01979 27.221874 238.37917L26.2375 238.25417L27.065624 233.84792L31.346874 233.84792L31.346874 234.84792L27.909374 234.84792L27.45625 237.16042Q28.221874 236.61354 29.065624 236.61354Q30.190624 236.61354 30.95625 237.39479Q31.7375 238.17604 31.7375 239.41042Q31.7375 240.56667 31.065624 241.42604Q30.2375 242.45729 28.815624 242.45729Q27.64375 242.45729 26.89375 241.80104Q26.159374 241.14479 26.05 240.06667ZM33.05 238.08229Q33.05 236.55104 33.3625 235.62917Q33.675 234.69167 34.284374 234.19167Q34.909374 233.69167 35.846874 233.69167Q36.534374 233.69167 37.05 233.97292Q37.58125 234.25417 37.925 234.78542Q38.26875 235.30104 38.45625 236.05104Q38.64375 236.80104 38.64375 238.08229Q38.64375 239.59792 38.33125 240.51979Q38.034374 241.44167 37.409374 241.95729Q36.8 242.45729 35.846874 242.45729Q34.6125 242.45729 33.89375 241.56667Q33.05 240.50417 33.05 238.08229ZM34.128124 238.08229Q34.128124 240.19167 34.628124 240.89479Q35.128124 241.59792 35.846874 241.59792Q36.58125 241.59792 37.065624 240.89479Q37.565624 240.19167 37.565624 238.08229Q37.565624 235.95729 37.065624 235.26979Q36.58125 234.56667 35.83125 234.56667Q35.1125 234.56667 34.675 235.17604Q34.128124 235.95729 34.128124 238.08229Z" fill-rule="nonzero"/><path fill="#000000" d="M23.01875 180.18333L21.971874 180.18333L21.971874 173.46458Q21.58125 173.82396 20.95625 174.19896Q20.346874 174.55833 19.8625 174.73021L19.8625 173.71458Q20.7375 173.29271 21.39375 172.71458Q22.065624 172.12083 22.346874 171.55833L23.01875 171.55833L23.01875 180.18333ZM26.05 175.94896Q26.05 174.41771 26.3625 173.49583Q26.675 172.55833 27.284374 172.05833Q27.909374 171.55833 28.846874 171.55833Q29.534374 171.55833 30.05 171.83958Q30.58125 172.12083 30.925 172.65208Q31.26875 173.16771 31.45625 173.91771Q31.64375 174.66771 31.64375 175.94896Q31.64375 177.46458 31.33125 178.38646Q31.034374 179.30833 30.409374 179.82396Q29.8 180.32396 28.846874 180.32396Q27.6125 180.32396 26.89375 179.43333Q26.05 178.37083 26.05 175.94896ZM27.128124 175.94896Q27.128124 178.05833 27.628124 178.76146Q28.128124 179.46458 28.846874 179.46458Q29.58125 179.46458 30.065624 178.76146Q30.565624 178.05833 30.565624 175.94896Q30.565624 173.82396 30.065624 173.13646Q29.58125 172.43333 28.83125 172.43333Q28.1125 172.43333 27.675 173.04271Q27.128124 173.82396 27.128124 175.94896ZM33.05 175.94896Q33.05 174.41771 33.3625 173.49583Q33.675 172.55833 34.284374 172.05833Q34.909374 171.55833 35.846874 171.55833Q36.534374 171.55833 37.05 171.83958Q37.58125 172.12083 37.925 172.65208Q38.26875 173.16771 38.45625 173.91771Q38.64375 174.66771 38.64375 175.94896Q38.64375 177.46458 38.33125 178.38646Q38.034374 179.30833 37.409374 179.82396Q36.8 180.32396 35.846874 180.32396Q34.6125 180.32396 33.89375 179.43333Q33.05 178.37083 33.05 175.94896ZM34.128124 175.94896Q34.128124 178.05833 34.628124 178.76146Q35.128124 179.46458 35.846874 179.46458Q36.58125 179.46458 37.065624 178.76146Q37.565624 178.05833 37.565624 175.94896Q37.565624 173.82396 37.065624 173.13646Q36.58125 172.43333 35.83125 172.43333Q35.1125 172.43333 34.675 173.04271Q34.128124 173.82396 34.128124 175.94896Z" fill-rule="nonzero"/><path fill="#000000" d="M23.01875 118.05L21.971874 118.05L21.971874 111.33125Q21.58125 111.69063 20.95625 112.06563Q20.346874 112.425 19.8625 112.59688L19.8625 111.58125Q20.7375 111.15938 21.39375 110.58125Q22.065624 109.9875 22.346874 109.425L23.01875 109.425L23.01875 118.05ZM26.05 115.8L27.159374 115.70625Q27.284374 116.51875 27.721874 116.925Q28.175 117.33125 28.815624 117.33125Q29.565624 117.33125 30.096874 116.75313Q30.628124 116.175 30.628124 115.2375Q30.628124 114.33125 30.1125 113.81563Q29.6125 113.28438 28.784374 113.28438Q28.284374 113.28438 27.8625 113.51875Q27.45625 113.75313 27.221874 114.1125L26.2375 113.9875L27.065624 109.58125L31.346874 109.58125L31.346874 110.58125L27.909374 110.58125L27.45625 112.89375Q28.221874 112.34688 29.065624 112.34688Q30.190624 112.34688 30.95625 113.12813Q31.7375 113.90938 31.7375 115.14375Q31.7375 116.3 31.065624 117.15938Q30.2375 118.19063 28.815624 118.19063Q27.64375 118.19063 26.89375 117.53438Q26.159374 116.87813 26.05 115.8ZM33.05 113.81563Q33.05 112.28438 33.3625 111.3625Q33.675 110.425 34.284374 109.925Q34.909374 109.425 35.846874 109.425Q36.534374 109.425 37.05 109.70625Q37.58125 109.9875 37.925 110.51875Q38.26875 111.03438 38.45625 111.78438Q38.64375 112.53438 38.64375 113.81563Q38.64375 115.33125 38.33125 116.25313Q38.034374 117.175 37.409374 117.69063Q36.8 118.19063 35.846874 118.19063Q34.6125 118.19063 33.89375 117.3Q33.05 116.2375 33.05 113.81563ZM34.128124 113.81563Q34.128124 115.925 34.628124 116.62813Q35.128124 117.33125 35.846874 117.33125Q36.58125 117.33125 37.065624 116.62813Q37.565624 115.925 37.565624 113.81563Q37.565624 111.69063 37.065624 111.00313Q36.58125 110.3 35.83125 110.3Q35.1125 110.3 34.675 110.90938Q34.128124 111.69063 34.128124 113.81563Z" fill-rule="nonzero"/><path fill="#000000" d="M24.596874 54.901043L24.596874 55.916668L18.909374 55.916668Q18.909374 55.541668 19.034374 55.182293Q19.253124 54.604168 19.721874 54.041668Q20.20625 53.479168 21.1125 52.744793Q22.51875 51.588543 23.003124 50.916668Q23.503124 50.244793 23.503124 49.651043Q23.503124 49.026043 23.05 48.604168Q22.596874 48.166668 21.878124 48.166668Q21.1125 48.166668 20.659374 48.619793Q20.20625 49.072918 20.190624 49.885418L19.1125 49.776043Q19.221874 48.557293 19.940624 47.932293Q20.675 47.291668 21.909374 47.291668Q23.14375 47.291668 23.8625 47.979168Q24.58125 48.666668 24.58125 49.682293Q24.58125 50.197918 24.3625 50.697918Q24.159374 51.182293 23.659374 51.744793Q23.175 52.291668 22.05 53.244793Q21.096874 54.041668 20.815624 54.338543Q20.55 54.619793 20.378124 54.901043L24.596874 54.901043ZM26.05 51.682293Q26.05 50.151043 26.3625 49.229168Q26.675 48.291668 27.284374 47.791668Q27.909374 47.291668 28.846874 47.291668Q29.534374 47.291668 30.05 47.572918Q30.58125 47.854168 30.925 48.385418Q31.26875 48.901043 31.45625 49.651043Q31.64375 50.401043 31.64375 51.682293Q31.64375 53.197918 31.33125 54.119793Q31.034374 55.041668 30.409374 55.557293Q29.8 56.057293 28.846874 56.057293Q27.6125 56.057293 26.89375 55.166668Q26.05 54.104168 26.05 51.682293ZM27.128124 51.682293Q27.128124 53.791668 27.628124 54.494793Q28.128124 55.197918 28.846874 55.197918Q29.58125 55.197918 30.065624 54.494793Q30.565624 53.791668 30.565624 51.682293Q30.565624 49.557293 30.065624 48.869793Q29.58125 48.166668 28.83125 48.166668Q28.1125 48.166668 27.675 48.776043Q27.128124 49.557293 27.128124 51.682293ZM33.05 51.682293Q33.05 50.151043 33.3625 49.229168Q33.675 48.291668 34.284374 47.791668Q34.909374 47.291668 35.846874 47.291668Q36.534374 47.291668 37.05 47.572918Q37.58125 47.854168 37.925 48.385418Q38.26875 48.901043 38.45625 49.651043Q38.64375 50.401043 38.64375 51.682293Q38.64375 53.197918 38.33125 54.119793Q38.034374 55.041668 37.409374 55.557293Q36.8 56.057293 35.846874 56.057293Q34.6125 56.057293 33.89375 55.166668Q33.05 54.104168 33.05 51.682293ZM34.128124 51.682293Q34.128124 53.791668 34.628124 54.494793Q35.128124 55.197918 35.846874 55.197918Q36.58125 55.197918 37.065624 54.494793Q37.565624 53.791668 37.565624 51.682293Q37.565624 49.557293 37.065624 48.869793Q36.58125 48.166668 35.83125 48.166668Q35.1125 48.166668 34.675 48.776043Q34.128124 49.557293 34.128124 51.682293Z" fill-rule="nonzero"/><path fill="#000000" d="M99.1625 317.45L99.1625 308.85626L100.2875 308.85626L100.2875 317.45L99.1625 317.45ZM101.83437 317.45L101.83437 311.23126L102.77187 311.23126L102.77187 312.10626Q103.45937 311.09064 104.75625 311.09064Q105.31875 311.09064 105.7875 311.29376Q106.27187 311.4969 106.50625 311.825Q106.74062 312.15314 106.83437 312.59064Q106.88125 312.8875 106.88125 313.6219L106.88125 317.45L105.83437 317.45L105.83437 313.66876Q105.83437 313.0125 105.70937 312.7Q105.58437 312.3875 105.27187 312.2Q104.95937 311.9969 104.5375 311.9969Q103.86562 311.9969 103.36562 312.4344Q102.88125 312.85626 102.88125 314.04376L102.88125 317.45L101.83437 317.45ZM108.83437 310.075L108.83437 308.85626L109.89687 308.85626L109.89687 310.075L108.83437 310.075ZM108.83437 317.45L108.83437 311.23126L109.89687 311.23126L109.89687 317.45L108.83437 317.45ZM115.89687 315.16876L116.92812 315.3094Q116.75625 316.3719 116.05312 316.98126Q115.35 317.59064 114.33437 317.59064Q113.05312 317.59064 112.27187 316.7625Q111.50625 315.91876 111.50625 314.35626Q111.50625 313.35626 111.83437 312.60626Q112.17812 311.84064 112.85 311.46564Q113.5375 311.09064 114.35 311.09064Q115.35 311.09064 115.99062 311.60626Q116.64687 312.10626 116.83437 313.0594L115.80312 313.21564Q115.6625 312.59064 115.2875 312.27814Q114.9125 311.95 114.38125 311.95Q113.58437 311.95 113.08437 312.52814Q112.58437 313.09064 112.58437 314.325Q112.58437 315.59064 113.06875 316.15314Q113.55312 316.71564 114.31875 316.71564Q114.94375 316.71564 115.35 316.34064Q115.77187 315.96564 115.89687 315.16876ZM117.83437 310.075L117.83437 308.85626L118.89687 308.85626L118.89687 310.075L117.83437 310.075ZM117.83437 317.45L117.83437 311.23126L118.89687 311.23126L118.89687 317.45L117.83437 317.45ZM120.44375 314.34064Q120.44375 312.60626 121.39687 311.77814Q122.19375 311.09064 123.35 311.09064Q124.63125 311.09064 125.44375 311.9344Q126.27187 312.7625 126.27187 314.2469Q126.27187 315.45 125.9125 316.1375Q125.55312 316.825 124.85 317.21564Q124.1625 317.59064 123.35 317.59064Q122.05312 317.59064 121.24062 316.7625Q120.44375 315.91876 120.44375 314.34064ZM121.52187 314.34064Q121.52187 315.52814 122.0375 316.1219Q122.56875 316.71564 123.35 316.71564Q124.14687 316.71564 124.6625 316.1219Q125.17812 315.52814 125.17812 314.3094Q125.17812 313.15314 124.64687 312.5594Q124.13125 311.96564 123.35 311.96564Q122.56875 311.96564 122.0375 312.5594Q121.52187 313.1375 121.52187 314.34064Z" fill-rule="nonzero"/><path fill="#000000" d="M221.6375 317.45L221.6375 308.85626L222.7625 308.85626L222.7625 317.45L221.6375 317.45ZM224.30937 317.45L224.30937 311.23126L225.24687 311.23126L225.24687 312.10626Q225.93437 311.09064 227.23125 311.09064Q227.79375 311.09064 228.2625 311.29376Q228.74687 311.4969 228.98125 311.825Q229.21562 312.15314 229.30937 312.59064Q229.35625 312.8875 229.35625 313.6219L229.35625 317.45L228.30937 317.45L228.30937 313.66876Q228.30937 313.0125 228.18437 312.7Q228.05937 312.3875 227.74687 312.2Q227.43437 311.9969 227.0125 311.9969Q226.34062 311.9969 225.84062 312.4344Q225.35625 312.85626 225.35625 314.04376L225.35625 317.45L224.30937 317.45ZM231.55937 317.45L231.55937 312.04376L230.62187 312.04376L230.62187 311.23126L231.55937 311.23126L231.55937 310.5594Q231.55937 309.9344 231.66875 309.6375Q231.825 309.21564 232.2 308.96564Q232.59062 308.71564 233.27812 308.71564Q233.73125 308.71564 234.2625 308.825L234.10625 309.73126Q233.77812 309.6844 233.48125 309.6844Q232.99687 309.6844 232.79375 309.8875Q232.60625 310.09064 232.60625 310.65314L232.60625 311.23126L233.825 311.23126L233.825 312.04376L232.60625 312.04376L232.60625 317.45L231.55937 317.45ZM233.91875 314.34064Q233.91875 312.60626 234.87187 311.77814Q235.66875 311.09064 236.825 311.09064Q238.10625 311.09064 238.91875 311.9344Q239.74687 312.7625 239.74687 314.2469Q239.74687 315.45 239.3875 316.1375Q239.02812 316.825 238.325 317.21564Q237.6375 317.59064 236.825 317.59064Q235.52812 317.59064 234.71562 316.7625Q233.91875 315.91876 233.91875 314.34064ZM234.99687 314.34064Q234.99687 315.52814 235.5125 316.1219Q236.04375 316.71564 236.825 316.71564Q237.62187 316.71564 238.1375 316.1219Q238.65312 315.52814 238.65312 314.3094Q238.65312 313.15314 238.12187 312.5594Q237.60625 311.96564 236.825 311.96564Q236.04375 311.96564 235.5125 312.5594Q234.99687 313.1375 234.99687 314.34064ZM241.29375 317.45L241.29375 311.23126L242.24687 311.23126L242.24687 312.16876Q242.60625 311.5125 242.90312 311.3094Q243.21562 311.09064 243.59062 311.09064Q244.12187 311.09064 244.66875 311.41876L244.30937 312.40314Q243.91875 312.16876 243.54375 312.16876Q243.18437 312.16876 242.90312 312.3875Q242.6375 312.59064 242.52812 312.96564Q242.34062 313.52814 242.34062 314.1844L242.34062 317.45L241.29375 317.45ZM245.30937 317.45L245.30937 311.23126L246.24687 311.23126L246.24687 312.10626Q246.54375 311.6375 247.02812 311.3719Q247.5125 311.09064 248.1375 311.09064Q248.825 311.09064 249.2625 311.3719Q249.71562 311.65314 249.8875 312.16876Q250.6375 311.09064 251.80937 311.09064Q252.74687 311.09064 253.23125 311.60626Q253.73125 312.10626 253.73125 313.1844L253.73125 317.45L252.68437 317.45L252.68437 313.52814Q252.68437 312.90314 252.575 312.6219Q252.48125 312.34064 252.21562 312.16876Q251.95 311.9969 251.575 311.9969Q250.91875 311.9969 250.48125 312.4344Q250.05937 312.8719 250.05937 313.84064L250.05937 317.45L248.99687 317.45L248.99687 313.40314Q248.99687 312.7 248.73125 312.35626Q248.48125 311.9969 247.90312 311.9969Q247.45 311.9969 247.075 312.23126Q246.7 312.46564 246.52812 312.91876Q246.35625 313.3719 246.35625 314.21564L246.35625 317.45L245.30937 317.45ZM260.5594 315.45L261.65314 315.575Q261.40314 316.52814 260.7 317.0594Q259.9969 317.59064 258.91876 317.59064Q257.5594 317.59064 256.7469 316.7469Q255.95 315.90314 255.95 314.3875Q255.95 312.825 256.7625 311.96564Q257.575 311.09064 258.85626 311.09064Q260.10626 311.09064 260.8875 311.9344Q261.6844 312.77814 261.6844 314.325Q261.6844 314.41876 261.6844 314.60626L257.04376 314.60626Q257.10626 315.6375 257.6219 316.1844Q258.1375 316.71564 258.91876 316.71564Q259.4969 316.71564 259.90314 316.41876Q260.325 316.10626 260.5594 315.45ZM257.10626 313.7469L260.575 313.7469Q260.5125 312.95 260.1844 312.5594Q259.66876 311.95 258.8719 311.95Q258.1375 311.95 257.6375 312.4344Q257.15314 312.91876 257.10626 313.7469ZM269.98126 317.45L268.9344 317.45L268.9344 310.73126Q268.54376 311.09064 267.91876 311.46564Q267.3094 311.825 266.825 311.9969L266.825 310.98126Q267.7 310.5594 268.35626 309.98126Q269.02814 309.3875 269.3094 308.825L269.98126 308.825L269.98126 317.45Z" fill-rule="nonzero"/><path fill="#000000" d="M355.6125 317.45L355.6125 308.85626L356.7375 308.85626L356.7375 317.45L355.6125 317.45ZM358.28436 317.45L358.28436 311.23126L359.22186 311.23126L359.22186 312.10626Q359.90936 311.09064 361.20624 311.09064Q361.76874 311.09064 362.2375 311.29376Q362.72186 311.4969 362.95624 311.825Q363.1906 312.15314 363.28436 312.59064Q363.33124 312.8875 363.33124 313.6219L363.33124 317.45L362.28436 317.45L362.28436 313.66876Q362.28436 313.0125 362.15936 312.7Q362.03436 312.3875 361.72186 312.2Q361.40936 311.9969 360.9875 311.9969Q360.3156 311.9969 359.8156 312.4344Q359.33124 312.85626 359.33124 314.04376L359.33124 317.45L358.28436 317.45ZM365.53436 317.45L365.53436 312.04376L364.59686 312.04376L364.59686 311.23126L365.53436 311.23126L365.53436 310.5594Q365.53436 309.9344 365.64374 309.6375Q365.8 309.21564 366.175 308.96564Q366.5656 308.71564 367.2531 308.71564Q367.70624 308.71564 368.2375 308.825L368.08124 309.73126Q367.7531 309.6844 367.45624 309.6844Q366.97186 309.6844 366.76874 309.8875Q366.58124 310.09064 366.58124 310.65314L366.58124 311.23126L367.8 311.23126L367.8 312.04376L366.58124 312.04376L366.58124 317.45L365.53436 317.45ZM367.89374 314.34064Q367.89374 312.60626 368.84686 311.77814Q369.64374 311.09064 370.8 311.09064Q372.08124 311.09064 372.89374 311.9344Q373.72186 312.7625 373.72186 314.2469Q373.72186 315.45 373.3625 316.1375Q373.0031 316.825 372.3 317.21564Q371.6125 317.59064 370.8 317.59064Q369.5031 317.59064 368.6906 316.7625Q367.89374 315.91876 367.89374 314.34064ZM368.97186 314.34064Q368.97186 315.52814 369.4875 316.1219Q370.01874 316.71564 370.8 316.71564Q371.59686 316.71564 372.1125 316.1219Q372.6281 315.52814 372.6281 314.3094Q372.6281 313.15314 372.09686 312.5594Q371.58124 311.96564 370.8 311.96564Q370.01874 311.96564 369.4875 312.5594Q368.97186 313.1375 368.97186 314.34064ZM375.26874 317.45L375.26874 311.23126L376.22186 311.23126L376.22186 312.16876Q376.58124 311.5125 376.8781 311.3094Q377.1906 311.09064 377.5656 311.09064Q378.09686 311.09064 378.64374 311.41876L378.28436 312.40314Q377.89374 312.16876 377.51874 312.16876Q377.15936 312.16876 376.8781 312.3875Q376.6125 312.59064 376.5031 312.96564Q376.3156 313.52814 376.3156 314.1844L376.3156 317.45L375.26874 317.45ZM379.28436 317.45L379.28436 311.23126L380.22186 311.23126L380.22186 312.10626Q380.51874 311.6375 381.0031 311.3719Q381.4875 311.09064 382.1125 311.09064Q382.8 311.09064 383.2375 311.3719Q383.6906 311.65314 383.8625 312.16876Q384.6125 311.09064 385.78436 311.09064Q386.72186 311.09064 387.20624 311.60626Q387.70624 312.10626 387.70624 313.1844L387.70624 317.45L386.65936 317.45L386.65936 313.52814Q386.65936 312.90314 386.55 312.6219Q386.45624 312.34064 386.1906 312.16876Q385.925 311.9969 385.55 311.9969Q384.89374 311.9969 384.45624 312.4344Q384.03436 312.8719 384.03436 313.84064L384.03436 317.45L382.97186 317.45L382.97186 313.40314Q382.97186 312.7 382.70624 312.35626Q382.45624 311.9969 381.8781 311.9969Q381.425 311.9969 381.05 312.23126Q380.675 312.46564 380.5031 312.91876Q380.33124 313.3719 380.33124 314.21564L380.33124 317.45L379.28436 317.45ZM394.53436 315.45L395.6281 315.575Q395.3781 316.52814 394.675 317.0594Q393.97186 317.59064 392.89374 317.59064Q391.53436 317.59064 390.72186 316.7469Q389.925 315.90314 389.925 314.3875Q389.925 312.825 390.7375 311.96564Q391.55 311.09064 392.83124 311.09064Q394.08124 311.09064 394.8625 311.9344Q395.65936 312.77814 395.65936 314.325Q395.65936 314.41876 395.65936 314.60626L391.01874 314.60626Q391.08124 315.6375 391.59686 316.1844Q392.1125 316.71564 392.89374 316.71564Q393.47186 316.71564 393.8781 316.41876Q394.3 316.10626 394.53436 315.45ZM391.08124 313.7469L394.55 313.7469Q394.4875 312.95 394.15936 312.5594Q393.64374 311.95 392.84686 311.95Q392.1125 311.95 391.6125 312.4344Q391.1281 312.91876 391.08124 313.7469ZM405.53436 316.4344L405.53436 317.45L399.84686 317.45Q399.84686 317.075 399.97186 316.71564Q400.1906 316.1375 400.65936 315.575Q401.14374 315.0125 402.05 314.27814Q403.45624 313.1219 403.9406 312.45Q404.4406 311.77814 404.4406 311.1844Q404.4406 310.5594 403.9875 310.1375Q403.53436 309.7 402.8156 309.7Q402.05 309.7 401.59686 310.15314Q401.14374 310.60626 401.1281 311.41876L400.05 311.3094Q400.15936 310.09064 400.8781 309.46564Q401.6125 308.825 402.84686 308.825Q404.08124 308.825 404.8 309.5125Q405.51874 310.2 405.51874 311.21564Q405.51874 311.73126 405.3 312.23126Q405.09686 312.71564 404.59686 313.27814Q404.1125 313.825 402.9875 314.77814Q402.03436 315.575 401.7531 315.8719Q401.4875 316.15314 401.3156 316.4344L405.53436 316.4344Z" fill-rule="nonzero"/><path fill="#000000" d="M489.5875 317.45L489.5875 308.85626L490.7125 308.85626L490.7125 317.45L489.5875 317.45ZM492.25937 317.45L492.25937 311.23126L493.19687 311.23126L493.19687 312.10626Q493.88437 311.09064 495.18124 311.09064Q495.74374 311.09064 496.2125 311.29376Q496.69687 311.4969 496.93124 311.825Q497.16562 312.15314 497.25937 312.59064Q497.30624 312.8875 497.30624 313.6219L497.30624 317.45L496.25937 317.45L496.25937 313.66876Q496.25937 313.0125 496.13437 312.7Q496.00937 312.3875 495.69687 312.2Q495.38437 311.9969 494.9625 311.9969Q494.29062 311.9969 493.79062 312.4344Q493.30624 312.85626 493.30624 314.04376L493.30624 317.45L492.25937 317.45ZM499.50937 317.45L499.50937 312.04376L498.57187 312.04376L498.57187 311.23126L499.50937 311.23126L499.50937 310.5594Q499.50937 309.9344 499.61874 309.6375Q499.775 309.21564 500.15 308.96564Q500.54062 308.71564 501.22812 308.71564Q501.68124 308.71564 502.2125 308.825L502.05624 309.73126Q501.72812 309.6844 501.43124 309.6844Q500.94687 309.6844 500.74374 309.8875Q500.55624 310.09064 500.55624 310.65314L500.55624 311.23126L501.775 311.23126L501.775 312.04376L500.55624 312.04376L500.55624 317.45L499.50937 317.45ZM501.86874 314.34064Q501.86874 312.60626 502.82187 311.77814Q503.61874 311.09064 504.775 311.09064Q506.05624 311.09064 506.86874 311.9344Q507.69687 312.7625 507.69687 314.2469Q507.69687 315.45 507.3375 316.1375Q506.97812 316.825 506.275 317.21564Q505.5875 317.59064 504.775 317.59064Q503.47812 317.59064 502.66562 316.7625Q501.86874 315.91876 501.86874 314.34064ZM502.94687 314.34064Q502.94687 315.52814 503.4625 316.1219Q503.99374 316.71564 504.775 316.71564Q505.57187 316.71564 506.0875 316.1219Q506.60312 315.52814 506.60312 314.3094Q506.60312 313.15314 506.07187 312.5594Q505.55624 311.96564 504.775 311.96564Q503.99374 311.96564 503.4625 312.5594Q502.94687 313.1375 502.94687 314.34064ZM509.24374 317.45L509.24374 311.23126L510.19687 311.23126L510.19687 312.16876Q510.55624 311.5125 510.85312 311.3094Q511.16562 311.09064 511.54062 311.09064Q512.0719 311.09064 512.6188 311.41876L512.2594 312.40314Q511.86874 312.16876 511.49374 312.16876Q511.13437 312.16876 510.85312 312.3875Q510.5875 312.59064 510.47812 312.96564Q510.29062 313.52814 510.29062 314.1844L510.29062 317.45L509.24374 317.45ZM513.2594 317.45L513.2594 311.23126L514.1969 311.23126L514.1969 312.10626Q514.4938 311.6375 514.97815 311.3719Q515.4625 311.09064 516.0875 311.09064Q516.775 311.09064 517.2125 311.3719Q517.66565 311.65314 517.8375 312.16876Q518.5875 311.09064 519.7594 311.09064Q520.6969 311.09064 521.1813 311.60626Q521.6813 312.10626 521.6813 313.1844L521.6813 317.45L520.6344 317.45L520.6344 313.52814Q520.6344 312.90314 520.525 312.6219Q520.4313 312.34064 520.16565 312.16876Q519.9 311.9969 519.525 311.9969Q518.8688 311.9969 518.4313 312.4344Q518.0094 312.8719 518.0094 313.84064L518.0094 317.45L516.9469 317.45L516.9469 313.40314Q516.9469 312.7 516.6813 312.35626Q516.4313 311.9969 515.85315 311.9969Q515.4 311.9969 515.025 312.23126Q514.65 312.46564 514.47815 312.91876Q514.3063 313.3719 514.3063 314.21564L514.3063 317.45L513.2594 317.45ZM528.5094 315.45L529.60315 315.575Q529.35315 316.52814 528.65 317.0594Q527.9469 317.59064 526.8688 317.59064Q525.5094 317.59064 524.6969 316.7469Q523.9 315.90314 523.9 314.3875Q523.9 312.825 524.7125 311.96564Q525.525 311.09064 526.8063 311.09064Q528.0563 311.09064 528.8375 311.9344Q529.6344 312.77814 529.6344 314.325Q529.6344 314.41876 529.6344 314.60626L524.9938 314.60626Q525.0563 315.6375 525.5719 316.1844Q526.0875 316.71564 526.8688 316.71564Q527.4469 316.71564 527.85315 316.41876Q528.275 316.10626 528.5094 315.45ZM525.0563 313.7469L528.525 313.7469Q528.4625 312.95 528.1344 312.5594Q527.6188 311.95 526.8219 311.95Q526.0875 311.95 525.5875 312.4344Q525.10315 312.91876 525.0563 313.7469ZM533.9625 315.1844L535.025 315.04376Q535.1969 315.9344 535.6344 316.34064Q536.0719 316.73126 536.6969 316.73126Q537.4469 316.73126 537.9625 316.21564Q538.47815 315.7 538.47815 314.9344Q538.47815 314.21564 537.9938 313.7469Q537.525 313.2625 536.79065 313.2625Q536.4938 313.2625 536.04065 313.3875L536.16565 312.45Q536.275 312.46564 536.3375 312.46564Q537.0094 312.46564 537.54065 312.1219Q538.0875 311.7625 538.0875 311.02814Q538.0875 310.45 537.6969 310.075Q537.3063 309.6844 536.6813 309.6844Q536.0719 309.6844 535.65 310.075Q535.2438 310.46564 535.1344 311.23126L534.0719 311.04376Q534.2594 309.9969 534.9469 309.41876Q535.6344 308.825 536.65 308.825Q537.35315 308.825 537.9469 309.1375Q538.54065 309.4344 538.85315 309.95Q539.16565 310.46564 539.16565 311.0594Q539.16565 311.60626 538.8688 312.075Q538.5719 312.52814 537.9938 312.79376Q538.7438 312.96564 539.16565 313.52814Q539.5875 314.075 539.5875 314.91876Q539.5875 316.04376 538.7594 316.825Q537.9469 317.60626 536.6969 317.60626Q535.5719 317.60626 534.8219 316.9344Q534.0719 316.2469 533.9625 315.1844Z" fill-rule="nonzero"/><path stroke="#4285f4" stroke-width="4.0" stroke-linecap="butt" d="M228.0 25.55L240.0 25.55" fill-rule="nonzero"/><path fill="#1a1a1a" d="M248.92188 29.55L248.92188 20.95625L252.17188 20.95625Q253.01562 20.95625 253.46875 21.034374Q254.10938 21.14375 254.53125 21.440624Q254.96875 21.7375 255.21875 22.26875Q255.48438 22.8 255.48438 23.440624Q255.48438 24.534374 254.78125 25.3Q254.09375 26.05 252.26562 26.05L250.0625 26.05L250.0625 29.55L248.92188 29.55ZM250.0625 25.05L252.28125 25.05Q253.39062 25.05 253.84375 24.64375Q254.3125 24.221874 254.3125 23.471874Q254.3125 22.940624 254.03125 22.565624Q253.76562 22.175 253.32812 22.05Q253.03125 21.971874 252.26562 21.971874L250.0625 21.971874L250.0625 25.05ZM259.375 29.55L256.04688 20.95625L257.28125 20.95625L259.51562 27.20625Q259.78125 27.95625 259.96875 28.6125Q260.17188 27.909374 260.4375 27.20625L262.75 20.95625L263.90625 20.95625L260.54688 29.55L259.375 29.55Z" fill-rule="nonzero"/><path stroke="#ea4335" stroke-width="4.0" stroke-linecap="butt" d="M282.0 25.55L294.0 25.55" fill-rule="nonzero"/><path fill="#1a1a1a" d="M302.95312 29.55L302.95312 20.95625L309.15625 20.95625L309.15625 21.971874L304.09375 21.971874L304.09375 24.596874L308.84375 24.596874L308.84375 25.6125L304.09375 25.6125L304.09375 28.534374L309.35938 28.534374L309.35938 29.55L302.95312 29.55ZM313.375 29.55L310.04688 20.95625L311.28125 20.95625L313.51562 27.20625Q313.78125 27.95625 313.96875 28.6125Q314.17188 27.909374 314.4375 27.20625L316.75 20.95625L317.90625 20.95625L314.54688 29.55L313.375 29.55Z" fill-rule="nonzero"/><path stroke="#fbbc04" stroke-width="4.0" stroke-linecap="butt" d="M333.0 25.55L345.0 25.55" fill-rule="nonzero"/><path fill="#1a1a1a" d="M352.98438 29.55L356.28125 20.95625L357.5 20.95625L361.01562 29.55L359.73438 29.55L358.71875 26.940624L355.14062 26.940624L354.1875 29.55L352.98438 29.55ZM355.46875 26.01875L358.375 26.01875L357.48438 23.64375Q357.0625 22.565624 356.875 21.8625Q356.70312 22.690624 356.40625 23.503124L355.46875 26.01875ZM367.0625 26.534374L368.1875 26.83125Q367.82812 28.221874 366.90625 28.95625Q365.98438 29.690624 364.64062 29.690624Q363.25 29.690624 362.375 29.128124Q361.5 28.565624 361.04688 27.503124Q360.59375 26.425 360.59375 25.190624Q360.59375 23.846874 361.10938 22.846874Q361.625 21.846874 362.5625 21.33125Q363.51562 20.815624 364.65625 20.815624Q365.9375 20.815624 366.8125 21.471874Q367.70312 22.128124 368.04688 23.315624L366.92188 23.58125Q366.625 22.64375 366.04688 22.221874Q365.48438 21.784374 364.625 21.784374Q363.64062 21.784374 362.96875 22.26875Q362.3125 22.7375 362.03125 23.534374Q361.76562 24.33125 361.76562 25.190624Q361.76562 26.284374 362.07812 27.096874Q362.40625 27.909374 363.07812 28.315624Q363.75 28.721874 364.54688 28.721874Q365.5 28.721874 366.15625 28.175Q366.82812 27.628124 367.0625 26.534374Z" fill-rule="nonzero"/></svg>