<svg version="1.1" viewBox="0.0 0.0 600.0 371.0" fill="none" stroke="none" stroke-linecap="square" stroke-miterlimit="10" width="600" height="371" xmlns:xlink="http://www.w3.org/1999/xlink" xmlns="http://www.w3.org/2000/svg"><path fill="#ffffff" d="M0 0L600.0 0L600.0 371.0L0 371.0L0 0Z" fill-rule="nonzero"/><path stroke="#333333" stroke-width="1.0" stroke-linecap="butt" d="M48.5 300.5L581.5 300.5" fill-rule="nonzero"/><path stroke="#cccccc" stroke-width="1.0" stroke-linecap="butt" d="M48.5 250.5L581.5 250.5" fill-rule="nonzero"/><path stroke="#cccccc" stroke-width="1.0" stroke-linecap="butt" d="M48.5 201.5L581.5 201.5" fill-rule="nonzero"/><path stroke="#cccccc" stroke-width="1.0" stroke-linecap="butt" d="M48.5 151.5L581.5 151.5" fill-rule="nonzero"/><path stroke="#cccccc" stroke-width="1.0" stroke-linecap="butt" d="M48.5 101.5L581.5 101.5" fill-rule="nonzero"/><path stroke="#cccccc" stroke-width="1.0" stroke-linecap="butt" d="M48.5 51.5L581.5 51.5" fill-rule="nonzero"/><path stroke="#eeeeee" stroke-width="1.0" stroke-linecap="butt" d="M315.0 75.682L315.0 91.682" fill-rule="nonzero"/><path stroke="#eeeeee" stroke-width="1.0" stroke-linecap="butt" d="M492.63333 94.49186L492.63333 110.49186" fill-rule="nonzero"/><path stroke="#eeeeee" stroke-width="1.0" stroke-linecap="butt" d="M315.0 101.529465L315.0 117.529465" fill-rule="nonzero"/><path stroke="#eeeeee" stroke-width="1.0" stroke-linecap="butt" d="M492.63333 119.42387L492.63333 135.42387" fill-rule="nonzero"/><clipPath id="id_0"><path d="M48.55 51.916668L581.45 51.916668L581.45 300.45L48.55 300.45L48.55 51.916668Z" clip-rule="nonzero"/></clipPath><path stroke="#4285f4" stroke-width="2.0" stroke-linecap="butt" clip-path="url(#id_0)" d="M137.36667 109.5764L315.0 91.682L492.63333 110.49186" fill-rule="nonzero"/><path stroke="#ea4335" stroke-width="2.0" stroke-linecap="butt" clip-path="url(#id_0)" d="M137.36667 105.59987L315.0 117.529465L492.63333 135.42387" fill-rule="nonzero"/><path fill="#4285f4" clip-path="url(#id_0)" d="M137.36667 109.5764C137.36667 109.5764 137.36667 109.5764 137.36667 109.5764C137.36667 109.5764 137.36667 109.5764 137.36667 109.5764C137.36667 109.5764 137.36667 109.5764 137.36667 109.5764C137.36667 109.5764 137.36667 109.5764 137.36667 109.5764Z" fill-rule="nonzero"/><path fill="#4285f4" clip-path="url(#id_0)" d="M315.0 91.682C315.0 91.682 315.0 91.682 315.0 91.682C315.0 91.682 315.0 91.682 315.0 91.682C315.0 91.682 315.0 91.682 315.0 91.682C315.0 91.682 315.0 91.682 315.0 91.682Z" fill-rule="nonzero"/><path fill="#4285f4" clip-path="url(#id_0)" d="M492.63333 110.49186C492.63333 110.49186 492.63333 110.49186 492.63333 110.49186C492.63333 110.49186 492.63333 110.49186 492.63333 110.49186C492.63333 110.49186 492.63333 110.49186 492.63333 110.49186C492.63333 110.49186 492.63333 110.49186 492.63333 110.49186Z" fill-rule="nonzero"/><path fill="#ea4335" clip-path="url(#id_0)" d="M137.36667 105.59987C137.36667 105.59987 137.36667 105.59987 137.36667 105.59987C137.36667 105.59987 137.36667 105.59987 137.36667 105.59987C137.36667 105.59987 137.36667 105.59987 137.36667 105.59987C137.36667 105.59987 137.36667 105.59987 137.36667 105.59987Z" fill-rule="nonzero"/><path fill="#ea4335" clip-path="url(#id_0)" d="M315.0 117.529465C315.0 117.529465 315.0 117.529465 315.0 117.529465C315.0 117.529465 315.0 117.529465 315.0 117.529465C315.0 117.529465 315.0 117.529465 315.0 117.529465C315.0 117.529465 315.0 117.529465 315.0 117.529465Z" fill-rule="nonzero"/><path fill="#ea4335" clip-path="url(#id_0)" d="M492.63333 135.42387C492.63333 135.42387 492.63333 135.42387 492.63333 135.42387C492.63333 135.42387 492.63333 135.42387 492.63333 135.42387C492.63333 135.42387 492.63333 135.42387 492.63333 135.42387C492.63333 135.42387 492.63333 135.42387 492.63333 135.42387Z" fill-rule="nonzero"/><path stroke="#ffffff" stroke-width="3.0" stroke-linejoin="round" stroke-linecap="round" d="M136.83684 127.07828Q136.83684 128.98453 136.18059 129.92203Q135.53996 130.8439 134.14934 130.8439Q132.78996 130.8439 132.13371 129.93765Q131.47746 129.0314 131.44621 127.2189L131.44621 125.7814Q131.44621 123.89078 132.08684 122.98453Q132.74309 122.06265 134.13371 122.06265Q135.50871 122.06265 136.16496 122.95328Q136.82121 123.82828 136.83684 125.67203L136.83684 127.07828ZM135.74309 125.5939Q135.74309 124.2189 135.35246 123.5939Q134.97746 122.95328 134.13371 122.95328Q133.30559 122.95328 132.91496 123.5939Q132.53996 124.2189 132.53996 125.51578L132.53996 127.25015Q132.53996 128.62515 132.93059 129.29703Q133.33684 129.95328 134.14934 129.95328Q134.94621 129.95328 135.33684 129.32828Q135.72746 128.70328 135.74309 127.37515L135.74309 125.5939ZM138.61809 130.1564Q138.61809 129.87515 138.77434 129.68765Q138.94621 129.50015 139.27434 129.50015Q139.61809 129.50015 139.78996 129.68765Q139.96184 129.87515 139.96184 130.1564Q139.96184 130.42203 139.78996 130.60953Q139.61809 130.7814 139.27434 130.7814Q138.94621 130.7814 138.77434 130.60953Q138.61809 130.42203 138.61809 130.1564ZM145.63371 126.9689Q145.30559 127.37515 144.82121 127.62515Q144.35246 127.85953 143.78996 127.85953Q143.05559 127.85953 142.50871 127.50015Q141.96184 127.14078 141.66496 126.48453Q141.36809 125.81265 141.36809 125.01578Q141.36809 124.17203 141.68059 123.48453Q142.00871 122.79703 142.60246 122.43765Q143.21184 122.06265 144.00871 122.06265Q145.27434 122.06265 145.99309 123.01578Q146.72746 123.9689 146.72746 125.5939L146.72746 125.9064Q146.72746 128.4064 145.74309 129.54703Q144.75871 130.68765 142.77434 130.7189L142.55559 130.7189L142.55559 129.81265L142.78996 129.81265Q144.13371 129.7814 144.85246 129.10953Q145.57121 128.43765 145.63371 126.9689ZM143.96184 126.9689Q144.50871 126.9689 144.96184 126.64078Q145.43059 126.29703 145.64934 125.81265L145.64934 125.37515Q145.64934 124.31265 145.18059 123.64078Q144.71184 122.9689 144.00871 122.9689Q143.28996 122.9689 142.85246 123.51578Q142.43059 124.06265 142.43059 124.9689Q142.43059 125.8439 142.83684 126.4064Q143.25871 126.9689 143.96184 126.9689ZM152.74309 122.18765L152.74309 123.0939L152.53996 123.0939Q151.27434 123.12515 150.52434 123.85953Q149.77434 124.57828 149.64934 125.89078Q150.33684 125.12515 151.49309 125.12515Q152.60246 125.12515 153.27434 125.9064Q153.94621 126.68765 153.94621 127.93765Q153.94621 129.25015 153.22746 130.04703Q152.50871 130.8439 151.28996 130.8439Q150.07121 130.8439 149.30559 129.9064Q148.55559 128.95328 148.55559 127.4689L148.55559 127.06265Q148.55559 124.70328 149.55559 123.45328Q150.55559 122.20328 152.53996 122.18765L152.74309 122.18765ZM151.32121 126.0314Q150.75871 126.0314 150.28996 126.35953Q149.82121 126.68765 149.63371 127.20328L149.63371 127.5939Q149.63371 128.6564 150.10246 129.29703Q150.58684 129.93765 151.28996 129.93765Q152.02434 129.93765 152.44621 129.4064Q152.86809 128.85953 152.86809 127.98453Q152.86809 127.10953 152.44621 126.57828Q152.02434 126.0314 151.32121 126.0314ZM160.83684 127.07828Q160.83684 128.98453 160.18059 129.92203Q159.53996 130.8439 158.14934 130.8439Q156.78996 130.8439 156.13371 129.93765Q155.47746 129.0314 155.44621 127.2189L155.44621 125.7814Q155.44621 123.89078 156.08684 122.98453Q156.74309 122.06265 158.13371 122.06265Q159.50871 122.06265 160.16496 122.95328Q160.82121 123.82828 160.83684 125.67203L160.83684 127.07828ZM159.74309 125.5939Q159.74309 124.2189 159.35246 123.5939Q158.97746 122.95328 158.13371 122.95328Q157.30559 122.95328 156.91496 123.5939Q156.53996 124.2189 156.53996 125.51578L156.53996 127.25015Q156.53996 128.62515 156.93059 129.29703Q157.33684 129.95328 158.14934 129.95328Q158.94621 129.95328 159.33684 129.32828Q159.72746 128.70328 159.74309 127.37515L159.74309 125.5939Z" fill-rule="nonzero"/><path fill="#4285f4" d="M136.83684 127.07828Q136.83684 128.98453 136.18059 129.92203Q135.53996 130.8439 134.14934 130.8439Q132.78996 130.8439 132.13371 129.93765Q131.47746 129.0314 131.44621 127.2189L131.44621 125.7814Q131.44621 123.89078 132.08684 122.98453Q132.74309 122.06265 134.13371 122.06265Q135.50871 122.06265 136.16496 122.95328Q136.82121 123.82828 136.83684 125.67203L136.83684 127.07828ZM135.74309 125.5939Q135.74309 124.2189 135.35246 123.5939Q134.97746 122.95328 134.13371 122.95328Q133.30559 122.95328 132.91496 123.5939Q132.53996 124.2189 132.53996 125.51578L132.53996 127.25015Q132.53996 128.62515 132.93059 129.29703Q133.33684 129.95328 134.14934 129.95328Q134.94621 129.95328 135.33684 129.32828Q135.72746 128.70328 135.74309 127.37515L135.74309 125.5939ZM138.61809 130.1564Q138.61809 129.87515 138.77434 129.68765Q138.94621 129.50015 139.27434 129.50015Q139.61809 129.50015 139.78996 129.68765Q139.96184 129.87515 139.96184 130.1564Q139.96184 130.42203 139.78996 130.60953Q139.61809 130.7814 139.27434 130.7814Q138.94621 130.7814 138.77434 130.60953Q138.61809 130.42203 138.61809 130.1564ZM145.63371 126.9689Q145.30559 127.37515 144.82121 127.62515Q144.35246 127.85953 143.78996 127.85953Q143.05559 127.85953 142.50871 127.50015Q141.96184 127.14078 141.66496 126.48453Q141.36809 125.81265 141.36809 125.01578Q141.36809 124.17203 141.68059 123.48453Q142.00871 122.79703 142.60246 122.43765Q143.21184 122.06265 144.00871 122.06265Q145.27434 122.06265 145.99309 123.01578Q146.72746 123.9689 146.72746 125.5939L146.72746 125.9064Q146.72746 128.4064 145.74309 129.54703Q144.75871 130.68765 142.77434 130.7189L142.55559 130.7189L142.55559 129.81265L142.78996 129.81265Q144.13371 129.7814 144.85246 129.10953Q145.57121 128.43765 145.63371 126.9689ZM143.96184 126.9689Q144.50871 126.9689 144.96184 126.64078Q145.43059 126.29703 145.64934 125.81265L145.64934 125.37515Q145.64934 124.31265 145.18059 123.64078Q144.71184 122.9689 144.00871 122.9689Q143.28996 122.9689 142.85246 123.51578Q142.43059 124.06265 142.43059 124.9689Q142.43059 125.8439 142.83684 126.4064Q143.25871 126.9689 143.96184 126.9689ZM152.74309 122.18765L152.74309 123.0939L152.53996 123.0939Q151.27434 123.12515 150.52434 123.85953Q149.77434 124.57828 149.64934 125.89078Q150.33684 125.12515 151.49309 125.12515Q152.60246 125.12515 153.27434 125.9064Q153.94621 126.68765 153.94621 127.93765Q153.94621 129.25015 153.22746 130.04703Q152.50871 130.8439 151.28996 130.8439Q150.07121 130.8439 149.30559 129.9064Q148.55559 128.95328 148.55559 127.4689L148.55559 127.06265Q148.55559 124.70328 149.55559 123.45328Q150.55559 122.20328 152.53996 122.18765L152.74309 122.18765ZM151.32121 126.0314Q150.75871 126.0314 150.28996 126.35953Q149.82121 126.68765 149.63371 127.20328L149.63371 127.5939Q149.63371 128.6564 150.10246 129.29703Q150.58684 129.93765 151.28996 129.93765Q152.02434 129.93765 152.44621 129.4064Q152.86809 128.85953 152.86809 127.98453Q152.86809 127.10953 152.44621 126.57828Q152.02434 126.0314 151.32121 126.0314ZM160.83684 127.07828Q160.83684 128.98453 160.18059 129.92203Q159.53996 130.8439 158.14934 130.8439Q156.78996 130.8439 156.13371 129.93765Q155.47746 129.0314 155.44621 127.2189L155.44621 125.7814Q155.44621 123.89078 156.08684 122.98453Q156.74309 122.06265 158.13371 122.06265Q159.50871 122.06265 160.16496 122.95328Q160.82121 123.82828 160.83684 125.67203L160.83684 127.07828ZM159.74309 125.5939Q159.74309 124.2189 159.35246 123.5939Q158.97746 122.95328 158.13371 122.95328Q157.30559 122.95328 156.91496 123.5939Q156.53996 124.2189 156.53996 125.51578L156.53996 127.25015Q156.53996 128.62515 156.93059 129.29703Q157.33684 129.95328 158.14934 129.95328Q158.94621 129.95328 159.33684 129.32828Q159.72746 128.70328 159.74309 127.37515L159.74309 125.5939Z" fill-rule="nonzero"/><path stroke="#ffffff" stroke-width="3.0" stroke-linejoin="round" stroke-linecap="round" d="M303.76562 73.682L302.6875 73.682L302.6875 66.46325L300.5 67.260124L300.5 66.27575L303.60938 65.103874L303.76562 65.103874L303.76562 73.682ZM307.34375 73.1195Q307.34375 72.83825 307.5 72.65075Q307.67188 72.46325 308.0 72.46325Q308.34375 72.46325 308.51562 72.65075Q308.6875 72.83825 308.6875 73.1195Q308.6875 73.385124 308.51562 73.572624Q308.34375 73.7445 308.0 73.7445Q307.67188 73.7445 307.5 73.572624Q307.34375 73.385124 307.34375 73.1195ZM315.5625 70.041374Q315.5625 71.947624 314.90625 72.885124Q314.26562 73.807 312.875 73.807Q311.51562 73.807 310.85938 72.90075Q310.20312 71.9945 310.17188 70.182L310.17188 68.7445Q310.17188 66.853874 310.8125 65.947624Q311.46875 65.02575 312.85938 65.02575Q314.23438 65.02575 314.89062 65.916374Q315.54688 66.791374 315.5625 68.635124L315.5625 70.041374ZM314.46875 68.557Q314.46875 67.182 314.07812 66.557Q313.70312 65.916374 312.85938 65.916374Q312.03125 65.916374 311.64062 66.557Q311.26562 67.182 311.26562 68.478874L311.26562 70.21325Q311.26562 71.58825 311.65625 72.260124Q312.0625 72.916374 312.875 72.916374Q313.67188 72.916374 314.0625 72.291374Q314.45312 71.666374 314.46875 70.33825L314.46875 68.557ZM317.70312 69.40075L318.14062 65.15075L322.51562 65.15075L322.51562 66.15075L319.0625 66.15075L318.79688 68.478874Q319.4375 68.103874 320.23438 68.103874Q321.39062 68.103874 322.07812 68.885124Q322.76562 69.65075 322.76562 70.96325Q322.76562 72.27575 322.04688 73.041374Q321.34375 73.807 320.0625 73.807Q318.9375 73.807 318.21875 73.182Q317.5 72.541374 317.40625 71.432L318.42188 71.432Q318.53125 72.166374 318.95312 72.541374Q319.375 72.916374 320.0625 72.916374Q320.8125 72.916374 321.25 72.40075Q321.6875 71.885124 321.6875 70.978874Q321.6875 70.1195 321.21875 69.603874Q320.75 69.08825 319.96875 69.08825Q319.26562 69.08825 318.85938 69.385124L318.57812 69.6195L317.70312 69.40075ZM329.5625 70.041374Q329.5625 71.947624 328.90625 72.885124Q328.26562 73.807 326.875 73.807Q325.51562 73.807 324.85938 72.90075Q324.20312 71.9945 324.17188 70.182L324.17188 68.7445Q324.17188 66.853874 324.8125 65.947624Q325.46875 65.02575 326.85938 65.02575Q328.23438 65.02575 328.89062 65.916374Q329.54688 66.791374 329.5625 68.635124L329.5625 70.041374ZM328.46875 68.557Q328.46875 67.182 328.07812 66.557Q327.70312 65.916374 326.85938 65.916374Q326.03125 65.916374 325.64062 66.557Q325.26562 67.182 325.26562 68.478874L325.26562 70.21325Q325.26562 71.58825 325.65625 72.260124Q326.0625 72.916374 326.875 72.916374Q327.67188 72.916374 328.0625 72.291374Q328.45312 71.666374 328.46875 70.33825L328.46875 68.557Z" fill-rule="nonzero"/><path fill="#4285f4" d="M303.76562 73.682L302.6875 73.682L302.6875 66.46325L300.5 67.260124L300.5 66.27575L303.60938 65.103874L303.76562 65.103874L303.76562 73.682ZM307.34375 73.1195Q307.34375 72.83825 307.5 72.65075Q307.67188 72.46325 308.0 72.46325Q308.34375 72.46325 308.51562 72.65075Q308.6875 72.83825 308.6875 73.1195Q308.6875 73.385124 308.51562 73.572624Q308.34375 73.7445 308.0 73.7445Q307.67188 73.7445 307.5 73.572624Q307.34375 73.385124 307.34375 73.1195ZM315.5625 70.041374Q315.5625 71.947624 314.90625 72.885124Q314.26562 73.807 312.875 73.807Q311.51562 73.807 310.85938 72.90075Q310.20312 71.9945 310.17188 70.182L310.17188 68.7445Q310.17188 66.853874 310.8125 65.947624Q311.46875 65.02575 312.85938 65.02575Q314.23438 65.02575 314.89062 65.916374Q315.54688 66.791374 315.5625 68.635124L315.5625 70.041374ZM314.46875 68.557Q314.46875 67.182 314.07812 66.557Q313.70312 65.916374 312.85938 65.916374Q312.03125 65.916374 311.64062 66.557Q311.26562 67.182 311.26562 68.478874L311.26562 70.21325Q311.26562 71.58825 311.65625 72.260124Q312.0625 72.916374 312.875 72.916374Q313.67188 72.916374 314.0625 72.291374Q314.45312 71.666374 314.46875 70.33825L314.46875 68.557ZM317.70312 69.40075L318.14062 65.15075L322.51562 65.15075L322.51562 66.15075L319.0625 66.15075L318.79688 68.478874Q319.4375 68.103874 320.23438 68.103874Q321.39062 68.103874 322.07812 68.885124Q322.76562 69.65075 322.76562 70.96325Q322.76562 72.27575 322.04688 73.041374Q321.34375 73.807 320.0625 73.807Q318.9375 73.807 318.21875 73.182Q317.5 72.541374 317.40625 71.432L318.42188 71.432Q318.53125 72.166374 318.95312 72.541374Q319.375 72.916374 320.0625 72.916374Q320.8125 72.916374 321.25 72.40075Q321.6875 71.885124 321.6875 70.978874Q321.6875 70.1195 321.21875 69.603874Q320.75 69.08825 319.96875 69.08825Q319.26562 69.08825 318.85938 69.385124L318.57812 69.6195L317.70312 69.40075ZM329.5625 70.041374Q329.5625 71.947624 328.90625 72.885124Q328.26562 73.807 326.875 73.807Q325.51562 73.807 324.85938 72.90075Q324.20312 71.9945 324.17188 70.182L324.17188 68.7445Q324.17188 66.853874 324.8125 65.947624Q325.46875 65.02575 326.85938 65.02575Q328.23438 65.02575 328.89062 65.916374Q329.54688 66.791374 329.5625 68.635124L329.5625 70.041374ZM328.46875 68.557Q328.46875 67.182 328.07812 66.557Q327.70312 65.916374 326.85938 65.916374Q326.03125 65.916374 325.64062 66.557Q325.26562 67.182 325.26562 68.478874L325.26562 70.21325Q325.26562 71.58825 325.65625 72.260124Q326.0625 72.916374 326.875 72.916374Q327.67188 72.916374 328.0625 72.291374Q328.45312 71.666374 328.46875 70.33825L328.46875 68.557Z" fill-rule="nonzero"/><path stroke="#ffffff" stroke-width="3.0" stroke-linejoin="round" stroke-linecap="round" d="M483.19583 88.851234Q483.19583 90.757484 482.53958 91.694984Q481.89896 92.61686 480.50833 92.61686Q479.14896 92.61686 478.4927 91.71061Q477.83646 90.80436 477.8052 88.99186L477.8052 87.55436Q477.8052 85.663734 478.44583 84.757484Q479.10208 83.83561 480.4927 83.83561Q481.8677 83.83561 482.52396 84.726234Q483.1802 85.601234 483.19583 87.444984L483.19583 88.851234ZM482.10208 87.36686Q482.10208 85.99186 481.71146 85.36686Q481.33646 84.726234 480.4927 84.726234Q479.66458 84.726234 479.27396 85.36686Q478.89896 85.99186 478.89896 87.288734L478.89896 89.02311Q478.89896 90.39811 479.28958 91.069984Q479.69583 91.726234 480.50833 91.726234Q481.3052 91.726234 481.69583 91.101234Q482.08646 90.476234 482.10208 89.14811L482.10208 87.36686ZM484.97708 91.92936Q484.97708 91.64811 485.13333 91.46061Q485.3052 91.27311 485.63333 91.27311Q485.97708 91.27311 486.14896 91.46061Q486.32083 91.64811 486.32083 91.92936Q486.32083 92.194984 486.14896 92.382484Q485.97708 92.55436 485.63333 92.55436Q485.3052 92.55436 485.13333 92.382484Q484.97708 92.194984 484.97708 91.92936ZM491.9927 88.74186Q491.66458 89.14811 491.1802 89.39811Q490.71146 89.632484 490.14896 89.632484Q489.41458 89.632484 488.8677 89.27311Q488.32083 88.913734 488.02396 88.257484Q487.72708 87.58561 487.72708 86.788734Q487.72708 85.944984 488.03958 85.257484Q488.3677 84.569984 488.96146 84.21061Q489.57083 83.83561 490.3677 83.83561Q491.63333 83.83561 492.35208 84.788734Q493.08646 85.74186 493.08646 87.36686L493.08646 87.67936Q493.08646 90.17936 492.10208 91.319984Q491.1177 92.46061 489.13333 92.49186L488.91458 92.49186L488.91458 91.58561L489.14896 91.58561Q490.4927 91.55436 491.21146 90.882484Q491.9302 90.21061 491.9927 88.74186ZM490.32083 88.74186Q490.8677 88.74186 491.32083 88.413734Q491.78958 88.069984 492.00833 87.58561L492.00833 87.14811Q492.00833 86.08561 491.53958 85.413734Q491.07083 84.74186 490.3677 84.74186Q489.64896 84.74186 489.21146 85.288734Q488.78958 85.83561 488.78958 86.74186Q488.78958 87.61686 489.19583 88.17936Q489.6177 88.74186 490.32083 88.74186ZM495.33646 88.21061L495.77396 83.96061L500.14896 83.96061L500.14896 84.96061L496.69583 84.96061L496.4302 87.288734Q497.07083 86.913734 497.8677 86.913734Q499.02396 86.913734 499.71146 87.694984Q500.39896 88.46061 500.39896 89.77311Q500.39896 91.08561 499.6802 91.851234Q498.97708 92.61686 497.69583 92.61686Q496.57083 92.61686 495.85208 91.99186Q495.13333 91.351234 495.03958 90.24186L496.0552 90.24186Q496.16458 90.976234 496.58646 91.351234Q497.00833 91.726234 497.69583 91.726234Q498.44583 91.726234 498.88333 91.21061Q499.32083 90.694984 499.32083 89.788734Q499.32083 88.92936 498.85208 88.413734Q498.38333 87.89811 497.60208 87.89811Q496.89896 87.89811 496.4927 88.194984L496.21146 88.42936L495.33646 88.21061ZM502.33646 88.21061L502.77396 83.96061L507.14896 83.96061L507.14896 84.96061L503.69583 84.96061L503.4302 87.288734Q504.07083 86.913734 504.8677 86.913734Q506.02396 86.913734 506.71146 87.694984Q507.39896 88.46061 507.39896 89.77311Q507.39896 91.08561 506.6802 91.851234Q505.97708 92.61686 504.69583 92.61686Q503.57083 92.61686 502.85208 91.99186Q502.13333 91.351234 502.03958 90.24186L503.0552 90.24186Q503.16458 90.976234 503.58646 91.351234Q504.00833 91.726234 504.69583 91.726234Q505.44583 91.726234 505.88333 91.21061Q506.32083 90.694984 506.32083 89.788734Q506.32083 88.92936 505.85208 88.413734Q505.38333 87.89811 504.60208 87.89811Q503.89896 87.89811 503.4927 88.194984L503.21146 88.42936L502.33646 88.21061Z" fill-rule="nonzero"/><path fill="#4285f4" d="M483.19583 88.851234Q483.19583 90.757484 482.53958 91.694984Q481.89896 92.61686 480.50833 92.61686Q479.14896 92.61686 478.4927 91.71061Q477.83646 90.80436 477.8052 88.99186L477.8052 87.55436Q477.8052 85.663734 478.44583 84.757484Q479.10208 83.83561 480.4927 83.83561Q481.8677 83.83561 482.52396 84.726234Q483.1802 85.601234 483.19583 87.444984L483.19583 88.851234ZM482.10208 87.36686Q482.10208 85.99186 481.71146 85.36686Q481.33646 84.726234 480.4927 84.726234Q479.66458 84.726234 479.27396 85.36686Q478.89896 85.99186 478.89896 87.288734L478.89896 89.02311Q478.89896 90.39811 479.28958 91.069984Q479.69583 91.726234 480.50833 91.726234Q481.3052 91.726234 481.69583 91.101234Q482.08646 90.476234 482.10208 89.14811L482.10208 87.36686ZM484.97708 91.92936Q484.97708 91.64811 485.13333 91.46061Q485.3052 91.27311 485.63333 91.27311Q485.97708 91.27311 486.14896 91.46061Q486.32083 91.64811 486.32083 91.92936Q486.32083 92.194984 486.14896 92.382484Q485.97708 92.55436 485.63333 92.55436Q485.3052 92.55436 485.13333 92.382484Q484.97708 92.194984 484.97708 91.92936ZM491.9927 88.74186Q491.66458 89.14811 491.1802 89.39811Q490.71146 89.632484 490.14896 89.632484Q489.41458 89.632484 488.8677 89.27311Q488.32083 88.913734 488.02396 88.257484Q487.72708 87.58561 487.72708 86.788734Q487.72708 85.944984 488.03958 85.257484Q488.3677 84.569984 488.96146 84.21061Q489.57083 83.83561 490.3677 83.83561Q491.63333 83.83561 492.35208 84.788734Q493.08646 85.74186 493.08646 87.36686L493.08646 87.67936Q493.08646 90.17936 492.10208 91.319984Q491.1177 92.46061 489.13333 92.49186L488.91458 92.49186L488.91458 91.58561L489.14896 91.58561Q490.4927 91.55436 491.21146 90.882484Q491.9302 90.21061 491.9927 88.74186ZM490.32083 88.74186Q490.8677 88.74186 491.32083 88.413734Q491.78958 88.069984 492.00833 87.58561L492.00833 87.14811Q492.00833 86.08561 491.53958 85.413734Q491.07083 84.74186 490.3677 84.74186Q489.64896 84.74186 489.21146 85.288734Q488.78958 85.83561 488.78958 86.74186Q488.78958 87.61686 489.19583 88.17936Q489.6177 88.74186 490.32083 88.74186ZM495.33646 88.21061L495.77396 83.96061L500.14896 83.96061L500.14896 84.96061L496.69583 84.96061L496.4302 87.288734Q497.07083 86.913734 497.8677 86.913734Q499.02396 86.913734 499.71146 87.694984Q500.39896 88.46061 500.39896 89.77311Q500.39896 91.08561 499.6802 91.851234Q498.97708 92.61686 497.69583 92.61686Q496.57083 92.61686 495.85208 91.99186Q495.13333 91.351234 495.03958 90.24186L496.0552 90.24186Q496.16458 90.976234 496.58646 91.351234Q497.00833 91.726234 497.69583 91.726234Q498.44583 91.726234 498.88333 91.21061Q499.32083 90.694984 499.32083 89.788734Q499.32083 88.92936 498.85208 88.413734Q498.38333 87.89811 497.60208 87.89811Q496.89896 87.89811 496.4927 88.194984L496.21146 88.42936L495.33646 88.21061ZM502.33646 88.21061L502.77396 83.96061L507.14896 83.96061L507.14896 84.96061L503.69583 84.96061L503.4302 87.288734Q504.07083 86.913734 504.8677 86.913734Q506.02396 86.913734 506.71146 87.694984Q507.39896 88.46061 507.39896 89.77311Q507.39896 91.08561 506.6802 91.851234Q505.97708 92.61686 504.69583 92.61686Q503.57083 92.61686 502.85208 91.99186Q502.13333 91.351234 502.03958 90.24186L503.0552 90.24186Q503.16458 90.976234 503.58646 91.351234Q504.00833 91.726234 504.69583 91.726234Q505.44583 91.726234 505.88333 91.21061Q506.32083 90.694984 506.32083 89.788734Q506.32083 88.92936 505.85208 88.413734Q505.38333 87.89811 504.60208 87.89811Q503.89896 87.89811 503.4927 88.194984L503.21146 88.42936L502.33646 88.21061Z" fill-rule="nonzero"/><path stroke="#ffffff" stroke-width="3.0" stroke-linejoin="round" stroke-linecap="round" d="M139.20409 97.81398Q139.20409 99.72023 138.54784 100.65773Q137.90721 101.579605 136.51659 101.579605Q135.15721 101.579605 134.50096 100.673355Q133.84471 99.767105 133.81346 97.954605L133.81346 96.517105Q133.81346 94.62648 134.45409 93.72023Q135.11034 92.798355 136.50096 92.798355Q137.87596 92.798355 138.53221 93.68898Q139.18846 94.56398 139.20409 96.40773L139.20409 97.81398ZM138.11034 96.329605Q138.11034 94.954605 137.71971 94.329605Q137.34471 93.68898 136.50096 93.68898Q135.67284 93.68898 135.28221 94.329605Q134.90721 94.954605 134.90721 96.25148L134.90721 97.985855Q134.90721 99.360855 135.29784 100.03273Q135.70409 100.68898 136.51659 100.68898Q137.31346 100.68898 137.70409 100.06398Q138.09471 99.43898 138.11034 98.110855L138.11034 96.329605ZM140.98534 100.892105Q140.98534 100.610855 141.14159 100.423355Q141.31346 100.235855 141.64159 100.235855Q141.98534 100.235855 142.15721 100.423355Q142.32909 100.610855 142.32909 100.892105Q142.32909 101.15773 142.15721 101.34523Q141.98534 101.517105 141.64159 101.517105Q141.31346 101.517105 141.14159 101.34523Q140.98534 101.15773 140.98534 100.892105ZM148.00096 97.704605Q147.67284 98.110855 147.18846 98.360855Q146.71971 98.59523 146.15721 98.59523Q145.42284 98.59523 144.87596 98.235855Q144.32909 97.87648 144.03221 97.22023Q143.73534 96.548355 143.73534 95.75148Q143.73534 94.90773 144.04784 94.22023Q144.37596 93.53273 144.96971 93.173355Q145.57909 92.798355 146.37596 92.798355Q147.64159 92.798355 148.36034 93.75148Q149.09471 94.704605 149.09471 96.329605L149.09471 96.642105Q149.09471 99.142105 148.11034 100.28273Q147.12596 101.423355 145.14159 101.454605L144.92284 101.454605L144.92284 100.548355L145.15721 100.548355Q146.50096 100.517105 147.21971 99.84523Q147.93846 99.173355 148.00096 97.704605ZM146.32909 97.704605Q146.87596 97.704605 147.32909 97.37648Q147.79784 97.03273 148.01659 96.548355L148.01659 96.110855Q148.01659 95.048355 147.54784 94.37648Q147.07909 93.704605 146.37596 93.704605Q145.65721 93.704605 145.21971 94.25148Q144.79784 94.798355 144.79784 95.704605Q144.79784 96.579605 145.20409 97.142105Q145.62596 97.704605 146.32909 97.704605ZM156.03221 95.142105Q156.03221 95.78273 155.68846 96.28273Q155.34471 96.78273 154.78221 97.06398Q155.43846 97.34523 155.82909 97.90773Q156.21971 98.454605 156.21971 99.15773Q156.21971 100.25148 155.46971 100.923355Q154.73534 101.579605 153.51659 101.579605Q152.28221 101.579605 151.53221 100.923355Q150.79784 100.25148 150.79784 99.15773Q150.79784 98.454605 151.17284 97.90773Q151.54784 97.34523 152.21971 97.06398Q151.65721 96.78273 151.32909 96.28273Q151.00096 95.78273 151.00096 95.142105Q151.00096 94.06398 151.68846 93.43898Q152.37596 92.798355 153.51659 92.798355Q154.64159 92.798355 155.32909 93.43898Q156.03221 94.06398 156.03221 95.142105ZM155.14159 99.12648Q155.14159 98.40773 154.68846 97.97023Q154.23534 97.517105 153.50096 97.517105Q152.76659 97.517105 152.31346 97.97023Q151.87596 98.40773 151.87596 99.142105Q151.87596 99.860855 152.31346 100.28273Q152.75096 100.68898 153.51659 100.68898Q154.26659 100.68898 154.70409 100.267105Q155.14159 99.84523 155.14159 99.12648ZM153.51659 93.68898Q152.87596 93.68898 152.46971 94.09523Q152.07909 94.485855 152.07909 95.173355Q152.07909 95.81398 152.46971 96.22023Q152.86034 96.62648 153.50096 96.62648Q154.15721 96.62648 154.54784 96.22023Q154.93846 95.81398 154.93846 95.173355Q154.93846 94.517105 154.53221 94.110855Q154.12596 93.68898 153.51659 93.68898Z" fill-rule="nonzero"/><path fill="#ea4335" d="M139.20409 97.81398Q139.20409 99.72023 138.54784 100.65773Q137.90721 101.579605 136.51659 101.579605Q135.15721 101.579605 134.50096 100.673355Q133.84471 99.767105 133.81346 97.954605L133.81346 96.517105Q133.81346 94.62648 134.45409 93.72023Q135.11034 92.798355 136.50096 92.798355Q137.87596 92.798355 138.53221 93.68898Q139.18846 94.56398 139.20409 96.40773L139.20409 97.81398ZM138.11034 96.329605Q138.11034 94.954605 137.71971 94.329605Q137.34471 93.68898 136.50096 93.68898Q135.67284 93.68898 135.28221 94.329605Q134.90721 94.954605 134.90721 96.25148L134.90721 97.985855Q134.90721 99.360855 135.29784 100.03273Q135.70409 100.68898 136.51659 100.68898Q137.31346 100.68898 137.70409 100.06398Q138.09471 99.43898 138.11034 98.110855L138.11034 96.329605ZM140.98534 100.892105Q140.98534 100.610855 141.14159 100.423355Q141.31346 100.235855 141.64159 100.235855Q141.98534 100.235855 142.15721 100.423355Q142.32909 100.610855 142.32909 100.892105Q142.32909 101.15773 142.15721 101.34523Q141.98534 101.517105 141.64159 101.517105Q141.31346 101.517105 141.14159 101.34523Q140.98534 101.15773 140.98534 100.892105ZM148.00096 97.704605Q147.67284 98.110855 147.18846 98.360855Q146.71971 98.59523 146.15721 98.59523Q145.42284 98.59523 144.87596 98.235855Q144.32909 97.87648 144.03221 97.22023Q143.73534 96.548355 143.73534 95.75148Q143.73534 94.90773 144.04784 94.22023Q144.37596 93.53273 144.96971 93.173355Q145.57909 92.798355 146.37596 92.798355Q147.64159 92.798355 148.36034 93.75148Q149.09471 94.704605 149.09471 96.329605L149.09471 96.642105Q149.09471 99.142105 148.11034 100.28273Q147.12596 101.423355 145.14159 101.454605L144.92284 101.454605L144.92284 100.548355L145.15721 100.548355Q146.50096 100.517105 147.21971 99.84523Q147.93846 99.173355 148.00096 97.704605ZM146.32909 97.704605Q146.87596 97.704605 147.32909 97.37648Q147.79784 97.03273 148.01659 96.548355L148.01659 96.110855Q148.01659 95.048355 147.54784 94.37648Q147.07909 93.704605 146.37596 93.704605Q145.65721 93.704605 145.21971 94.25148Q144.79784 94.798355 144.79784 95.704605Q144.79784 96.579605 145.20409 97.142105Q145.62596 97.704605 146.32909 97.704605ZM156.03221 95.142105Q156.03221 95.78273 155.68846 96.28273Q155.34471 96.78273 154.78221 97.06398Q155.43846 97.34523 155.82909 97.90773Q156.21971 98.454605 156.21971 99.15773Q156.21971 100.25148 155.46971 100.923355Q154.73534 101.579605 153.51659 101.579605Q152.28221 101.579605 151.53221 100.923355Q150.79784 100.25148 150.79784 99.15773Q150.79784 98.454605 151.17284 97.90773Q151.54784 97.34523 152.21971 97.06398Q151.65721 96.78273 151.32909 96.28273Q151.00096 95.78273 151.00096 95.142105Q151.00096 94.06398 151.68846 93.43898Q152.37596 92.798355 153.51659 92.798355Q154.64159 92.798355 155.32909 93.43898Q156.03221 94.06398 156.03221 95.142105ZM155.14159 99.12648Q155.14159 98.40773 154.68846 97.97023Q154.23534 97.517105 153.50096 97.517105Q152.76659 97.517105 152.31346 97.97023Q151.87596 98.40773 151.87596 99.142105Q151.87596 99.860855 152.31346 100.28273Q152.75096 100.68898 153.51659 100.68898Q154.26659 100.68898 154.70409 100.267105Q155.14159 99.84523 155.14159 99.12648ZM153.51659 93.68898Q152.87596 93.68898 152.46971 94.09523Q152.07909 94.485855 152.07909 95.173355Q152.07909 95.81398 152.46971 96.22023Q152.86034 96.62648 153.50096 96.62648Q154.15721 96.62648 154.54784 96.22023Q154.93846 95.81398 154.93846 95.173355Q154.93846 94.517105 154.53221 94.110855Q154.12596 93.68898 153.51659 93.68898Z" fill-rule="nonzero"/><path stroke="#ffffff" stroke-width="3.0" stroke-linejoin="round" stroke-linecap="round" d="M309.0625 95.88884Q309.0625 97.79509 308.40625 98.73259Q307.76562 99.654465 306.375 99.654465Q305.01562 99.654465 304.35938 98.748215Q303.70312 97.841965 303.67188 96.029465L303.67188 94.591965Q303.67188 92.70134 304.3125 91.79509Q304.96875 90.873215 306.35938 90.873215Q307.73438 90.873215 308.39062 91.76384Q309.04688 92.63884 309.0625 94.48259L309.0625 95.88884ZM307.96875 94.404465Q307.96875 93.029465 307.57812 92.404465Q307.20312 91.76384 306.35938 91.76384Q305.53125 91.76384 305.14062 92.404465Q304.76562 93.029465 304.76562 94.32634L304.76562 96.060715Q304.76562 97.435715 305.15625 98.10759Q305.5625 98.76384 306.375 98.76384Q307.17188 98.76384 307.5625 98.13884Q307.95312 97.51384 307.96875 96.185715L307.96875 94.404465ZM310.84375 98.966965Q310.84375 98.685715 311.0 98.498215Q311.17188 98.310715 311.5 98.310715Q311.84375 98.310715 312.01562 98.498215Q312.1875 98.685715 312.1875 98.966965Q312.1875 99.23259 312.01562 99.42009Q311.84375 99.591965 311.5 99.591965Q311.17188 99.591965 311.0 99.42009Q310.84375 99.23259 310.84375 98.966965ZM317.85938 95.779465Q317.53125 96.185715 317.04688 96.435715Q316.57812 96.67009 316.01562 96.67009Q315.28125 96.67009 314.73438 96.310715Q314.1875 95.95134 313.89062 95.29509Q313.59375 94.623215 313.59375 93.82634Q313.59375 92.98259 313.90625 92.29509Q314.23438 91.60759 314.82812 91.248215Q315.4375 90.873215 316.23438 90.873215Q317.5 90.873215 318.21875 91.82634Q318.95312 92.779465 318.95312 94.404465L318.95312 94.716965Q318.95312 97.216965 317.96875 98.35759Q316.98438 99.498215 315.0 99.529465L314.78125 99.529465L314.78125 98.623215L315.01562 98.623215Q316.35938 98.591965 317.07812 97.92009Q317.79688 97.248215 317.85938 95.779465ZM316.1875 95.779465Q316.73438 95.779465 317.1875 95.45134Q317.65625 95.10759 317.875 94.623215L317.875 94.185715Q317.875 93.123215 317.40625 92.45134Q316.9375 91.779465 316.23438 91.779465Q315.51562 91.779465 315.07812 92.32634Q314.65625 92.873215 314.65625 93.779465Q314.65625 94.654465 315.0625 95.216965Q315.48438 95.779465 316.1875 95.779465ZM326.29688 99.529465L320.70312 99.529465L320.70312 98.748215L323.65625 95.466965Q324.3125 94.716965 324.5625 94.26384Q324.8125 93.79509 324.8125 93.29509Q324.8125 92.623215 324.40625 92.20134Q324.01562 91.76384 323.32812 91.76384Q322.53125 91.76384 322.07812 92.23259Q321.625 92.685715 321.625 93.51384L320.54688 93.51384Q320.54688 92.32634 321.29688 91.60759Q322.0625 90.873215 323.32812 90.873215Q324.53125 90.873215 325.21875 91.498215Q325.90625 92.123215 325.90625 93.17009Q325.90625 94.42009 324.29688 96.17009L322.01562 98.63884L326.29688 98.63884L326.29688 99.529465Z" fill-rule="nonzero"/><path fill="#ea4335" d="M309.0625 95.88884Q309.0625 97.79509 308.40625 98.73259Q307.76562 99.654465 306.375 99.654465Q305.01562 99.654465 304.35938 98.748215Q303.70312 97.841965 303.67188 96.029465L303.67188 94.591965Q303.67188 92.70134 304.3125 91.79509Q304.96875 90.873215 306.35938 90.873215Q307.73438 90.873215 308.39062 91.76384Q309.04688 92.63884 309.0625 94.48259L309.0625 95.88884ZM307.96875 94.404465Q307.96875 93.029465 307.57812 92.404465Q307.20312 91.76384 306.35938 91.76384Q305.53125 91.76384 305.14062 92.404465Q304.76562 93.029465 304.76562 94.32634L304.76562 96.060715Q304.76562 97.435715 305.15625 98.10759Q305.5625 98.76384 306.375 98.76384Q307.17188 98.76384 307.5625 98.13884Q307.95312 97.51384 307.96875 96.185715L307.96875 94.404465ZM310.84375 98.966965Q310.84375 98.685715 311.0 98.498215Q311.17188 98.310715 311.5 98.310715Q311.84375 98.310715 312.01562 98.498215Q312.1875 98.685715 312.1875 98.966965Q312.1875 99.23259 312.01562 99.42009Q311.84375 99.591965 311.5 99.591965Q311.17188 99.591965 311.0 99.42009Q310.84375 99.23259 310.84375 98.966965ZM317.85938 95.779465Q317.53125 96.185715 317.04688 96.435715Q316.57812 96.67009 316.01562 96.67009Q315.28125 96.67009 314.73438 96.310715Q314.1875 95.95134 313.89062 95.29509Q313.59375 94.623215 313.59375 93.82634Q313.59375 92.98259 313.90625 92.29509Q314.23438 91.60759 314.82812 91.248215Q315.4375 90.873215 316.23438 90.873215Q317.5 90.873215 318.21875 91.82634Q318.95312 92.779465 318.95312 94.404465L318.95312 94.716965Q318.95312 97.216965 317.96875 98.35759Q316.98438 99.498215 315.0 99.529465L314.78125 99.529465L314.78125 98.623215L315.01562 98.623215Q316.35938 98.591965 317.07812 97.92009Q317.79688 97.248215 317.85938 95.779465ZM316.1875 95.779465Q316.73438 95.779465 317.1875 95.45134Q317.65625 95.10759 317.875 94.623215L317.875 94.185715Q317.875 93.123215 317.40625 92.45134Q316.9375 91.779465 316.23438 91.779465Q315.51562 91.779465 315.07812 92.32634Q314.65625 92.873215 314.65625 93.779465Q314.65625 94.654465 315.0625 95.216965Q315.48438 95.779465 316.1875 95.779465ZM326.29688 99.529465L320.70312 99.529465L320.70312 98.748215L323.65625 95.466965Q324.3125 94.716965 324.5625 94.26384Q324.8125 93.79509 324.8125 93.29509Q324.8125 92.623215 324.40625 92.20134Q324.01562 91.76384 323.32812 91.76384Q322.53125 91.76384 322.07812 92.23259Q321.625 92.685715 321.625 93.51384L320.54688 93.51384Q320.54688 92.32634 321.29688 91.60759Q322.0625 90.873215 323.32812 90.873215Q324.53125 90.873215 325.21875 91.498215Q325.90625 92.123215 325.90625 93.17009Q325.90625 94.42009 324.29688 96.17009L322.01562 98.63884L326.29688 98.63884L326.29688 99.529465Z" fill-rule="nonzero"/><path stroke="#ffffff" stroke-width="3.0" stroke-linejoin="round" stroke-linecap="round" d="M486.69583 113.78324Q486.69583 115.68949 486.03958 116.62699Q485.39896 117.54887 484.00833 117.54887Q482.64896 117.54887 481.9927 116.64262Q481.33646 115.73637 481.3052 113.92387L481.3052 112.48637Q481.3052 110.59574 481.94583 109.68949Q482.60208 108.76762 483.9927 108.76762Q485.3677 108.76762 486.02396 109.65824Q486.6802 110.53324 486.69583 112.37699L486.69583 113.78324ZM485.60208 112.29887Q485.60208 110.92387 485.21146 110.29887Q484.83646 109.65824 483.9927 109.65824Q483.16458 109.65824 482.77396 110.29887Q482.39896 110.92387 482.39896 112.22074L482.39896 113.95512Q482.39896 115.33012 482.78958 116.00199Q483.19583 116.65824 484.00833 116.65824Q484.8052 116.65824 485.19583 116.03324Q485.58646 115.40824 485.60208 114.08012L485.60208 112.29887ZM488.47708 116.86137Q488.47708 116.58012 488.63333 116.39262Q488.8052 116.20512 489.13333 116.20512Q489.47708 116.20512 489.64896 116.39262Q489.82083 116.58012 489.82083 116.86137Q489.82083 117.12699 489.64896 117.31449Q489.47708 117.48637 489.13333 117.48637Q488.8052 117.48637 488.63333 117.31449Q488.47708 117.12699 488.47708 116.86137ZM496.52396 111.11137Q496.52396 111.75199 496.1802 112.25199Q495.83646 112.75199 495.27396 113.03324Q495.9302 113.31449 496.32083 113.87699Q496.71146 114.42387 496.71146 115.12699Q496.71146 116.22074 495.96146 116.89262Q495.22708 117.54887 494.00833 117.54887Q492.77396 117.54887 492.02396 116.89262Q491.28958 116.22074 491.28958 115.12699Q491.28958 114.42387 491.66458 113.87699Q492.03958 113.31449 492.71146 113.03324Q492.14896 112.75199 491.82083 112.25199Q491.4927 111.75199 491.4927 111.11137Q491.4927 110.03324 492.1802 109.40824Q492.8677 108.76762 494.00833 108.76762Q495.13333 108.76762 495.82083 109.40824Q496.52396 110.03324 496.52396 111.11137ZM495.63333 115.09574Q495.63333 114.37699 495.1802 113.93949Q494.72708 113.48637 493.9927 113.48637Q493.25833 113.48637 492.8052 113.93949Q492.3677 114.37699 492.3677 115.11137Q492.3677 115.83012 492.8052 116.25199Q493.2427 116.65824 494.00833 116.65824Q494.75833 116.65824 495.19583 116.23637Q495.63333 115.81449 495.63333 115.09574ZM494.00833 109.65824Q493.3677 109.65824 492.96146 110.06449Q492.57083 110.45512 492.57083 111.14262Q492.57083 111.78324 492.96146 112.18949Q493.35208 112.59574 493.9927 112.59574Q494.64896 112.59574 495.03958 112.18949Q495.4302 111.78324 495.4302 111.14262Q495.4302 110.48637 495.02396 110.08012Q494.6177 109.65824 494.00833 109.65824ZM499.91458 112.62699L500.72708 112.62699Q501.50833 112.61137 501.94583 112.22074Q502.38333 111.83012 502.38333 111.15824Q502.38333 109.65824 500.88333 109.65824Q500.1802 109.65824 499.75833 110.06449Q499.35208 110.47074 499.35208 111.12699L498.25833 111.12699Q498.25833 110.11137 498.9927 109.43949Q499.7427 108.76762 500.88333 108.76762Q502.08646 108.76762 502.77396 109.40824Q503.46146 110.04887 503.46146 111.18949Q503.46146 111.75199 503.10208 112.26762Q502.7427 112.78324 502.1177 113.04887Q502.82083 113.26762 503.19583 113.78324Q503.58646 114.29887 503.58646 115.04887Q503.58646 116.18949 502.83646 116.87699Q502.08646 117.54887 500.88333 117.54887Q499.69583 117.54887 498.9302 116.89262Q498.1802 116.23637 498.1802 115.17387L499.27396 115.17387Q499.27396 115.84574 499.71146 116.25199Q500.14896 116.65824 500.89896 116.65824Q501.6802 116.65824 502.08646 116.25199Q502.50833 115.83012 502.50833 115.06449Q502.50833 114.33012 502.0552 113.93949Q501.60208 113.53324 500.72708 113.51762L499.91458 113.51762L499.91458 112.62699Z" fill-rule="nonzero"/><path fill="#ea4335" d="M486.69583 113.78324Q486.69583 115.68949 486.03958 116.62699Q485.39896 117.54887 484.00833 117.54887Q482.64896 117.54887 481.9927 116.64262Q481.33646 115.73637 481.3052 113.92387L481.3052 112.48637Q481.3052 110.59574 481.94583 109.68949Q482.60208 108.76762 483.9927 108.76762Q485.3677 108.76762 486.02396 109.65824Q486.6802 110.53324 486.69583 112.37699L486.69583 113.78324ZM485.60208 112.29887Q485.60208 110.92387 485.21146 110.29887Q484.83646 109.65824 483.9927 109.65824Q483.16458 109.65824 482.77396 110.29887Q482.39896 110.92387 482.39896 112.22074L482.39896 113.95512Q482.39896 115.33012 482.78958 116.00199Q483.19583 116.65824 484.00833 116.65824Q484.8052 116.65824 485.19583 116.03324Q485.58646 115.40824 485.60208 114.08012L485.60208 112.29887ZM488.47708 116.86137Q488.47708 116.58012 488.63333 116.39262Q488.8052 116.20512 489.13333 116.20512Q489.47708 116.20512 489.64896 116.39262Q489.82083 116.58012 489.82083 116.86137Q489.82083 117.12699 489.64896 117.31449Q489.47708 117.48637 489.13333 117.48637Q488.8052 117.48637 488.63333 117.31449Q488.47708 117.12699 488.47708 116.86137ZM496.52396 111.11137Q496.52396 111.75199 496.1802 112.25199Q495.83646 112.75199 495.27396 113.03324Q495.9302 113.31449 496.32083 113.87699Q496.71146 114.42387 496.71146 115.12699Q496.71146 116.22074 495.96146 116.89262Q495.22708 117.54887 494.00833 117.54887Q492.77396 117.54887 492.02396 116.89262Q491.28958 116.22074 491.28958 115.12699Q491.28958 114.42387 491.66458 113.87699Q492.03958 113.31449 492.71146 113.03324Q492.14896 112.75199 491.82083 112.25199Q491.4927 111.75199 491.4927 111.11137Q491.4927 110.03324 492.1802 109.40824Q492.8677 108.76762 494.00833 108.76762Q495.13333 108.76762 495.82083 109.40824Q496.52396 110.03324 496.52396 111.11137ZM495.63333 115.09574Q495.63333 114.37699 495.1802 113.93949Q494.72708 113.48637 493.9927 113.48637Q493.25833 113.48637 492.8052 113.93949Q492.3677 114.37699 492.3677 115.11137Q492.3677 115.83012 492.8052 116.25199Q493.2427 116.65824 494.00833 116.65824Q494.75833 116.65824 495.19583 116.23637Q495.63333 115.81449 495.63333 115.09574ZM494.00833 109.65824Q493.3677 109.65824 492.96146 110.06449Q492.57083 110.45512 492.57083 111.14262Q492.57083 111.78324 492.96146 112.18949Q493.35208 112.59574 493.9927 112.59574Q494.64896 112.59574 495.03958 112.18949Q495.4302 111.78324 495.4302 111.14262Q495.4302 110.48637 495.02396 110.08012Q494.6177 109.65824 494.00833 109.65824ZM499.91458 112.62699L500.72708 112.62699Q501.50833 112.61137 501.94583 112.22074Q502.38333 111.83012 502.38333 111.15824Q502.38333 109.65824 500.88333 109.65824Q500.1802 109.65824 499.75833 110.06449Q499.35208 110.47074 499.35208 111.12699L498.25833 111.12699Q498.25833 110.11137 498.9927 109.43949Q499.7427 108.76762 500.88333 108.76762Q502.08646 108.76762 502.77396 109.40824Q503.46146 110.04887 503.46146 111.18949Q503.46146 111.75199 503.10208 112.26762Q502.7427 112.78324 502.1177 113.04887Q502.82083 113.26762 503.19583 113.78324Q503.58646 114.29887 503.58646 115.04887Q503.58646 116.18949 502.83646 116.87699Q502.08646 117.54887 500.88333 117.54887Q499.69583 117.54887 498.9302 116.89262Q498.1802 116.23637 498.1802 115.17387L499.27396 115.17387Q499.27396 115.84574 499.71146 116.25199Q500.14896 116.65824 500.89896 116.65824Q501.6802 116.65824 502.08646 116.25199Q502.50833 115.83012 502.50833 115.06449Q502.50833 114.33012 502.0552 113.93949Q501.60208 113.53324 500.72708 113.51762L499.91458 113.51762L499.91458 112.62699Z" fill-rule="nonzero"/><path fill="#000000" d="M265.42188 349.45L265.42188 340.85626L268.67188 340.85626Q269.51562 340.85626 269.96875 340.9344Q270.60938 341.04376 271.03125 341.34064Q271.46875 341.6375 271.71875 342.16876Q271.98438 342.7 271.98438 343.34064Q271.98438 344.4344 271.28125 345.2Q270.59375 345.95 268.76562 345.95L266.5625 345.95L266.5625 349.45L265.42188 349.45ZM266.5625 344.95L268.78125 344.95Q269.89062 344.95 270.34375 344.54376Q270.8125 344.1219 270.8125 343.3719Q270.8125 342.84064 270.53125 342.46564Q270.26562 342.075 269.82812 341.95Q269.53125 341.8719 268.76562 341.8719L266.5625 341.8719L266.5625 344.95ZM277.375 349.45L277.375 348.52814Q276.64062 349.59064 275.39062 349.59064Q274.84375 349.59064 274.35938 349.3875Q273.89062 349.16876 273.65625 348.85626Q273.42188 348.52814 273.32812 348.0594Q273.26562 347.7625 273.26562 347.075L273.26562 343.23126L274.32812 343.23126L274.32812 346.6844Q274.32812 347.4969 274.39062 347.79376Q274.48438 348.2 274.79688 348.45Q275.125 348.6844 275.60938 348.6844Q276.07812 348.6844 276.48438 348.45Q276.90625 348.2 277.07812 347.77814Q277.26562 347.35626 277.26562 346.5594L277.26562 343.23126L278.3125 343.23126L278.3125 349.45L277.375 349.45ZM280.29688 349.45L280.29688 343.23126L281.23438 343.23126L281.23438 344.10626Q281.92188 343.09064 283.21875 343.09064Q283.78125 343.09064 284.25 343.29376Q284.73438 343.4969 284.96875 343.825Q285.20312 344.15314 285.29688 344.59064Q285.34375 344.8875 285.34375 345.6219L285.34375 349.45L284.29688 349.45L284.29688 345.66876Q284.29688 345.0125 284.17188 344.7Q284.04688 344.3875 283.73438 344.2Q283.42188 343.9969 283.0 343.9969Q282.32812 343.9969 281.82812 344.4344Q281.34375 344.85626 281.34375 346.04376L281.34375 349.45L280.29688 349.45ZM289.59375 348.5125L289.75 349.4344Q289.29688 349.52814 288.95312 349.52814Q288.375 349.52814 288.0625 349.35626Q287.75 349.16876 287.60938 348.8719Q287.48438 348.575 287.48438 347.6219L287.48438 344.04376L286.71875 344.04376L286.71875 343.23126L287.48438 343.23126L287.48438 341.6844L288.53125 341.0594L288.53125 343.23126L289.59375 343.23126L289.59375 344.04376L288.53125 344.04376L288.53125 347.6844Q288.53125 348.1375 288.57812 348.2625Q288.64062 348.3875 288.76562 348.46564Q288.89062 348.54376 289.125 348.54376Q289.3125 348.54376 289.59375 348.5125ZM289.90625 346.34064Q289.90625 344.60626 290.85938 343.77814Q291.65625 343.09064 292.8125 343.09064Q294.09375 343.09064 294.90625 343.9344Q295.73438 344.7625 295.73438 346.2469Q295.73438 347.45 295.375 348.1375Q295.01562 348.825 294.3125 349.21564Q293.625 349.59064 292.8125 349.59064Q291.51562 349.59064 290.70312 348.7625Q289.90625 347.91876 289.90625 346.34064ZM290.98438 346.34064Q290.98438 347.52814 291.5 348.1219Q292.03125 348.71564 292.8125 348.71564Q293.60938 348.71564 294.125 348.1219Q294.64062 347.52814 294.64062 346.3094Q294.64062 345.15314 294.10938 344.5594Q293.59375 343.96564 292.8125 343.96564Q292.03125 343.96564 291.5 344.5594Q290.98438 345.1375 290.98438 346.34064ZM304.32812 349.45L304.32812 348.66876Q303.73438 349.59064 302.59375 349.59064Q301.84375 349.59064 301.21875 349.1844Q300.59375 348.7625 300.25 348.02814Q299.90625 347.29376 299.90625 346.34064Q299.90625 345.41876 300.21875 344.65314Q300.53125 343.8875 301.15625 343.4969Q301.78125 343.09064 302.54688 343.09064Q303.10938 343.09064 303.54688 343.325Q303.98438 343.5594 304.26562 343.9344L304.26562 340.85626L305.3125 340.85626L305.3125 349.45L304.32812 349.45ZM301.0 346.34064Q301.0 347.54376 301.5 348.1375Q302.0 348.71564 302.6875 348.71564Q303.375 348.71564 303.85938 348.15314Q304.34375 347.59064 304.34375 346.4344Q304.34375 345.15314 303.84375 344.5594Q303.35938 343.96564 302.64062 343.96564Q301.9375 343.96564 301.46875 344.54376Q301.0 345.10626 301.0 346.34064ZM311.54688 347.45L312.64062 347.575Q312.39062 348.52814 311.6875 349.0594Q310.98438 349.59064 309.90625 349.59064Q308.54688 349.59064 307.73438 348.7469Q306.9375 347.90314 306.9375 346.3875Q306.9375 344.825 307.75 343.96564Q308.5625 343.09064 309.84375 343.09064Q311.09375 343.09064 311.875 343.9344Q312.67188 344.77814 312.67188 346.325Q312.67188 346.41876 312.67188 346.60626L308.03125 346.60626Q308.09375 347.6375 308.60938 348.1844Q309.125 348.71564 309.90625 348.71564Q310.48438 348.71564 310.89062 348.41876Q311.3125 348.10626 311.54688 347.45ZM308.09375 345.7469L311.5625 345.7469Q311.5 344.95 311.17188 344.5594Q310.65625 343.95 309.85938 343.95Q309.125 343.95 308.625 344.4344Q308.14062 344.91876 308.09375 345.7469ZM314.26562 349.45L314.26562 340.85626L315.32812 340.85626L315.32812 349.45L314.26562 349.45ZM320.29688 351.84064L320.29688 343.23126L321.25 343.23126L321.25 344.02814Q321.59375 343.5594 322.01562 343.325Q322.45312 343.09064 323.0625 343.09064Q323.85938 343.09064 324.46875 343.4969Q325.07812 343.90314 325.375 344.65314Q325.6875 345.40314 325.6875 346.29376Q325.6875 347.2469 325.34375 348.0125Q325.01562 348.77814 324.35938 349.1844Q323.70312 349.59064 322.98438 349.59064Q322.45312 349.59064 322.03125 349.3719Q321.60938 349.1375 321.34375 348.8094L321.34375 351.84064L320.29688 351.84064ZM321.25 346.3719Q321.25 347.575 321.73438 348.15314Q322.21875 348.71564 322.90625 348.71564Q323.60938 348.71564 324.10938 348.1219Q324.60938 347.52814 324.60938 346.27814Q324.60938 345.09064 324.125 344.5125Q323.64062 343.91876 322.95312 343.91876Q322.28125 343.91876 321.76562 344.54376Q321.25 345.16876 321.25 346.3719ZM327.28125 349.45L327.28125 343.23126L328.23438 343.23126L328.23438 344.16876Q328.59375 343.5125 328.89062 343.3094Q329.20312 343.09064 329.57812 343.09064Q330.10938 343.09064 330.65625 343.41876L330.29688 344.40314Q329.90625 344.16876 329.53125 344.16876Q329.17188 344.16876 328.89062 344.3875Q328.625 344.59064 328.51562 344.96564Q328.32812 345.52814 328.32812 346.1844L328.32812 349.45L327.28125 349.45ZM330.90625 346.34064Q330.90625 344.60626 331.85938 343.77814Q332.65625 343.09064 333.8125 343.09064Q335.09375 343.09064 335.90625 343.9344Q336.73438 344.7625 336.73438 346.2469Q336.73438 347.45 336.375 348.1375Q336.01562 348.825 335.3125 349.21564Q334.625 349.59064 333.8125 349.59064Q332.51562 349.59064 331.70312 348.7625Q330.90625 347.91876 330.90625 346.34064ZM331.98438 346.34064Q331.98438 347.52814 332.5 348.1219Q333.03125 348.71564 333.8125 348.71564Q334.60938 348.71564 335.125 348.1219Q335.64062 347.52814 335.64062 346.3094Q335.64062 345.15314 335.10938 344.5594Q334.59375 343.96564 333.8125 343.96564Q333.03125 343.96564 332.5 344.5594Q331.98438 345.1375 331.98438 346.34064ZM338.25 351.84064L338.125 350.85626Q338.46875 350.95 338.73438 350.95Q339.07812 350.95 339.28125 350.825Q339.5 350.71564 339.64062 350.5125Q339.73438 350.34064 339.96875 349.71564Q339.98438 349.6375 340.0625 349.46564L337.6875 343.23126L338.82812 343.23126L340.125 346.825Q340.375 347.5125 340.57812 348.27814Q340.76562 347.54376 341.01562 346.85626L342.34375 343.23126L343.39062 343.23126L341.03125 349.5594Q340.64062 350.575 340.4375 350.96564Q340.15625 351.4969 339.78125 351.73126Q339.42188 351.98126 338.92188 351.98126Q338.625 351.98126 338.25 351.84064ZM347.54688 347.45L348.64062 347.575Q348.39062 348.52814 347.6875 349.0594Q346.98438 349.59064 345.90625 349.59064Q344.54688 349.59064 343.73438 348.7469Q342.9375 347.90314 342.9375 346.3875Q342.9375 344.825 343.75 343.96564Q344.5625 343.09064 345.84375 343.09064Q347.09375 343.09064 347.875 343.9344Q348.67188 344.77814 348.67188 346.325Q348.67188 346.41876 348.67188 346.60626L344.03125 346.60626Q344.09375 347.6375 344.60938 348.1844Q345.125 348.71564 345.90625 348.71564Q346.48438 348.71564 346.89062 348.41876Q347.3125 348.10626 347.54688 347.45ZM344.09375 345.7469L347.5625 345.7469Q347.5 344.95 347.17188 344.5594Q346.65625 343.95 345.85938 343.95Q345.125 343.95 344.625 344.4344Q344.14062 344.91876 344.09375 345.7469ZM354.35938 347.16876L355.39062 347.3094Q355.21875 348.3719 354.51562 348.98126Q353.8125 349.59064 352.79688 349.59064Q351.51562 349.59064 350.73438 348.7625Q349.96875 347.91876 349.96875 346.35626Q349.96875 345.35626 350.29688 344.60626Q350.64062 343.84064 351.3125 343.46564Q352.0 343.09064 352.8125 343.09064Q353.8125 343.09064 354.45312 343.60626Q355.10938 344.10626 355.29688 345.0594L354.26562 345.21564Q354.125 344.59064 353.75 344.27814Q353.375 343.95 352.84375 343.95Q352.04688 343.95 351.54688 344.52814Q351.04688 345.09064 351.04688 346.325Q351.04688 347.59064 351.53125 348.15314Q352.01562 348.71564 352.78125 348.71564Q353.40625 348.71564 353.8125 348.34064Q354.23438 347.96564 354.35938 347.16876ZM358.59375 348.5125L358.75 349.4344Q358.29688 349.52814 357.95312 349.52814Q357.375 349.52814 357.0625 349.35626Q356.75 349.16876 356.60938 348.8719Q356.48438 348.575 356.48438 347.6219L356.48438 344.04376L355.71875 344.04376L355.71875 343.23126L356.48438 343.23126L356.48438 341.6844L357.53125 341.0594L357.53125 343.23126L358.59375 343.23126L358.59375 344.04376L357.53125 344.04376L357.53125 347.6844Q357.53125 348.1375 357.57812 348.2625Q357.64062 348.3875 357.76562 348.46564Q357.89062 348.54376 358.125 348.54376Q358.3125 348.54376 358.59375 348.5125ZM358.90625 346.34064Q358.90625 344.60626 359.85938 343.77814Q360.65625 343.09064 361.8125 343.09064Q363.09375 343.09064 363.90625 343.9344Q364.73438 344.7625 364.73438 346.2469Q364.73438 347.45 364.375 348.1375Q364.01562 348.825 363.3125 349.21564Q362.625 349.59064 361.8125 349.59064Q360.51562 349.59064 359.70312 348.7625Q358.90625 347.91876 358.90625 346.34064ZM359.98438 346.34064Q359.98438 347.52814 360.5 348.1219Q361.03125 348.71564 361.8125 348.71564Q362.60938 348.71564 363.125 348.1219Q363.64062 347.52814 363.64062 346.3094Q363.64062 345.15314 363.10938 344.5594Q362.59375 343.96564 361.8125 343.96564Q361.03125 343.96564 360.5 344.5594Q359.98438 345.1375 359.98438 346.34064Z" fill-rule="nonzero"/><path fill="#000000" d="M19.05 300.21564Q19.05 298.6844 19.3625 297.7625Q19.675 296.825 20.284374 296.325Q20.909374 295.825 21.846874 295.825Q22.534374 295.825 23.05 296.10626Q23.58125 296.3875 23.925 296.91876Q24.26875 297.4344 24.45625 298.1844Q24.64375 298.9344 24.64375 300.21564Q24.64375 301.73126 24.33125 302.65314Q24.034374 303.575 23.409374 304.09064Q22.8 304.59064 21.846874 304.59064Q20.6125 304.59064 19.89375 303.7Q19.05 302.6375 19.05 300.21564ZM20.128124 300.21564Q20.128124 302.325 20.628124 303.02814Q21.128124 303.73126 21.846874 303.73126Q22.58125 303.73126 23.065624 303.02814Q23.565624 302.325 23.565624 300.21564Q23.565624 298.09064 23.065624 297.40314Q22.58125 296.7 21.83125 296.7Q21.1125 296.7 20.675 297.3094Q20.128124 298.09064 20.128124 300.21564ZM26.64375 304.45L26.64375 303.2469L27.846874 303.2469L27.846874 304.45L26.64375 304.45ZM29.05 300.21564Q29.05 298.6844 29.3625 297.7625Q29.675 296.825 30.284374 296.325Q30.909374 295.825 31.846874 295.825Q32.534374 295.825 33.05 296.10626Q33.58125 296.3875 33.925 296.91876Q34.26875 297.4344 34.45625 298.1844Q34.64375 298.9344 34.64375 300.21564Q34.64375 301.73126 34.33125 302.65314Q34.034374 303.575 33.409374 304.09064Q32.8 304.59064 31.846874 304.59064Q30.6125 304.59064 29.89375 303.7Q29.05 302.6375 29.05 300.21564ZM30.128124 300.21564Q30.128124 302.325 30.628124 303.02814Q31.128124 303.73126 31.846874 303.73126Q32.58125 303.73126 33.065624 303.02814Q33.565624 302.325 33.565624 300.21564Q33.565624 298.09064 33.065624 297.40314Q32.58125 296.7 31.83125 296.7Q31.1125 296.7 30.675 297.3094Q30.128124 298.09064 30.128124 300.21564ZM36.05 300.21564Q36.05 298.6844 36.3625 297.7625Q36.675 296.825 37.284374 296.325Q37.909374 295.825 38.846874 295.825Q39.534374 295.825 40.05 296.10626Q40.58125 296.3875 40.925 296.91876Q41.26875 297.4344 41.45625 298.1844Q41.64375 298.9344 41.64375 300.21564Q41.64375 301.73126 41.33125 302.65314Q41.034374 303.575 40.409374 304.09064Q39.8 304.59064 38.846874 304.59064Q37.6125 304.59064 36.89375 303.7Q36.05 302.6375 36.05 300.21564ZM37.128124 300.21564Q37.128124 302.325 37.628124 303.02814Q38.128124 303.73126 38.846874 303.73126Q39.58125 303.73126 40.065624 303.02814Q40.565624 302.325 40.565624 300.21564Q40.565624 298.09064 40.065624 297.40314Q39.58125 296.7 38.83125 296.7Q38.1125 296.7 37.675 297.3094Q37.128124 298.09064 37.128124 300.21564Z" fill-rule="nonzero"/><path fill="#000000" d="M19.05 250.50896Q19.05 248.9777 19.3625 248.05583Q19.675 247.11833 20.284374 246.61833Q20.909374 246.11833 21.846874 246.11833Q22.534374 246.11833 23.05 246.39958Q23.58125 246.68083 23.925 247.21208Q24.26875 247.7277 24.45625 248.4777Q24.64375 249.2277 24.64375 250.50896Q24.64375 252.02458 24.33125 252.94646Q24.034374 253.86833 23.409374 254.38396Q22.8 254.88396 21.846874 254.88396Q20.6125 254.88396 19.89375 253.99333Q19.05 252.93083 19.05 250.50896ZM20.128124 250.50896Q20.128124 252.61833 20.628124 253.32146Q21.128124 254.02458 21.846874 254.02458Q22.58125 254.02458 23.065624 253.32146Q23.565624 252.61833 23.565624 250.50896Q23.565624 248.38396 23.065624 247.69646Q22.58125 246.99333 21.83125 246.99333Q21.1125 246.99333 20.675 247.6027Q20.128124 248.38396 20.128124 250.50896ZM26.64375 254.74333L26.64375 253.5402L27.846874 253.5402L27.846874 254.74333L26.64375 254.74333ZM34.596874 253.7277L34.596874 254.74333L28.909374 254.74333Q28.909374 254.36833 29.034374 254.00896Q29.253124 253.43083 29.721874 252.86833Q30.20625 252.30583 31.1125 251.57146Q32.51875 250.4152 33.003124 249.74333Q33.503124 249.07146 33.503124 248.4777Q33.503124 247.8527 33.05 247.43083Q32.596874 246.99333 31.878124 246.99333Q31.1125 246.99333 30.659374 247.44646Q30.20625 247.89958 30.190624 248.71208L29.1125 248.6027Q29.221874 247.38396 29.940624 246.75896Q30.675 246.11833 31.909374 246.11833Q33.14375 246.11833 33.8625 246.80583Q34.58125 247.49333 34.58125 248.50896Q34.58125 249.02458 34.3625 249.52458Q34.159374 250.00896 33.659374 250.57146Q33.175 251.11833 32.05 252.07146Q31.096874 252.86833 30.815624 253.1652Q30.55 253.44646 30.378124 253.7277L34.596874 253.7277ZM36.05 252.49333L37.159374 252.39958Q37.284374 253.21208 37.721874 253.61833Q38.175 254.02458 38.815624 254.02458Q39.565624 254.02458 40.096874 253.44646Q40.628124 252.86833 40.628124 251.93083Q40.628124 251.02458 40.1125 250.50896Q39.6125 249.9777 38.784374 249.9777Q38.284374 249.9777 37.8625 250.21208Q37.45625 250.44646 37.221874 250.80583L36.2375 250.68083L37.065624 246.27458L41.346874 246.27458L41.346874 247.27458L37.909374 247.27458L37.45625 249.58708Q38.221874 249.0402 39.065624 249.0402Q40.190624 249.0402 40.95625 249.82146Q41.7375 250.6027 41.7375 251.83708Q41.7375 252.99333 41.065624 253.8527Q40.2375 254.88396 38.815624 254.88396Q37.64375 254.88396 36.89375 254.2277Q36.159374 253.57146 36.05 252.49333Z" fill-rule="nonzero"/><path fill="#000000" d="M19.05 200.80229Q19.05 199.27104 19.3625 198.34917Q19.675 197.41167 20.284374 196.91167Q20.909374 196.41167 21.846874 196.41167Q22.534374 196.41167 23.05 196.69292Q23.58125 196.97417 23.925 197.50542Q24.26875 198.02104 24.45625 198.77104Q24.64375 199.52104 24.64375 200.80229Q24.64375 202.31792 24.33125 203.23979Q24.034374 204.16167 23.409374 204.67729Q22.8 205.17729 21.846874 205.17729Q20.6125 205.17729 19.89375 204.28667Q19.05 203.22417 19.05 200.80229ZM20.128124 200.80229Q20.128124 202.91167 20.628124 203.61479Q21.128124 204.31792 21.846874 204.31792Q22.58125 204.31792 23.065624 203.61479Q23.565624 202.91167 23.565624 200.80229Q23.565624 198.67729 23.065624 197.98979Q22.58125 197.28667 21.83125 197.28667Q21.1125 197.28667 20.675 197.89604Q20.128124 198.67729 20.128124 200.80229ZM26.64375 205.03667L26.64375 203.83354L27.846874 203.83354L27.846874 205.03667L26.64375 205.03667ZM29.05 202.78667L30.159374 202.69292Q30.284374 203.50542 30.721874 203.91167Q31.175 204.31792 31.815624 204.31792Q32.565624 204.31792 33.096874 203.73979Q33.628124 203.16167 33.628124 202.22417Q33.628124 201.31792 33.1125 200.80229Q32.6125 200.27104 31.784374 200.27104Q31.284374 200.27104 30.8625 200.50542Q30.45625 200.73979 30.221874 201.09917L29.2375 200.97417L30.065624 196.56792L34.346874 196.56792L34.346874 197.56792L30.909374 197.56792L30.45625 199.88042Q31.221874 199.33354 32.065624 199.33354Q33.190624 199.33354 33.95625 200.11479Q34.7375 200.89604 34.7375 202.13042Q34.7375 203.28667 34.065624 204.14604Q33.2375 205.17729 31.815624 205.17729Q30.64375 205.17729 29.89375 204.52104Q29.159374 203.86479 29.05 202.78667ZM36.05 200.80229Q36.05 199.27104 36.3625 198.34917Q36.675 197.41167 37.284374 196.91167Q37.909374 196.41167 38.846874 196.41167Q39.534374 196.41167 40.05 196.69292Q40.58125 196.97417 40.925 197.50542Q41.26875 198.02104 41.45625 198.77104Q41.64375 199.52104 41.64375 200.80229Q41.64375 202.31792 41.33125 203.23979Q41.034374 204.16167 40.409374 204.67729Q39.8 205.17729 38.846874 205.17729Q37.6125 205.17729 36.89375 204.28667Q36.05 203.22417 36.05 200.80229ZM37.128124 200.80229Q37.128124 202.91167 37.628124 203.61479Q38.128124 204.31792 38.846874 204.31792Q39.58125 204.31792 40.065624 203.61479Q40.565624 202.91167 40.565624 200.80229Q40.565624 198.67729 40.065624 197.98979Q39.58125 197.28667 38.83125 197.28667Q38.1125 197.28667 37.675 197.89604Q37.128124 198.67729 37.128124 200.80229Z" fill-rule="nonzero"/><path fill="#000000" d="M19.05 151.09563Q19.05 149.56438 19.3625 148.6425Q19.675 147.705 20.284374 147.205Q20.909374 146.705 21.846874 146.705Q22.534374 146.705 23.05 146.98625Q23.58125 147.2675 23.925 147.79875Q24.26875 148.31438 24.45625 149.06438Q24.64375 149.81438 24.64375 151.09563Q24.64375 152.61125 24.33125 153.53313Q24.034374 154.455 23.409374 154.97063Q22.8 155.47063 21.846874 155.47063Q20.6125 155.47063 19.89375 154.58Q19.05 153.5175 19.05 151.09563ZM20.128124 151.09563Q20.128124 153.205 20.628124 153.90813Q21.128124 154.61125 21.846874 154.61125Q22.58125 154.61125 23.065624 153.90813Q23.565624 153.205 23.565624 151.09563Q23.565624 148.97063 23.065624 148.28313Q22.58125 147.58 21.83125 147.58Q21.1125 147.58 20.675 148.18938Q20.128124 148.97063 20.128124 151.09563ZM26.64375 155.33L26.64375 154.12688L27.846874 154.12688L27.846874 155.33L26.64375 155.33ZM29.1125 147.86125L29.1125 146.84563L34.675 146.84563L34.675 147.67375Q33.8625 148.54875 33.05 150.00188Q32.253124 151.43938 31.815624 152.97063Q31.4875 154.04875 31.409374 155.33L30.315624 155.33Q30.33125 154.31438 30.70625 152.87688Q31.096874 151.43938 31.8 150.11125Q32.51875 148.78313 33.33125 147.86125L29.1125 147.86125ZM36.05 153.08L37.159374 152.98625Q37.284374 153.79875 37.721874 154.205Q38.175 154.61125 38.815624 154.61125Q39.565624 154.61125 40.096874 154.03313Q40.628124 153.455 40.628124 152.5175Q40.628124 151.61125 40.1125 151.09563Q39.6125 150.56438 38.784374 150.56438Q38.284374 150.56438 37.8625 150.79875Q37.45625 151.03313 37.221874 151.3925L36.2375 151.2675L37.065624 146.86125L41.346874 146.86125L41.346874 147.86125L37.909374 147.86125L37.45625 150.17375Q38.221874 149.62688 39.065624 149.62688Q40.190624 149.62688 40.95625 150.40813Q41.7375 151.18938 41.7375 152.42375Q41.7375 153.58 41.065624 154.43938Q40.2375 155.47063 38.815624 155.47063Q37.64375 155.47063 36.89375 154.81438Q36.159374 154.15813 36.05 153.08Z" fill-rule="nonzero"/><path fill="#000000" d="M23.01875 105.62334L21.971874 105.62334L21.971874 98.90459Q21.58125 99.26396 20.95625 99.63896Q20.346874 99.99834 19.8625 100.17021L19.8625 99.15459Q20.7375 98.73271 21.39375 98.15459Q22.065624 97.56084 22.346874 96.99834L23.01875 96.99834L23.01875 105.62334ZM26.64375 105.62334L26.64375 104.42021L27.846874 104.42021L27.846874 105.62334L26.64375 105.62334ZM29.05 101.38896Q29.05 99.85771 29.3625 98.93584Q29.675 97.99834 30.284374 97.49834Q30.909374 96.99834 31.846874 96.99834Q32.534374 96.99834 33.05 97.27959Q33.58125 97.56084 33.925 98.09209Q34.26875 98.60771 34.45625 99.35771Q34.64375 100.10771 34.64375 101.38896Q34.64375 102.90459 34.33125 103.82646Q34.034374 104.74834 33.409374 105.26396Q32.8 105.76396 31.846874 105.76396Q30.6125 105.76396 29.89375 104.87334Q29.05 103.81084 29.05 101.38896ZM30.128124 101.38896Q30.128124 103.49834 30.628124 104.20146Q31.128124 104.90459 31.846874 104.90459Q32.58125 104.90459 33.065624 104.20146Q33.565624 103.49834 33.565624 101.38896Q33.565624 99.26396 33.065624 98.57646Q32.58125 97.87334 31.83125 97.87334Q31.1125 97.87334 30.675 98.48271Q30.128124 99.26396 30.128124 101.38896ZM36.05 101.38896Q36.05 99.85771 36.3625 98.93584Q36.675 97.99834 37.284374 97.49834Q37.909374 96.99834 38.846874 96.99834Q39.534374 96.99834 40.05 97.27959Q40.58125 97.56084 40.925 98.09209Q41.26875 98.60771 41.45625 99.35771Q41.64375 100.10771 41.64375 101.38896Q41.64375 102.90459 41.33125 103.82646Q41.034374 104.74834 40.409374 105.26396Q39.8 105.76396 38.846874 105.76396Q37.6125 105.76396 36.89375 104.87334Q36.05 103.81084 36.05 101.38896ZM37.128124 101.38896Q37.128124 103.49834 37.628124 104.20146Q38.128124 104.90459 38.846874 104.90459Q39.58125 104.90459 40.065624 104.20146Q40.565624 103.49834 40.565624 101.38896Q40.565624 99.26396 40.065624 98.57646Q39.58125 97.87334 38.83125 97.87334Q38.1125 97.87334 37.675 98.48271Q37.128124 99.26396 37.128124 101.38896Z" fill-rule="nonzero"/><path fill="#000000" d="M23.01875 55.916668L21.971874 55.916668L21.971874 49.197918Q21.58125 49.557293 20.95625 49.932293Q20.346874 50.291668 19.8625 50.463543L19.8625 49.447918Q20.7375 49.026043 21.39375 48.447918Q22.065624 47.854168 22.346874 47.291668L23.01875 47.291668L23.01875 55.916668ZM26.64375 55.916668L26.64375 54.713543L27.846874 54.713543L27.846874 55.916668L26.64375 55.916668ZM34.596874 54.901043L34.596874 55.916668L28.909374 55.916668Q28.909374 55.541668 29.034374 55.182293Q29.253124 54.604168 29.721874 54.041668Q30.20625 53.479168 31.1125 52.744793Q32.51875 51.588543 33.003124 50.916668Q33.503124 50.244793 33.503124 49.651043Q33.503124 49.026043 33.05 48.604168Q32.596874 48.166668 31.878124 48.166668Q31.1125 48.166668 30.659374 48.619793Q30.20625 49.072918 30.190624 49.885418L29.1125 49.776043Q29.221874 48.557293 29.940624 47.932293Q30.675 47.291668 31.909374 47.291668Q33.14375 47.291668 33.8625 47.979168Q34.58125 48.666668 34.58125 49.682293Q34.58125 50.197918 34.3625 50.697918Q34.159374 51.182293 33.659374 51.744793Q33.175 52.291668 32.05 53.244793Q31.096874 54.041668 30.815624 54.338543Q30.55 54.619793 30.378124 54.901043L34.596874 54.901043ZM36.05 53.666668L37.159374 53.572918Q37.284374 54.385418 37.721874 54.791668Q38.175 55.197918 38.815624 55.197918Q39.565624 55.197918 40.096874 54.619793Q40.628124 54.041668 40.628124 53.104168Q40.628124 52.197918 40.1125 51.682293Q39.6125 51.151043 38.784374 51.151043Q38.284374 51.151043 37.8625 51.385418Q37.45625 51.619793 37.221874 51.979168L36.2375 51.854168L37.065624 47.447918L41.346874 47.447918L41.346874 48.447918L37.909374 48.447918L37.45625 50.760418Q38.221874 50.213543 39.065624 50.213543Q40.190624 50.213543 40.95625 50.994793Q41.7375 51.776043 41.7375 53.010418Q41.7375 54.166668 41.065624 55.026043Q40.2375 56.057293 38.815624 56.057293Q37.64375 56.057293 36.89375 55.401043Q36.159374 54.744793 36.05 53.666668Z" fill-rule="nonzero"/><path fill="#000000" d="M112.49167 317.45L112.49167 308.85626L113.61667 308.85626L113.61667 317.45L112.49167 317.45ZM115.16354 317.45L115.16354 311.23126L116.10104 311.23126L116.10104 312.10626Q116.78854 311.09064 118.08542 311.09064Q118.64792 311.09064 119.11667 311.29376Q119.60104 311.4969 119.83542 311.825Q120.06979 312.15314 120.16354 312.59064Q120.21042 312.8875 120.21042 313.6219L120.21042 317.45L119.16354 317.45L119.16354 313.66876Q119.16354 313.0125 119.03854 312.7Q118.91354 312.3875 118.60104 312.2Q118.28854 311.9969 117.86667 311.9969Q117.19479 311.9969 116.69479 312.4344Q116.21042 312.85626 116.21042 314.04376L116.21042 317.45L115.16354 317.45ZM122.41354 317.45L122.41354 312.04376L121.47604 312.04376L121.47604 311.23126L122.41354 311.23126L122.41354 310.5594Q122.41354 309.9344 122.52292 309.6375Q122.67917 309.21564 123.05417 308.96564Q123.44479 308.71564 124.13229 308.71564Q124.58542 308.71564 125.11667 308.825L124.96042 309.73126Q124.63229 309.6844 124.33542 309.6844Q123.85104 309.6844 123.64792 309.8875Q123.46042 310.09064 123.46042 310.65314L123.46042 311.23126L124.67917 311.23126L124.67917 312.04376L123.46042 312.04376L123.46042 317.45L122.41354 317.45ZM124.77292 314.34064Q124.77292 312.60626 125.72604 311.77814Q126.52292 311.09064 127.67917 311.09064Q128.96042 311.09064 129.77292 311.9344Q130.60104 312.7625 130.60104 314.2469Q130.60104 315.45 130.24167 316.1375Q129.8823 316.825 129.17917 317.21564Q128.49167 317.59064 127.67917 317.59064Q126.38229 317.59064 125.56979 316.7625Q124.77292 315.91876 124.77292 314.34064ZM125.85104 314.34064Q125.85104 315.52814 126.36667 316.1219Q126.89792 316.71564 127.67917 316.71564Q128.47604 316.71564 128.99167 316.1219Q129.5073 315.52814 129.5073 314.3094Q129.5073 313.15314 128.97604 312.5594Q128.46042 311.96564 127.67917 311.96564Q126.89792 311.96564 126.36667 312.5594Q125.85104 313.1375 125.85104 314.34064ZM132.14792 317.45L132.14792 311.23126L133.10104 311.23126L133.10104 312.16876Q133.46042 311.5125 133.7573 311.3094Q134.0698 311.09064 134.4448 311.09064Q134.97604 311.09064 135.52292 311.41876L135.16354 312.40314Q134.77292 312.16876 134.39792 312.16876Q134.03854 312.16876 133.7573 312.3875Q133.49167 312.59064 133.3823 312.96564Q133.1948 313.52814 133.1948 314.1844L133.1948 317.45L132.14792 317.45ZM136.16354 317.45L136.16354 311.23126L137.10104 311.23126L137.10104 312.10626Q137.39792 311.6375 137.8823 311.3719Q138.36667 311.09064 138.99167 311.09064Q139.67917 311.09064 140.11667 311.3719Q140.5698 311.65314 140.74167 312.16876Q141.49167 311.09064 142.66354 311.09064Q143.60104 311.09064 144.08542 311.60626Q144.58542 312.10626 144.58542 313.1844L144.58542 317.45L143.53854 317.45L143.53854 313.52814Q143.53854 312.90314 143.42917 312.6219Q143.33542 312.34064 143.0698 312.16876Q142.80417 311.9969 142.42917 311.9969Q141.77292 311.9969 141.33542 312.4344Q140.91354 312.8719 140.91354 313.84064L140.91354 317.45L139.85104 317.45L139.85104 313.40314Q139.85104 312.7 139.58542 312.35626Q139.33542 311.9969 138.7573 311.9969Q138.30417 311.9969 137.92917 312.23126Q137.55417 312.46564 137.3823 312.91876Q137.21042 313.3719 137.21042 314.21564L137.21042 317.45L136.16354 317.45ZM151.41354 315.45L152.5073 315.575Q152.2573 316.52814 151.55417 317.0594Q150.85104 317.59064 149.77292 317.59064Q148.41354 317.59064 147.60104 316.7469Q146.80417 315.90314 146.80417 314.3875Q146.80417 312.825 147.61667 311.96564Q148.42917 311.09064 149.71042 311.09064Q150.96042 311.09064 151.74167 311.9344Q152.53854 312.77814 152.53854 314.325Q152.53854 314.41876 152.53854 314.60626L147.89792 314.60626Q147.96042 315.6375 148.47604 316.1844Q148.99167 316.71564 149.77292 316.71564Q150.35104 316.71564 150.7573 316.41876Q151.17917 316.10626 151.41354 315.45ZM147.96042 313.7469L151.42917 313.7469Q151.36667 312.95 151.03854 312.5594Q150.52292 311.95 149.72604 311.95Q148.99167 311.95 148.49167 312.4344Q148.0073 312.91876 147.96042 313.7469ZM160.83542 317.45L159.78854 317.45L159.78854 310.73126Q159.39792 311.09064 158.77292 311.46564Q158.16354 311.825 157.67917 311.9969L157.67917 310.98126Q158.55417 310.5594 159.21042 309.98126Q159.8823 309.3875 160.16354 308.825L160.83542 308.825L160.83542 317.45Z" fill-rule="nonzero"/><path fill="#000000" d="M290.125 317.45L290.125 308.85626L291.25 308.85626L291.25 317.45L290.125 317.45ZM292.79688 317.45L292.79688 311.23126L293.73438 311.23126L293.73438 312.10626Q294.42188 311.09064 295.71875 311.09064Q296.28125 311.09064 296.75 311.29376Q297.23438 311.4969 297.46875 311.825Q297.70312 312.15314 297.79688 312.59064Q297.84375 312.8875 297.84375 313.6219L297.84375 317.45L296.79688 317.45L296.79688 313.66876Q296.79688 313.0125 296.67188 312.7Q296.54688 312.3875 296.23438 312.2Q295.92188 311.9969 295.5 311.9969Q294.82812 311.9969 294.32812 312.4344Q293.84375 312.85626 293.84375 314.04376L293.84375 317.45L292.79688 317.45ZM300.04688 317.45L300.04688 312.04376L299.10938 312.04376L299.10938 311.23126L300.04688 311.23126L300.04688 310.5594Q300.04688 309.9344 300.15625 309.6375Q300.3125 309.21564 300.6875 308.96564Q301.07812 308.71564 301.76562 308.71564Q302.21875 308.71564 302.75 308.825L302.59375 309.73126Q302.26562 309.6844 301.96875 309.6844Q301.48438 309.6844 301.28125 309.8875Q301.09375 310.09064 301.09375 310.65314L301.09375 311.23126L302.3125 311.23126L302.3125 312.04376L301.09375 312.04376L301.09375 317.45L300.04688 317.45ZM302.40625 314.34064Q302.40625 312.60626 303.35938 311.77814Q304.15625 311.09064 305.3125 311.09064Q306.59375 311.09064 307.40625 311.9344Q308.23438 312.7625 308.23438 314.2469Q308.23438 315.45 307.875 316.1375Q307.51562 316.825 306.8125 317.21564Q306.125 317.59064 305.3125 317.59064Q304.01562 317.59064 303.20312 316.7625Q302.40625 315.91876 302.40625 314.34064ZM303.48438 314.34064Q303.48438 315.52814 304.0 316.1219Q304.53125 316.71564 305.3125 316.71564Q306.10938 316.71564 306.625 316.1219Q307.14062 315.52814 307.14062 314.3094Q307.14062 313.15314 306.60938 312.5594Q306.09375 311.96564 305.3125 311.96564Q304.53125 311.96564 304.0 312.5594Q303.48438 313.1375 303.48438 314.34064ZM309.78125 317.45L309.78125 311.23126L310.73438 311.23126L310.73438 312.16876Q311.09375 311.5125 311.39062 311.3094Q311.70312 311.09064 312.07812 311.09064Q312.60938 311.09064 313.15625 311.41876L312.79688 312.40314Q312.40625 312.16876 312.03125 312.16876Q311.67188 312.16876 311.39062 312.3875Q311.125 312.59064 311.01562 312.96564Q310.82812 313.52814 310.82812 314.1844L310.82812 317.45L309.78125 317.45ZM313.79688 317.45L313.79688 311.23126L314.73438 311.23126L314.73438 312.10626Q315.03125 311.6375 315.51562 311.3719Q316.0 311.09064 316.625 311.09064Q317.3125 311.09064 317.75 311.3719Q318.20312 311.65314 318.375 312.16876Q319.125 311.09064 320.29688 311.09064Q321.23438 311.09064 321.71875 311.60626Q322.21875 312.10626 322.21875 313.1844L322.21875 317.45L321.17188 317.45L321.17188 313.52814Q321.17188 312.90314 321.0625 312.6219Q320.96875 312.34064 320.70312 312.16876Q320.4375 311.9969 320.0625 311.9969Q319.40625 311.9969 318.96875 312.4344Q318.54688 312.8719 318.54688 313.84064L318.54688 317.45L317.48438 317.45L317.48438 313.40314Q317.48438 312.7 317.21875 312.35626Q316.96875 311.9969 316.39062 311.9969Q315.9375 311.9969 315.5625 312.23126Q315.1875 312.46564 315.01562 312.91876Q314.84375 313.3719 314.84375 314.21564L314.84375 317.45L313.79688 317.45ZM329.04688 315.45L330.14062 315.575Q329.89062 316.52814 329.1875 317.0594Q328.48438 317.59064 327.40625 317.59064Q326.04688 317.59064 325.23438 316.7469Q324.4375 315.90314 324.4375 314.3875Q324.4375 312.825 325.25 311.96564Q326.0625 311.09064 327.34375 311.09064Q328.59375 311.09064 329.375 311.9344Q330.17188 312.77814 330.17188 314.325Q330.17188 314.41876 330.17188 314.60626L325.53125 314.60626Q325.59375 315.6375 326.10938 316.1844Q326.625 316.71564 327.40625 316.71564Q327.98438 316.71564 328.39062 316.41876Q328.8125 316.10626 329.04688 315.45ZM325.59375 313.7469L329.0625 313.7469Q329.0 312.95 328.67188 312.5594Q328.15625 311.95 327.35938 311.95Q326.625 311.95 326.125 312.4344Q325.64062 312.91876 325.59375 313.7469ZM340.04688 316.4344L340.04688 317.45L334.35938 317.45Q334.35938 317.075 334.48438 316.71564Q334.70312 316.1375 335.17188 315.575Q335.65625 315.0125 336.5625 314.27814Q337.96875 313.1219 338.45312 312.45Q338.95312 311.77814 338.95312 311.1844Q338.95312 310.5594 338.5 310.1375Q338.04688 309.7 337.32812 309.7Q336.5625 309.7 336.10938 310.15314Q335.65625 310.60626 335.64062 311.41876L334.5625 311.3094Q334.67188 310.09064 335.39062 309.46564Q336.125 308.825 337.35938 308.825Q338.59375 308.825 339.3125 309.5125Q340.03125 310.2 340.03125 311.21564Q340.03125 311.73126 339.8125 312.23126Q339.60938 312.71564 339.10938 313.27814Q338.625 313.825 337.5 314.77814Q336.54688 315.575 336.26562 315.8719Q336.0 316.15314 335.82812 316.4344L340.04688 316.4344Z" fill-rule="nonzero"/><path fill="#000000" d="M467.75833 317.45L467.75833 308.85626L468.88333 308.85626L468.88333 317.45L467.75833 317.45ZM470.4302 317.45L470.4302 311.23126L471.3677 311.23126L471.3677 312.10626Q472.0552 311.09064 473.35208 311.09064Q473.91458 311.09064 474.38333 311.29376Q474.8677 311.4969 475.10208 311.825Q475.33646 312.15314 475.4302 312.59064Q475.47708 312.8875 475.47708 313.6219L475.47708 317.45L474.4302 317.45L474.4302 313.66876Q474.4302 313.0125 474.3052 312.7Q474.1802 312.3875 473.8677 312.2Q473.5552 311.9969 473.13333 311.9969Q472.46146 311.9969 471.96146 312.4344Q471.47708 312.85626 471.47708 314.04376L471.47708 317.45L470.4302 317.45ZM477.6802 317.45L477.6802 312.04376L476.7427 312.04376L476.7427 311.23126L477.6802 311.23126L477.6802 310.5594Q477.6802 309.9344 477.78958 309.6375Q477.94583 309.21564 478.32083 308.96564Q478.71146 308.71564 479.39896 308.71564Q479.85208 308.71564 480.38333 308.825L480.22708 309.73126Q479.89896 309.6844 479.60208 309.6844Q479.1177 309.6844 478.91458 309.8875Q478.72708 310.09064 478.72708 310.65314L478.72708 311.23126L479.94583 311.23126L479.94583 312.04376L478.72708 312.04376L478.72708 317.45L477.6802 317.45ZM480.03958 314.34064Q480.03958 312.60626 480.9927 311.77814Q481.78958 311.09064 482.94583 311.09064Q484.22708 311.09064 485.03958 311.9344Q485.8677 312.7625 485.8677 314.2469Q485.8677 315.45 485.50833 316.1375Q485.14896 316.825 484.44583 317.21564Q483.75833 317.59064 482.94583 317.59064Q481.64896 317.59064 480.83646 316.7625Q480.03958 315.91876 480.03958 314.34064ZM481.1177 314.34064Q481.1177 315.52814 481.63333 316.1219Q482.16458 316.71564 482.94583 316.71564Q483.7427 316.71564 484.25833 316.1219Q484.77396 315.52814 484.77396 314.3094Q484.77396 313.15314 484.2427 312.5594Q483.72708 311.96564 482.94583 311.96564Q482.16458 311.96564 481.63333 312.5594Q481.1177 313.1375 481.1177 314.34064ZM487.41458 317.45L487.41458 311.23126L488.3677 311.23126L488.3677 312.16876Q488.72708 311.5125 489.02396 311.3094Q489.33646 311.09064 489.71146 311.09064Q490.2427 311.09064 490.78958 311.41876L490.4302 312.40314Q490.03958 312.16876 489.66458 312.16876Q489.3052 312.16876 489.02396 312.3875Q488.75833 312.59064 488.64896 312.96564Q488.46146 313.52814 488.46146 314.1844L488.46146 317.45L487.41458 317.45ZM491.4302 317.45L491.4302 311.23126L492.3677 311.23126L492.3677 312.10626Q492.66458 311.6375 493.14896 311.3719Q493.63333 311.09064 494.25833 311.09064Q494.94583 311.09064 495.38333 311.3719Q495.83646 311.65314 496.00833 312.16876Q496.75833 311.09064 497.9302 311.09064Q498.8677 311.09064 499.35208 311.60626Q499.85208 312.10626 499.85208 313.1844L499.85208 317.45L498.8052 317.45L498.8052 313.52814Q498.8052 312.90314 498.69583 312.6219Q498.60208 312.34064 498.33646 312.16876Q498.07083 311.9969 497.69583 311.9969Q497.03958 311.9969 496.60208 312.4344Q496.1802 312.8719 496.1802 313.84064L496.1802 317.45L495.1177 317.45L495.1177 313.40314Q495.1177 312.7 494.85208 312.35626Q494.60208 311.9969 494.02396 311.9969Q493.57083 311.9969 493.19583 312.23126Q492.82083 312.46564 492.64896 312.91876Q492.47708 313.3719 492.47708 314.21564L492.47708 317.45L491.4302 317.45ZM506.6802 315.45L507.77396 315.575Q507.52396 316.52814 506.82083 317.0594Q506.1177 317.59064 505.03958 317.59064Q503.6802 317.59064 502.8677 316.7469Q502.07083 315.90314 502.07083 314.3875Q502.07083 312.825 502.88333 311.96564Q503.69583 311.09064 504.97708 311.09064Q506.22708 311.09064 507.00833 311.9344Q507.8052 312.77814 507.8052 314.325Q507.8052 314.41876 507.8052 314.60626L503.16458 314.60626Q503.22708 315.6375 503.7427 316.1844Q504.25833 316.71564 505.03958 316.71564Q505.6177 316.71564 506.02396 316.41876Q506.44583 316.10626 506.6802 315.45ZM503.22708 313.7469L506.69583 313.7469Q506.63333 312.95 506.3052 312.5594Q505.78958 311.95 504.9927 311.95Q504.25833 311.95 503.75833 312.4344Q503.27396 312.91876 503.22708 313.7469ZM512.1333 315.1844L513.1958 315.04376Q513.3677 315.9344 513.8052 316.34064Q514.2427 316.73126 514.8677 316.73126Q515.6177 316.73126 516.1333 316.21564Q516.6489 315.7 516.6489 314.9344Q516.6489 314.21564 516.16455 313.7469Q515.6958 313.2625 514.9614 313.2625Q514.66455 313.2625 514.2114 313.3875L514.3364 312.45Q514.4458 312.46564 514.5083 312.46564Q515.1802 312.46564 515.7114 312.1219Q516.2583 311.7625 516.2583 311.02814Q516.2583 310.45 515.8677 310.075Q515.47705 309.6844 514.85205 309.6844Q514.2427 309.6844 513.8208 310.075Q513.41455 310.46564 513.3052 311.23126L512.2427 311.04376Q512.4302 309.9969 513.1177 309.41876Q513.8052 308.825 514.8208 308.825Q515.5239 308.825 516.1177 309.1375Q516.7114 309.4344 517.0239 309.95Q517.3364 310.46564 517.3364 311.0594Q517.3364 311.60626 517.03955 312.075Q516.7427 312.52814 516.16455 312.79376Q516.91455 312.96564 517.3364 313.52814Q517.7583 314.075 517.7583 314.91876Q517.7583 316.04376 516.9302 316.825Q516.1177 317.60626 514.8677 317.60626Q513.7427 317.60626 512.9927 316.9344Q512.2427 316.2469 512.1333 315.1844Z" fill-rule="nonzero"/><path stroke="#4285f4" stroke-width="4.0" stroke-linecap="butt" d="M252.5 25.55L264.5 25.55" fill-rule="nonzero"/><path fill="#1a1a1a" d="M279.5625 26.534374L280.6875 26.83125Q280.32812 28.221874 279.40625 28.95625Q278.48438 29.690624 277.14062 29.690624Q275.75 29.690624 274.875 29.128124Q274.0 28.565624 273.54688 27.503124Q273.09375 26.425 273.09375 25.190624Q273.09375 23.846874 273.60938 22.846874Q274.125 21.846874 275.0625 21.33125Q276.01562 20.815624 277.15625 20.815624Q278.4375 20.815624 279.3125 21.471874Q280.20312 22.128124 280.54688 23.315624L279.42188 23.58125Q279.125 22.64375 278.54688 22.221874Q277.98438 21.784374 277.125 21.784374Q276.14062 21.784374 275.46875 22.26875Q274.8125 22.7375 274.53125 23.534374Q274.26562 24.33125 274.26562 25.190624Q274.26562 26.284374 274.57812 27.096874Q274.90625 27.909374 275.57812 28.315624Q276.25 28.721874 277.04688 28.721874Q278.0 28.721874 278.65625 28.175Q279.32812 27.628124 279.5625 26.534374ZM282.42188 29.55L282.42188 20.95625L285.67188 20.95625Q286.51562 20.95625 286.96875 21.034374Q287.60938 21.14375 288.03125 21.440624Q288.46875 21.7375 288.71875 22.26875Q288.98438 22.8 288.98438 23.440624Q288.98438 24.534374 288.28125 25.3Q287.59375 26.05 285.76562 26.05L283.5625 26.05L283.5625 29.55L282.42188 29.55ZM283.5625 25.05L285.78125 25.05Q286.89062 25.05 287.34375 24.64375Q287.8125 24.221874 287.8125 23.471874Q287.8125 22.940624 287.53125 22.565624Q287.26562 22.175 286.82812 22.05Q286.53125 21.971874 285.76562 21.971874L283.5625 21.971874L283.5625 25.05ZM290.625 29.55L290.625 20.95625L291.75 20.95625L291.75 29.55L290.625 29.55Z" fill-rule="nonzero"/><path stroke="#ea4335" stroke-width="4.0" stroke-linecap="butt" d="M308.5 25.55L320.5 25.55" fill-rule="nonzero"/><path fill="#1a1a1a" d="M329.04688 26.784374L330.10938 26.690624Q330.1875 27.346874 330.46875 27.753124Q330.75 28.159374 331.32812 28.425Q331.92188 28.675 332.65625 28.675Q333.29688 28.675 333.79688 28.4875Q334.29688 28.284374 334.53125 27.95625Q334.78125 27.6125 334.78125 27.221874Q334.78125 26.815624 334.54688 26.51875Q334.3125 26.20625 333.78125 26.003124Q333.42188 25.8625 332.23438 25.58125Q331.0625 25.3 330.59375 25.05Q329.96875 24.721874 329.67188 24.253124Q329.375 23.76875 329.375 23.175Q329.375 22.534374 329.73438 21.971874Q330.10938 21.39375 330.8125 21.1125Q331.53125 20.815624 332.39062 20.815624Q333.34375 20.815624 334.07812 21.128124Q334.8125 21.425 335.20312 22.034374Q335.59375 22.628124 335.625 23.378124L334.53125 23.45625Q334.4375 22.64375 333.92188 22.2375Q333.42188 21.815624 332.4375 21.815624Q331.40625 21.815624 330.9375 22.190624Q330.46875 22.565624 330.46875 23.096874Q330.46875 23.565624 330.79688 23.8625Q331.125 24.159374 332.5 24.471874Q333.89062 24.784374 334.40625 25.01875Q335.15625 25.378124 335.51562 25.909374Q335.875 26.425 335.875 27.128124Q335.875 27.815624 335.48438 28.425Q335.09375 29.01875 334.35938 29.3625Q333.625 29.690624 332.70312 29.690624Q331.53125 29.690624 330.73438 29.3625Q329.95312 29.01875 329.5 28.33125Q329.0625 27.64375 329.04688 26.784374ZM337.42188 29.55L337.42188 20.95625L340.67188 20.95625Q341.51562 20.95625 341.96875 21.034374Q342.60938 21.14375 343.03125 21.440624Q343.46875 21.7375 343.71875 22.26875Q343.98438 22.8 343.98438 23.440624Q343.98438 24.534374 343.28125 25.3Q342.59375 26.05 340.76562 26.05L338.5625 26.05L338.5625 29.55L337.42188 29.55ZM338.5625 25.05L340.78125 25.05Q341.89062 25.05 342.34375 24.64375Q342.8125 24.221874 342.8125 23.471874Q342.8125 22.940624 342.53125 22.565624Q342.26562 22.175 341.82812 22.05Q341.53125 21.971874 340.76562 21.971874L338.5625 21.971874L338.5625 25.05ZM345.625 29.55L345.625 20.95625L346.75 20.95625L346.75 29.55L345.625 29.55Z" fill-rule="nonzero"/></svg>