<svg version="1.1" viewBox="0.0 0.0 600.0 371.0" fill="none" stroke="none" stroke-linecap="square" stroke-miterlimit="10" width="600" height="371" xmlns:xlink="http://www.w3.org/1999/xlink" xmlns="http://www.w3.org/2000/svg"><path fill="#ffffff" d="M0 0L600.0 0L600.0 371.0L0 371.0L0 0Z" fill-rule="nonzero"/><path stroke="#333333" stroke-width="1.0" stroke-linecap="butt" d="M48.5 300.5L581.5 300.5" fill-rule="nonzero"/><path stroke="#cccccc" stroke-width="1.0" stroke-linecap="butt" d="M48.5 250.5L581.5 250.5" fill-rule="nonzero"/><path stroke="#cccccc" stroke-width="1.0" stroke-linecap="butt" d="M48.5 201.5L581.5 201.5" fill-rule="nonzero"/><path stroke="#cccccc" stroke-width="1.0" stroke-linecap="butt" d="M48.5 151.5L581.5 151.5" fill-rule="nonzero"/><path stroke="#cccccc" stroke-width="1.0" stroke-linecap="butt" d="M48.5 101.5L581.5 101.5" fill-rule="nonzero"/><path stroke="#cccccc" stroke-width="1.0" stroke-linecap="butt" d="M48.5 51.5L581.5 51.5" fill-rule="nonzero"/><path stroke="#eeeeee" stroke-width="1.0" stroke-linecap="butt" d="M448.225 75.682L448.225 91.682" fill-rule="nonzero"/><path stroke="#eeeeee" stroke-width="1.0" stroke-linecap="butt" d="M448.225 101.529465L448.225 117.529465" fill-rule="nonzero"/><clipPath id="id_0"><path d="M48.55 51.916668L581.45 51.916668L581.45 300.45L48.55 300.45L48.55 51.916668Z" clip-rule="nonzero"/></clipPath><path stroke="#4285f4" stroke-width="2.0" stroke-linecap="butt" clip-path="url(#id_0)" d="M181.775 109.5764L448.225 91.682" fill-rule="nonzero"/><path stroke="#ea4335" stroke-width="2.0" stroke-linecap="butt" clip-path="url(#id_0)" d="M181.775 105.59987L448.225 117.529465" fill-rule="nonzero"/><path fill="#4285f4" clip-path="url(#id_0)" d="M181.775 109.5764C181.775 109.5764 181.775 109.5764 181.775 109.5764C181.775 109.5764 181.775 109.5764 181.775 109.5764C181.775 109.5764 181.775 109.5764 181.775 109.5764C181.775 109.5764 181.775 109.5764 181.775 109.5764Z" fill-rule="nonzero"/><path fill="#4285f4" clip-path="url(#id_0)" d="M448.225 91.682C448.225 91.682 448.225 91.682 448.225 91.682C448.225 91.682 448.225 91.682 448.225 91.682C448.225 91.682 448.225 91.682 448.225 91.682C448.225 91.682 448.225 91.682 448.225 91.682Z" fill-rule="nonzero"/><path fill="#ea4335" clip-path="url(#id_0)" d="M181.775 105.59987C181.775 105.59987 181.775 105.59987 181.775 105.59987C181.775 105.59987 181.775 105.59987 181.775 105.59987C181.775 105.59987 181.775 105.59987 181.775 105.59987C181.775 105.59987 181.775 105.59987 181.775 105.59987Z" fill-rule="nonzero"/><path fill="#ea4335" clip-path="url(#id_0)" d="M448.225 117.529465C448.225 117.529465 448.225 117.529465 448.225 117.529465C448.225 117.529465 448.225 117.529465 448.225 117.529465C448.225 117.529465 448.225 117.529465 448.225 117.529465C448.225 117.529465 448.225 117.529465 448.225 117.529465Z" fill-rule="nonzero"/><path stroke="#ffffff" stroke-width="3.0" stroke-linejoin="round" stroke-linecap="round" d="M174.79268 127.07828Q174.79268 128.98453 174.13643 129.92203Q173.4958 130.8439 172.10518 130.8439Q170.7458 130.8439 170.08955 129.93765Q169.4333 129.0314 169.40205 127.2189L169.40205 125.7814Q169.40205 123.89078 170.04268 122.98453Q170.69893 122.06265 172.08955 122.06265Q173.46455 122.06265 174.1208 122.95328Q174.77705 123.82828 174.79268 125.67203L174.79268 127.07828ZM173.69893 125.5939Q173.69893 124.2189 173.3083 123.5939Q172.9333 122.95328 172.08955 122.95328Q171.26143 122.95328 170.8708 123.5939Q170.4958 124.2189 170.4958 125.51578L170.4958 127.25015Q170.4958 128.62515 170.88643 129.29703Q171.29268 129.95328 172.10518 129.95328Q172.90205 129.95328 173.29268 129.32828Q173.6833 128.70328 173.69893 127.37515L173.69893 125.5939ZM176.57393 130.1564Q176.57393 129.87515 176.73018 129.68765Q176.90205 129.50015 177.23018 129.50015Q177.57393 129.50015 177.7458 129.68765Q177.91768 129.87515 177.91768 130.1564Q177.91768 130.42203 177.7458 130.60953Q177.57393 130.7814 177.23018 130.7814Q176.90205 130.7814 176.73018 130.60953Q176.57393 130.42203 176.57393 130.1564ZM183.58955 126.9689Q183.26143 127.37515 182.77705 127.62515Q182.3083 127.85953 181.7458 127.85953Q181.01143 127.85953 180.46455 127.50015Q179.91768 127.14078 179.6208 126.48453Q179.32393 125.81265 179.32393 125.01578Q179.32393 124.17203 179.63643 123.48453Q179.96455 122.79703 180.5583 122.43765Q181.16768 122.06265 181.96455 122.06265Q183.23018 122.06265 183.94893 123.01578Q184.6833 123.9689 184.6833 125.5939L184.6833 125.9064Q184.6833 128.4064 183.69893 129.54703Q182.71455 130.68765 180.73018 130.7189L180.51143 130.7189L180.51143 129.81265L180.7458 129.81265Q182.08955 129.7814 182.8083 129.10953Q183.52705 128.43765 183.58955 126.9689ZM181.91768 126.9689Q182.46455 126.9689 182.91768 126.64078Q183.38643 126.29703 183.60518 125.81265L183.60518 125.37515Q183.60518 124.31265 183.13643 123.64078Q182.66768 122.9689 181.96455 122.9689Q181.2458 122.9689 180.8083 123.51578Q180.38643 124.06265 180.38643 124.9689Q180.38643 125.8439 180.79268 126.4064Q181.21455 126.9689 181.91768 126.9689ZM190.69893 122.18765L190.69893 123.0939L190.4958 123.0939Q189.23018 123.12515 188.48018 123.85953Q187.73018 124.57828 187.60518 125.89078Q188.29268 125.12515 189.44893 125.12515Q190.5583 125.12515 191.23018 125.9064Q191.90205 126.68765 191.90205 127.93765Q191.90205 129.25015 191.1833 130.04703Q190.46455 130.8439 189.2458 130.8439Q188.02705 130.8439 187.26143 129.9064Q186.51143 128.95328 186.51143 127.4689L186.51143 127.06265Q186.51143 124.70328 187.51143 123.45328Q188.51143 122.20328 190.4958 122.18765L190.69893 122.18765ZM189.27705 126.0314Q188.71455 126.0314 188.2458 126.35953Q187.77705 126.68765 187.58955 127.20328L187.58955 127.5939Q187.58955 128.6564 188.0583 129.29703Q188.54268 129.93765 189.2458 129.93765Q189.98018 129.93765 190.40205 129.4064Q190.82393 128.85953 190.82393 127.98453Q190.82393 127.10953 190.40205 126.57828Q189.98018 126.0314 189.27705 126.0314ZM198.79268 127.07828Q198.79268 128.98453 198.13643 129.92203Q197.4958 130.8439 196.10518 130.8439Q194.7458 130.8439 194.08955 129.93765Q193.4333 129.0314 193.40205 127.2189L193.40205 125.7814Q193.40205 123.89078 194.04268 122.98453Q194.69893 122.06265 196.08955 122.06265Q197.46455 122.06265 198.1208 122.95328Q198.77705 123.82828 198.79268 125.67203L198.79268 127.07828ZM197.69893 125.5939Q197.69893 124.2189 197.3083 123.5939Q196.9333 122.95328 196.08955 122.95328Q195.26143 122.95328 194.8708 123.5939Q194.4958 124.2189 194.4958 125.51578L194.4958 127.25015Q194.4958 128.62515 194.88643 129.29703Q195.29268 129.95328 196.10518 129.95328Q196.90205 129.95328 197.29268 129.32828Q197.6833 128.70328 197.69893 127.37515L197.69893 125.5939Z" fill-rule="nonzero"/><path fill="#4285f4" d="M174.79268 127.07828Q174.79268 128.98453 174.13643 129.92203Q173.4958 130.8439 172.10518 130.8439Q170.7458 130.8439 170.08955 129.93765Q169.4333 129.0314 169.40205 127.2189L169.40205 125.7814Q169.40205 123.89078 170.04268 122.98453Q170.69893 122.06265 172.08955 122.06265Q173.46455 122.06265 174.1208 122.95328Q174.77705 123.82828 174.79268 125.67203L174.79268 127.07828ZM173.69893 125.5939Q173.69893 124.2189 173.3083 123.5939Q172.9333 122.95328 172.08955 122.95328Q171.26143 122.95328 170.8708 123.5939Q170.4958 124.2189 170.4958 125.51578L170.4958 127.25015Q170.4958 128.62515 170.88643 129.29703Q171.29268 129.95328 172.10518 129.95328Q172.90205 129.95328 173.29268 129.32828Q173.6833 128.70328 173.69893 127.37515L173.69893 125.5939ZM176.57393 130.1564Q176.57393 129.87515 176.73018 129.68765Q176.90205 129.50015 177.23018 129.50015Q177.57393 129.50015 177.7458 129.68765Q177.91768 129.87515 177.91768 130.1564Q177.91768 130.42203 177.7458 130.60953Q177.57393 130.7814 177.23018 130.7814Q176.90205 130.7814 176.73018 130.60953Q176.57393 130.42203 176.57393 130.1564ZM183.58955 126.9689Q183.26143 127.37515 182.77705 127.62515Q182.3083 127.85953 181.7458 127.85953Q181.01143 127.85953 180.46455 127.50015Q179.91768 127.14078 179.6208 126.48453Q179.32393 125.81265 179.32393 125.01578Q179.32393 124.17203 179.63643 123.48453Q179.96455 122.79703 180.5583 122.43765Q181.16768 122.06265 181.96455 122.06265Q183.23018 122.06265 183.94893 123.01578Q184.6833 123.9689 184.6833 125.5939L184.6833 125.9064Q184.6833 128.4064 183.69893 129.54703Q182.71455 130.68765 180.73018 130.7189L180.51143 130.7189L180.51143 129.81265L180.7458 129.81265Q182.08955 129.7814 182.8083 129.10953Q183.52705 128.43765 183.58955 126.9689ZM181.91768 126.9689Q182.46455 126.9689 182.91768 126.64078Q183.38643 126.29703 183.60518 125.81265L183.60518 125.37515Q183.60518 124.31265 183.13643 123.64078Q182.66768 122.9689 181.96455 122.9689Q181.2458 122.9689 180.8083 123.51578Q180.38643 124.06265 180.38643 124.9689Q180.38643 125.8439 180.79268 126.4064Q181.21455 126.9689 181.91768 126.9689ZM190.69893 122.18765L190.69893 123.0939L190.4958 123.0939Q189.23018 123.12515 188.48018 123.85953Q187.73018 124.57828 187.60518 125.89078Q188.29268 125.12515 189.44893 125.12515Q190.5583 125.12515 191.23018 125.9064Q191.90205 126.68765 191.90205 127.93765Q191.90205 129.25015 191.1833 130.04703Q190.46455 130.8439 189.2458 130.8439Q188.02705 130.8439 187.26143 129.9064Q186.51143 128.95328 186.51143 127.4689L186.51143 127.06265Q186.51143 124.70328 187.51143 123.45328Q188.51143 122.20328 190.4958 122.18765L190.69893 122.18765ZM189.27705 126.0314Q188.71455 126.0314 188.2458 126.35953Q187.77705 126.68765 187.58955 127.20328L187.58955 127.5939Q187.58955 128.6564 188.0583 129.29703Q188.54268 129.93765 189.2458 129.93765Q189.98018 129.93765 190.40205 129.4064Q190.82393 128.85953 190.82393 127.98453Q190.82393 127.10953 190.40205 126.57828Q189.98018 126.0314 189.27705 126.0314ZM198.79268 127.07828Q198.79268 128.98453 198.13643 129.92203Q197.4958 130.8439 196.10518 130.8439Q194.7458 130.8439 194.08955 129.93765Q193.4333 129.0314 193.40205 127.2189L193.40205 125.7814Q193.40205 123.89078 194.04268 122.98453Q194.69893 122.06265 196.08955 122.06265Q197.46455 122.06265 198.1208 122.95328Q198.77705 123.82828 198.79268 125.67203L198.79268 127.07828ZM197.69893 125.5939Q197.69893 124.2189 197.3083 123.5939Q196.9333 122.95328 196.08955 122.95328Q195.26143 122.95328 194.8708 123.5939Q194.4958 124.2189 194.4958 125.51578L194.4958 127.25015Q194.4958 128.62515 194.88643 129.29703Q195.29268 129.95328 196.10518 129.95328Q196.90205 129.95328 197.29268 129.32828Q197.6833 128.70328 197.69893 127.37515L197.69893 125.5939Z" fill-rule="nonzero"/><path stroke="#ffffff" stroke-width="3.0" stroke-linejoin="round" stroke-linecap="round" d="M436.99063 73.682L435.9125 73.682L435.9125 66.46325L433.725 67.260124L433.725 66.27575L436.83438 65.103874L436.99063 65.103874L436.99063 73.682ZM440.56876 73.1195Q440.56876 72.83825 440.725 72.65075Q440.89688 72.46325 441.225 72.46325Q441.56876 72.46325 441.74063 72.65075Q441.9125 72.83825 441.9125 73.1195Q441.9125 73.385124 441.74063 73.572624Q441.56876 73.7445 441.225 73.7445Q440.89688 73.7445 440.725 73.572624Q440.56876 73.385124 440.56876 73.1195ZM448.7875 70.041374Q448.7875 71.947624 448.13126 72.885124Q447.49063 73.807 446.1 73.807Q444.74063 73.807 444.08438 72.90075Q443.42813 71.9945 443.39688 70.182L443.39688 68.7445Q443.39688 66.853874 444.0375 65.947624Q444.69376 65.02575 446.08438 65.02575Q447.45938 65.02575 448.11563 65.916374Q448.77188 66.791374 448.7875 68.635124L448.7875 70.041374ZM447.69376 68.557Q447.69376 67.182 447.30313 66.557Q446.92813 65.916374 446.08438 65.916374Q445.25626 65.916374 444.86563 66.557Q444.49063 67.182 444.49063 68.478874L444.49063 70.21325Q444.49063 71.58825 444.88126 72.260124Q445.2875 72.916374 446.1 72.916374Q446.89688 72.916374 447.2875 72.291374Q447.67813 71.666374 447.69376 70.33825L447.69376 68.557ZM450.92813 69.40075L451.36563 65.15075L455.74063 65.15075L455.74063 66.15075L452.2875 66.15075L452.02188 68.478874Q452.6625 68.103874 453.45938 68.103874Q454.61563 68.103874 455.30313 68.885124Q455.99063 69.65075 455.99063 70.96325Q455.99063 72.27575 455.27188 73.041374Q454.56876 73.807 453.2875 73.807Q452.1625 73.807 451.44376 73.182Q450.725 72.541374 450.63126 71.432L451.64688 71.432Q451.75626 72.166374 452.17813 72.541374Q452.6 72.916374 453.2875 72.916374Q454.0375 72.916374 454.475 72.40075Q454.9125 71.885124 454.9125 70.978874Q454.9125 70.1195 454.44376 69.603874Q453.975 69.08825 453.19376 69.08825Q452.49063 69.08825 452.08438 69.385124L451.80313 69.6195L450.92813 69.40075ZM462.7875 70.041374Q462.7875 71.947624 462.13126 72.885124Q461.49063 73.807 460.1 73.807Q458.74063 73.807 458.08438 72.90075Q457.42813 71.9945 457.39688 70.182L457.39688 68.7445Q457.39688 66.853874 458.0375 65.947624Q458.69376 65.02575 460.08438 65.02575Q461.45938 65.02575 462.11563 65.916374Q462.77188 66.791374 462.7875 68.635124L462.7875 70.041374ZM461.69376 68.557Q461.69376 67.182 461.30313 66.557Q460.92813 65.916374 460.08438 65.916374Q459.25626 65.916374 458.86563 66.557Q458.49063 67.182 458.49063 68.478874L458.49063 70.21325Q458.49063 71.58825 458.88126 72.260124Q459.2875 72.916374 460.1 72.916374Q460.89688 72.916374 461.2875 72.291374Q461.67813 71.666374 461.69376 70.33825L461.69376 68.557Z" fill-rule="nonzero"/><path fill="#4285f4" d="M436.99063 73.682L435.9125 73.682L435.9125 66.46325L433.725 67.260124L433.725 66.27575L436.83438 65.103874L436.99063 65.103874L436.99063 73.682ZM440.56876 73.1195Q440.56876 72.83825 440.725 72.65075Q440.89688 72.46325 441.225 72.46325Q441.56876 72.46325 441.74063 72.65075Q441.9125 72.83825 441.9125 73.1195Q441.9125 73.385124 441.74063 73.572624Q441.56876 73.7445 441.225 73.7445Q440.89688 73.7445 440.725 73.572624Q440.56876 73.385124 440.56876 73.1195ZM448.7875 70.041374Q448.7875 71.947624 448.13126 72.885124Q447.49063 73.807 446.1 73.807Q444.74063 73.807 444.08438 72.90075Q443.42813 71.9945 443.39688 70.182L443.39688 68.7445Q443.39688 66.853874 444.0375 65.947624Q444.69376 65.02575 446.08438 65.02575Q447.45938 65.02575 448.11563 65.916374Q448.77188 66.791374 448.7875 68.635124L448.7875 70.041374ZM447.69376 68.557Q447.69376 67.182 447.30313 66.557Q446.92813 65.916374 446.08438 65.916374Q445.25626 65.916374 444.86563 66.557Q444.49063 67.182 444.49063 68.478874L444.49063 70.21325Q444.49063 71.58825 444.88126 72.260124Q445.2875 72.916374 446.1 72.916374Q446.89688 72.916374 447.2875 72.291374Q447.67813 71.666374 447.69376 70.33825L447.69376 68.557ZM450.92813 69.40075L451.36563 65.15075L455.74063 65.15075L455.74063 66.15075L452.2875 66.15075L452.02188 68.478874Q452.6625 68.103874 453.45938 68.103874Q454.61563 68.103874 455.30313 68.885124Q455.99063 69.65075 455.99063 70.96325Q455.99063 72.27575 455.27188 73.041374Q454.56876 73.807 453.2875 73.807Q452.1625 73.807 451.44376 73.182Q450.725 72.541374 450.63126 71.432L451.64688 71.432Q451.75626 72.166374 452.17813 72.541374Q452.6 72.916374 453.2875 72.916374Q454.0375 72.916374 454.475 72.40075Q454.9125 71.885124 454.9125 70.978874Q454.9125 70.1195 454.44376 69.603874Q453.975 69.08825 453.19376 69.08825Q452.49063 69.08825 452.08438 69.385124L451.80313 69.6195L450.92813 69.40075ZM462.7875 70.041374Q462.7875 71.947624 462.13126 72.885124Q461.49063 73.807 460.1 73.807Q458.74063 73.807 458.08438 72.90075Q457.42813 71.9945 457.39688 70.182L457.39688 68.7445Q457.39688 66.853874 458.0375 65.947624Q458.69376 65.02575 460.08438 65.02575Q461.45938 65.02575 462.11563 65.916374Q462.77188 66.791374 462.7875 68.635124L462.7875 70.041374ZM461.69376 68.557Q461.69376 67.182 461.30313 66.557Q460.92813 65.916374 460.08438 65.916374Q459.25626 65.916374 458.86563 66.557Q458.49063 67.182 458.49063 68.478874L458.49063 70.21325Q458.49063 71.58825 458.88126 72.260124Q459.2875 72.916374 460.1 72.916374Q460.89688 72.916374 461.2875 72.291374Q461.67813 71.666374 461.69376 70.33825L461.69376 68.557Z" fill-rule="nonzero"/><path stroke="#ffffff" stroke-width="3.0" stroke-linejoin="round" stroke-linecap="round" d="M179.1576 94.89616Q179.1576 96.80241 178.50134 97.73991Q177.86072 98.66178 176.4701 98.66178Q175.11072 98.66178 174.45447 97.75553Q173.79822 96.84928 173.76697 95.03678L173.76697 93.59928Q173.76697 91.70866 174.4076 90.80241Q175.06384 89.88053 176.45447 89.88053Q177.82947 89.88053 178.48572 90.77116Q179.14197 91.64616 179.1576 93.48991L179.1576 94.89616ZM178.06384 93.41178Q178.06384 92.03678 177.67322 91.41178Q177.29822 90.77116 176.45447 90.77116Q175.62634 90.77116 175.23572 91.41178Q174.86072 92.03678 174.86072 93.33366L174.86072 95.06803Q174.86072 96.44303 175.25134 97.11491Q175.6576 97.77116 176.4701 97.77116Q177.26697 97.77116 177.6576 97.14616Q178.04822 96.52116 178.06384 95.19303L178.06384 93.41178ZM180.93884 97.97428Q180.93884 97.69303 181.0951 97.50553Q181.26697 97.31803 181.5951 97.31803Q181.93884 97.31803 182.11072 97.50553Q182.2826 97.69303 182.2826 97.97428Q182.2826 98.23991 182.11072 98.42741Q181.93884 98.59928 181.5951 98.59928Q181.26697 98.59928 181.0951 98.42741Q180.93884 98.23991 180.93884 97.97428ZM187.95447 94.78678Q187.62634 95.19303 187.14197 95.44303Q186.67322 95.67741 186.11072 95.67741Q185.37634 95.67741 184.82947 95.31803Q184.2826 94.95866 183.98572 94.30241Q183.68884 93.63053 183.68884 92.83366Q183.68884 91.98991 184.00134 91.30241Q184.32947 90.61491 184.92322 90.25553Q185.5326 89.88053 186.32947 89.88053Q187.5951 89.88053 188.31384 90.83366Q189.04822 91.78678 189.04822 93.41178L189.04822 93.72428Q189.04822 96.22428 188.06384 97.36491Q187.07947 98.50553 185.0951 98.53678L184.87634 98.53678L184.87634 97.63053L185.11072 97.63053Q186.45447 97.59928 187.17322 96.92741Q187.89197 96.25553 187.95447 94.78678ZM186.2826 94.78678Q186.82947 94.78678 187.2826 94.45866Q187.75134 94.11491 187.9701 93.63053L187.9701 93.19303Q187.9701 92.13053 187.50134 91.45866Q187.0326 90.78678 186.32947 90.78678Q185.61072 90.78678 185.17322 91.33366Q184.75134 91.88053 184.75134 92.78678Q184.75134 93.66178 185.1576 94.22428Q185.57947 94.78678 186.2826 94.78678ZM195.98572 92.22428Q195.98572 92.86491 195.64197 93.36491Q195.29822 93.86491 194.73572 94.14616Q195.39197 94.42741 195.7826 94.98991Q196.17322 95.53678 196.17322 96.23991Q196.17322 97.33366 195.42322 98.00553Q194.68884 98.66178 193.4701 98.66178Q192.23572 98.66178 191.48572 98.00553Q190.75134 97.33366 190.75134 96.23991Q190.75134 95.53678 191.12634 94.98991Q191.50134 94.42741 192.17322 94.14616Q191.61072 93.86491 191.2826 93.36491Q190.95447 92.86491 190.95447 92.22428Q190.95447 91.14616 191.64197 90.52116Q192.32947 89.88053 193.4701 89.88053Q194.5951 89.88053 195.2826 90.52116Q195.98572 91.14616 195.98572 92.22428ZM195.0951 96.20866Q195.0951 95.48991 194.64197 95.05241Q194.18884 94.59928 193.45447 94.59928Q192.7201 94.59928 192.26697 95.05241Q191.82947 95.48991 191.82947 96.22428Q191.82947 96.94303 192.26697 97.36491Q192.70447 97.77116 193.4701 97.77116Q194.2201 97.77116 194.6576 97.34928Q195.0951 96.92741 195.0951 96.20866ZM193.4701 90.77116Q192.82947 90.77116 192.42322 91.17741Q192.0326 91.56803 192.0326 92.25553Q192.0326 92.89616 192.42322 93.30241Q192.81384 93.70866 193.45447 93.70866Q194.11072 93.70866 194.50134 93.30241Q194.89197 92.89616 194.89197 92.25553Q194.89197 91.59928 194.48572 91.19303Q194.07947 90.77116 193.4701 90.77116Z" fill-rule="nonzero"/><path fill="#ea4335" d="M179.1576 94.89616Q179.1576 96.80241 178.50134 97.73991Q177.86072 98.66178 176.4701 98.66178Q175.11072 98.66178 174.45447 97.75553Q173.79822 96.84928 173.76697 95.03678L173.76697 93.59928Q173.76697 91.70866 174.4076 90.80241Q175.06384 89.88053 176.45447 89.88053Q177.82947 89.88053 178.48572 90.77116Q179.14197 91.64616 179.1576 93.48991L179.1576 94.89616ZM178.06384 93.41178Q178.06384 92.03678 177.67322 91.41178Q177.29822 90.77116 176.45447 90.77116Q175.62634 90.77116 175.23572 91.41178Q174.86072 92.03678 174.86072 93.33366L174.86072 95.06803Q174.86072 96.44303 175.25134 97.11491Q175.6576 97.77116 176.4701 97.77116Q177.26697 97.77116 177.6576 97.14616Q178.04822 96.52116 178.06384 95.19303L178.06384 93.41178ZM180.93884 97.97428Q180.93884 97.69303 181.0951 97.50553Q181.26697 97.31803 181.5951 97.31803Q181.93884 97.31803 182.11072 97.50553Q182.2826 97.69303 182.2826 97.97428Q182.2826 98.23991 182.11072 98.42741Q181.93884 98.59928 181.5951 98.59928Q181.26697 98.59928 181.0951 98.42741Q180.93884 98.23991 180.93884 97.97428ZM187.95447 94.78678Q187.62634 95.19303 187.14197 95.44303Q186.67322 95.67741 186.11072 95.67741Q185.37634 95.67741 184.82947 95.31803Q184.2826 94.95866 183.98572 94.30241Q183.68884 93.63053 183.68884 92.83366Q183.68884 91.98991 184.00134 91.30241Q184.32947 90.61491 184.92322 90.25553Q185.5326 89.88053 186.32947 89.88053Q187.5951 89.88053 188.31384 90.83366Q189.04822 91.78678 189.04822 93.41178L189.04822 93.72428Q189.04822 96.22428 188.06384 97.36491Q187.07947 98.50553 185.0951 98.53678L184.87634 98.53678L184.87634 97.63053L185.11072 97.63053Q186.45447 97.59928 187.17322 96.92741Q187.89197 96.25553 187.95447 94.78678ZM186.2826 94.78678Q186.82947 94.78678 187.2826 94.45866Q187.75134 94.11491 187.9701 93.63053L187.9701 93.19303Q187.9701 92.13053 187.50134 91.45866Q187.0326 90.78678 186.32947 90.78678Q185.61072 90.78678 185.17322 91.33366Q184.75134 91.88053 184.75134 92.78678Q184.75134 93.66178 185.1576 94.22428Q185.57947 94.78678 186.2826 94.78678ZM195.98572 92.22428Q195.98572 92.86491 195.64197 93.36491Q195.29822 93.86491 194.73572 94.14616Q195.39197 94.42741 195.7826 94.98991Q196.17322 95.53678 196.17322 96.23991Q196.17322 97.33366 195.42322 98.00553Q194.68884 98.66178 193.4701 98.66178Q192.23572 98.66178 191.48572 98.00553Q190.75134 97.33366 190.75134 96.23991Q190.75134 95.53678 191.12634 94.98991Q191.50134 94.42741 192.17322 94.14616Q191.61072 93.86491 191.2826 93.36491Q190.95447 92.86491 190.95447 92.22428Q190.95447 91.14616 191.64197 90.52116Q192.32947 89.88053 193.4701 89.88053Q194.5951 89.88053 195.2826 90.52116Q195.98572 91.14616 195.98572 92.22428ZM195.0951 96.20866Q195.0951 95.48991 194.64197 95.05241Q194.18884 94.59928 193.45447 94.59928Q192.7201 94.59928 192.26697 95.05241Q191.82947 95.48991 191.82947 96.22428Q191.82947 96.94303 192.26697 97.36491Q192.70447 97.77116 193.4701 97.77116Q194.2201 97.77116 194.6576 97.34928Q195.0951 96.92741 195.0951 96.20866ZM193.4701 90.77116Q192.82947 90.77116 192.42322 91.17741Q192.0326 91.56803 192.0326 92.25553Q192.0326 92.89616 192.42322 93.30241Q192.81384 93.70866 193.45447 93.70866Q194.11072 93.70866 194.50134 93.30241Q194.89197 92.89616 194.89197 92.25553Q194.89197 91.59928 194.48572 91.19303Q194.07947 90.77116 193.4701 90.77116Z" fill-rule="nonzero"/><path stroke="#ffffff" stroke-width="3.0" stroke-linejoin="round" stroke-linecap="round" d="M442.2875 95.88884Q442.2875 97.79509 441.63126 98.73259Q440.99063 99.654465 439.6 99.654465Q438.24063 99.654465 437.58438 98.748215Q436.92813 97.841965 436.89688 96.029465L436.89688 94.591965Q436.89688 92.70134 437.5375 91.79509Q438.19376 90.873215 439.58438 90.873215Q440.95938 90.873215 441.61563 91.76384Q442.27188 92.63884 442.2875 94.48259L442.2875 95.88884ZM441.19376 94.404465Q441.19376 93.029465 440.80313 92.404465Q440.42813 91.76384 439.58438 91.76384Q438.75626 91.76384 438.36563 92.404465Q437.99063 93.029465 437.99063 94.32634L437.99063 96.060715Q437.99063 97.435715 438.38126 98.10759Q438.7875 98.76384 439.6 98.76384Q440.39688 98.76384 440.7875 98.13884Q441.17813 97.51384 441.19376 96.185715L441.19376 94.404465ZM444.06876 98.966965Q444.06876 98.685715 444.225 98.498215Q444.39688 98.310715 444.725 98.310715Q445.06876 98.310715 445.24063 98.498215Q445.4125 98.685715 445.4125 98.966965Q445.4125 99.23259 445.24063 99.42009Q445.06876 99.591965 444.725 99.591965Q444.39688 99.591965 444.225 99.42009Q444.06876 99.23259 444.06876 98.966965ZM451.08438 95.779465Q450.75626 96.185715 450.27188 96.435715Q449.80313 96.67009 449.24063 96.67009Q448.50626 96.67009 447.95938 96.310715Q447.4125 95.95134 447.11563 95.29509Q446.81876 94.623215 446.81876 93.82634Q446.81876 92.98259 447.13126 92.29509Q447.45938 91.60759 448.05313 91.248215Q448.6625 90.873215 449.45938 90.873215Q450.725 90.873215 451.44376 91.82634Q452.17813 92.779465 452.17813 94.404465L452.17813 94.716965Q452.17813 97.216965 451.19376 98.35759Q450.20938 99.498215 448.225 99.529465L448.00626 99.529465L448.00626 98.623215L448.24063 98.623215Q449.58438 98.591965 450.30313 97.92009Q451.02188 97.248215 451.08438 95.779465ZM449.4125 95.779465Q449.95938 95.779465 450.4125 95.45134Q450.88126 95.10759 451.1 94.623215L451.1 94.185715Q451.1 93.123215 450.63126 92.45134Q450.1625 91.779465 449.45938 91.779465Q448.74063 91.779465 448.30313 92.32634Q447.88126 92.873215 447.88126 93.779465Q447.88126 94.654465 448.2875 95.216965Q448.70938 95.779465 449.4125 95.779465ZM459.52188 99.529465L453.92813 99.529465L453.92813 98.748215L456.88126 95.466965Q457.5375 94.716965 457.7875 94.26384Q458.0375 93.79509 458.0375 93.29509Q458.0375 92.623215 457.63126 92.20134Q457.24063 91.76384 456.55313 91.76384Q455.75626 91.76384 455.30313 92.23259Q454.85 92.685715 454.85 93.51384L453.77188 93.51384Q453.77188 92.32634 454.52188 91.60759Q455.2875 90.873215 456.55313 90.873215Q457.75626 90.873215 458.44376 91.498215Q459.13126 92.123215 459.13126 93.17009Q459.13126 94.42009 457.52188 96.17009L455.24063 98.63884L459.52188 98.63884L459.52188 99.529465Z" fill-rule="nonzero"/><path fill="#ea4335" d="M442.2875 95.88884Q442.2875 97.79509 441.63126 98.73259Q440.99063 99.654465 439.6 99.654465Q438.24063 99.654465 437.58438 98.748215Q436.92813 97.841965 436.89688 96.029465L436.89688 94.591965Q436.89688 92.70134 437.5375 91.79509Q438.19376 90.873215 439.58438 90.873215Q440.95938 90.873215 441.61563 91.76384Q442.27188 92.63884 442.2875 94.48259L442.2875 95.88884ZM441.19376 94.404465Q441.19376 93.029465 440.80313 92.404465Q440.42813 91.76384 439.58438 91.76384Q438.75626 91.76384 438.36563 92.404465Q437.99063 93.029465 437.99063 94.32634L437.99063 96.060715Q437.99063 97.435715 438.38126 98.10759Q438.7875 98.76384 439.6 98.76384Q440.39688 98.76384 440.7875 98.13884Q441.17813 97.51384 441.19376 96.185715L441.19376 94.404465ZM444.06876 98.966965Q444.06876 98.685715 444.225 98.498215Q444.39688 98.310715 444.725 98.310715Q445.06876 98.310715 445.24063 98.498215Q445.4125 98.685715 445.4125 98.966965Q445.4125 99.23259 445.24063 99.42009Q445.06876 99.591965 444.725 99.591965Q444.39688 99.591965 444.225 99.42009Q444.06876 99.23259 444.06876 98.966965ZM451.08438 95.779465Q450.75626 96.185715 450.27188 96.435715Q449.80313 96.67009 449.24063 96.67009Q448.50626 96.67009 447.95938 96.310715Q447.4125 95.95134 447.11563 95.29509Q446.81876 94.623215 446.81876 93.82634Q446.81876 92.98259 447.13126 92.29509Q447.45938 91.60759 448.05313 91.248215Q448.6625 90.873215 449.45938 90.873215Q450.725 90.873215 451.44376 91.82634Q452.17813 92.779465 452.17813 94.404465L452.17813 94.716965Q452.17813 97.216965 451.19376 98.35759Q450.20938 99.498215 448.225 99.529465L448.00626 99.529465L448.00626 98.623215L448.24063 98.623215Q449.58438 98.591965 450.30313 97.92009Q451.02188 97.248215 451.08438 95.779465ZM449.4125 95.779465Q449.95938 95.779465 450.4125 95.45134Q450.88126 95.10759 451.1 94.623215L451.1 94.185715Q451.1 93.123215 450.63126 92.45134Q450.1625 91.779465 449.45938 91.779465Q448.74063 91.779465 448.30313 92.32634Q447.88126 92.873215 447.88126 93.779465Q447.88126 94.654465 448.2875 95.216965Q448.70938 95.779465 449.4125 95.779465ZM459.52188 99.529465L453.92813 99.529465L453.92813 98.748215L456.88126 95.466965Q457.5375 94.716965 457.7875 94.26384Q458.0375 93.79509 458.0375 93.29509Q458.0375 92.623215 457.63126 92.20134Q457.24063 91.76384 456.55313 91.76384Q455.75626 91.76384 455.30313 92.23259Q454.85 92.685715 454.85 93.51384L453.77188 93.51384Q453.77188 92.32634 454.52188 91.60759Q455.2875 90.873215 456.55313 90.873215Q457.75626 90.873215 458.44376 91.498215Q459.13126 92.123215 459.13126 93.17009Q459.13126 94.42009 457.52188 96.17009L455.24063 98.63884L459.52188 98.63884L459.52188 99.529465Z" fill-rule="nonzero"/><path fill="#000000" d="M265.42188 349.45L265.42188 340.85626L268.67188 340.85626Q269.51562 340.85626 269.96875 340.9344Q270.60938 341.04376 271.03125 341.34064Q271.46875 341.6375 271.71875 342.16876Q271.98438 342.7 271.98438 343.34064Q271.98438 344.4344 271.28125 345.2Q270.59375 345.95 268.76562 345.95L266.5625 345.95L266.5625 349.45L265.42188 349.45ZM266.5625 344.95L268.78125 344.95Q269.89062 344.95 270.34375 344.54376Q270.8125 344.1219 270.8125 343.3719Q270.8125 342.84064 270.53125 342.46564Q270.26562 342.075 269.82812 341.95Q269.53125 341.8719 268.76562 341.8719L266.5625 341.8719L266.5625 344.95ZM277.375 349.45L277.375 348.52814Q276.64062 349.59064 275.39062 349.59064Q274.84375 349.59064 274.35938 349.3875Q273.89062 349.16876 273.65625 348.85626Q273.42188 348.52814 273.32812 348.0594Q273.26562 347.7625 273.26562 347.075L273.26562 343.23126L274.32812 343.23126L274.32812 346.6844Q274.32812 347.4969 274.39062 347.79376Q274.48438 348.2 274.79688 348.45Q275.125 348.6844 275.60938 348.6844Q276.07812 348.6844 276.48438 348.45Q276.90625 348.2 277.07812 347.77814Q277.26562 347.35626 277.26562 346.5594L277.26562 343.23126L278.3125 343.23126L278.3125 349.45L277.375 349.45ZM280.29688 349.45L280.29688 343.23126L281.23438 343.23126L281.23438 344.10626Q281.92188 343.09064 283.21875 343.09064Q283.78125 343.09064 284.25 343.29376Q284.73438 343.4969 284.96875 343.825Q285.20312 344.15314 285.29688 344.59064Q285.34375 344.8875 285.34375 345.6219L285.34375 349.45L284.29688 349.45L284.29688 345.66876Q284.29688 345.0125 284.17188 344.7Q284.04688 344.3875 283.73438 344.2Q283.42188 343.9969 283.0 343.9969Q282.32812 343.9969 281.82812 344.4344Q281.34375 344.85626 281.34375 346.04376L281.34375 349.45L280.29688 349.45ZM289.59375 348.5125L289.75 349.4344Q289.29688 349.52814 288.95312 349.52814Q288.375 349.52814 288.0625 349.35626Q287.75 349.16876 287.60938 348.8719Q287.48438 348.575 287.48438 347.6219L287.48438 344.04376L286.71875 344.04376L286.71875 343.23126L287.48438 343.23126L287.48438 341.6844L288.53125 341.0594L288.53125 343.23126L289.59375 343.23126L289.59375 344.04376L288.53125 344.04376L288.53125 347.6844Q288.53125 348.1375 288.57812 348.2625Q288.64062 348.3875 288.76562 348.46564Q288.89062 348.54376 289.125 348.54376Q289.3125 348.54376 289.59375 348.5125ZM289.90625 346.34064Q289.90625 344.60626 290.85938 343.77814Q291.65625 343.09064 292.8125 343.09064Q294.09375 343.09064 294.90625 343.9344Q295.73438 344.7625 295.73438 346.2469Q295.73438 347.45 295.375 348.1375Q295.01562 348.825 294.3125 349.21564Q293.625 349.59064 292.8125 349.59064Q291.51562 349.59064 290.70312 348.7625Q289.90625 347.91876 289.90625 346.34064ZM290.98438 346.34064Q290.98438 347.52814 291.5 348.1219Q292.03125 348.71564 292.8125 348.71564Q293.60938 348.71564 294.125 348.1219Q294.64062 347.52814 294.64062 346.3094Q294.64062 345.15314 294.10938 344.5594Q293.59375 343.96564 292.8125 343.96564Q292.03125 343.96564 291.5 344.5594Q290.98438 345.1375 290.98438 346.34064ZM304.32812 349.45L304.32812 348.66876Q303.73438 349.59064 302.59375 349.59064Q301.84375 349.59064 301.21875 349.1844Q300.59375 348.7625 300.25 348.02814Q299.90625 347.29376 299.90625 346.34064Q299.90625 345.41876 300.21875 344.65314Q300.53125 343.8875 301.15625 343.4969Q301.78125 343.09064 302.54688 343.09064Q303.10938 343.09064 303.54688 343.325Q303.98438 343.5594 304.26562 343.9344L304.26562 340.85626L305.3125 340.85626L305.3125 349.45L304.32812 349.45ZM301.0 346.34064Q301.0 347.54376 301.5 348.1375Q302.0 348.71564 302.6875 348.71564Q303.375 348.71564 303.85938 348.15314Q304.34375 347.59064 304.34375 346.4344Q304.34375 345.15314 303.84375 344.5594Q303.35938 343.96564 302.64062 343.96564Q301.9375 343.96564 301.46875 344.54376Q301.0 345.10626 301.0 346.34064ZM311.54688 347.45L312.64062 347.575Q312.39062 348.52814 311.6875 349.0594Q310.98438 349.59064 309.90625 349.59064Q308.54688 349.59064 307.73438 348.7469Q306.9375 347.90314 306.9375 346.3875Q306.9375 344.825 307.75 343.96564Q308.5625 343.09064 309.84375 343.09064Q311.09375 343.09064 311.875 343.9344Q312.67188 344.77814 312.67188 346.325Q312.67188 346.41876 312.67188 346.60626L308.03125 346.60626Q308.09375 347.6375 308.60938 348.1844Q309.125 348.71564 309.90625 348.71564Q310.48438 348.71564 310.89062 348.41876Q311.3125 348.10626 311.54688 347.45ZM308.09375 345.7469L311.5625 345.7469Q311.5 344.95 311.17188 344.5594Q310.65625 343.95 309.85938 343.95Q309.125 343.95 308.625 344.4344Q308.14062 344.91876 308.09375 345.7469ZM314.26562 349.45L314.26562 340.85626L315.32812 340.85626L315.32812 349.45L314.26562 349.45ZM320.29688 351.84064L320.29688 343.23126L321.25 343.23126L321.25 344.02814Q321.59375 343.5594 322.01562 343.325Q322.45312 343.09064 323.0625 343.09064Q323.85938 343.09064 324.46875 343.4969Q325.07812 343.90314 325.375 344.65314Q325.6875 345.40314 325.6875 346.29376Q325.6875 347.2469 325.34375 348.0125Q325.01562 348.77814 324.35938 349.1844Q323.70312 349.59064 322.98438 349.59064Q322.45312 349.59064 322.03125 349.3719Q321.60938 349.1375 321.34375 348.8094L321.34375 351.84064L320.29688 351.84064ZM321.25 346.3719Q321.25 347.575 321.73438 348.15314Q322.21875 348.71564 322.90625 348.71564Q323.60938 348.71564 324.10938 348.1219Q324.60938 347.52814 324.60938 346.27814Q324.60938 345.09064 324.125 344.5125Q323.64062 343.91876 322.95312 343.91876Q322.28125 343.91876 321.76562 344.54376Q321.25 345.16876 321.25 346.3719ZM327.28125 349.45L327.28125 343.23126L328.23438 343.23126L328.23438 344.16876Q328.59375 343.5125 328.89062 343.3094Q329.20312 343.09064 329.57812 343.09064Q330.10938 343.09064 330.65625 343.41876L330.29688 344.40314Q329.90625 344.16876 329.53125 344.16876Q329.17188 344.16876 328.89062 344.3875Q328.625 344.59064 328.51562 344.96564Q328.32812 345.52814 328.32812 346.1844L328.32812 349.45L327.28125 349.45ZM330.90625 346.34064Q330.90625 344.60626 331.85938 343.77814Q332.65625 343.09064 333.8125 343.09064Q335.09375 343.09064 335.90625 343.9344Q336.73438 344.7625 336.73438 346.2469Q336.73438 347.45 336.375 348.1375Q336.01562 348.825 335.3125 349.21564Q334.625 349.59064 333.8125 349.59064Q332.51562 349.59064 331.70312 348.7625Q330.90625 347.91876 330.90625 346.34064ZM331.98438 346.34064Q331.98438 347.52814 332.5 348.1219Q333.03125 348.71564 333.8125 348.71564Q334.60938 348.71564 335.125 348.1219Q335.64062 347.52814 335.64062 346.3094Q335.64062 345.15314 335.10938 344.5594Q334.59375 343.96564 333.8125 343.96564Q333.03125 343.96564 332.5 344.5594Q331.98438 345.1375 331.98438 346.34064ZM338.25 351.84064L338.125 350.85626Q338.46875 350.95 338.73438 350.95Q339.07812 350.95 339.28125 350.825Q339.5 350.71564 339.64062 350.5125Q339.73438 350.34064 339.96875 349.71564Q339.98438 349.6375 340.0625 349.46564L337.6875 343.23126L338.82812 343.23126L340.125 346.825Q340.375 347.5125 340.57812 348.27814Q340.76562 347.54376 341.01562 346.85626L342.34375 343.23126L343.39062 343.23126L341.03125 349.5594Q340.64062 350.575 340.4375 350.96564Q340.15625 351.4969 339.78125 351.73126Q339.42188 351.98126 338.92188 351.98126Q338.625 351.98126 338.25 351.84064ZM347.54688 347.45L348.64062 347.575Q348.39062 348.52814 347.6875 349.0594Q346.98438 349.59064 345.90625 349.59064Q344.54688 349.59064 343.73438 348.7469Q342.9375 347.90314 342.9375 346.3875Q342.9375 344.825 343.75 343.96564Q344.5625 343.09064 345.84375 343.09064Q347.09375 343.09064 347.875 343.9344Q348.67188 344.77814 348.67188 346.325Q348.67188 346.41876 348.67188 346.60626L344.03125 346.60626Q344.09375 347.6375 344.60938 348.1844Q345.125 348.71564 345.90625 348.71564Q346.48438 348.71564 346.89062 348.41876Q347.3125 348.10626 347.54688 347.45ZM344.09375 345.7469L347.5625 345.7469Q347.5 344.95 347.17188 344.5594Q346.65625 343.95 345.85938 343.95Q345.125 343.95 344.625 344.4344Q344.14062 344.91876 344.09375 345.7469ZM354.35938 347.16876L355.39062 347.3094Q355.21875 348.3719 354.51562 348.98126Q353.8125 349.59064 352.79688 349.59064Q351.51562 349.59064 350.73438 348.7625Q349.96875 347.91876 349.96875 346.35626Q349.96875 345.35626 350.29688 344.60626Q350.64062 343.84064 351.3125 343.46564Q352.0 343.09064 352.8125 343.09064Q353.8125 343.09064 354.45312 343.60626Q355.10938 344.10626 355.29688 345.0594L354.26562 345.21564Q354.125 344.59064 353.75 344.27814Q353.375 343.95 352.84375 343.95Q352.04688 343.95 351.54688 344.52814Q351.04688 345.09064 351.04688 346.325Q351.04688 347.59064 351.53125 348.15314Q352.01562 348.71564 352.78125 348.71564Q353.40625 348.71564 353.8125 348.34064Q354.23438 347.96564 354.35938 347.16876ZM358.59375 348.5125L358.75 349.4344Q358.29688 349.52814 357.95312 349.52814Q357.375 349.52814 357.0625 349.35626Q356.75 349.16876 356.60938 348.8719Q356.48438 348.575 356.48438 347.6219L356.48438 344.04376L355.71875 344.04376L355.71875 343.23126L356.48438 343.23126L356.48438 341.6844L357.53125 341.0594L357.53125 343.23126L358.59375 343.23126L358.59375 344.04376L357.53125 344.04376L357.53125 347.6844Q357.53125 348.1375 357.57812 348.2625Q357.64062 348.3875 357.76562 348.46564Q357.89062 348.54376 358.125 348.54376Q358.3125 348.54376 358.59375 348.5125ZM358.90625 346.34064Q358.90625 344.60626 359.85938 343.77814Q360.65625 343.09064 361.8125 343.09064Q363.09375 343.09064 363.90625 343.9344Q364.73438 344.7625 364.73438 346.2469Q364.73438 347.45 364.375 348.1375Q364.01562 348.825 363.3125 349.21564Q362.625 349.59064 361.8125 349.59064Q360.51562 349.59064 359.70312 348.7625Q358.90625 347.91876 358.90625 346.34064ZM359.98438 346.34064Q359.98438 347.52814 360.5 348.1219Q361.03125 348.71564 361.8125 348.71564Q362.60938 348.71564 363.125 348.1219Q363.64062 347.52814 363.64062 346.3094Q363.64062 345.15314 363.10938 344.5594Q362.59375 343.96564 361.8125 343.96564Q361.03125 343.96564 360.5 344.5594Q359.98438 345.1375 359.98438 346.34064Z" fill-rule="nonzero"/><path fill="#000000" d="M19.05 300.21564Q19.05 298.6844 19.3625 297.7625Q19.675 296.825 20.284374 296.325Q20.909374 295.825 21.846874 295.825Q22.534374 295.825 23.05 296.10626Q23.58125 296.3875 23.925 296.91876Q24.26875 297.4344 24.45625 298.1844Q24.64375 298.9344 24.64375 300.21564Q24.64375 301.73126 24.33125 302.65314Q24.034374 303.575 23.409374 304.09064Q22.8 304.59064 21.846874 304.59064Q20.6125 304.59064 19.89375 303.7Q19.05 302.6375 19.05 300.21564ZM20.128124 300.21564Q20.128124 302.325 20.628124 303.02814Q21.128124 303.73126 21.846874 303.73126Q22.58125 303.73126 23.065624 303.02814Q23.565624 302.325 23.565624 300.21564Q23.565624 298.09064 23.065624 297.40314Q22.58125 296.7 21.83125 296.7Q21.1125 296.7 20.675 297.3094Q20.128124 298.09064 20.128124 300.21564ZM26.64375 304.45L26.64375 303.2469L27.846874 303.2469L27.846874 304.45L26.64375 304.45ZM29.05 300.21564Q29.05 298.6844 29.3625 297.7625Q29.675 296.825 30.284374 296.325Q30.909374 295.825 31.846874 295.825Q32.534374 295.825 33.05 296.10626Q33.58125 296.3875 33.925 296.91876Q34.26875 297.4344 34.45625 298.1844Q34.64375 298.9344 34.64375 300.21564Q34.64375 301.73126 34.33125 302.65314Q34.034374 303.575 33.409374 304.09064Q32.8 304.59064 31.846874 304.59064Q30.6125 304.59064 29.89375 303.7Q29.05 302.6375 29.05 300.21564ZM30.128124 300.21564Q30.128124 302.325 30.628124 303.02814Q31.128124 303.73126 31.846874 303.73126Q32.58125 303.73126 33.065624 303.02814Q33.565624 302.325 33.565624 300.21564Q33.565624 298.09064 33.065624 297.40314Q32.58125 296.7 31.83125 296.7Q31.1125 296.7 30.675 297.3094Q30.128124 298.09064 30.128124 300.21564ZM36.05 300.21564Q36.05 298.6844 36.3625 297.7625Q36.675 296.825 37.284374 296.325Q37.909374 295.825 38.846874 295.825Q39.534374 295.825 40.05 296.10626Q40.58125 296.3875 40.925 296.91876Q41.26875 297.4344 41.45625 298.1844Q41.64375 298.9344 41.64375 300.21564Q41.64375 301.73126 41.33125 302.65314Q41.034374 303.575 40.409374 304.09064Q39.8 304.59064 38.846874 304.59064Q37.6125 304.59064 36.89375 303.7Q36.05 302.6375 36.05 300.21564ZM37.128124 300.21564Q37.128124 302.325 37.628124 303.02814Q38.128124 303.73126 38.846874 303.73126Q39.58125 303.73126 40.065624 303.02814Q40.565624 302.325 40.565624 300.21564Q40.565624 298.09064 40.065624 297.40314Q39.58125 296.7 38.83125 296.7Q38.1125 296.7 37.675 297.3094Q37.128124 298.09064 37.128124 300.21564Z" fill-rule="nonzero"/><path fill="#000000" d="M19.05 250.50896Q19.05 248.9777 19.3625 248.05583Q19.675 247.11833 20.284374 246.61833Q20.909374 246.11833 21.846874 246.11833Q22.534374 246.11833 23.05 246.39958Q23.58125 246.68083 23.925 247.21208Q24.26875 247.7277 24.45625 248.4777Q24.64375 249.2277 24.64375 250.50896Q24.64375 252.02458 24.33125 252.94646Q24.034374 253.86833 23.409374 254.38396Q22.8 254.88396 21.846874 254.88396Q20.6125 254.88396 19.89375 253.99333Q19.05 252.93083 19.05 250.50896ZM20.128124 250.50896Q20.128124 252.61833 20.628124 253.32146Q21.128124 254.02458 21.846874 254.02458Q22.58125 254.02458 23.065624 253.32146Q23.565624 252.61833 23.565624 250.50896Q23.565624 248.38396 23.065624 247.69646Q22.58125 246.99333 21.83125 246.99333Q21.1125 246.99333 20.675 247.6027Q20.128124 248.38396 20.128124 250.50896ZM26.64375 254.74333L26.64375 253.5402L27.846874 253.5402L27.846874 254.74333L26.64375 254.74333ZM34.596874 253.7277L34.596874 254.74333L28.909374 254.74333Q28.909374 254.36833 29.034374 254.00896Q29.253124 253.43083 29.721874 252.86833Q30.20625 252.30583 31.1125 251.57146Q32.51875 250.4152 33.003124 249.74333Q33.503124 249.07146 33.503124 248.4777Q33.503124 247.8527 33.05 247.43083Q32.596874 246.99333 31.878124 246.99333Q31.1125 246.99333 30.659374 247.44646Q30.20625 247.89958 30.190624 248.71208L29.1125 248.6027Q29.221874 247.38396 29.940624 246.75896Q30.675 246.11833 31.909374 246.11833Q33.14375 246.11833 33.8625 246.80583Q34.58125 247.49333 34.58125 248.50896Q34.58125 249.02458 34.3625 249.52458Q34.159374 250.00896 33.659374 250.57146Q33.175 251.11833 32.05 252.07146Q31.096874 252.86833 30.815624 253.1652Q30.55 253.44646 30.378124 253.7277L34.596874 253.7277ZM36.05 252.49333L37.159374 252.39958Q37.284374 253.21208 37.721874 253.61833Q38.175 254.02458 38.815624 254.02458Q39.565624 254.02458 40.096874 253.44646Q40.628124 252.86833 40.628124 251.93083Q40.628124 251.02458 40.1125 250.50896Q39.6125 249.9777 38.784374 249.9777Q38.284374 249.9777 37.8625 250.21208Q37.45625 250.44646 37.221874 250.80583L36.2375 250.68083L37.065624 246.27458L41.346874 246.27458L41.346874 247.27458L37.909374 247.27458L37.45625 249.58708Q38.221874 249.0402 39.065624 249.0402Q40.190624 249.0402 40.95625 249.82146Q41.7375 250.6027 41.7375 251.83708Q41.7375 252.99333 41.065624 253.8527Q40.2375 254.88396 38.815624 254.88396Q37.64375 254.88396 36.89375 254.2277Q36.159374 253.57146 36.05 252.49333Z" fill-rule="nonzero"/><path fill="#000000" d="M19.05 200.80229Q19.05 199.27104 19.3625 198.34917Q19.675 197.41167 20.284374 196.91167Q20.909374 196.41167 21.846874 196.41167Q22.534374 196.41167 23.05 196.69292Q23.58125 196.97417 23.925 197.50542Q24.26875 198.02104 24.45625 198.77104Q24.64375 199.52104 24.64375 200.80229Q24.64375 202.31792 24.33125 203.23979Q24.034374 204.16167 23.409374 204.67729Q22.8 205.17729 21.846874 205.17729Q20.6125 205.17729 19.89375 204.28667Q19.05 203.22417 19.05 200.80229ZM20.128124 200.80229Q20.128124 202.91167 20.628124 203.61479Q21.128124 204.31792 21.846874 204.31792Q22.58125 204.31792 23.065624 203.61479Q23.565624 202.91167 23.565624 200.80229Q23.565624 198.67729 23.065624 197.98979Q22.58125 197.28667 21.83125 197.28667Q21.1125 197.28667 20.675 197.89604Q20.128124 198.67729 20.128124 200.80229ZM26.64375 205.03667L26.64375 203.83354L27.846874 203.83354L27.846874 205.03667L26.64375 205.03667ZM29.05 202.78667L30.159374 202.69292Q30.284374 203.50542 30.721874 203.91167Q31.175 204.31792 31.815624 204.31792Q32.565624 204.31792 33.096874 203.73979Q33.628124 203.16167 33.628124 202.22417Q33.628124 201.31792 33.1125 200.80229Q32.6125 200.27104 31.784374 200.27104Q31.284374 200.27104 30.8625 200.50542Q30.45625 200.73979 30.221874 201.09917L29.2375 200.97417L30.065624 196.56792L34.346874 196.56792L34.346874 197.56792L30.909374 197.56792L30.45625 199.88042Q31.221874 199.33354 32.065624 199.33354Q33.190624 199.33354 33.95625 200.11479Q34.7375 200.89604 34.7375 202.13042Q34.7375 203.28667 34.065624 204.14604Q33.2375 205.17729 31.815624 205.17729Q30.64375 205.17729 29.89375 204.52104Q29.159374 203.86479 29.05 202.78667ZM36.05 200.80229Q36.05 199.27104 36.3625 198.34917Q36.675 197.41167 37.284374 196.91167Q37.909374 196.41167 38.846874 196.41167Q39.534374 196.41167 40.05 196.69292Q40.58125 196.97417 40.925 197.50542Q41.26875 198.02104 41.45625 198.77104Q41.64375 199.52104 41.64375 200.80229Q41.64375 202.31792 41.33125 203.23979Q41.034374 204.16167 40.409374 204.67729Q39.8 205.17729 38.846874 205.17729Q37.6125 205.17729 36.89375 204.28667Q36.05 203.22417 36.05 200.80229ZM37.128124 200.80229Q37.128124 202.91167 37.628124 203.61479Q38.128124 204.31792 38.846874 204.31792Q39.58125 204.31792 40.065624 203.61479Q40.565624 202.91167 40.565624 200.80229Q40.565624 198.67729 40.065624 197.98979Q39.58125 197.28667 38.83125 197.28667Q38.1125 197.28667 37.675 197.89604Q37.128124 198.67729 37.128124 200.80229Z" fill-rule="nonzero"/><path fill="#000000" d="M19.05 151.09563Q19.05 149.56438 19.3625 148.6425Q19.675 147.705 20.284374 147.205Q20.909374 146.705 21.846874 146.705Q22.534374 146.705 23.05 146.98625Q23.58125 147.2675 23.925 147.79875Q24.26875 148.31438 24.45625 149.06438Q24.64375 149.81438 24.64375 151.09563Q24.64375 152.61125 24.33125 153.53313Q24.034374 154.455 23.409374 154.97063Q22.8 155.47063 21.846874 155.47063Q20.6125 155.47063 19.89375 154.58Q19.05 153.5175 19.05 151.09563ZM20.128124 151.09563Q20.128124 153.205 20.628124 153.90813Q21.128124 154.61125 21.846874 154.61125Q22.58125 154.61125 23.065624 153.90813Q23.565624 153.205 23.565624 151.09563Q23.565624 148.97063 23.065624 148.28313Q22.58125 147.58 21.83125 147.58Q21.1125 147.58 20.675 148.18938Q20.128124 148.97063 20.128124 151.09563ZM26.64375 155.33L26.64375 154.12688L27.846874 154.12688L27.846874 155.33L26.64375 155.33ZM29.1125 147.86125L29.1125 146.84563L34.675 146.84563L34.675 147.67375Q33.8625 148.54875 33.05 150.00188Q32.253124 151.43938 31.815624 152.97063Q31.4875 154.04875 31.409374 155.33L30.315624 155.33Q30.33125 154.31438 30.70625 152.87688Q31.096874 151.43938 31.8 150.11125Q32.51875 148.78313 33.33125 147.86125L29.1125 147.86125ZM36.05 153.08L37.159374 152.98625Q37.284374 153.79875 37.721874 154.205Q38.175 154.61125 38.815624 154.61125Q39.565624 154.61125 40.096874 154.03313Q40.628124 153.455 40.628124 152.5175Q40.628124 151.61125 40.1125 151.09563Q39.6125 150.56438 38.784374 150.56438Q38.284374 150.56438 37.8625 150.79875Q37.45625 151.03313 37.221874 151.3925L36.2375 151.2675L37.065624 146.86125L41.346874 146.86125L41.346874 147.86125L37.909374 147.86125L37.45625 150.17375Q38.221874 149.62688 39.065624 149.62688Q40.190624 149.62688 40.95625 150.40813Q41.7375 151.18938 41.7375 152.42375Q41.7375 153.58 41.065624 154.43938Q40.2375 155.47063 38.815624 155.47063Q37.64375 155.47063 36.89375 154.81438Q36.159374 154.15813 36.05 153.08Z" fill-rule="nonzero"/><path fill="#000000" d="M23.01875 105.62334L21.971874 105.62334L21.971874 98.90459Q21.58125 99.26396 20.95625 99.63896Q20.346874 99.99834 19.8625 100.17021L19.8625 99.15459Q20.7375 98.73271 21.39375 98.15459Q22.065624 97.56084 22.346874 96.99834L23.01875 96.99834L23.01875 105.62334ZM26.64375 105.62334L26.64375 104.42021L27.846874 104.42021L27.846874 105.62334L26.64375 105.62334ZM29.05 101.38896Q29.05 99.85771 29.3625 98.93584Q29.675 97.99834 30.284374 97.49834Q30.909374 96.99834 31.846874 96.99834Q32.534374 96.99834 33.05 97.27959Q33.58125 97.56084 33.925 98.09209Q34.26875 98.60771 34.45625 99.35771Q34.64375 100.10771 34.64375 101.38896Q34.64375 102.90459 34.33125 103.82646Q34.034374 104.74834 33.409374 105.26396Q32.8 105.76396 31.846874 105.76396Q30.6125 105.76396 29.89375 104.87334Q29.05 103.81084 29.05 101.38896ZM30.128124 101.38896Q30.128124 103.49834 30.628124 104.20146Q31.128124 104.90459 31.846874 104.90459Q32.58125 104.90459 33.065624 104.20146Q33.565624 103.49834 33.565624 101.38896Q33.565624 99.26396 33.065624 98.57646Q32.58125 97.87334 31.83125 97.87334Q31.1125 97.87334 30.675 98.48271Q30.128124 99.26396 30.128124 101.38896ZM36.05 101.38896Q36.05 99.85771 36.3625 98.93584Q36.675 97.99834 37.284374 97.49834Q37.909374 96.99834 38.846874 96.99834Q39.534374 96.99834 40.05 97.27959Q40.58125 97.56084 40.925 98.09209Q41.26875 98.60771 41.45625 99.35771Q41.64375 100.10771 41.64375 101.38896Q41.64375 102.90459 41.33125 103.82646Q41.034374 104.74834 40.409374 105.26396Q39.8 105.76396 38.846874 105.76396Q37.6125 105.76396 36.89375 104.87334Q36.05 103.81084 36.05 101.38896ZM37.128124 101.38896Q37.128124 103.49834 37.628124 104.20146Q38.128124 104.90459 38.846874 104.90459Q39.58125 104.90459 40.065624 104.20146Q40.565624 103.49834 40.565624 101.38896Q40.565624 99.26396 40.065624 98.57646Q39.58125 97.87334 38.83125 97.87334Q38.1125 97.87334 37.675 98.48271Q37.128124 99.26396 37.128124 101.38896Z" fill-rule="nonzero"/><path fill="#000000" d="M23.01875 55.916668L21.971874 55.916668L21.971874 49.197918Q21.58125 49.557293 20.95625 49.932293Q20.346874 50.291668 19.8625 50.463543L19.8625 49.447918Q20.7375 49.026043 21.39375 48.447918Q22.065624 47.854168 22.346874 47.291668L23.01875 47.291668L23.01875 55.916668ZM26.64375 55.916668L26.64375 54.713543L27.846874 54.713543L27.846874 55.916668L26.64375 55.916668ZM34.596874 54.901043L34.596874 55.916668L28.909374 55.916668Q28.909374 55.541668 29.034374 55.182293Q29.253124 54.604168 29.721874 54.041668Q30.20625 53.479168 31.1125 52.744793Q32.51875 51.588543 33.003124 50.916668Q33.503124 50.244793 33.503124 49.651043Q33.503124 49.026043 33.05 48.604168Q32.596874 48.166668 31.878124 48.166668Q31.1125 48.166668 30.659374 48.619793Q30.20625 49.072918 30.190624 49.885418L29.1125 49.776043Q29.221874 48.557293 29.940624 47.932293Q30.675 47.291668 31.909374 47.291668Q33.14375 47.291668 33.8625 47.979168Q34.58125 48.666668 34.58125 49.682293Q34.58125 50.197918 34.3625 50.697918Q34.159374 51.182293 33.659374 51.744793Q33.175 52.291668 32.05 53.244793Q31.096874 54.041668 30.815624 54.338543Q30.55 54.619793 30.378124 54.901043L34.596874 54.901043ZM36.05 53.666668L37.159374 53.572918Q37.284374 54.385418 37.721874 54.791668Q38.175 55.197918 38.815624 55.197918Q39.565624 55.197918 40.096874 54.619793Q40.628124 54.041668 40.628124 53.104168Q40.628124 52.197918 40.1125 51.682293Q39.6125 51.151043 38.784374 51.151043Q38.284374 51.151043 37.8625 51.385418Q37.45625 51.619793 37.221874 51.979168L36.2375 51.854168L37.065624 47.447918L41.346874 47.447918L41.346874 48.447918L37.909374 48.447918L37.45625 50.760418Q38.221874 50.213543 39.065624 50.213543Q40.190624 50.213543 40.95625 50.994793Q41.7375 51.776043 41.7375 53.010418Q41.7375 54.166668 41.065624 55.026043Q40.2375 56.057293 38.815624 56.057293Q37.64375 56.057293 36.89375 55.401043Q36.159374 54.744793 36.05 53.666668Z" fill-rule="nonzero"/><path fill="#000000" d="M156.9 317.45L156.9 308.85626L158.025 308.85626L158.025 317.45L156.9 317.45ZM159.57187 317.45L159.57187 311.23126L160.50937 311.23126L160.50937 312.10626Q161.19687 311.09064 162.49374 311.09064Q163.05624 311.09064 163.525 311.29376Q164.00937 311.4969 164.24374 311.825Q164.47812 312.15314 164.57187 312.59064Q164.61874 312.8875 164.61874 313.6219L164.61874 317.45L163.57187 317.45L163.57187 313.66876Q163.57187 313.0125 163.44687 312.7Q163.32187 312.3875 163.00937 312.2Q162.69687 311.9969 162.275 311.9969Q161.60312 311.9969 161.10312 312.4344Q160.61874 312.85626 160.61874 314.04376L160.61874 317.45L159.57187 317.45ZM166.82187 317.45L166.82187 312.04376L165.88437 312.04376L165.88437 311.23126L166.82187 311.23126L166.82187 310.5594Q166.82187 309.9344 166.93124 309.6375Q167.0875 309.21564 167.4625 308.96564Q167.85312 308.71564 168.54062 308.71564Q168.99374 308.71564 169.525 308.825L169.36874 309.73126Q169.04062 309.6844 168.74374 309.6844Q168.25937 309.6844 168.05624 309.8875Q167.86874 310.09064 167.86874 310.65314L167.86874 311.23126L169.0875 311.23126L169.0875 312.04376L167.86874 312.04376L167.86874 317.45L166.82187 317.45ZM169.18124 314.34064Q169.18124 312.60626 170.13437 311.77814Q170.93124 311.09064 172.0875 311.09064Q173.36874 311.09064 174.18124 311.9344Q175.00937 312.7625 175.00937 314.2469Q175.00937 315.45 174.65 316.1375Q174.29062 316.825 173.5875 317.21564Q172.9 317.59064 172.0875 317.59064Q170.79062 317.59064 169.97812 316.7625Q169.18124 315.91876 169.18124 314.34064ZM170.25937 314.34064Q170.25937 315.52814 170.775 316.1219Q171.30624 316.71564 172.0875 316.71564Q172.88437 316.71564 173.4 316.1219Q173.91562 315.52814 173.91562 314.3094Q173.91562 313.15314 173.38437 312.5594Q172.86874 311.96564 172.0875 311.96564Q171.30624 311.96564 170.775 312.5594Q170.25937 313.1375 170.25937 314.34064ZM176.55624 317.45L176.55624 311.23126L177.50937 311.23126L177.50937 312.16876Q177.86874 311.5125 178.16562 311.3094Q178.47812 311.09064 178.85312 311.09064Q179.38437 311.09064 179.93124 311.41876L179.57187 312.40314Q179.18124 312.16876 178.80624 312.16876Q178.44687 312.16876 178.16562 312.3875Q177.9 312.59064 177.79062 312.96564Q177.60312 313.52814 177.60312 314.1844L177.60312 317.45L176.55624 317.45ZM180.57187 317.45L180.57187 311.23126L181.50937 311.23126L181.50937 312.10626Q181.80624 311.6375 182.29062 311.3719Q182.775 311.09064 183.4 311.09064Q184.0875 311.09064 184.525 311.3719Q184.97812 311.65314 185.15 312.16876Q185.9 311.09064 187.07187 311.09064Q188.00937 311.09064 188.49374 311.60626Q188.99374 312.10626 188.99374 313.1844L188.99374 317.45L187.94687 317.45L187.94687 313.52814Q187.94687 312.90314 187.8375 312.6219Q187.74374 312.34064 187.47812 312.16876Q187.2125 311.9969 186.8375 311.9969Q186.18124 311.9969 185.74374 312.4344Q185.32187 312.8719 185.32187 313.84064L185.32187 317.45L184.25937 317.45L184.25937 313.40314Q184.25937 312.7 183.99374 312.35626Q183.74374 311.9969 183.16562 311.9969Q182.7125 311.9969 182.3375 312.23126Q181.9625 312.46564 181.79062 312.91876Q181.61874 313.3719 181.61874 314.21564L181.61874 317.45L180.57187 317.45ZM195.82187 315.45L196.91562 315.575Q196.66562 316.52814 195.9625 317.0594Q195.25937 317.59064 194.18124 317.59064Q192.82187 317.59064 192.00937 316.7469Q191.2125 315.90314 191.2125 314.3875Q191.2125 312.825 192.025 311.96564Q192.8375 311.09064 194.11874 311.09064Q195.36874 311.09064 196.15 311.9344Q196.94687 312.77814 196.94687 314.325Q196.94687 314.41876 196.94687 314.60626L192.30624 314.60626Q192.36874 315.6375 192.88437 316.1844Q193.4 316.71564 194.18124 316.71564Q194.75937 316.71564 195.16562 316.41876Q195.5875 316.10626 195.82187 315.45ZM192.36874 313.7469L195.8375 313.7469Q195.775 312.95 195.44687 312.5594Q194.93124 311.95 194.13437 311.95Q193.4 311.95 192.9 312.4344Q192.41562 312.91876 192.36874 313.7469ZM205.24374 317.45L204.19687 317.45L204.19687 310.73126Q203.80624 311.09064 203.18124 311.46564Q202.57187 311.825 202.0875 311.9969L202.0875 310.98126Q202.9625 310.5594 203.61874 309.98126Q204.29062 309.3875 204.57187 308.825L205.24374 308.825L205.24374 317.45Z" fill-rule="nonzero"/><path fill="#000000" d="M423.35 317.45L423.35 308.85626L424.475 308.85626L424.475 317.45L423.35 317.45ZM426.02188 317.45L426.02188 311.23126L426.95938 311.23126L426.95938 312.10626Q427.64688 311.09064 428.94376 311.09064Q429.50626 311.09064 429.975 311.29376Q430.45938 311.4969 430.69376 311.825Q430.92813 312.15314 431.02188 312.59064Q431.06876 312.8875 431.06876 313.6219L431.06876 317.45L430.02188 317.45L430.02188 313.66876Q430.02188 313.0125 429.89688 312.7Q429.77188 312.3875 429.45938 312.2Q429.14688 311.9969 428.725 311.9969Q428.05313 311.9969 427.55313 312.4344Q427.06876 312.85626 427.06876 314.04376L427.06876 317.45L426.02188 317.45ZM433.27188 317.45L433.27188 312.04376L432.33438 312.04376L432.33438 311.23126L433.27188 311.23126L433.27188 310.5594Q433.27188 309.9344 433.38126 309.6375Q433.5375 309.21564 433.9125 308.96564Q434.30313 308.71564 434.99063 308.71564Q435.44376 308.71564 435.975 308.825L435.81876 309.73126Q435.49063 309.6844 435.19376 309.6844Q434.70938 309.6844 434.50626 309.8875Q434.31876 310.09064 434.31876 310.65314L434.31876 311.23126L435.5375 311.23126L435.5375 312.04376L434.31876 312.04376L434.31876 317.45L433.27188 317.45ZM435.63126 314.34064Q435.63126 312.60626 436.58438 311.77814Q437.38126 311.09064 438.5375 311.09064Q439.81876 311.09064 440.63126 311.9344Q441.45938 312.7625 441.45938 314.2469Q441.45938 315.45 441.1 316.1375Q440.74063 316.825 440.0375 317.21564Q439.35 317.59064 438.5375 317.59064Q437.24063 317.59064 436.42813 316.7625Q435.63126 315.91876 435.63126 314.34064ZM436.70938 314.34064Q436.70938 315.52814 437.225 316.1219Q437.75626 316.71564 438.5375 316.71564Q439.33438 316.71564 439.85 316.1219Q440.36563 315.52814 440.36563 314.3094Q440.36563 313.15314 439.83438 312.5594Q439.31876 311.96564 438.5375 311.96564Q437.75626 311.96564 437.225 312.5594Q436.70938 313.1375 436.70938 314.34064ZM443.00626 317.45L443.00626 311.23126L443.95938 311.23126L443.95938 312.16876Q444.31876 311.5125 444.61563 311.3094Q444.92813 311.09064 445.30313 311.09064Q445.83438 311.09064 446.38126 311.41876L446.02188 312.40314Q445.63126 312.16876 445.25626 312.16876Q444.89688 312.16876 444.61563 312.3875Q444.35 312.59064 444.24063 312.96564Q444.05313 313.52814 444.05313 314.1844L444.05313 317.45L443.00626 317.45ZM447.02188 317.45L447.02188 311.23126L447.95938 311.23126L447.95938 312.10626Q448.25626 311.6375 448.74063 311.3719Q449.225 311.09064 449.85 311.09064Q450.5375 311.09064 450.975 311.3719Q451.42813 311.65314 451.6 312.16876Q452.35 311.09064 453.52188 311.09064Q454.45938 311.09064 454.94376 311.60626Q455.44376 312.10626 455.44376 313.1844L455.44376 317.45L454.39688 317.45L454.39688 313.52814Q454.39688 312.90314 454.2875 312.6219Q454.19376 312.34064 453.92813 312.16876Q453.6625 311.9969 453.2875 311.9969Q452.63126 311.9969 452.19376 312.4344Q451.77188 312.8719 451.77188 313.84064L451.77188 317.45L450.70938 317.45L450.70938 313.40314Q450.70938 312.7 450.44376 312.35626Q450.19376 311.9969 449.61563 311.9969Q449.1625 311.9969 448.7875 312.23126Q448.4125 312.46564 448.24063 312.91876Q448.06876 313.3719 448.06876 314.21564L448.06876 317.45L447.02188 317.45ZM462.27188 315.45L463.36563 315.575Q463.11563 316.52814 462.4125 317.0594Q461.70938 317.59064 460.63126 317.59064Q459.27188 317.59064 458.45938 316.7469Q457.6625 315.90314 457.6625 314.3875Q457.6625 312.825 458.475 311.96564Q459.2875 311.09064 460.56876 311.09064Q461.81876 311.09064 462.6 311.9344Q463.39688 312.77814 463.39688 314.325Q463.39688 314.41876 463.39688 314.60626L458.75626 314.60626Q458.81876 315.6375 459.33438 316.1844Q459.85 316.71564 460.63126 316.71564Q461.20938 316.71564 461.61563 316.41876Q462.0375 316.10626 462.27188 315.45ZM458.81876 313.7469L462.2875 313.7469Q462.225 312.95 461.89688 312.5594Q461.38126 311.95 460.58438 311.95Q459.85 311.95 459.35 312.4344Q458.86563 312.91876 458.81876 313.7469ZM473.27188 316.4344L473.27188 317.45L467.58438 317.45Q467.58438 317.075 467.70938 316.71564Q467.92813 316.1375 468.39688 315.575Q468.88126 315.0125 469.7875 314.27814Q471.19376 313.1219 471.67813 312.45Q472.17813 311.77814 472.17813 311.1844Q472.17813 310.5594 471.725 310.1375Q471.27188 309.7 470.55313 309.7Q469.7875 309.7 469.33438 310.15314Q468.88126 310.60626 468.86563 311.41876L467.7875 311.3094Q467.89688 310.09064 468.61563 309.46564Q469.35 308.825 470.58438 308.825Q471.81876 308.825 472.5375 309.5125Q473.25626 310.2 473.25626 311.21564Q473.25626 311.73126 473.0375 312.23126Q472.83438 312.71564 472.33438 313.27814Q471.85 313.825 470.725 314.77814Q469.77188 315.575 469.49063 315.8719Q469.225 316.15314 469.05313 316.4344L473.27188 316.4344Z" fill-rule="nonzero"/><path stroke="#4285f4" stroke-width="4.0" stroke-linecap="butt" d="M252.5 25.55L264.5 25.55" fill-rule="nonzero"/><path fill="#1a1a1a" d="M279.5625 26.534374L280.6875 26.83125Q280.32812 28.221874 279.40625 28.95625Q278.48438 29.690624 277.14062 29.690624Q275.75 29.690624 274.875 29.128124Q274.0 28.565624 273.54688 27.503124Q273.09375 26.425 273.09375 25.190624Q273.09375 23.846874 273.60938 22.846874Q274.125 21.846874 275.0625 21.33125Q276.01562 20.815624 277.15625 20.815624Q278.4375 20.815624 279.3125 21.471874Q280.20312 22.128124 280.54688 23.315624L279.42188 23.58125Q279.125 22.64375 278.54688 22.221874Q277.98438 21.784374 277.125 21.784374Q276.14062 21.784374 275.46875 22.26875Q274.8125 22.7375 274.53125 23.534374Q274.26562 24.33125 274.26562 25.190624Q274.26562 26.284374 274.57812 27.096874Q274.90625 27.909374 275.57812 28.315624Q276.25 28.721874 277.04688 28.721874Q278.0 28.721874 278.65625 28.175Q279.32812 27.628124 279.5625 26.534374ZM282.42188 29.55L282.42188 20.95625L285.67188 20.95625Q286.51562 20.95625 286.96875 21.034374Q287.60938 21.14375 288.03125 21.440624Q288.46875 21.7375 288.71875 22.26875Q288.98438 22.8 288.98438 23.440624Q288.98438 24.534374 288.28125 25.3Q287.59375 26.05 285.76562 26.05L283.5625 26.05L283.5625 29.55L282.42188 29.55ZM283.5625 25.05L285.78125 25.05Q286.89062 25.05 287.34375 24.64375Q287.8125 24.221874 287.8125 23.471874Q287.8125 22.940624 287.53125 22.565624Q287.26562 22.175 286.82812 22.05Q286.53125 21.971874 285.76562 21.971874L283.5625 21.971874L283.5625 25.05ZM290.625 29.55L290.625 20.95625L291.75 20.95625L291.75 29.55L290.625 29.55Z" fill-rule="nonzero"/><path stroke="#ea4335" stroke-width="4.0" stroke-linecap="butt" d="M308.5 25.55L320.5 25.55" fill-rule="nonzero"/><path fill="#1a1a1a" d="M329.04688 26.784374L330.10938 26.690624Q330.1875 27.346874 330.46875 27.753124Q330.75 28.159374 331.32812 28.425Q331.92188 28.675 332.65625 28.675Q333.29688 28.675 333.79688 28.4875Q334.29688 28.284374 334.53125 27.95625Q334.78125 27.6125 334.78125 27.221874Q334.78125 26.815624 334.54688 26.51875Q334.3125 26.20625 333.78125 26.003124Q333.42188 25.8625 332.23438 25.58125Q331.0625 25.3 330.59375 25.05Q329.96875 24.721874 329.67188 24.253124Q329.375 23.76875 329.375 23.175Q329.375 22.534374 329.73438 21.971874Q330.10938 21.39375 330.8125 21.1125Q331.53125 20.815624 332.39062 20.815624Q333.34375 20.815624 334.07812 21.128124Q334.8125 21.425 335.20312 22.034374Q335.59375 22.628124 335.625 23.378124L334.53125 23.45625Q334.4375 22.64375 333.92188 22.2375Q333.42188 21.815624 332.4375 21.815624Q331.40625 21.815624 330.9375 22.190624Q330.46875 22.565624 330.46875 23.096874Q330.46875 23.565624 330.79688 23.8625Q331.125 24.159374 332.5 24.471874Q333.89062 24.784374 334.40625 25.01875Q335.15625 25.378124 335.51562 25.909374Q335.875 26.425 335.875 27.128124Q335.875 27.815624 335.48438 28.425Q335.09375 29.01875 334.35938 29.3625Q333.625 29.690624 332.70312 29.690624Q331.53125 29.690624 330.73438 29.3625Q329.95312 29.01875 329.5 28.33125Q329.0625 27.64375 329.04688 26.784374ZM337.42188 29.55L337.42188 20.95625L340.67188 20.95625Q341.51562 20.95625 341.96875 21.034374Q342.60938 21.14375 343.03125 21.440624Q343.46875 21.7375 343.71875 22.26875Q343.98438 22.8 343.98438 23.440624Q343.98438 24.534374 343.28125 25.3Q342.59375 26.05 340.76562 26.05L338.5625 26.05L338.5625 29.55L337.42188 29.55ZM338.5625 25.05L340.78125 25.05Q341.89062 25.05 342.34375 24.64375Q342.8125 24.221874 342.8125 23.471874Q342.8125 22.940624 342.53125 22.565624Q342.26562 22.175 341.82812 22.05Q341.53125 21.971874 340.76562 21.971874L338.5625 21.971874L338.5625 25.05ZM345.625 29.55L345.625 20.95625L346.75 20.95625L346.75 29.55L345.625 29.55Z" fill-rule="nonzero"/></svg>